<svg width="76" height="78" viewBox="0 0 76 78" fill="none" xmlns="http://www.w3.org/2000/svg">
<mask id="mask0_387_134" style="mask-type:luminance" maskUnits="userSpaceOnUse" x="0" y="0" width="76" height="78">
<path d="M75.5556 0.466797H0.746094V77.55H75.5556V0.466797Z" fill="white"/>
</mask>
<g mask="url(#mask0_387_134)">
<path d="M75.5478 0.466797H0.738281V77.55H75.5478V0.466797Z" fill="white"/>
<path fill-rule="evenodd" clip-rule="evenodd" d="M48.247 41.7534L48.5111 41.7727C48.5111 41.7727 48.4804 41.78 48.4219 41.7921C48.4804 41.8042 48.5111 41.8114 48.5111 41.8114L48.247 41.8308C46.9158 42.1232 40.9607 43.5517 39.9116 45.9737C39.9116 45.9737 39.6529 44.6998 37.2942 42.7758C38.0873 43.9216 38.3181 45.0552 38.3694 45.4419C38.4028 45.6884 38.3442 45.686 38.1459 45.8238C38.1459 45.8238 37.9431 45.7755 37.9404 45.7755C37.8052 45.6812 37.8314 45.657 37.78 45.4975C37.6096 44.9633 36.994 43.4696 35.4636 42.5607H35.1328C35.5015 43.1963 35.6484 43.8103 35.6997 44.1849C35.6997 44.1922 35.7106 44.272 35.7106 44.2768C35.6943 44.3517 35.7042 44.4364 35.6619 44.4992C35.6601 44.5016 35.4753 44.6225 35.4753 44.6225C35.4032 44.6056 35.3212 44.6152 35.2608 44.5742C35.2419 44.562 35.1932 44.5258 35.1211 44.33C34.9228 43.7837 34.4424 43.0176 33.6772 42.5607L21.01 42.5196C20.7487 43.0102 20.2448 43.3414 19.6671 43.3414C19.0605 43.3414 18.5359 42.9764 18.2881 42.4446C18.2349 42.4567 18.1808 42.464 18.1231 42.464C15.5895 42.4157 12.8234 44.4846 12.7161 44.5644L12.7143 44.5668C12.4827 44.7409 12.1726 44.7409 11.9419 44.5668C11.9419 44.5668 11.2046 44.0133 10.1347 43.4719C9.25324 43.0248 8.1401 42.5776 7.03508 42.4833C6.69618 44.1994 5.22974 45.4926 3.47307 45.4926C1.46763 45.4926 -0.160156 43.8055 -0.160156 41.7267C-0.160156 39.6481 1.46763 37.961 3.47307 37.961C5.24867 37.961 6.72953 39.2831 7.0468 41.0283C9.42538 40.8252 11.8391 39.0196 11.9374 38.9447L11.9401 38.9423C12.1708 38.7682 12.4809 38.7682 12.7116 38.9423L12.7143 38.9447C12.8216 39.0245 15.5877 41.0935 18.1204 41.0452C18.1763 41.0452 18.2322 41.05 18.2863 41.0645C18.5359 40.5351 19.0578 40.1677 19.6644 40.1677C20.243 40.1677 20.7469 40.5013 21.0082 40.9895L33.6745 41.0307C33.7772 40.9702 33.8917 40.8928 34.0035 40.8058C34.8669 40.1194 35.1211 39.242 35.1418 39.2106C35.1815 39.1477 35.2022 39.0631 35.2608 39.0196C35.2635 39.0172 35.4753 38.9688 35.478 38.9712C35.5384 39.0124 35.6204 39.0317 35.6619 39.0946C35.7439 39.2154 35.7205 39.2275 35.7042 39.3725C35.6502 39.8245 35.4681 40.4506 35.1346 41.0331H35.4636C35.9485 40.7455 36.9634 40.0251 37.6141 38.5313C37.6655 38.4129 37.7421 38.2195 37.7917 38.0552C37.8332 37.915 37.8214 37.9005 37.9386 37.8159C37.9404 37.8135 38.1432 37.7675 38.1432 37.7675C38.2018 37.8087 38.2793 37.8304 38.319 37.8908C38.3974 38.0093 38.3839 38.0189 38.365 38.1615C38.2811 38.7537 38.008 39.665 37.4997 40.4965C37.4366 40.598 37.369 40.7043 37.2924 40.8155C39.6484 38.8891 39.9089 37.6152 39.9089 37.6152C40.9589 40.0396 46.9131 41.4657 48.2452 41.7581L48.247 41.7534ZM12.3294 43.194C12.854 42.8459 13.8662 42.2247 15.0631 41.751C13.8644 41.2748 12.8522 40.6536 12.3267 40.3056C11.8049 40.6536 10.7972 41.27 9.60294 41.7461C9.99501 41.9009 10.3682 42.0725 10.7107 42.2465C11.4083 42.5994 11.9797 42.9595 12.3294 43.194ZM5.29013 41.7196C5.29013 40.6802 4.47624 39.8366 3.47398 39.8366C2.47081 39.8366 1.65691 40.6802 1.65691 41.7196C1.65691 42.7589 2.47081 43.6025 3.47398 43.6025C4.47624 43.6025 5.29013 42.7589 5.29013 41.7196Z" fill="black"/>
<path fill-rule="evenodd" clip-rule="evenodd" d="M80.6907 56.143L80.9593 56.1643C80.9593 56.1643 80.9277 56.1727 80.8692 56.1857C80.9277 56.1996 80.9593 56.2071 80.9593 56.2071L80.6907 56.2284C79.3342 56.5535 73.2692 58.1406 72.2003 60.8321C72.2003 60.8321 71.9371 59.4167 69.5351 57.2788C70.3427 58.5521 70.5779 59.8114 70.6302 60.2414C70.6635 60.5154 70.604 60.5126 70.4021 60.6658C70.4021 60.6658 70.1957 60.6119 70.193 60.6119C70.0551 60.507 70.0813 60.4801 70.029 60.3027C69.8559 59.7092 69.2286 58.0496 67.6702 57.0401H67.3331C67.7081 57.7459 67.8577 58.4285 67.91 58.8446C67.91 58.853 67.9217 58.9412 67.9217 58.9468C67.9055 59.0304 67.9154 59.1242 67.8721 59.1938C67.8694 59.1966 67.682 59.3303 67.682 59.3303C67.609 59.3118 67.5251 59.3229 67.4638 59.2774C67.4449 59.2635 67.3944 59.2235 67.3214 59.0062C67.1195 58.3988 66.6301 57.5472 65.8505 57.0401L52.949 56.9946C52.6831 57.5398 52.1703 57.9075 51.5808 57.9075C50.9634 57.9075 50.4289 57.5017 50.1765 56.911C50.1224 56.924 50.0675 56.9324 50.008 56.9324C47.4284 56.8785 44.6109 59.178 44.5018 59.2662L44.4991 59.269C44.2639 59.4622 43.9484 59.4622 43.7132 59.269C43.7132 59.269 42.9624 58.6542 41.8718 58.0524C40.9741 57.5556 39.8411 57.0587 38.7154 56.9537C38.3702 58.8604 36.8767 60.2971 35.0875 60.2971C33.0442 60.2971 31.3867 58.423 31.3867 56.1133C31.3867 53.8036 33.0442 51.9294 35.0875 51.9294C36.8956 51.9294 38.4035 53.3977 38.7271 55.3369C41.1498 55.1112 43.6086 53.1052 43.7087 53.0225L43.7105 53.0197C43.9457 52.8256 44.2621 52.8256 44.4973 53.0197L44.4991 53.0225C44.6091 53.1107 47.4257 55.4093 50.0062 55.3564C50.063 55.3564 50.1197 55.361 50.1747 55.3777C50.4289 54.7889 50.9607 54.3812 51.5781 54.3812C52.1675 54.3812 52.6804 54.7518 52.9472 55.2941L65.8487 55.3396C65.9532 55.2728 66.0695 55.1864 66.1831 55.0898C67.0618 54.3273 67.3214 53.3522 67.3422 53.3178C67.3827 53.2473 67.4043 53.1535 67.4638 53.1052C67.4656 53.1024 67.682 53.0485 67.6847 53.0513C67.7459 53.0977 67.8298 53.1191 67.8721 53.1887C67.9551 53.3225 67.9316 53.3364 67.9154 53.4971C67.8604 53.9995 67.6747 54.6951 67.3349 55.3424H67.6702C68.1642 55.0229 69.198 54.2224 69.8604 52.5628C69.9127 52.4309 69.9911 52.2164 70.0407 52.0334C70.084 51.8783 70.0723 51.8616 70.1912 51.7678C70.193 51.765 70.3994 51.7139 70.3994 51.7139C70.4589 51.7595 70.5373 51.7836 70.5779 51.8514C70.659 51.9823 70.6446 51.9935 70.6257 52.1523C70.54 52.8098 70.2624 53.8221 69.7442 54.7462C69.6802 54.8595 69.6108 54.9774 69.5324 55.101C71.9317 52.9603 72.1985 51.5449 72.1985 51.5449C73.2674 54.2391 79.3315 55.8235 80.688 56.1486L80.6907 56.143ZM44.108 57.7432C44.6424 57.3568 45.6735 56.6668 46.8921 56.1402C45.6708 55.6108 44.6397 54.9208 44.1052 54.5345C43.5735 54.9208 42.5469 55.6062 41.331 56.1346C41.7294 56.3064 42.1097 56.4977 42.4594 56.6909C43.1697 57.0828 43.751 57.4831 44.108 57.7432ZM36.938 56.1049C36.938 54.9505 36.1096 54.0134 35.0875 54.0134C34.0663 54.0134 33.2371 54.9505 33.2371 56.1049C33.2371 57.2602 34.0663 58.1973 35.0875 58.1973C36.1096 58.1973 36.938 57.2602 36.938 56.1049Z" fill="black"/>
<path d="M5.35756 23.684C5.30438 23.684 5.26472 23.6635 5.23858 23.6227C5.22506 23.5818 5.21875 23.5205 5.21875 23.4388C5.21875 23.3025 5.26472 23.2345 5.35756 23.2345H5.57568C6.05158 23.2345 6.44815 23.1187 6.76542 22.8871C7.08268 22.6419 7.24131 22.172 7.24131 21.4773V10.7711C7.24131 10.0765 7.08268 9.61331 6.76542 9.38178C6.44815 9.1366 6.05158 9.01401 5.57568 9.01401H5.35756C5.30438 9.01401 5.26472 8.99358 5.23858 8.95272C5.22506 8.91185 5.21875 8.85056 5.21875 8.76883V8.72797C5.21875 8.67345 5.25841 8.63259 5.33773 8.60538C5.41704 8.57817 5.50266 8.56452 5.5955 8.56452C6.44094 8.5373 7.77669 8.52365 9.60096 8.52365C11.0016 8.52365 11.921 8.5373 12.3572 8.56452C13.4144 8.63259 14.4789 8.93229 15.5497 9.46351C16.6204 9.99473 17.5191 10.8188 18.2464 11.9357C18.9864 13.0391 19.3569 14.4352 19.3569 16.1242C19.3569 17.8133 18.9864 19.2162 18.2464 20.3332C17.5191 21.4365 16.6204 22.2537 15.5497 22.785C14.4789 23.3162 13.4144 23.6159 12.3572 23.684C11.9336 23.7112 11.035 23.7248 9.66046 23.7248C8.36436 23.7248 6.93036 23.7112 5.35756 23.684ZM11.802 23.071C12.5158 23.071 13.2098 22.8804 13.884 22.4989C14.5582 22.1175 15.1261 21.4093 15.5893 20.374C16.0652 19.3388 16.3032 17.9222 16.3032 16.1242C16.3032 14.3263 16.0652 12.9097 15.5893 11.8744C15.1261 10.8392 14.5582 10.131 13.884 9.74955C13.2098 9.36813 12.5158 9.17747 11.802 9.17747H11.6632C11.0548 9.17747 10.6321 9.27284 10.3941 9.46351C10.1562 9.65417 10.0372 9.98795 10.0372 10.4647V21.7838C10.0372 22.2742 10.1562 22.6147 10.3941 22.8054C10.6321 22.9825 11.0548 23.071 11.6632 23.071H11.802ZM37.1552 21.5795C37.221 21.5795 37.2805 21.6067 37.3337 21.6612C37.3859 21.7021 37.413 21.7497 37.413 21.8042C37.413 21.8451 37.3859 21.8996 37.3337 21.9677C36.3548 23.3025 35.1056 23.97 33.586 23.97C32.6603 23.97 31.768 23.7044 30.9091 23.1732C30.7766 23.1051 30.6711 23.071 30.5918 23.071C30.5251 23.071 30.4395 23.0914 30.334 23.1323C29.1966 23.6635 27.9212 23.9291 26.507 23.9291C25.4759 23.9291 24.5962 23.7657 23.8698 23.4388C23.1424 23.0982 22.5935 22.6487 22.2239 22.0903C21.867 21.5319 21.6886 20.9189 21.6886 20.2514C21.6886 19.2979 22.0058 18.4739 22.6404 17.7792C23.2875 17.0709 24.1996 16.3966 25.3768 15.7565C25.5354 15.6747 25.6147 15.5589 25.6147 15.4091C25.6147 15.3138 25.6012 15.2389 25.5751 15.1844C25.165 14.1219 24.9603 13.1412 24.9603 12.2422C24.9603 11.5203 25.119 10.8665 25.4362 10.2808C25.7661 9.68148 26.2222 9.21155 26.8045 8.87099C27.3858 8.51687 28.0537 8.33977 28.8072 8.33977C29.4814 8.33977 30.1159 8.45558 30.7108 8.68711C31.3183 8.90508 31.8014 9.22511 32.1583 9.6474C32.5278 10.0697 32.7135 10.5668 32.7135 11.1389C32.7135 11.8608 32.4161 12.4874 31.8212 13.0186C31.2263 13.5498 30.3602 14.0947 29.2236 14.6532C29.0514 14.7349 28.9658 14.8507 28.9658 15.0005C28.9658 15.0686 28.9856 15.1435 29.0253 15.2252L29.4814 16.1242L29.7788 16.6963C30.4656 18.0176 31.2191 19.2231 32.0393 20.3127C32.1448 20.4353 32.2439 20.4966 32.3368 20.4966C32.4557 20.4966 32.5549 20.4353 32.6342 20.3127C33.0172 19.7952 33.3084 19.2571 33.5067 18.6986C33.7176 18.1402 33.8239 17.6225 33.8239 17.1458C33.8239 16.6009 33.6653 16.1855 33.348 15.8995C33.0308 15.6134 32.5747 15.4704 31.9798 15.4704C31.8735 15.4704 31.8212 15.3887 31.8212 15.2252C31.8212 15.0754 31.8735 15.0005 31.9798 15.0005H36.9569C37.0488 15.0005 37.0957 15.0754 37.0957 15.2252C37.0957 15.3887 37.0488 15.4704 36.9569 15.4704C35.7798 15.4704 35.0533 16.0902 34.7757 17.3297C34.4711 18.7054 33.9096 19.9178 33.0903 20.9665C33.0109 21.0619 32.9713 21.1641 32.9713 21.273C32.9713 21.382 33.0172 21.4841 33.1101 21.5795C33.8762 22.3423 34.5306 22.7237 35.0732 22.7237C35.4301 22.7237 35.76 22.6352 36.0646 22.4581C36.3684 22.2674 36.6793 22.0018 36.9966 21.6612C37.0488 21.6067 37.102 21.5795 37.1552 21.5795ZM29.0253 9.03445C28.5891 9.03445 28.2321 9.21833 27.9545 9.5861C27.6769 9.95387 27.5381 10.4238 27.5381 10.9959C27.5381 11.636 27.7887 12.5283 28.2916 13.6724C28.3709 13.8495 28.4764 13.9381 28.6089 13.9381C28.7143 13.9381 28.8 13.9108 28.8667 13.8563C29.5012 13.434 29.9636 12.9982 30.2547 12.5487C30.5585 12.0992 30.7108 11.5884 30.7108 11.0163C30.7108 10.4442 30.5648 9.9743 30.2745 9.60653C29.9969 9.22511 29.5805 9.03445 29.0253 9.03445ZM28.0933 22.6828C28.5161 22.6828 28.9063 22.642 29.2632 22.5602C29.4615 22.5194 29.5607 22.4172 29.5607 22.2537C29.5607 22.1584 29.5138 22.0631 29.4219 21.9677C28.4827 20.9733 27.6301 19.6657 26.8639 18.0448L26.5665 17.4319L26.2096 16.6963C26.1303 16.5329 26.0239 16.4511 25.8923 16.4511C25.813 16.4511 25.7265 16.4852 25.6345 16.5533C25.2109 16.9074 24.9135 17.2821 24.7422 17.6771C24.5701 18.0585 24.4845 18.5011 24.4845 19.0051C24.4845 20.1084 24.8143 21.0006 25.4759 21.6817C26.1501 22.3491 27.0226 22.6828 28.0933 22.6828ZM45.8773 23.9496C44.912 23.9496 43.7817 23.6772 42.4865 23.1323C42.3144 23.0506 42.1494 23.0097 41.9908 23.0097C41.7393 23.0097 41.4356 23.1527 41.0787 23.4388C40.9597 23.5342 40.8668 23.5818 40.801 23.5818C40.6559 23.5818 40.5631 23.4796 40.5234 23.2753L39.7501 19.8632L39.7104 19.6589C39.7104 19.6317 39.724 19.6044 39.7501 19.5772C39.7898 19.55 39.8231 19.5296 39.8492 19.5159C39.8889 19.5023 39.915 19.4887 39.9286 19.475C39.9547 19.4614 39.9944 19.4546 40.0475 19.4546C40.1007 19.4546 40.1728 19.5091 40.2657 19.6181C40.9398 20.5988 41.7132 21.4228 42.5857 22.0903C43.4581 22.7441 44.4829 23.071 45.6592 23.071C46.5055 23.071 47.186 22.853 47.7015 22.4172C48.2171 21.9677 48.4749 21.3275 48.4749 20.4966C48.4749 19.4614 47.9134 18.7054 46.7894 18.2287C46.2739 17.9972 45.6258 17.7588 44.8462 17.5136C44.7137 17.4727 44.3838 17.3569 43.8547 17.1663C43.3256 16.9756 42.8569 16.7713 42.4468 16.5533C41.7069 16.1583 41.1517 15.6475 40.7812 15.0209C40.4108 14.3943 40.226 13.6792 40.226 12.8756C40.226 12.2354 40.3711 11.568 40.6622 10.8733C40.9534 10.1786 41.4554 9.5861 42.1692 9.09574C42.8966 8.59173 43.8484 8.33977 45.0246 8.33977C45.4473 8.33977 45.8511 8.38741 46.2342 8.48279C46.6308 8.57817 47.1067 8.72797 47.6619 8.93229C47.8863 9.01401 48.072 9.05488 48.2171 9.05488C48.4812 9.05488 48.7263 8.9595 48.9508 8.76883C49.0562 8.67345 49.1554 8.62581 49.2482 8.62581C49.3807 8.62581 49.4663 8.71432 49.506 8.89142L50.3586 11.8949C50.3586 11.9221 50.3649 11.9698 50.3785 12.0379C50.392 12.0924 50.3785 12.1401 50.3388 12.1809L50.2198 12.2422C50.1405 12.2694 50.081 12.2831 50.0414 12.2831C49.9756 12.2831 49.9089 12.2354 49.8431 12.1401C49.6844 11.8677 49.4005 11.4999 48.9904 11.0367C48.5803 10.56 48.0251 10.1173 47.3248 9.70869C46.6245 9.2864 45.8439 9.07531 44.985 9.07531C44.2315 9.07531 43.6501 9.23198 43.24 9.54524C42.8434 9.85849 42.5793 10.2058 42.4468 10.5873C42.3144 10.9687 42.2486 11.3024 42.2486 11.5884C42.2486 11.997 42.3477 12.3648 42.546 12.6917C42.7443 13.0186 43.0354 13.291 43.4185 13.509C43.7754 13.7133 44.2648 13.9244 44.8858 14.1424C45.5204 14.3603 45.8971 14.4897 46.0161 14.5306C46.1882 14.5851 46.5452 14.7077 47.0868 14.8983C47.6285 15.089 48.0846 15.2729 48.455 15.45C50.2397 16.2945 51.132 17.5681 51.132 19.2707C51.132 20.1425 50.9274 20.9325 50.5173 21.6408C50.1072 22.3491 49.506 22.9143 48.7128 23.3366C47.9197 23.7453 46.9742 23.9496 45.8773 23.9496ZM67.1926 23.2345C67.2719 23.2345 67.3115 23.3094 67.3115 23.4592C67.3115 23.609 67.2719 23.684 67.1926 23.684H60.3516C60.2587 23.684 60.2128 23.609 60.2128 23.4592C60.2128 23.3094 60.2587 23.2345 60.3516 23.2345C60.96 23.2073 61.3962 23.1323 61.6603 23.0097C61.9379 22.8735 62.0767 22.6692 62.0767 22.3968C62.0767 22.2333 61.9911 21.8996 61.8189 21.3956L60.9861 18.9234C60.9068 18.6919 60.7481 18.576 60.5102 18.576H56.4651C56.2271 18.576 56.0685 18.6919 55.9892 18.9234C55.4871 20.3264 55.2023 21.1641 55.1365 21.4365C55.0707 21.6271 55.0374 21.8247 55.0374 22.029C55.0374 22.4648 55.2222 22.7782 55.5926 22.9689C55.963 23.146 56.4389 23.2345 57.0203 23.2345C57.1131 23.2345 57.1591 23.3094 57.1591 23.4592C57.1591 23.609 57.1131 23.684 57.0203 23.684H51.9639C51.871 23.684 51.8251 23.609 51.8251 23.4592C51.8251 23.3094 51.871 23.2345 51.9639 23.2345C52.4263 23.2345 52.8499 23.0982 53.2329 22.8258C53.6295 22.5534 53.9468 22.1039 54.1847 21.4773C54.6868 20.1152 55.4078 18.1538 56.3461 15.593C57.2979 13.0186 58.0974 10.8324 58.7454 9.03445C58.8112 8.84378 58.95 8.71432 59.1618 8.64624L60.0541 8.38063C60.1596 8.33977 60.2524 8.31934 60.3317 8.31934C60.411 8.31934 60.4642 8.33299 60.4904 8.3602C60.53 8.40106 60.5562 8.45558 60.5697 8.52365C60.9798 9.7632 61.7396 12.0447 62.85 15.3683C63.9604 18.6919 64.6409 20.6805 64.8924 21.3343C65.1168 21.9336 65.3088 22.3627 65.4674 22.6215C65.6396 22.8667 65.8442 23.0302 66.0822 23.1119C66.3336 23.1936 66.7032 23.2345 67.1926 23.2345ZM56.5444 17.3501C56.5183 17.4319 56.5047 17.4932 56.5047 17.534C56.5047 17.6294 56.5381 17.7043 56.6039 17.7588C56.6697 17.8133 56.7625 17.8405 56.8815 17.8405H60.1334C60.2524 17.8405 60.3452 17.8133 60.411 17.7588C60.4768 17.7043 60.5102 17.6294 60.5102 17.534C60.5102 17.4932 60.4967 17.4319 60.4705 17.3501C59.9018 15.702 59.3538 14.0674 58.8247 12.4465C58.7715 12.2694 58.6994 12.1333 58.6066 12.0379C58.5273 11.929 58.4741 11.9085 58.448 11.9766L57.7143 14.0198L56.5444 17.3501Z" fill="black"/>
</g>
</svg>
