<svg width="185" height="53" viewBox="0 0 185 53" fill="none" xmlns="http://www.w3.org/2000/svg">
<path d="M70.3503 21.5264V22.0264H70.8503H72.1665C73.2749 22.0264 74.26 21.7755 74.9564 21.0436C75.6466 20.3183 75.9582 19.2193 75.9582 17.7448V12.7564C75.9582 11.3808 75.7228 10.2839 75.0748 9.53493C74.4108 8.76754 73.4138 8.47595 72.1665 8.47595H70.8503H70.3503V8.97595V21.5264ZM67.5664 6.27344H72.3313C74.441 6.27344 75.9822 6.70978 77.0167 7.63564C78.0423 8.55362 78.6622 10.037 78.7432 12.3452V18.156C78.6622 20.4642 78.0423 21.9479 77.0166 22.8662C75.9822 23.7923 74.4409 24.2289 72.3313 24.2289H67.5664V6.27344Z" fill="white" stroke="white"/>
<path fill-rule="evenodd" clip-rule="evenodd" d="M70.8503 21.5264H72.1665C74.2515 21.5264 75.4582 20.5804 75.4582 17.7448V12.7564C75.4582 10.0788 74.5246 8.97595 72.1665 8.97595H70.8503V21.5264ZM67.0664 5.77344H72.3313C76.6638 5.77344 79.0784 7.55813 79.2432 12.3365V18.1647C79.0784 22.9431 76.6638 24.7289 72.3313 24.7289H67.0664V5.77344Z" stroke="white" stroke-width="0.6"/>
<path d="M89.0111 17.7446V17.0517L88.3536 17.27C87.3048 17.6183 86.2173 18.0829 85.3817 18.6713C84.5624 19.2482 83.8706 20.0283 83.8706 21.0261C83.8706 21.6082 84.0589 22.1228 84.4427 22.4903C84.8235 22.8551 85.3422 23.0229 85.9058 23.0229C87.1498 23.0229 88.0136 22.3798 88.8572 21.571L89.0111 21.4234V21.2101V17.7446ZM86.7276 12.3623C85.6293 12.3623 84.6089 13.0488 84.3641 14.1199H81.9212C82.1294 12.9665 82.6984 12.1608 83.4654 11.6189C84.364 10.9842 85.5762 10.6836 86.8935 10.6836C88.6569 10.6836 89.7812 11.112 90.4644 11.7578C91.143 12.3992 91.4665 13.3312 91.4665 14.5161V23.5739C91.4665 23.7974 91.4891 24.017 91.5257 24.2287H89.1167C89.106 24.166 89.095 24.1001 89.0835 24.0304C89.08 24.0089 89.0764 23.9871 89.0728 23.9649C89.0379 23.7528 88.9983 23.512 88.9469 23.2438L88.7719 22.3315L88.1068 22.9799C87.1018 23.9598 85.7502 24.5028 84.3467 24.4906L84.3467 24.4906H84.3423C83.3839 24.4906 82.6662 24.2377 82.1903 23.7876C81.7193 23.3421 81.4141 22.636 81.4141 21.5781C81.4141 20.1324 82.1157 19.0901 83.3786 18.2342C84.6674 17.3608 86.4973 16.7151 88.6489 16.0985L89.0111 15.9947V15.6178V14.568C89.0111 13.8369 88.7706 13.2571 88.3128 12.8705C87.8697 12.4963 87.2927 12.3623 86.7276 12.3623Z" fill="white" stroke="white"/>
<path fill-rule="evenodd" clip-rule="evenodd" d="M88.5111 17.7446C86.4544 18.4275 84.3706 19.5292 84.3706 21.0261C84.3706 21.9721 84.9734 22.5229 85.9058 22.5229C86.9477 22.5229 87.6893 21.998 88.5111 21.2101V17.7446ZM81.3543 14.6199C81.5993 11.4434 84.1233 10.1836 86.8935 10.1836C90.5679 10.1836 91.9665 11.9683 91.9665 14.5161V23.5739C91.9665 23.9678 92.0489 24.3607 92.1584 24.7287H88.7042C88.6206 24.3607 88.5665 23.9148 88.4558 23.3379C87.3564 24.4099 85.8778 25.0039 84.3423 24.9906C82.2585 24.9906 80.9141 23.8888 80.9141 21.5781C80.9141 18.2706 84.2058 16.8516 88.5111 15.6178V14.568C88.5111 13.3342 87.7164 12.8623 86.7276 12.8623C85.6868 12.8623 84.8086 13.5961 84.8086 14.6199H81.3543Z" stroke="white" stroke-width="0.6"/>
<path d="M95.2075 13.2535H94.3359V11.5748H95.2075H95.7075V11.0748V7.69043H98.1629V11.0748V11.5748H98.6629H100.384V13.2535H98.6629H98.1629V13.7535V21.0526C98.1629 21.5843 98.4137 22.0034 98.8278 22.2657C99.2137 22.5102 99.7117 22.6024 100.226 22.6024H100.24C100.297 22.6024 100.355 22.6024 100.413 22.602V24.4216C99.9284 24.4745 99.4379 24.49 98.9372 24.49C97.8561 24.49 97.0441 24.2978 96.5145 23.9296C96.0175 23.5841 95.7075 23.0408 95.7075 22.1554V13.7535V13.2535H95.2075Z" fill="white" stroke="white"/>
<path fill-rule="evenodd" clip-rule="evenodd" d="M93.8359 13.7535V11.0748H95.2075V7.19043H98.6629V11.0748H100.884V13.7535H98.6629V21.0526C98.6629 21.7615 99.295 22.1024 100.226 22.1024C100.474 22.1024 100.692 22.1024 100.913 22.0764V24.859C100.255 24.964 99.5953 24.99 98.9372 24.99C96.6885 24.99 95.2075 24.202 95.2075 22.1554V13.7535H93.8359Z" stroke="white" stroke-width="0.6"/>
<path d="M110.817 17.7447L110.817 17.0517L110.159 17.27C109.11 17.6182 108.022 18.0828 107.186 18.6712C106.366 19.2481 105.674 20.0281 105.674 21.0261C105.674 21.6085 105.863 22.123 106.247 22.4905C106.628 22.8551 107.147 23.0229 107.71 23.0229C108.954 23.0229 109.818 22.3798 110.662 21.571L110.816 21.4234L110.816 21.2102L110.817 17.7447ZM108.532 12.3623C107.434 12.3623 106.414 13.0488 106.169 14.1199H103.725C103.934 12.9666 104.503 12.1609 105.27 11.619C106.169 10.9842 107.381 10.6836 108.697 10.6836C110.462 10.6836 111.587 11.112 112.27 11.7578C112.949 12.3992 113.272 13.3312 113.272 14.5161V23.5739C113.272 23.7974 113.295 24.017 113.331 24.2287H110.921C110.91 24.1661 110.9 24.1003 110.888 24.0307C110.885 24.0125 110.882 23.994 110.879 23.9754C110.844 23.7606 110.804 23.5164 110.752 23.2438L110.577 22.3314L109.911 22.98C108.907 23.9599 107.555 24.5029 106.151 24.4906L106.151 24.4906H106.147C105.189 24.4906 104.471 24.2377 103.995 23.7876C103.524 23.3421 103.219 22.636 103.219 21.5781C103.219 20.1324 103.92 19.0901 105.183 18.2342C106.472 17.3608 108.302 16.7151 110.454 16.0985L110.816 15.9947V15.6178V14.568C110.816 13.8367 110.575 13.2569 110.117 12.8704C109.674 12.4963 109.097 12.3623 108.532 12.3623Z" fill="white" stroke="white"/>
<path fill-rule="evenodd" clip-rule="evenodd" d="M110.317 17.7446C108.259 18.4275 106.174 19.5292 106.174 21.0261C106.174 21.9721 106.778 22.5229 107.71 22.5229C108.752 22.5229 109.494 21.998 110.316 21.2101L110.317 17.7446ZM103.158 14.6199C103.404 11.4434 105.929 10.1836 108.697 10.1836C112.374 10.1836 113.772 11.9683 113.772 14.5161V23.5739C113.772 23.9678 113.855 24.3607 113.964 24.7287H110.508C110.425 24.3607 110.371 23.9148 110.261 23.3379C109.161 24.41 107.683 25.004 106.147 24.9906C104.063 24.9906 102.719 23.8888 102.719 21.5781C102.719 18.2706 106.01 16.8516 110.316 15.6178V14.568C110.316 13.3342 109.52 12.8623 108.532 12.8623C107.491 12.8623 106.613 13.5961 106.613 14.6199H103.158Z" stroke="white" stroke-width="0.6"/>
<path d="M127.094 6.10498V7.89733H126.607C126.092 7.89733 125.647 8.05715 125.338 8.40118C125.037 8.73592 124.929 9.17396 124.929 9.60519V11.0749V11.5749H125.429H126.986V13.2537H125.429H124.929V13.7537V24.2282H122.472V13.7537V13.2537H121.972H120.91V11.5749H121.972H122.472V11.0749V9.71017C122.472 8.11471 122.825 7.23306 123.357 6.73436C123.894 6.23014 124.727 6.00977 125.949 6.00977C126.289 6.00977 126.675 6.05069 127.094 6.10498Z" fill="white" stroke="white"/>
<path fill-rule="evenodd" clip-rule="evenodd" d="M127.594 8.39733H126.607C125.785 8.39733 125.429 8.89628 125.429 9.60519V11.0749H127.486V13.7537H125.429V24.7282H121.972V13.7537H120.41V11.0749H121.972V9.71017C121.972 6.40268 123.426 5.50977 125.949 5.50977C126.444 5.50977 127.018 5.58878 127.594 5.6678V8.39733Z" stroke="white" stroke-width="0.6"/>
<path d="M129.605 16.0919H129.607V15.5919C129.607 13.7881 130.089 12.5896 130.895 11.835C131.706 11.0747 132.933 10.6836 134.59 10.6836C136.249 10.6836 137.476 11.0747 138.288 11.8349C139.094 12.5894 139.577 13.7876 139.577 15.5907V19.5823C139.577 21.3866 139.094 22.5851 138.288 23.3395C137.476 24.0997 136.249 24.4906 134.59 24.4906C132.933 24.4906 131.706 24.0997 130.894 23.3396C130.088 22.5853 129.605 21.3871 129.605 19.5834V16.0919ZM132.061 20.4233C132.061 21.1123 132.325 21.6831 132.813 22.0693C133.285 22.4431 133.915 22.6041 134.59 22.6041C135.267 22.6041 135.897 22.4432 136.369 22.0691C136.857 21.6825 137.121 21.1113 137.121 20.4222V14.752C137.121 14.063 136.857 13.4922 136.369 13.1059C135.896 12.7322 135.266 12.5712 134.59 12.5712C133.915 12.5712 133.285 12.7322 132.813 13.1062C132.325 13.4928 132.061 14.064 132.061 14.7531V20.4233Z" fill="white" stroke="white"/>
<path fill-rule="evenodd" clip-rule="evenodd" d="M132.561 20.4233C132.561 21.5262 133.385 22.1041 134.59 22.1041C135.798 22.1041 136.621 21.5262 136.621 20.4222V14.752C136.621 13.6491 135.797 13.0712 134.59 13.0712C133.384 13.0712 132.561 13.6491 132.561 14.7531V20.4233ZM129.107 15.5919C129.107 11.8114 131.135 10.1836 134.59 10.1836C138.047 10.1836 140.077 11.8114 140.077 15.5907V19.5823C140.077 23.3639 138.047 24.9906 134.59 24.9906C131.135 24.9906 129.105 23.3639 129.105 19.5834V15.5919H129.107Z" stroke="white" stroke-width="0.6"/>
<path d="M148.572 10.7081V13.097C148.151 12.9864 147.681 12.8861 147.235 12.8861C145.812 12.8861 145.034 13.9481 145.034 14.962V24.2287H142.578V10.9466H144.951V12.3363V12.8363H145.451H145.506H145.799L145.943 12.5808C146.313 11.9202 146.72 11.4555 147.205 11.152C147.579 10.9177 148.022 10.7646 148.572 10.7081Z" fill="white" stroke="white"/>
<path fill-rule="evenodd" clip-rule="evenodd" d="M142.078 24.7287V10.4466H145.451V12.3363H145.506C146.301 10.9185 147.344 10.1836 149.072 10.1836V13.7541C148.496 13.5961 147.837 13.3861 147.235 13.3861C146.11 13.3861 145.534 14.2011 145.534 14.962V24.7287H142.078Z" stroke="white" stroke-width="0.6"/>
<path d="M70.3503 44.0177H70.8503V44.5166H72.1665C73.2749 44.5166 74.26 44.2657 74.9564 43.5338C75.6466 42.8085 75.9582 41.7095 75.9582 40.235V35.2489C75.9582 33.8733 75.7228 32.7762 75.0748 32.0269C74.4109 31.2593 73.4139 30.9673 72.1665 30.9673H70.8503H70.3503V31.4673V43.5166V44.0166V44.0177ZM67.5664 28.7637H72.3313C74.4409 28.7637 75.9822 29.2003 77.0166 30.1264C78.0423 31.0447 78.6622 32.5283 78.7432 34.8366V40.6474C78.6622 42.9556 78.0423 44.4389 77.0167 45.3569C75.9822 46.2828 74.441 46.7191 72.3313 46.7191H67.5664V28.7637Z" fill="white" stroke="white"/>
<path fill-rule="evenodd" clip-rule="evenodd" d="M70.8503 44.0166H72.1665C74.2515 44.0166 75.4582 43.0706 75.4582 40.235V35.2489C75.4582 32.5713 74.5246 31.4673 72.1665 31.4673H70.8503V44.0177V44.0166ZM67.0664 28.2637H72.3313C76.6638 28.2637 79.0784 30.0495 79.2432 34.8279V40.6561C79.0784 45.4344 76.6638 47.2191 72.3313 47.2191H67.0664V28.2637Z" stroke="white" stroke-width="0.6"/>
<path d="M88.84 38.6892H89.34V38.1892V37.4001C89.34 36.6932 89.163 36.0399 88.7143 35.5617C88.2603 35.0779 87.6028 34.8524 86.8104 34.8524C86.0179 34.8524 85.3604 35.0779 84.9064 35.5617C84.4578 36.0399 84.2807 36.6932 84.2807 37.4001V38.1892V38.6892H84.7807H88.84ZM84.7807 40.3657H84.2807V40.8657V42.7576C84.2807 43.573 84.5369 44.2309 85.025 44.6805C85.5058 45.1234 86.1479 45.3053 86.8104 45.3053C87.6429 45.3053 88.2992 45.0461 88.7412 44.5562C89.0601 44.2028 89.2338 43.7664 89.3034 43.3084H91.7454C91.5913 44.4184 91.1538 45.2718 90.4678 45.8719C89.6712 46.5687 88.473 46.9818 86.8104 46.9818C85.2612 46.9818 84.0191 46.5258 83.1699 45.751C82.3258 44.9809 81.8242 43.8547 81.8242 42.4156V37.7422C81.8242 36.3036 82.3258 35.1771 83.17 34.4065C84.0192 33.6312 85.2614 33.1748 86.8104 33.1748C88.3157 33.1748 89.5635 33.6301 90.4274 34.387C91.2858 35.139 91.7965 36.2145 91.7965 37.5322V40.3657H84.7807Z" fill="white" stroke="white"/>
<path fill-rule="evenodd" clip-rule="evenodd" d="M88.84 38.1892V37.4001C88.84 36.1403 88.209 35.3524 86.8104 35.3524C85.4117 35.3524 84.7807 36.1403 84.7807 37.4001V38.1892H88.84ZM84.7807 40.8657V42.7576C84.7807 44.1743 85.659 44.8053 86.8104 44.8053C88.2632 44.8053 88.84 43.9135 88.84 42.8084H92.2954C92.1306 45.7501 90.2928 47.4818 86.8104 47.4818C83.5187 47.4818 81.3242 45.5402 81.3242 42.4156V37.7422C81.3242 34.6187 83.5187 32.6748 86.8104 32.6748C90.0197 32.6748 92.2965 34.6187 92.2965 37.5322V40.8657H84.7807Z" stroke="white" stroke-width="0.6"/>
<path d="M97.5854 36.4293V46.721H95.1289V33.4378H97.4748V34.5656V35.6572L98.3014 34.9442C99.4492 33.9542 100.438 33.1748 101.677 33.1748C102.698 33.1748 103.473 33.8206 103.834 34.9776L104.088 35.7915L104.674 35.1724C105.759 34.0272 106.719 33.1748 107.986 33.1748C108.93 33.1748 109.558 33.4446 109.963 33.9235C110.383 34.4189 110.64 35.2261 110.64 36.4564V46.7199H108.184V36.3503C108.184 35.8339 108.09 35.3856 107.818 35.067C107.527 34.7276 107.13 34.6424 106.781 34.6424C106.304 34.6424 105.771 34.8914 105.348 35.1553C104.91 35.4291 104.485 35.7865 104.222 36.1186L104.113 36.2551V36.4293V46.721H101.657V36.3503C101.657 35.826 101.553 35.3761 101.269 35.0586C100.972 34.7269 100.573 34.6424 100.225 34.6424C99.711 34.6424 99.1804 34.8876 98.7601 35.1595C98.3295 35.4382 97.9328 35.7985 97.685 36.1298L97.5854 36.263V36.4293Z" fill="white" stroke="white"/>
<path fill-rule="evenodd" clip-rule="evenodd" d="M94.6289 32.9378H97.9748V34.5656C99.1002 33.5948 100.225 32.6748 101.677 32.6748C102.968 32.6748 103.901 33.5158 104.311 34.8286C105.381 33.6987 106.478 32.6748 107.986 32.6748C110.07 32.6748 111.14 33.8827 111.14 36.4564V47.2199H107.684V36.3503C107.684 35.4055 107.328 35.1424 106.781 35.1424C106.12 35.1424 105.05 35.8784 104.613 36.4293V47.221H101.157V36.3503C101.157 35.4055 100.773 35.1424 100.225 35.1424C99.484 35.1424 98.4974 35.8784 98.0854 36.4293V47.221H94.6289V32.9378Z" stroke="white" stroke-width="0.6"/>
<path d="M113.81 38.0831V38.0829C113.81 36.2791 114.292 35.0809 115.098 34.3267C115.909 33.5666 117.136 33.1758 118.794 33.1758C120.451 33.1758 121.678 33.5666 122.49 34.3267C123.296 35.081 123.779 36.2792 123.779 38.0829V42.0745C123.779 43.8788 123.296 45.0769 122.49 45.8311C121.678 46.5911 120.452 46.9816 118.794 46.9816C117.136 46.9816 115.91 46.5911 115.097 45.8311C114.291 45.0769 113.809 43.8788 113.809 42.0746C113.809 42.0746 113.809 42.0745 113.809 42.0745L113.81 38.0831ZM116.264 42.9143C116.264 43.6034 116.528 44.174 117.017 44.56C117.489 44.9334 118.119 45.0941 118.794 45.0941C119.469 45.0941 120.099 44.9334 120.571 44.5599C121.059 44.1738 121.323 43.6032 121.323 42.9143V37.2431C121.323 36.554 121.059 35.9834 120.571 35.5974C120.098 35.224 119.469 35.0634 118.794 35.0634C118.118 35.0634 117.488 35.224 117.016 35.5975C116.528 35.9836 116.264 36.5543 116.264 37.2431V42.9143Z" fill="white" stroke="white"/>
<path fill-rule="evenodd" clip-rule="evenodd" d="M116.764 42.9143C116.764 44.0172 117.588 44.5941 118.794 44.5941C120 44.5941 120.823 44.0172 120.823 42.9143V37.2431C120.823 36.1402 119.999 35.5634 118.794 35.5634C117.587 35.5634 116.764 36.1402 116.764 37.2431V42.9143ZM113.31 38.0829C113.31 34.3024 115.338 32.6758 118.794 32.6758C122.249 32.6758 124.279 34.3024 124.279 38.0829V42.0745C124.279 45.8561 122.249 47.4816 118.794 47.4816C115.339 47.4816 113.309 45.8561 113.309 42.0745L113.31 38.0829Z" stroke="white" stroke-width="0.6"/>
<path d="M134.406 37.3741V37.2419C134.406 36.5533 134.142 35.9829 133.654 35.5972C133.181 35.224 132.551 35.0634 131.876 35.0634C131.2 35.0634 130.57 35.224 130.098 35.5975C129.61 35.9836 129.346 36.5543 129.346 37.2431V42.9143C129.346 43.6034 129.61 44.174 130.099 44.56C130.571 44.9334 131.201 45.0941 131.876 45.0941C132.552 45.0941 133.182 44.9335 133.654 44.56C134.142 44.1739 134.406 43.6032 134.406 42.9143V42.5214H136.85C136.776 44.0793 136.31 45.1411 135.573 45.8311C134.761 46.591 133.534 46.9816 131.876 46.9816C130.218 46.9816 128.992 46.5911 128.179 45.8311C127.373 45.0769 126.891 43.8787 126.891 42.0745V38.0829C126.891 36.2792 127.373 35.081 128.179 34.3267C128.991 33.5666 130.218 33.1758 131.877 33.1758C133.494 33.1758 134.704 33.5538 135.514 34.2869C136.235 34.939 136.705 35.9319 136.811 37.3741H134.406Z" fill="white" stroke="white"/>
<path fill-rule="evenodd" clip-rule="evenodd" d="M133.906 37.8741V37.2419C133.906 36.1402 133.082 35.5634 131.876 35.5634C130.669 35.5634 129.846 36.1402 129.846 37.2431V42.9143C129.846 44.0172 130.67 44.5941 131.876 44.5941C133.084 44.5941 133.906 44.0172 133.906 42.9143V42.0214H137.361V42.0745C137.361 45.8561 135.332 47.4816 131.876 47.4816C128.421 47.4816 126.391 45.8561 126.391 42.0745V38.0829C126.391 34.3024 128.42 32.6758 131.877 32.6758C135.25 32.6758 137.279 34.2505 137.334 37.8741H133.906Z" stroke="white" stroke-width="0.6"/>
<path d="M146.103 33.1993V35.5884C145.681 35.4781 145.212 35.3784 144.765 35.3784C143.342 35.3784 142.565 36.4379 142.565 37.4532V46.7199H140.109V33.4378H142.482V34.8286V35.3286H142.982H143.038H143.331L143.474 35.073C143.844 34.4118 144.252 33.9468 144.736 33.6432C145.11 33.4089 145.553 33.2559 146.103 33.1993Z" fill="white" stroke="white"/>
<path fill-rule="evenodd" clip-rule="evenodd" d="M139.609 47.2199V32.9378H142.982V34.8286H143.038C143.832 33.4097 144.875 32.6748 146.603 32.6748V36.2453C146.027 36.0873 145.369 35.8784 144.765 35.8784C143.64 35.8784 143.065 36.6912 143.065 37.4532V47.2199H139.609Z" stroke="white" stroke-width="0.6"/>
<path d="M156.018 40.2367V39.5439L155.36 39.7622C154.312 40.1104 153.224 40.5748 152.388 41.163C151.569 41.7399 150.877 42.5199 150.877 43.5183C150.877 44.0999 151.066 44.6144 151.449 44.982C151.83 45.3468 152.349 45.5151 152.912 45.5151C154.158 45.5151 155.021 44.8705 155.864 44.0634L156.018 43.9158V43.7023V40.2367ZM153.735 34.8523C152.635 34.8523 151.616 35.5402 151.372 36.6121H148.928C149.137 35.4587 149.706 34.653 150.473 34.1111C151.371 33.4764 152.583 33.1758 153.9 33.1758C155.664 33.1758 156.788 33.6039 157.471 34.2495C158.15 34.8905 158.473 35.8222 158.473 37.0071V46.0649C158.473 46.2886 158.496 46.5082 158.532 46.7197H156.124C156.113 46.6572 156.102 46.5915 156.091 46.522C156.087 46.5014 156.084 46.4805 156.08 46.4593C156.045 46.2464 156.005 46.0047 155.954 45.735L155.779 44.8219L155.113 45.4711C154.109 46.4512 152.758 46.9945 151.354 46.9828L151.354 46.9828H151.35C150.391 46.9828 149.673 46.7299 149.198 46.2798C148.727 45.8344 148.422 45.1283 148.422 44.0703C148.422 42.6233 149.123 41.581 150.386 40.7256C151.675 39.8525 153.504 39.2073 155.657 38.5907L156.019 38.4869V38.11V37.0591C156.019 36.3277 155.778 35.7479 155.32 35.3611C154.877 34.9867 154.3 34.8523 153.735 34.8523Z" fill="white" stroke="white"/>
<path fill-rule="evenodd" clip-rule="evenodd" d="M155.518 40.2367C153.461 40.9197 151.377 42.0203 151.377 43.5183C151.377 44.4631 151.98 45.0151 152.912 45.0151C153.956 45.0151 154.696 44.4891 155.518 43.7023V40.2367ZM148.361 37.1121C148.607 33.9356 151.13 32.6758 153.9 32.6758C157.575 32.6758 158.973 34.4593 158.973 37.0071V46.0649C158.973 46.46 159.056 46.8529 159.165 47.2197H155.711C155.628 46.8529 155.573 46.407 155.463 45.829C154.364 46.9012 152.885 47.4956 151.35 47.4828C149.265 47.4828 147.922 46.381 147.922 44.0703C147.922 40.7605 151.212 39.3438 155.519 38.11V37.0591C155.519 35.8252 154.723 35.3523 153.735 35.3523C152.693 35.3523 151.816 36.0871 151.816 37.1121H148.361Z" stroke="white" stroke-width="0.6"/>
<path d="M169.183 37.3741V37.2419C169.183 36.5535 168.919 35.9832 168.431 35.5973C167.959 35.224 167.329 35.0634 166.654 35.0634C165.979 35.0634 165.349 35.224 164.877 35.5975C164.388 35.9836 164.124 36.5543 164.124 37.2431V42.9143C164.124 43.6032 164.388 44.1738 164.877 44.5599C165.349 44.9334 165.979 45.0941 166.654 45.0941C167.329 45.0941 167.959 44.9334 168.431 44.5599C168.919 44.1738 169.183 43.6031 169.183 42.9143V42.5214H171.629C171.555 44.0792 171.088 45.141 170.351 45.8311C169.538 46.591 168.312 46.9816 166.653 46.9816C164.996 46.9816 163.769 46.5911 162.957 45.8311C162.151 45.0769 161.668 43.8787 161.668 42.0745V38.0829C161.668 36.2793 162.151 35.0811 162.957 34.3268C163.769 33.5666 164.996 33.1758 166.654 33.1758C168.271 33.1758 169.481 33.5538 170.291 34.2869C171.012 34.939 171.482 35.9319 171.59 37.3741H169.183Z" fill="white" stroke="white"/>
<path fill-rule="evenodd" clip-rule="evenodd" d="M168.683 37.8741V37.2419C168.683 36.1402 167.86 35.5634 166.654 35.5634C165.447 35.5634 164.624 36.1402 164.624 37.2431V42.9143C164.624 44.0172 165.447 44.5941 166.654 44.5941C167.86 44.5941 168.683 44.0172 168.683 42.9143V42.0214H172.139V42.0745C172.139 45.8561 170.11 47.4816 166.653 47.4816C163.199 47.4816 161.168 45.8561 161.168 42.0745V38.0829C161.168 34.3024 163.199 32.6758 166.654 32.6758C170.027 32.6758 172.056 34.2505 172.112 37.8741H168.683Z" stroke="white" stroke-width="0.6"/>
<path d="M174.392 49.8652C174.561 49.8713 174.727 49.8713 174.889 49.8713H174.907C175.806 49.8713 176.545 49.4954 177.056 49.0335C177.311 48.8027 177.517 48.5442 177.661 48.2874C177.801 48.039 177.903 47.7561 177.903 47.4816C177.903 46.5538 177.602 45.5087 177.25 44.3199L177.25 44.3184L173.988 33.4365H176.435L178.673 42.508L178.766 42.8883H179.158H179.215H179.613L179.702 42.4999L181.778 33.4365H184.231L180.432 47.0321L180.432 47.0332C179.904 48.9397 179.319 50.0914 178.52 50.7817C177.736 51.4587 176.665 51.7589 174.989 51.7589C174.808 51.7589 174.607 51.7504 174.393 51.7383L174.392 49.8652Z" fill="white" stroke="white"/>
<mask id="mask0_169_197" style="mask-type:luminance" maskUnits="userSpaceOnUse" x="0" y="0" width="185" height="53">
<path d="M0.501118 0.5H184.394V52.07H0.500011L0.501118 0.5Z" fill="white" stroke="white"/>
</mask>
<g mask="url(#mask0_169_197)">
<path fill-rule="evenodd" clip-rule="evenodd" d="M173.892 49.3194C174.222 49.3713 174.551 49.3713 174.907 49.3713C176.416 49.3713 177.403 48.1115 177.403 47.4816C177.403 46.6406 177.128 45.6698 176.771 44.462L173.316 32.9365H176.827L179.158 42.3883H179.215L181.38 32.9365H184.89L180.914 47.1667C179.844 51.0262 178.446 52.2588 174.989 52.2588C174.661 52.2588 174.276 52.2329 173.893 52.208L173.892 49.3194Z" stroke="white" stroke-width="0.6"/>
</g>
<mask id="mask1_169_197" style="mask-type:luminance" maskUnits="userSpaceOnUse" x="0" y="0" width="185" height="53">
<path d="M0.501118 0.5H184.394V52.07H0.500011L0.501118 0.5Z" fill="white" stroke="white"/>
</mask>
<g mask="url(#mask1_169_197)">
<path d="M53.7441 20.4631C52.5946 21.463 50.4073 23.3647 48.294 25.2005C46.9159 26.3977 45.5694 27.5667 44.5626 28.4393C44.0744 28.8624 43.6663 29.2156 43.3734 29.4685L42.676 26.4735C43.0335 26.1693 43.7393 25.5583 44.3972 24.9864C44.7804 24.6533 45.1491 24.3318 45.4266 24.0891C45.6824 23.8652 45.8888 23.6842 45.931 23.6427C45.979 23.5947 46.0393 23.5221 46.0804 23.4257C46.1141 23.3468 46.1882 23.1156 46.0281 22.8909C45.8732 22.6736 45.6375 22.6607 45.5554 22.6619C45.4517 22.6634 45.3535 22.6887 45.274 22.715L45.274 22.715L45.2685 22.7168L38.1809 25.1474C38.0977 25.1737 37.9095 25.2376 37.788 25.4119C37.6359 25.6304 37.6932 25.8583 37.706 25.9094L37.7065 25.9111C37.7172 25.9573 37.8137 26.3719 37.9755 27.0665C38.4871 29.264 39.6512 34.264 40.8147 39.2625C41.5895 42.5911 42.3641 45.9192 42.9457 48.4191C43.2573 49.7584 43.5114 50.8514 43.6809 51.5807L40.927 49.9045L40.9266 49.9043L40.9253 49.9035L40.9202 49.9003L40.8997 49.8879L40.8198 49.8392L40.5167 49.6547L39.4347 48.9957L36.1486 46.9949C34.9529 46.267 33.756 45.5384 32.8558 44.9907C32.5095 44.78 32.207 44.5961 31.9654 44.4492C32.0306 44.4095 32.0989 44.368 32.1695 44.325C32.4931 44.1281 32.8669 43.9006 33.2277 43.6811C33.6189 43.4431 33.995 43.2145 34.276 43.044C34.3324 43.0097 34.385 42.9778 34.4331 42.9487C34.4867 42.9163 34.5346 42.8872 34.576 42.8622L38.3165 45.1382L38.3177 45.139C38.3646 45.1674 38.4231 45.2 38.4848 45.2243C38.5146 45.2361 38.5647 45.2538 38.6264 45.2626C38.6746 45.2695 38.8158 45.2845 38.964 45.1995C39.1542 45.0903 39.2166 44.9033 39.2212 44.771C39.2249 44.6631 39.1942 44.5795 39.1803 44.545C39.1495 44.4681 39.1047 44.4025 39.0755 44.362L39.0752 44.3615L34.5158 38.0604L34.5158 38.0603L34.5107 38.0535C34.3845 37.8853 34.205 37.8249 34.0799 37.8089C33.9499 37.7922 33.79 37.8104 33.6443 37.8992C33.6437 37.8996 33.6431 37.8999 33.6425 37.9003L11.1252 51.5878L11.8617 48.4314L11.8617 48.4314L11.8618 48.431L11.8621 48.4296L11.8635 48.4237L11.8689 48.4004L11.8901 48.3098L11.9705 47.9659L12.2575 46.7376L13.1294 43.0051C13.5753 41.0952 14.0274 39.1588 14.2574 38.1687C15.0112 38.8248 16.2207 39.8764 16.5734 40.1812C16.3433 41.1623 15.6165 44.2694 15.5779 44.4444M53.7441 20.4631L15.9711 26.7475L16.1768 26.2918M53.7441 20.4631C53.3254 20.4276 52.8337 20.386 52.3623 20.3461L51.0831 20.238L50.6768 20.2037L50.5644 20.1942L50.5349 20.1917L50.5274 20.1911L50.5255 20.1909L50.525 20.1909L50.5249 20.1909L50.5243 20.1908L48.5434 20.0215L48.5432 20.0215L36.7776 19.0214L30.9076 18.5224L27.4567 18.2289L27.4564 18.2289C27.3178 18.217 27.1926 18.1559 27.0996 18.0711C26.9977 17.9783 26.9031 17.8266 26.9031 17.6291V9.74687M53.7441 20.4631L26.9031 9.74687M15.5779 44.4444C15.5779 44.4443 15.578 44.4442 15.578 44.444L16.0119 44.5399M15.5779 44.4444L16.012 44.54L16.0119 44.5399M15.5779 44.4444C15.5644 44.5059 15.535 44.6499 15.5833 44.8025C15.6131 44.8966 15.6811 45.0192 15.8191 45.1003C15.9522 45.1785 16.0831 45.1783 16.1623 45.1668C16.2955 45.1475 16.3903 45.0816 16.4134 45.0655L16.4146 45.0647C16.4344 45.0509 16.4506 45.0382 16.4618 45.0288C16.4677 45.024 16.4728 45.0197 16.4769 45.016L16.4827 45.0109L16.4851 45.0087L16.4862 45.0077L16.4867 45.0072L16.487 45.007C16.4871 45.0069 16.4872 45.0068 16.1486 44.6389L16.4872 45.0068L16.5243 44.9727L16.5537 44.9319L21.0172 38.7617L21.0266 38.7486L21.0352 38.735L20.6121 38.4686M16.0119 44.5399L16.0662 44.5519C16.0664 44.5513 16.0665 44.5506 16.0667 44.5498C15.8101 44.2709 15.8102 44.2708 15.8103 44.2707L15.8105 44.2705L15.811 44.2701L15.812 44.2692L15.8139 44.2675L15.8175 44.2643L15.8246 44.2582C15.8291 44.2544 15.8356 44.2493 15.8442 44.2433C15.852 44.2379 15.8676 44.2276 15.8899 44.2166C15.9092 44.2071 15.9546 44.1865 16.0187 44.1772C16.0521 44.1724 16.0988 44.1696 16.1528 44.1773M20.6121 38.4686C21.0352 38.735 21.0354 38.7347 21.0355 38.7345L21.0359 38.7339L21.0365 38.7329L21.0378 38.7308L21.0407 38.7261L21.0468 38.7156C21.0512 38.7081 21.056 38.6994 21.0611 38.6895C21.0712 38.67 21.0827 38.6454 21.094 38.6163C21.1161 38.5591 21.1397 38.4782 21.1457 38.38C21.1591 38.1617 21.0811 37.9179 20.8619 37.7198M20.6121 38.4686L16.7534 43.8029L20.6121 38.4686ZM20.8619 37.7198C20.8616 37.7196 20.8613 37.7194 20.8611 37.7191L20.5263 38.0905L20.8619 37.7198ZM20.8619 37.7198C18.9357 35.9757 4.48617 23.4223 1.0689 20.4619L4.28375 20.1898L4.28382 20.1897L14.7359 19.3064L13.5442 22.1511C12.8856 22.2075 9.93846 22.4561 9.11396 22.5256C9.1138 22.5256 9.11365 22.5256 9.11349 22.5256L9.15548 23.0239M9.15548 23.0239C9.02002 23.0351 9.02227 23.078 9.11823 23.1221L9.16543 23.1433L9.16554 23.1433L9.49403 23.2908C9.40961 23.452 9.26209 23.5034 9.2503 23.5075L9.24969 23.5077C9.22482 23.5168 9.20595 23.5206 9.19745 23.522C9.19729 23.522 9.19714 23.522 9.19699 23.522C9.19125 23.5229 9.19073 23.5227 9.197 23.5221L9.19746 23.5221C9.35587 23.5087 9.59433 23.4886 9.88074 23.4645L16.1768 26.2918M9.15548 23.0239C9.15783 23.0237 9.16021 23.0235 9.1626 23.0233L9.32305 22.6659L9.32674 22.6676M9.15548 23.0239L13.7194 22.6378C13.6236 22.6468 11.3423 22.8394 9.96759 22.9554L9.32674 22.6676M16.1768 26.2918L15.972 26.748L15.9714 26.7477C16.0749 26.7944 16.2468 26.8484 16.4422 26.7955C16.663 26.7356 16.7928 26.5744 16.856 26.4281L16.856 26.4281L16.8582 26.4229L18.5153 22.4653L18.0541 22.2721M16.1768 26.2918C16.2818 26.3393 16.3575 26.3212 16.397 26.2298L18.0541 22.2721M18.0541 22.2721L18.5153 22.4652M18.0541 22.2721L18.5153 22.4652M18.5153 22.4652L26.1565 4.22602L18.5153 22.4652ZM26.9031 9.74687V9.7442H27.4031L26.9032 9.75178C26.9032 9.75016 26.9032 9.74853 26.9031 9.74687ZM0.0333342 20.2277C-0.140507 20.0844 -0.0434268 20.0539 0.0547821 20.046L0.189162 20.0346L0.0666708 20.1864L0.0661349 20.1871L0.0333342 20.2277ZM0.0333342 20.2277C0.0370589 20.2307 0.0500999 20.2418 0.0720571 20.2607C0.072379 20.261 0.0727028 20.2612 0.0730285 20.2615C0.114322 20.297 0.186395 20.3591 0.286671 20.4459C0.318813 20.4168 0.351193 20.3789 0.378571 20.3299C0.445316 20.2104 0.445911 20.0982 0.428245 20.0144L0.192857 20.0343L0.0667392 20.1872L0.0661993 20.1879L0.0333342 20.2277ZM9.32674 22.6676L9.1636 23.0232C9.26318 23.0148 9.39286 23.0039 9.54513 22.991C9.51964 22.8265 9.41107 22.7289 9.39828 22.7174C9.37414 22.6958 9.35402 22.683 9.34468 22.6774C9.33436 22.6711 9.32777 22.6681 9.32674 22.6676ZM27.0205 9.92861L27.022 9.93193C27.0214 9.93059 27.0209 9.92948 27.0205 9.92861ZM0.540736 20.0048L4.24164 19.6915L0.540736 20.0048ZM15.381 18.7501C15.381 18.7501 15.5244 18.723 15.4713 18.8449L15.381 18.7501ZM38.2728 44.9591C38.273 44.9595 38.2724 44.9587 38.2712 44.9567C38.2721 44.958 38.2726 44.9588 38.2728 44.9591ZM16.9896 39.8797C17.0969 39.9677 17.1138 40.0592 17.0912 40.163C16.964 40.7049 16.5511 42.4693 16.2893 43.5913L16.9896 39.8797Z" fill="white" stroke="white"/>
</g>
</svg>
