<svg width="304" height="31" viewBox="0 0 304 31" fill="none" xmlns="http://www.w3.org/2000/svg">
<g clip-path="url(#clip0_387_79)">
<path d="M60.9552 17.3066C61.0809 17.3819 61.2253 17.4225 61.3722 17.4242C61.5835 17.42 61.7851 17.3369 61.9361 17.1916C62.2619 17.1565 64.8059 16.7876 68.2152 13.7895C68.2532 13.7557 68.2836 13.727 68.3074 13.7032C68.3708 13.6394 68.3774 13.6344 68.4483 13.6344H68.466H68.4812C68.8739 13.4868 69.073 13.323 69.072 13.1504C69.072 13.0841 69.0401 12.9615 68.8324 12.8852C68.6135 12.8201 68.3809 12.8157 68.16 12.8724C67.9386 12.9291 67.738 13.0447 67.5789 13.2067C67.2389 13.4143 64.7501 14.9289 64.5166 15.1954C64.2328 15.5206 63.9678 15.5831 63.8158 15.5331C63.7723 15.519 63.7338 15.492 63.7064 15.4558C63.6785 15.4195 63.6628 15.3758 63.6613 15.3304C63.6487 15.1353 63.8285 14.8301 64.3722 14.58L64.3864 14.5725L70.6381 8.1524C71.6145 7.2644 74.4229 6.34135 75.6926 6.92795C76.1121 7.1218 76.3113 7.4695 76.2874 7.96355V8.0386L76.3619 8.0561C76.8818 8.1687 77.2491 7.82975 77.6129 7.5008C77.7938 7.321 77.9969 7.16465 78.2173 7.0355C78.4241 6.9292 79.138 6.79285 79.334 6.9717C79.3543 6.98925 79.4141 7.043 79.3508 7.2081C78.7488 7.6146 78.2569 8.1862 77.6636 8.9729C77.4812 9.21555 76.7004 9.82845 75.797 10.5376C74.4711 11.5769 72.8234 12.8715 72.3456 13.5681C72.3152 13.5994 71.6028 14.3286 71.4442 15.0928C71.3393 15.6006 71.4442 16.0721 71.7472 16.3861C71.9565 16.6075 72.3557 16.8501 73.0808 16.7613H73.1162C73.5064 16.7538 74.6889 16.5224 75.4874 16.2835C76.5671 15.9596 77.7294 15.3317 78.2265 15.064C79.367 14.4387 80.9959 13.2067 81.3683 12.7864C81.6596 12.4587 81.7843 12.4587 81.8233 12.4762C82.0376 12.5613 81.9981 13.4568 81.9728 13.9921C81.9469 14.2589 81.9489 14.5276 81.9793 14.7939C82.3482 16.2948 84.4367 16.7876 84.6333 16.8313C86.4294 17.7331 88.2098 16.8776 89.1669 16.4186C89.2809 16.3636 89.3838 16.3135 89.4735 16.2748C90.011 16.0334 90.7842 15.5919 91.603 15.1241C93.315 14.146 95.6457 12.8139 96.2314 13.2017C95.9527 15.6194 98.8108 16.0696 98.8412 16.0784C98.9831 16.0972 102.327 16.5312 104.214 15.5005C104.768 15.1979 106.551 14.1435 106.495 13.1541C106.57 13.0628 106.768 12.7864 106.671 12.545C106.595 12.3574 106.368 12.2486 105.996 12.2198H105.923L105.902 12.2861C105.58 13.2605 104.537 14.116 103.113 14.5775C101.534 15.0878 99.925 14.9615 98.9132 14.2473L98.8893 14.2298H98.8615C98.2134 14.2298 97.8081 13.9796 97.7205 13.5144C97.6029 12.914 98.0706 12.0335 98.9679 11.6733C100.167 10.9228 100.742 10.325 100.679 9.8947C100.659 9.75965 100.565 9.57955 100.232 9.487C99.4953 9.2806 98.0984 9.62205 97.4991 10.3112C97.2543 10.4363 94.457 11.7958 92.8945 12.8615C92.4699 13.1516 92.0615 13.4531 91.6688 13.7457C89.7866 15.1428 88.1617 16.3485 85.4961 15.6806C85.18 15.6162 84.8825 15.4824 84.6257 15.2892C84.158 14.8539 84.2533 14.1522 84.3546 13.413C84.4088 13.0873 84.4362 12.7576 84.4357 12.4275C84.4103 11.6583 84.1818 11.1429 83.779 10.9391C83.3251 10.7089 82.6715 10.8715 81.8309 11.4244C80.4928 12.3693 79.1 13.2367 77.66 14.0222C77.0819 14.3361 76.519 14.6138 76.519 14.6163L76.48 14.605C75.5497 15.4418 73.8109 15.8107 73.4202 15.4105C73.2419 15.2266 73.4076 14.8602 73.8879 14.3774C74.5369 14.0021 76.5712 12.0735 78.1226 10.5363C79.2783 9.39315 81.1413 7.5083 81.3987 7.0105C84.5446 6.3126 89.4481 6.21 94.1895 6.10995C97.9348 6.0324 101.807 5.9511 104.645 5.5684C104.722 5.5558 104.799 5.5391 104.874 5.51835C104.99 5.4799 105.112 5.4654 105.234 5.47585C106.628 5.73475 106.882 5.44705 107.103 5.1944C107.144 5.1364 107.197 5.08705 107.257 5.04925C107.318 5.01145 107.385 4.98595 107.456 4.97428L107.427 4.79792C106.942 4.87547 106.015 5.0343 105.799 5.07185C105.107 4.43146 103.84 4.68161 102.818 4.88423C102.239 4.9993 101.692 5.10685 101.41 5.0168C99.0236 4.17505 95.3087 4.64783 91.717 5.1056C87.7792 5.6059 84.0577 6.07995 83.2997 4.51025C83.4482 4.28386 83.66 4.00995 83.9477 3.64973C84.2355 3.28952 84.5649 2.86426 84.9844 2.29767C85.3026 1.86742 85.3836 1.53347 85.2276 1.29708C84.9743 0.921854 84.1337 0.953124 83.4862 1.10196C83.2415 1.05693 82.9881 1.32085 82.6107 1.70983C82.3543 1.98288 82.0817 2.24058 81.7944 2.48154C81.0618 3.0819 79.9425 3.96367 79.9273 3.98243C78.7514 5.0168 75.2645 6.48395 73.8615 5.07435C73.9968 4.74039 74.7953 4.06623 75.1287 3.80608C75.5345 3.73353 75.797 3.48088 75.8335 3.12692C75.8517 2.96458 75.8157 2.80086 75.7316 2.66019C75.6475 2.51952 75.5199 2.40946 75.3673 2.34646C75.1414 2.26266 74.5319 2.18136 73.7374 3.26451L73.7232 3.29327C73.6776 3.46087 73.3432 3.74729 73.0134 4.02496C72.7175 4.26143 72.4429 4.52255 72.1921 4.80543L72.1693 4.83419C71.7639 5.3345 71.7117 5.4008 69.3492 5.11935L69.2782 5.1106L69.2529 5.1769C69.0771 5.64345 69.5067 5.8523 69.8502 6.02115C70.1213 6.15375 70.3772 6.27755 70.4025 6.48895C70.4329 6.74535 70.1239 7.14305 69.4789 7.6759C68.1443 8.9404 61.6813 15.079 61.1138 15.8508C60.6183 15.8808 60.48 16.1422 60.4354 16.2998C60.3508 16.635 60.5828 17.0915 60.9552 17.3066ZM79.8311 5.17315C80.0236 5.05775 80.2009 4.91954 80.3595 4.76165C80.6068 4.42645 81.3445 3.61221 81.8537 3.76105C81.9039 3.90228 81.9175 4.05351 81.8937 4.20125C81.8699 4.34899 81.8096 4.48865 81.7184 4.60781C81.386 5.0906 80.6828 5.41955 80.0185 5.39955C79.8681 5.40655 79.7171 5.39605 79.5686 5.36825C79.6512 5.2969 79.7389 5.23165 79.8311 5.17315Z" fill="white"/>
<path d="M27.1763 14.7295C26.734 15.3311 26.6516 15.8552 26.933 16.3017C27.4045 17.0434 28.8595 17.3773 30.4514 17.3773C31.156 17.3763 31.8592 17.314 32.5528 17.191C34.606 16.822 35.9533 16.014 36.156 15.0272C36.1712 14.9396 36.2004 14.9021 36.2207 14.8959C36.2713 14.8959 36.4095 14.9972 36.521 15.2711C36.8823 16.1779 38.0419 16.762 39.9773 17.0084C40.4969 17.0747 40.829 17.1072 41.0445 17.1222C41.4171 17.1485 41.4336 17.1222 41.4386 17.1222C42.6108 17.0962 43.7628 16.817 44.8138 16.3042C46.5172 15.3999 47.0952 15.8152 48.2359 16.2454C49.2282 16.6206 50.3524 17.0434 51.877 16.7457C52.3259 16.6869 53.398 15.8839 54.0684 14.7595C54.2999 14.3476 54.5 13.9195 54.6683 13.4788C54.9216 12.8534 55.1395 12.3081 55.4424 12.2705L55.4982 12.263L55.5159 12.2105C55.5798 12.0306 55.5899 11.8363 55.5448 11.6509C55.5002 11.4655 55.4019 11.2968 55.2626 11.1649C54.9986 10.896 54.6287 10.7634 54.3638 10.8447C54.2751 10.8732 54.1966 10.9268 54.1378 10.9988C54.0795 11.0708 54.0435 11.1581 54.0344 11.2499C53.5272 14.2205 52.2449 15.0472 52.2322 15.0547L52.2094 15.0747C51.9556 15.3837 50.3588 15.5262 49.2472 15.2448C48.7922 15.1297 48.5223 14.9609 48.4868 14.7695C48.4513 14.5782 48.6655 14.3093 49.1129 14.0191C49.1382 13.9966 49.7377 13.4625 50.7923 12.1617C51.2457 11.6014 52.0366 11.3262 52.6137 11.1261C52.7404 11.0798 52.8671 11.0386 52.9623 11.001L53.0267 10.9748L53.0191 10.9072C52.9446 10.3019 52.7591 9.94917 52.4526 9.82907C51.7823 9.56767 50.6783 10.4757 49.1572 11.7327C46.8759 13.6213 44.4145 16.0603 42.3132 16.0866H42.2979C42.279 16.0842 42.2598 16.0842 42.2409 16.0866C40.2131 16.1679 39.0559 15.9265 38.7923 15.3661C38.5666 14.8834 38.9532 14.1342 40.0115 13.0072C41.72 11.1599 44.5464 8.20187 44.8594 8.12932C45.4222 8.06302 45.8861 7.44642 45.9101 7.41262C46.3702 6.63967 46.2675 6.00802 46.0191 5.67407C45.9421 5.55912 45.8317 5.46972 45.7023 5.41772C45.5729 5.36572 45.4307 5.35352 45.2942 5.38267C44.8746 5.47897 44.5578 5.94427 44.4222 6.66342C44.1446 6.90357 41.5388 9.14992 40.7821 9.76527C40.3867 10.0867 39.1827 11.0661 38.8582 10.9335C38.7314 10.8835 38.7149 10.6483 38.6896 10.3744C38.6516 9.96667 38.6047 9.45887 38.189 9.16867C37.7986 8.89727 37.1649 8.87727 36.2498 9.10737C35.8696 9.20247 32.9786 10.4582 30.99 11.749C28.9507 13.0685 27.7669 13.9903 27.1763 14.7295ZM35.7112 10.7034L35.8709 10.6296C36.1999 10.4783 36.5586 10.4002 36.9215 10.4007C37.3018 10.4007 37.6275 10.4882 37.7935 10.6633C37.9596 10.8384 37.9469 11.0623 37.7783 11.3575V11.3638C37.1788 12.6758 35.5705 14.1617 35.5477 14.1829C33.8582 16.0778 30.5806 16.817 28.8886 16.1841C28.8195 16.1645 28.757 16.1268 28.7077 16.0751C28.6584 16.0234 28.6242 15.9595 28.6085 15.8902C28.5515 15.6025 28.7809 15.2135 29.0356 14.9784C29.9595 14.1802 30.9299 13.436 31.9418 12.7496C33.1435 11.9721 34.4041 11.2872 35.7124 10.7008L35.7112 10.7034Z" fill="white"/>
<path d="M1.44768 16.8563C1.57443 16.7975 1.74299 16.7125 1.9686 16.6C3.03704 16.0659 5.26391 14.9527 9.66948 13.2016C10.364 12.9127 11.0636 12.8264 11.2677 13.0015C11.288 13.019 11.3526 13.0754 11.3095 13.2242C11.1536 13.642 9.12066 15.1441 8.79366 15.2254L8.77212 15.2341C8.01167 15.6419 7.97873 16.0146 8.08772 16.2547C8.38432 16.9026 10.2018 17.3654 11.8089 17.3654C12.3936 17.3802 12.9766 17.2981 13.5338 17.1227C13.8025 17.0252 14.0649 16.9426 14.3197 16.8638C15.1029 16.6137 15.8405 16.3848 16.5212 15.7982C17.3551 15.0765 17.2499 13.692 17.1485 12.3537C17.0472 11.0154 16.9445 9.6583 17.7582 8.9904L17.8241 8.9366L19.0585 8.86785C18.7468 8.4526 18.4489 8.27625 18.1713 8.345C17.4819 8.5176 16.0712 8.21245 15.8697 10.7965C15.8665 10.834 15.8606 10.8711 15.852 10.9078C15.7887 11.3679 15.7582 11.8318 15.7607 12.2962C15.729 13.797 15.6973 15.3555 13.7328 15.9658C12.8317 16.3786 10.7683 16.1084 10.5136 15.6581C10.4493 15.5405 10.5339 15.4072 10.7671 15.2579C10.9888 15.1141 11.4717 14.675 12.0345 14.1672C12.8748 13.4043 13.9204 12.455 14.2867 12.3324C14.6124 12.2236 14.7683 12.0022 14.7151 11.7233C14.6352 11.3068 14.1054 10.874 13.7011 10.889C13.5529 10.8965 13.3032 10.9703 13.2474 11.3793C12.4109 11.7983 11.5377 11.7846 10.0789 12.2374C7.83043 12.934 4.65047 13.8745 3.17772 14.8902C3.13066 14.926 3.07742 14.9531 3.02056 14.9702C2.94325 14.8601 3.3691 14.4024 3.55921 14.2298C3.80813 13.9798 4.02987 13.7048 4.22081 13.4093C7.20308 10.9578 10.8545 7.44575 12.018 7.4057C19.8164 7.15555 21.4159 5.97735 30.3348 6.30005C30.3437 6.38885 30.4083 6.4964 30.6099 6.5952C31.6403 7.0955 35.7277 7.1468 36.1092 6.51015C36.1751 6.4001 36.1878 6.22375 35.8659 6.00985L35.4919 5.79225C34.9191 5.2419 31.4134 5.3257 27.7011 5.417C25.53 5.46955 27.8127 5.60715 26.478 5.5221C22.9483 5.5646 22.4223 5.8548 20.1409 6.05865C17.0066 6.3388 14.2981 6.58145 13.7797 5.37325C13.5668 4.87294 13.852 4.04369 14.7265 2.59407L15.3387 1.87365C15.852 1.81987 16.2132 1.30706 16.3082 0.814265C16.3805 0.439039 16.2842 0.145115 16.0547 0.0413028C15.7379 -0.103784 15.0776 0.0638155 13.7366 1.68979C13.6263 1.82487 13.3957 2.06501 13.1029 2.3827C12.4033 3.13315 11.3476 4.25883 10.5681 5.30945C9.85958 6.26125 8.99141 6.22125 8.3564 6.18495C8.018 6.1687 7.75058 6.1562 7.61368 6.31005C7.58971 6.33695 7.57188 6.36865 7.56139 6.40295C7.5509 6.43725 7.54797 6.4734 7.55288 6.5089C7.58328 6.7103 7.86463 6.89415 8.16377 7.088C8.39699 7.2406 8.68847 7.4307 8.70621 7.5583C8.70813 7.57025 8.70717 7.58245 8.70342 7.59395C8.69967 7.60545 8.69323 7.61595 8.68467 7.6246C6.42995 10.2674 3.06745 12.7089 2.4198 13.5381C2.17772 13.8483 1.91283 14.1635 1.65934 14.4824C0.46543 15.9595 -0.199967 16.8114 0.0535174 17.124C0.204341 17.3154 0.621326 17.2316 1.44768 16.8563ZM3.19419 13.3343C3.195 13.3376 3.195 13.3409 3.19419 13.3442V13.3343ZM3.18025 13.3518C3.18025 13.3518 3.17011 13.3518 3.17011 13.343L3.18025 13.3518Z" fill="white"/>
<path d="M226.018 6.85035C226.699 7.1505 227.274 6.93915 227.559 6.6665C227.781 6.4551 227.864 6.1862 227.773 5.96355C227.705 5.8022 227.487 5.52955 226.78 5.52955H226.772C223.239 5.0968 218.895 5.06425 213.1 5.4295C213.113 5.29645 213.138 5.1649 213.176 5.03675C213.254 4.73657 213.295 4.56271 213.214 4.47016C213.199 4.45218 213.18 4.43814 213.158 4.42921C213.135 4.42029 213.112 4.41674 213.088 4.41888C212.922 4.43139 212.645 4.64652 212.21 5.0005C211.933 5.2256 211.556 5.5333 211.435 5.54205C208.054 5.7922 204.637 6.1199 201.333 6.4426C191.777 7.37565 183.49 8.1849 181.045 6.3513C181.82 6.34505 182.382 6.0261 182.573 5.47575C182.732 5.01175 182.573 4.50143 182.202 4.26253C181.996 4.13746 181.425 3.90982 180.584 4.68278C176.102 8.50255 169.511 7.55075 163.139 6.62895C162.339 6.5139 161.521 6.3963 160.715 6.29C160.629 6.26435 160.55 6.21955 160.484 6.15905C160.418 6.0986 160.368 6.024 160.335 5.94105C160.217 5.5458 160.641 5.02675 160.646 5.02175L160.697 4.9592L160.639 4.90167C160.191 4.4589 159.594 4.34383 158.956 4.57647C158.703 4.66653 158.301 4.97546 158.265 5.41695C158.229 5.88975 158.615 6.3538 159.414 6.7928C159.579 6.8864 159.758 6.95555 159.944 6.9979C161.351 7.57075 164.672 7.8259 167.907 8.07355C170.472 8.2687 172.895 8.4488 173.778 8.7815C173.806 8.7906 173.832 8.8056 173.854 8.82545C173.875 8.8453 173.893 8.86955 173.904 8.89655C173.936 8.98285 173.904 9.10545 173.806 9.25425C173.795 9.27305 172.65 11.1967 171.399 12.3511C170.148 13.5055 168.715 14.66 168.694 14.6775C167.506 15.8857 162.483 17.1114 161.003 16.3035C160.928 16.2675 160.863 16.215 160.811 16.1499C160.761 16.0848 160.725 16.0089 160.709 15.9282C160.621 15.5017 161.045 14.9627 161.046 14.9614C161.974 13.9058 164.012 12.5537 164.743 12.5087H164.778L164.801 12.4849C165.562 11.727 165.637 11.2617 165.562 11.0053C165.528 10.9036 165.465 10.8135 165.382 10.7449C165.298 10.6764 165.197 10.6323 165.089 10.6176C164.543 10.5025 163.618 10.8127 162.888 11.6269C162.777 11.6594 162.534 11.797 161.931 12.2048C161.542 12.4687 160.765 13.0127 159.926 13.7057C159.576 13.9933 159.246 14.276 158.928 14.5499C158.091 15.2703 157.366 15.892 156.566 16.3685C155.994 16.7087 155.028 16.5799 155.011 16.5774C154.993 16.5749 153.793 16.4948 153.814 15.8069C153.814 15.5743 155.453 13.5018 157.642 12.3473C158.97 11.661 160.362 11.0999 161.796 10.6713C162.013 10.6088 162.331 10.6463 162.637 10.6826C163.164 10.7451 163.711 10.8077 163.787 10.3449C163.863 9.88215 163.769 9.5432 163.51 9.3318C162.737 8.70645 160.671 9.4419 159.68 9.79835L159.457 9.87715C157.563 10.5413 153.246 13.5143 152.333 15.2691C151.69 16.5036 149.283 17.1189 149.258 17.1252C148.858 17.235 148.451 17.3223 148.041 17.3866C146.705 17.5117 145.972 17.4479 145.861 17.1815C145.807 17.0489 145.867 16.7075 146.875 15.9032C148.363 14.8463 147.984 13.882 147.651 13.0265C147.418 12.4324 147.197 11.8721 147.544 11.288C147.81 10.8414 148.363 10.2724 149.045 10.1398C149.277 10.0973 149.516 10.106 149.745 10.1653C149.973 10.2245 150.186 10.3328 150.367 10.4825C150.416 10.5256 150.473 10.5585 150.535 10.579C150.597 10.5995 150.663 10.6072 150.728 10.6017C150.794 10.5962 150.857 10.5776 150.915 10.547C150.973 10.5163 151.023 10.4744 151.064 10.4237C151.431 10.0247 151.474 9.12045 150.98 8.5976C150.107 7.6408 149.505 7.92975 148.809 8.26495C148.502 8.42795 148.176 8.55395 147.838 8.64015C147.608 8.6589 146.798 9.1542 144.461 10.6413C143.59 11.1942 142.686 11.767 141.947 12.2173C138.752 14.1584 135.179 15.6356 133.803 16.0846C133.75 15.4004 135.078 14.3035 136.254 13.3329C137.248 12.5137 138.111 11.802 138.182 11.3317C138.756 11.1216 138.901 10.8202 138.919 10.6C138.951 10.2248 138.643 9.82085 138.115 9.53695C137.468 9.1905 136.416 9.01035 135.58 9.64075C135.327 9.7033 132.603 10.4049 130.192 11.283L130.065 11.3292C127.656 12.175 125.324 13.2211 123.095 14.4561C121.077 15.573 119.139 16.8725 118.207 17.4967C117.892 17.708 117.642 17.8719 117.594 17.8982H117.585C117.467 17.9494 117.306 18.0232 117.129 18.107C116.732 18.2934 116.019 18.6261 115.804 18.6436C115.841 18.5798 115.964 18.421 116.368 18.0608C117.002 17.4992 118.992 16.0233 120.748 14.7213C121.97 13.8157 123.125 12.9615 123.735 12.4799C124.778 11.6557 124.908 11.3868 125.06 11.0753C125.138 10.9045 125.236 10.744 125.354 10.5976L125.387 10.565C125.571 10.3061 125.653 9.73205 125.545 9.4394C125.532 9.38995 125.506 9.3447 125.47 9.3081C125.434 9.2715 125.389 9.2448 125.339 9.2305C123.793 8.85155 122.56 11.5819 122.51 11.707C122.13 12.8526 117.395 13.7744 115.06 13.6206C114.4 13.5756 113.987 13.4405 113.952 13.2579C113.929 13.1216 114.079 12.7176 115.953 11.8821C116.389 11.6939 116.812 11.4779 117.22 11.2354C119.645 9.7558 125.847 6.9141 127.629 6.9754H127.642H127.652C127.976 6.9041 128.205 6.9304 128.35 7.0567C128.64 7.30685 128.585 7.94225 128.53 8.5576C128.481 8.9218 128.477 9.29075 128.52 9.65575C128.615 9.9847 128.695 10.1085 128.812 10.1085C128.974 10.1085 129.039 9.8659 129.146 9.4669C129.192 9.27775 129.251 9.09185 129.321 8.9103C129.855 7.6758 129.849 6.79405 129.303 6.28375C128.219 5.27565 125.418 6.1449 124.774 6.4626L121.489 7.5645C119.276 7.86095 112.333 11.3768 112.49 13.5281C112.566 14.5674 114.222 15.0802 117.414 15.0527C117.856 14.998 118.28 14.8411 118.65 14.5949C118.922 14.4176 119.216 14.276 119.525 14.1734C119.103 14.5334 118.641 14.8459 118.148 15.1052C117.983 15.199 117.827 15.2878 117.677 15.3829C117.098 15.7581 114.862 17.3741 112.033 19.4266C107.138 22.985 99.746 28.3444 99.2388 28.3807H99.1957L99.1643 28.4094C98.2417 29.2549 98.2984 29.8303 98.4165 30.098C98.4773 30.2324 98.5766 30.3464 98.7022 30.4255C98.8279 30.5047 98.9743 30.5456 99.1238 30.5432H99.1744C99.3371 30.5349 99.4926 30.4752 99.6183 30.373C99.7439 30.2707 99.8331 30.1314 99.8726 29.9754C100.167 29.4413 113.764 20.8162 115.686 19.9444C116.098 19.758 120.973 17.4679 122.324 16.6086C125.691 14.4649 128.408 13.1353 130.619 12.5462C130.659 12.5456 130.698 12.5353 130.732 12.5162L130.75 12.5087C131.822 12.0084 133.164 11.6207 134.463 11.2392C135.087 11.0553 135.73 10.864 136.341 10.6676C136.752 10.5338 137.175 10.59 137.229 10.6951C137.248 10.7351 137.192 10.8615 136.849 11.0603C136.802 11.0878 136.628 11.2504 136.134 11.7195C135.519 12.3023 134.59 13.1828 133.66 14.0108C132.413 15.119 130.95 16.2147 130.95 16.2172C129.945 16.71 129.766 17.154 129.791 17.4404C129.82 17.7518 130.108 18.0157 130.566 18.1471C131.3 18.3572 132.34 18.1921 132.918 17.4692C132.974 17.4491 133.054 17.4266 133.144 17.4016C133.285 17.4166 133.427 17.4025 133.562 17.3603C135.126 16.8713 141.357 14.7163 143.259 13.1228C143.3 13.099 144.273 12.5137 144.609 12.1485C145.09 11.6182 145.542 11.7245 145.837 11.9071C146.539 12.3423 147.059 13.6831 146.663 14.6275C146.597 14.7863 146.092 14.9777 145.603 15.1615C144.756 15.4817 143.701 15.8782 143.557 16.5374C143.504 16.7775 143.774 17.663 144.785 17.967C145.586 18.1889 146.414 18.2967 147.245 18.2871C148.379 18.2871 149.442 18.1095 150.004 17.8269C150.055 17.8069 151.214 17.3266 151.723 17.0502C152.353 17.3668 153.032 17.5758 153.732 17.668C156.14 18.007 158.802 16.7712 159.25 16.5524C159.566 16.9276 160.178 17.5892 161.151 17.668C163.848 17.8869 166.99 16.8013 168.908 15.6281C169.024 15.5532 169.133 15.4696 169.235 15.3779C169.51 15.1478 169.772 14.9301 170.222 15.0427C170.389 15.084 170.476 15.3254 170.492 15.4179C170.662 16.2534 171.324 16.8776 172.405 17.224C174.485 17.8907 177.466 17.3753 178.444 16.4873L180.056 15.1478C180.32 16.7938 182.54 17.4191 183.871 17.6493C186.486 18.097 189.492 17.7743 189.745 17.2103C189.762 17.1711 189.768 17.1277 189.762 17.0852C190.033 17.154 190.287 17.244 190.552 17.3353C191.079 17.5463 191.634 17.6823 192.199 17.7393C196.416 18.072 202.086 17.3391 205.373 14.281C205.539 14.0821 205.88 13.7632 206.07 13.7507C206.086 13.7487 206.101 13.7501 206.116 13.7548C206.131 13.7596 206.144 13.7676 206.155 13.7782C206.564 14.1534 206.599 14.261 206.681 14.5086C206.751 14.7165 206.836 14.9193 206.935 15.1153L206.943 15.1328C207.088 15.4004 207.864 16.6712 209.243 16.7888C211.579 16.9901 212.584 16.5711 213.855 16.0383C214.186 15.9007 214.526 15.7581 214.918 15.6143C215.711 15.3229 217.833 13.6531 218.243 12.9014C218.564 12.3123 218.291 11.0816 217.848 10.5613C217.841 10.5513 217.658 10.2999 217.407 10.3199C217.237 10.3361 217.092 10.4737 216.974 10.7276L216.962 10.7514V10.7777C216.996 10.9229 217.053 11.0619 217.133 11.1892C217.358 11.6182 217.639 12.1522 216.964 12.9114C216.386 13.5606 214.021 14.9201 212.742 15.2341C210.841 15.7031 208.277 15.149 208.013 14.2147C207.506 12.4324 212.633 7.9147 212.685 7.8697C213.572 7.10425 216.305 6.41885 219.486 6.1637C222.724 5.90475 225.279 6.16365 225.994 6.8328L226.018 6.85035ZM162.856 11.6657L162.907 11.7095C162.887 11.717 162.868 11.7258 162.85 11.7357C162.845 11.7243 162.844 11.7121 162.845 11.7C162.846 11.6878 162.85 11.6761 162.856 11.6657ZM115.547 18.0708C115.547 18.0708 115.547 18.0708 115.547 18.0795V18.0708ZM115.526 18.087C115.525 18.0841 115.525 18.0812 115.526 18.0783V18.087L115.536 18.0795H115.549C115.542 18.0829 115.534 18.0854 115.526 18.087ZM135.639 10.6839L135.629 10.6914C135.629 10.6851 135.629 10.6801 135.641 10.6776L135.639 10.6839ZM133.079 16.291C133.073 16.2874 133.068 16.2816 133.065 16.2747H133.111L133.119 16.2809L133.079 16.291ZM133.14 16.2672L133.074 16.2285C133.104 16.2034 133.134 16.2284 133.14 16.2672ZM172.027 15.992H172.018C172.022 15.9907 172.026 15.9907 172.03 15.992H172.027ZM172.027 16.0133L172.034 16.002C172.034 16.002 172.031 16.012 172.027 16.0133ZM194.803 14.8551L194.666 14.9802C193.836 15.7094 192.978 16.4623 192.073 15.8644C192.032 15.3116 194.049 13.9808 194.817 13.4743C195.027 13.3354 195.178 13.2354 195.254 13.1778C195.899 12.6913 196.331 12.63 196.521 12.7363C196.562 12.7586 196.596 12.7929 196.616 12.8346C196.637 12.8763 196.643 12.9233 196.635 12.969C196.615 13.1616 196.412 13.4117 196.002 13.5356L195.97 13.5531C195.715 13.7601 195.492 14.0043 195.311 14.2772C195.17 14.4925 194.999 14.687 194.803 14.8551ZM209.62 10.0785H209.675L209.622 10.0697C209.622 10.026 209.678 10.0385 209.675 10.0785C209.671 10.1185 209.618 10.1123 209.622 10.0722L209.62 10.0785ZM209.608 8.32745C208.367 9.7258 205.116 13.3817 204.983 13.5005C202.287 15.8419 198.139 16.5586 198.106 16.5649C197.463 16.6537 195.758 16.8888 195.614 16.6099C195.529 16.4473 195.985 15.9783 196.467 15.4842C196.79 15.1503 197.156 14.7725 197.524 14.3385C197.819 13.9873 198.09 13.6171 198.335 13.2304C198.607 12.8034 198.906 12.394 199.23 12.0046C199.713 11.4243 200.339 11.3718 200.795 11.3342C201.123 11.3067 201.409 11.283 201.453 11.0341C201.928 10.1585 201.707 9.73205 201.436 9.5332C200.999 9.21425 200.192 9.30055 199.914 9.4519C199.741 9.47815 199.154 9.75955 196.827 11.1279C194.842 12.2961 192.758 13.5868 191.075 14.6937C190.493 13.3817 190.301 13.2741 190.155 13.2729C190.01 13.2716 189.937 13.453 189.869 13.6394C189.836 13.7685 189.774 13.8884 189.686 13.9896C189.053 14.4986 189.296 15.7406 189.368 16.0571C187.633 16.9113 184.893 16.9526 183.34 16.1409C182.598 15.7531 182.177 15.2141 182.088 14.5387C182.106 14.4924 182.122 14.4424 182.14 14.3898C182.354 13.7644 182.71 12.7288 184.918 12.151C185.045 12.151 185.298 12.1185 185.863 11.9896C186.761 11.7808 187.8 11.4093 187.704 10.8089C187.936 10.2661 187.713 10.021 187.557 9.92215C187.122 9.64575 186.252 9.8659 185.799 10.3649C185.723 10.45 185.265 10.6476 184.736 10.8765C183.073 11.5931 179.989 12.9239 179.648 14.5512C179.351 14.7838 176.509 16.9626 174.423 16.5186C174.423 16.5186 174.069 16.4136 173.643 16.2935C173.129 16.1484 172.756 15.937 172.583 15.6806C171.537 14.1797 172.583 13.0002 173.499 11.9609C173.686 11.7495 173.862 11.5494 174.015 11.3543C174.231 11.1641 174.449 10.9603 174.68 10.7464C175.75 9.7458 176.961 8.62015 178.461 8.4588C179.865 8.3062 182.348 8.2987 185.222 8.2887C189.826 8.2737 195.553 8.2549 198.626 7.5745C200.4 7.90095 202.695 7.537 204.724 7.2143C207.204 6.8203 209.552 6.4476 210.301 7.4407C210.102 7.7572 209.87 8.0523 209.609 8.3212L209.608 8.32745ZM197.709 13.1503C197.708 13.1467 197.708 13.1427 197.709 13.1391V13.1491V13.1503ZM197.722 13.1603L197.733 13.1528C197.733 13.1528 197.728 13.1516 197.718 13.1541L197.722 13.1603ZM187.046 10.4387L187.055 10.4837C187.048 10.4847 187.041 10.483 187.036 10.4789C187.03 10.4748 187.026 10.4686 187.025 10.4618C187.024 10.455 187.026 10.4481 187.03 10.4426C187.035 10.4371 187.041 10.4334 187.048 10.4325L187.046 10.4387ZM187.055 10.4837L187.073 10.4412C187.094 10.455 187.081 10.4775 187.056 10.4775L187.055 10.4837Z" fill="white"/>
<path d="M303.887 8.41471C303.706 8.11706 303.277 7.89941 302.724 8.07951C302.612 8.09826 302.461 8.26336 302.046 8.73991C301.726 9.10261 301.285 9.60041 300.809 10.0607C300.008 10.8051 299.142 11.4797 298.223 12.0769C297.276 12.8599 294.452 13.9393 291.506 14.6435C288.253 15.4202 285.88 15.4915 285.309 14.8261C284.846 14.2857 285.548 13.2001 287.35 11.6767C288.328 10.466 290.519 8.42471 290.899 8.29966H290.915C291.586 8.29966 293.638 7.40411 293.869 6.68741C293.915 6.54611 293.915 6.34346 293.654 6.17836L293.606 6.15711H293.59C293.59 6.13461 293.582 6.10456 293.579 6.08081C293.558 5.89571 293.517 5.51296 292.946 5.56426C291.796 5.66931 291.358 6.20591 291.334 6.23716C291.147 6.53111 288.112 8.36341 286.125 9.51286L286.107 9.52161C285.619 9.73801 285.264 9.89686 284.792 9.89686H284.77C283.143 9.88061 281.821 10.2721 280.428 10.6948C278.401 11.304 276.317 11.9343 272.928 11.434C272.548 11.379 271.85 11.2064 271.102 11.025C270.243 10.8162 269.358 10.601 268.899 10.5448C268.661 9.69421 267.905 9.78051 267.105 9.87181H267.053C266.723 9.90936 265.776 10.2208 265.084 10.7686C264.982 10.8499 264.893 10.9262 264.807 11C264.56 11.2426 264.262 11.4295 263.934 11.5479C261.767 12.2983 259.843 12.4984 257.483 12.2258C256.24 12.3046 253.808 12.3246 253.359 11.4753C253.252 11.2739 253.318 11.0213 253.556 10.7249C253.564 10.7149 254.366 9.70676 254.908 9.49411L254.934 9.47786C255.128 9.31276 255.209 9.15516 255.176 9.01131C255.143 8.86751 254.999 8.76116 254.748 8.68736C254.254 8.55231 253.408 8.59856 253.133 8.82746C252.789 8.88386 252.478 9.06166 252.256 9.32776C251.802 9.82806 249.489 10.7774 248.108 11.3427C247.854 11.4453 247.634 11.5366 247.449 11.6141C246.619 11.9619 241.226 15.4402 240.585 15.7116C239.57 16.1456 238.407 16.6371 237.416 17.0111L237.189 17.0887C236.908 17.185 236.53 17.3151 236.416 17.305C236.441 17.2275 236.605 16.9874 237.402 16.2494C237.602 16.0656 238.26 15.5678 239.095 14.9374C240.664 13.7517 242.815 12.1282 243.432 11.424C243.611 11.2057 243.808 11.0027 244.022 10.8174C244.619 10.5998 245.125 9.91311 245.177 9.24646C245.2 8.99636 245.147 8.74506 245.025 8.52456C244.903 8.30406 244.718 8.12431 244.492 8.00821C244.492 7.32906 244.238 6.83126 243.732 6.53111C242.37 5.72311 239.605 6.59986 238.681 7.10141C237.46 7.76306 232.404 10.1458 232.364 10.1658C231.263 10.511 229.597 11.5416 229.337 12.7648C229.203 13.3977 229.464 13.9981 230.098 14.5496C230.942 15.2826 234.219 16.1343 236.244 14.746C236.932 14.4821 237.593 14.3445 237.663 14.4508C237.663 14.4508 237.724 14.5559 237.262 15.0037C237.069 15.1925 236.095 16.1769 236.087 16.1856C236.024 16.2469 229.787 21.4838 229.127 21.7515C228.444 22.0279 227.96 22.8846 226.498 23.6276C225.765 24.1691 224.771 24.9471 224.198 25.0472C223.986 25.1298 223.789 25.2469 223.616 25.3936C223.509 25.4813 223.394 25.5595 223.273 25.6275C222.596 25.9902 222.567 26.4217 222.586 26.5906C222.596 26.7001 222.639 26.804 222.709 26.8891C222.78 26.9743 222.875 27.0367 222.981 27.0684H223.001H223.022C223.156 27.0446 223.287 27.0334 223.425 27.0209C223.882 27.0048 224.33 26.8827 224.73 26.6644C224.836 26.6181 224.949 26.5901 225.065 26.5818C225.239 26.5581 225.419 26.5343 225.502 26.393C225.563 26.2892 225.556 26.1428 225.482 25.9465C225.668 25.7889 226.581 25.2773 227.543 24.7382C229.864 23.435 229.843 23.7702 231.333 22.3731C231.95 21.7952 234.447 19.8265 236.488 18.6358C237.482 18.0526 238.51 17.5264 239.565 17.0599C240.651 16.6209 247.582 12.636 248.091 12.5309C248.569 12.4334 250.313 11.6016 251.44 10.7224C251.643 10.5648 251.743 10.5635 251.771 10.5873C251.824 10.6348 251.811 10.8474 251.67 11.0713C251.375 11.5353 251.268 11.5416 251.106 11.5504C250.881 11.5563 250.665 11.6384 250.495 11.783C250.23 11.9781 249.861 12.192 249.444 12.4384C248.185 13.1763 246.62 14.0944 246.313 15.3076C246.255 15.5545 246.249 15.8105 246.294 16.06C246.339 16.3095 246.436 16.5471 246.578 16.7585C247.454 18.1856 248.782 18.108 248.834 18.1043C249.835 18.0943 251.292 17.7791 251.301 17.7766C252.885 17.5327 253.299 15.539 253.455 14.7885C253.473 14.7035 253.487 14.6372 253.498 14.5909C253.564 14.3516 253.641 14.1157 253.732 13.8842C253.802 13.7116 253.858 13.5339 253.9 13.3527C254.364 13.3702 255.095 13.3102 255.928 13.2414C257.929 13.0788 259.771 12.8549 260.286 13.6166C260.414 13.7979 260.397 14.0318 260.243 14.3308C259.815 15.1663 259.972 15.8542 260.179 16.2844C260.333 16.5991 260.555 16.8769 260.829 17.0985C261.103 17.3201 261.423 17.4802 261.766 17.5677C262.624 17.7528 263.882 17.8541 264.61 17.5327C264.85 17.4276 264.98 17.3713 265.004 17.3651C265.028 17.3588 265.023 17.3588 265.338 17.2125C267.193 16.3507 267.8 14.8361 268.141 12.8349C268.178 12.616 268.373 12.4021 268.515 12.2445C268.581 12.183 268.635 12.1111 268.677 12.0319C269.457 11.9705 270.24 11.986 271.017 12.0782C271.623 12.0957 272.041 12.1382 272.411 12.1757C272.707 12.2057 272.965 12.232 273.25 12.237C274.455 12.2595 275.133 12.4209 275.265 12.7136C275.397 13.0062 274.959 13.519 274.491 14.0456C273.911 14.696 273.255 15.4327 273.476 16.0906C273.64 16.5909 274.282 16.9661 275.44 17.2262C277.956 17.699 280.42 16.3432 281.764 15.0387C282.04 14.7338 282.294 14.4108 282.525 14.0719C283.09 13.2901 283.865 12.2195 284.641 11.6717C284.947 11.4565 285.055 11.4916 285.08 11.5078C285.146 11.5491 285.154 11.7067 285.138 11.8155C283.58 13.3827 283.041 14.5797 283.535 15.3751C284.643 17.16 290.607 16.2507 294.488 15.0412C296.654 14.3645 298.417 13.4565 299.891 12.267C300.85 11.4634 301.763 10.6078 302.626 9.70426C302.79 9.52286 303.038 9.52036 303.279 9.51911C303.407 9.52526 303.535 9.51216 303.659 9.48036L303.694 9.46036C304.01 9.15641 304.089 8.74616 303.887 8.41471ZM243.855 10.2633V10.2821C243.852 10.2796 243.851 10.2765 243.85 10.2732C243.849 10.2699 243.85 10.2665 243.851 10.2633H243.855ZM240.348 6.95761H240.368H240.394C240.396 6.96336 240.396 6.96931 240.394 6.97511C240.396 6.98336 240.396 6.99191 240.394 7.00011H240.369H240.349C240.347 6.99061 240.347 6.98086 240.349 6.97136C240.349 6.97136 240.348 6.96011 240.348 6.95761ZM231.695 11.2614C231.706 11.2252 231.75 11.2339 231.75 11.2727C231.75 11.3115 231.691 11.3077 231.692 11.2727H231.75L231.695 11.2614ZM230.467 11.9181C230.459 11.9181 230.446 11.9181 230.443 11.9093L230.46 11.9031L230.467 11.9181L230.474 11.8981C230.487 11.9018 230.487 11.9106 230.467 11.9181ZM236.198 13.9868C234.216 14.3508 231.752 14.237 231.42 13.5265C231.265 13.1988 231.654 12.7898 232.007 12.5047C233.358 11.4153 235.741 10.3496 235.771 10.3359C235.821 10.3084 235.937 10.2371 236.103 10.1345C238.976 8.35591 241.053 7.46041 242.299 7.46041C242.549 7.45336 242.796 7.50166 243.024 7.60171C243.381 7.77306 243.585 8.10201 243.64 8.59231C243.767 9.51161 243.34 9.82431 242.795 10.2183C242.609 10.3479 242.431 10.4878 242.261 10.6373L238.676 13.6241C238.513 13.7743 238.31 13.8743 238.09 13.9118C238.023 13.8908 237.954 13.8758 237.884 13.8667L237.847 13.8555C237.826 13.8504 237.805 13.8504 237.785 13.8555H237.771C237.243 13.8304 236.714 13.8746 236.198 13.9868ZM230.474 21.1736C230.474 21.1911 230.461 21.1911 230.451 21.1899C230.442 21.1886 230.433 21.1848 230.424 21.1789C230.417 21.1729 230.411 21.1651 230.407 21.1561L230.476 21.1636C230.476 21.1636 230.474 21.1699 230.474 21.1736ZM230.408 21.1386C230.411 21.1308 230.416 21.124 230.423 21.1193C230.43 21.1146 230.438 21.1121 230.446 21.1123H230.454C230.461 21.1177 230.467 21.1247 230.471 21.1328C230.475 21.1409 230.476 21.1497 230.476 21.1586L230.408 21.1386ZM251.175 12.3746V12.3671H251.188C251.188 12.3821 251.188 12.3896 251.18 12.3946L251.188 12.3696L251.175 12.3746ZM251.16 12.3621H251.17L251.137 12.3733C251.137 12.3733 251.145 12.3671 251.16 12.3621ZM247.403 14.8636C247.397 14.8645 247.391 14.8637 247.385 14.8613C247.379 14.8589 247.374 14.8549 247.37 14.8498C247.364 14.8426 247.36 14.8333 247.36 14.8236L247.43 14.8411C247.428 14.8483 247.425 14.8549 247.419 14.86C247.414 14.8651 247.407 14.8685 247.399 14.8698L247.403 14.8636ZM247.36 14.8211C247.359 14.8165 247.359 14.8119 247.36 14.8073C247.364 14.8006 247.37 14.7954 247.378 14.7927C247.385 14.7899 247.393 14.7898 247.401 14.7923C247.408 14.7951 247.416 14.8001 247.421 14.8068C247.426 14.8135 247.428 14.8215 247.429 14.8298L247.36 14.8211ZM251.681 16.7347V16.7147V16.7335H251.65C251.65 16.7335 251.65 16.7335 251.65 16.7234H251.676H251.692C251.692 16.7234 251.692 16.7347 251.692 16.7422L251.681 16.7347ZM252.028 16.9086L252.084 16.8986C252.064 16.9198 252.038 16.9511 252.028 16.9148V16.9086ZM252.789 13.3527C252.627 13.6607 252.509 13.9889 252.436 14.3283C252.386 14.5337 252.327 14.7366 252.256 14.9361C252.21 15.0726 252.173 15.2117 252.143 15.3526C251.978 16.0655 251.772 16.9536 250.088 16.6859H250.061C249.113 16.7159 248.568 16.5371 248.437 16.1556C248.184 15.4052 249.549 14.0118 250.002 13.6929C250.328 13.4615 251.82 12.7848 252.498 12.6135C252.711 12.5597 252.863 12.576 252.927 12.6573C253.019 12.7761 252.965 13.0362 252.784 13.3539L252.789 13.3527ZM266.904 13.0788C266.523 14.6572 266.089 16.4433 263.578 16.4433H263.435H263.427C262.895 16.4733 262.488 16.362 262.221 16.1131C262.023 15.922 261.905 15.6651 261.89 15.3926V15.3689C261.787 14.9937 262.416 14.3058 263.761 13.3377C263.816 13.2976 263.861 13.2664 263.887 13.2439C264.875 12.5022 265.985 11.7292 266.734 11.6179C266.745 11.6167 266.756 11.6167 266.767 11.6179C266.94 11.6179 267.147 11.8193 267.236 11.9368C267.096 12.3114 266.984 12.695 266.899 13.085L266.904 13.0788ZM274.823 16.2944H274.83L274.865 16.3082C274.863 16.3135 274.859 16.318 274.854 16.3209C274.849 16.3238 274.843 16.3249 274.838 16.324C274.832 16.3231 274.827 16.3203 274.823 16.316C274.82 16.3118 274.818 16.3063 274.818 16.3007L274.823 16.2944ZM274.873 16.2869H274.858H274.875H274.825C274.838 16.2707 274.867 16.2532 274.875 16.2869L274.868 16.2932L274.873 16.2869ZM282.098 12.4384C281.923 12.6343 281.819 12.882 281.802 13.1426C281.792 13.2269 281.776 13.3105 281.754 13.3927V13.4065V13.4202C281.766 13.8717 280.401 14.8811 279.867 15.2363C278.526 16.3182 276.664 16.6959 275.83 16.362C275.588 16.2644 275.45 16.1118 275.434 15.9242C275.401 15.6415 275.589 14.9999 277.208 13.8842L277.407 13.7417C278.115 13.2251 279.883 11.9381 281.384 11.9381C281.543 11.9374 281.701 11.9533 281.856 11.9856H281.885L281.91 11.9744C282.139 11.8768 282.29 11.8931 282.327 11.9493C282.364 12.0056 282.312 12.2095 282.088 12.4446L282.098 12.4384Z" fill="white"/>
</g>
<defs>
<clipPath id="clip0_387_79">
<rect width="304" height="31" fill="white"/>
</clipPath>
</defs>
</svg>
