<svg width="79" height="78" viewBox="0 0 79 78" fill="none" xmlns="http://www.w3.org/2000/svg">
<g clip-path="url(#clip0_387_85)">
<mask id="mask0_387_85" style="mask-type:luminance" maskUnits="userSpaceOnUse" x="0" y="0" width="79" height="78">
<path d="M79 0H0V78H79V0Z" fill="white"/>
</mask>
<g mask="url(#mask0_387_85)">
<path d="M79 0H0V78H79V0Z" fill="white"/>
<path d="M9.54088 17.2602C8.63949 17.2602 7.74314 17.0621 6.85184 16.666C5.96055 16.2699 5.21613 15.6504 4.61857 14.8074C4.03113 13.9543 3.73742 12.8879 3.73742 11.6082C3.73742 10.6535 3.96024 9.71408 4.40588 8.78984C4.85152 7.85549 5.48453 7.09377 6.30492 6.50469C7.13545 5.91562 8.08746 5.62109 9.16107 5.62109C9.45477 5.62109 9.74342 5.65664 10.027 5.72773C10.3106 5.79883 10.6246 5.89531 10.969 6.01719C11.05 6.0375 11.1867 6.07812 11.3791 6.13906C11.5716 6.2 11.7235 6.23047 11.8349 6.23047C12.0071 6.23047 12.1894 6.16953 12.3818 6.04766C12.4528 6.00703 12.5186 5.98672 12.5793 5.98672C12.6907 5.98672 12.7616 6.05781 12.792 6.2L13.2934 8.37852L13.3238 8.53086C13.3238 8.58162 13.2832 8.62732 13.2022 8.66797C13.182 8.67815 13.1566 8.6832 13.1263 8.6832C13.0756 8.6832 13.025 8.65273 12.9743 8.5918C12.6503 8.12459 12.3312 7.72344 12.0172 7.38828C11.7134 7.04295 11.3336 6.75349 10.8778 6.51992C10.4322 6.27617 9.91564 6.1543 9.32819 6.1543C8.46727 6.1543 7.79881 6.50975 7.3228 7.2207C6.85688 7.92148 6.54799 8.6832 6.39607 9.50586C6.25429 10.3183 6.18338 10.9988 6.18338 11.5473C6.18338 12.6137 6.35554 13.5277 6.69992 14.2895C7.04429 15.041 7.48992 15.6098 8.03684 15.9957C8.58376 16.3715 9.16611 16.5594 9.78395 16.5594C10.6145 16.5594 11.293 16.3563 11.8197 15.95C12.3565 15.5336 12.8326 14.9953 13.2478 14.3352C13.3187 14.2235 13.3744 14.1523 13.4149 14.1219C13.4554 14.1016 13.4807 14.0914 13.4909 14.0914C13.5111 14.0914 13.5466 14.1066 13.5972 14.1371C13.658 14.1778 13.6884 14.2285 13.6884 14.2895L13.658 14.3809C13.2934 15.1121 12.7718 15.7774 12.0932 16.3766C11.4247 16.9656 10.574 17.2602 9.54088 17.2602ZM18.4916 17.2602C17.732 17.2602 17.0534 17.0773 16.4559 16.7117C15.8684 16.3461 15.4126 15.8636 15.0886 15.2645C14.7645 14.6653 14.6024 14.0305 14.6024 13.3602C14.6024 12.6797 14.7645 12.0449 15.0886 11.4559C15.4126 10.8567 15.8684 10.3793 16.4559 10.0238C17.0534 9.6582 17.732 9.47539 18.4916 9.47539C19.2513 9.47539 19.9248 9.6582 20.5122 10.0238C21.1098 10.3793 21.5706 10.8567 21.8947 11.4559C22.2188 12.0449 22.3809 12.6797 22.3809 13.3602C22.3809 14.0305 22.2188 14.6653 21.8947 15.2645C21.5706 15.8636 21.1098 16.3461 20.5122 16.7117C19.9248 17.0773 19.2513 17.2602 18.4916 17.2602ZM18.4916 16.8793C19.0791 16.8793 19.5298 16.5391 19.8438 15.8586C20.1678 15.168 20.3299 14.3352 20.3299 13.3602C20.3299 12.375 20.1678 11.5473 19.8438 10.877C19.5298 10.2066 19.0791 9.87148 18.4916 9.87148C17.9042 9.87148 17.4535 10.2066 17.1395 10.877C16.8255 11.5473 16.6686 12.375 16.6686 13.3602C16.6686 14.3352 16.8255 15.168 17.1395 15.8586C17.4535 16.5391 17.9042 16.8793 18.4916 16.8793ZM28.395 9.46016C28.8305 9.46016 29.1799 9.58203 29.4433 9.82578C29.7167 10.0695 29.8535 10.3488 29.8535 10.6637C29.8535 10.9074 29.7674 11.1105 29.5952 11.273C29.4331 11.4356 29.2255 11.5168 28.9723 11.5168C28.8001 11.5168 28.6482 11.4813 28.5166 11.4102C28.3849 11.3289 28.2329 11.2172 28.0608 11.075C27.919 10.9429 27.7924 10.8465 27.681 10.7855C27.5695 10.7144 27.448 10.6789 27.3164 10.6789C27.1037 10.6789 26.9011 10.7855 26.7087 10.9988C26.5264 11.2121 26.3693 11.5016 26.2377 11.8672C26.1972 11.9992 26.1769 12.1312 26.1769 12.2633V15.95C26.1769 16.2649 26.2478 16.473 26.3896 16.5746C26.5314 16.666 26.7441 16.7117 27.0277 16.7117H27.1948C27.2657 16.7117 27.3012 16.7727 27.3012 16.8945C27.3012 17.0062 27.2657 17.0621 27.1948 17.0621H23.1992C23.1283 17.0621 23.0929 17.0062 23.0929 16.8945C23.0929 16.7727 23.1283 16.7117 23.1992 16.7117H23.3512C23.6347 16.7117 23.8474 16.666 23.9892 16.5746C24.131 16.473 24.2019 16.2649 24.2019 15.95V11.2426C24.2019 10.9176 24.131 10.7043 23.9892 10.6027C23.8474 10.491 23.6094 10.4301 23.2752 10.4199C23.2245 10.4097 23.1891 10.3793 23.1689 10.3285C23.1486 10.2778 23.1385 10.2269 23.1385 10.1762C23.1385 10.1152 23.1689 10.0797 23.2296 10.0695C23.3208 10.0391 24.1867 9.86131 25.8275 9.53633H25.9035C25.9845 9.53633 26.0503 9.56174 26.101 9.6125C26.1516 9.66326 26.1769 9.73437 26.1769 9.82578V10.557C26.1769 10.6891 26.2174 10.7551 26.2985 10.7551C26.3795 10.7551 26.4909 10.6687 26.6327 10.4961C26.8859 10.1711 27.1593 9.91719 27.4531 9.73437C27.7569 9.55156 28.0709 9.46016 28.395 9.46016ZM38.917 16.7117C38.9879 16.7117 39.0233 16.7727 39.0233 16.8945C39.0233 17.0062 38.9879 17.0621 38.917 17.0621H34.9366C34.8657 17.0621 34.8302 17.0062 34.8302 16.8945C34.8302 16.7727 34.8657 16.7117 34.9366 16.7117H35.1037C35.3772 16.7117 35.5848 16.666 35.7266 16.5746C35.8684 16.473 35.9393 16.2649 35.9393 15.95C35.9596 14.9445 35.9697 14.066 35.9697 13.3145C35.9697 12.7863 35.9596 12.3293 35.9393 11.9434C35.9089 11.4152 35.8025 10.9988 35.6202 10.6941C35.4481 10.3895 35.1493 10.2371 34.7239 10.2371C34.1669 10.2371 33.6604 10.5875 33.2047 11.2883C33.1338 11.4203 33.0983 11.5523 33.0983 11.6844V15.95C33.0983 16.2649 33.1692 16.473 33.311 16.5746C33.4528 16.666 33.6655 16.7117 33.9491 16.7117H34.1162C34.1871 16.7117 34.2225 16.7727 34.2225 16.8945C34.2225 17.0062 34.1871 17.0621 34.1162 17.0621H30.1206C30.0396 17.0621 29.9991 17.0062 29.9991 16.8945C29.9991 16.7727 30.0396 16.7117 30.1206 16.7117H30.2725C30.5562 16.7117 30.7688 16.666 30.9106 16.5746C31.0525 16.473 31.1233 16.2649 31.1233 15.95V11.2578C31.1233 10.9227 31.0525 10.7043 30.9106 10.6027C30.7688 10.491 30.5308 10.4301 30.1966 10.4199C30.1054 10.4097 30.0599 10.3285 30.0599 10.1762C30.0599 10.1152 30.0902 10.0797 30.151 10.0695C30.2422 10.0391 31.1081 9.86131 32.7489 9.53633H32.8249C32.9059 9.53633 32.9717 9.56174 33.0224 9.6125C33.073 9.66326 33.0983 9.73437 33.0983 9.82578V10.2371C33.0983 10.3183 33.1085 10.3844 33.1287 10.4352C33.1591 10.4758 33.1946 10.4961 33.235 10.4961C33.3161 10.4961 33.3921 10.4504 33.4629 10.359C34.02 9.7699 34.6631 9.47539 35.3924 9.47539C35.9393 9.47539 36.4001 9.59221 36.7749 9.82578C37.1496 10.0492 37.4281 10.3387 37.6104 10.6941C37.8029 11.0496 37.9042 11.4254 37.9143 11.8215V15.95C37.9143 16.2649 37.9852 16.473 38.127 16.5746C38.2688 16.666 38.4815 16.7117 38.765 16.7117H38.917ZM46.7321 15.1121C46.7929 15.1528 46.8233 15.2035 46.8233 15.2645L46.8081 15.3559C46.5751 15.8535 46.1953 16.2953 45.6687 16.6812C45.1521 17.0672 44.509 17.2602 43.7392 17.2602C42.9796 17.2602 42.2909 17.0875 41.6731 16.7422C41.0654 16.3867 40.5893 15.9145 40.245 15.3254C39.9108 14.7363 39.7437 14.1016 39.7437 13.4211C39.7437 12.8015 39.8905 12.1871 40.1842 11.5777C40.4881 10.9684 40.9287 10.4656 41.506 10.0695C42.0833 9.67344 42.7669 9.47539 43.5569 9.47539C44.3672 9.47539 45.0812 9.73943 45.6991 10.2676C46.3168 10.7855 46.7068 11.4965 46.8689 12.4004V12.4613C46.8689 12.6543 46.7676 12.7508 46.565 12.7508L42.1744 12.7812C41.9618 12.7812 41.8554 12.8676 41.8554 13.0402V13.2992C41.8554 14.1625 42.0428 14.9141 42.4175 15.5539C42.8024 16.1836 43.3898 16.4984 44.1798 16.4984C45.1217 16.4984 45.8966 16.0516 46.5043 15.1578C46.5346 15.1071 46.5802 15.0816 46.641 15.0816C46.6612 15.0816 46.6916 15.0918 46.7321 15.1121ZM43.5114 9.87148C43.2278 9.87148 42.9341 10.0086 42.6302 10.2828C42.3264 10.557 42.1035 11.0953 41.9617 11.8977V11.9586C41.9617 12.1617 42.063 12.2633 42.2656 12.2633L44.59 12.2328C44.6913 12.2328 44.7672 12.2074 44.8179 12.1566C44.8787 12.1059 44.9091 12.0348 44.9091 11.9434C44.9091 11.3137 44.7723 10.811 44.4989 10.4352C44.2254 10.0594 43.8962 9.87148 43.5114 9.87148ZM47.9417 17.0621C47.8607 17.0621 47.8201 17.0012 47.8201 16.8793C47.8201 16.7676 47.8607 16.7117 47.9417 16.7117H48.0936C48.3873 16.7117 48.6152 16.666 48.7773 16.5746C48.9494 16.473 49.0355 16.2649 49.0355 15.95L49.0203 7.37305C49.0203 7.04807 48.9494 6.83479 48.8076 6.7332C48.676 6.6215 48.443 6.55545 48.1088 6.53516C48.048 6.53516 48.0075 6.50975 47.9873 6.45898C47.967 6.40822 47.9569 6.3574 47.9569 6.30664C47.9569 6.2457 47.9873 6.21018 48.048 6.2C48.2202 6.14924 48.7418 6.04258 49.6128 5.88008L50.6611 5.6668H50.7371C50.9194 5.6668 51.0105 5.76328 51.0105 5.95625V15.95C51.0105 16.2649 51.0915 16.473 51.2536 16.5746C51.4157 16.666 51.6436 16.7117 51.9373 16.7117H52.1044C52.1753 16.7117 52.2107 16.7676 52.2107 16.8793C52.2107 17.0012 52.1753 17.0621 52.1044 17.0621H47.9417ZM52.9937 17.0621C52.9127 17.0621 52.8722 17.0012 52.8722 16.8793C52.8722 16.7676 52.9127 16.7117 52.9937 16.7117H53.1457C53.4394 16.7117 53.6672 16.666 53.8293 16.5746C54.0015 16.473 54.0876 16.2649 54.0876 15.95L54.0724 7.37305C54.0724 7.04807 54.0015 6.83479 53.8597 6.7332C53.728 6.6215 53.4951 6.55545 53.1608 6.53516C53.1001 6.53516 53.0595 6.50975 53.0393 6.45898C53.0191 6.40822 53.0089 6.3574 53.0089 6.30664C53.0089 6.2457 53.0393 6.21018 53.1001 6.2C53.2722 6.14924 53.7939 6.04258 54.6649 5.88008L55.7132 5.6668H55.7891C55.9714 5.6668 56.0626 5.76328 56.0626 5.95625V15.95C56.0626 16.2649 56.1436 16.473 56.3057 16.5746C56.4677 16.666 56.6956 16.7117 56.9893 16.7117H57.1564C57.2273 16.7117 57.2628 16.7676 57.2628 16.8793C57.2628 17.0012 57.2273 17.0621 57.1564 17.0621H52.9937ZM3.81338 33.5152C3.77286 33.5152 3.74248 33.5 3.72222 33.4695C3.71209 33.4391 3.70703 33.3934 3.70703 33.3324C3.70703 33.2308 3.74248 33.1801 3.81338 33.1801H3.98049C4.34511 33.1801 4.64895 33.0937 4.89203 32.9211C5.13511 32.7383 5.25665 32.3879 5.25665 31.8699V23.8871C5.25665 23.3691 5.13511 23.0238 4.89203 22.8512C4.64895 22.6684 4.34511 22.577 3.98049 22.577H3.81338C3.77286 22.577 3.74248 22.5617 3.72222 22.5312C3.71209 22.5008 3.70703 22.4551 3.70703 22.3941V22.3637C3.70703 22.323 3.73742 22.2926 3.79819 22.2723C3.85895 22.252 3.92479 22.2418 3.99569 22.2418C4.64389 22.2215 5.66684 22.2113 7.06453 22.2113C8.13814 22.2113 8.84203 22.2215 9.17626 22.2418C9.9865 22.2926 10.8018 22.516 11.6222 22.9121C12.4426 23.3082 13.1313 23.9226 13.6884 24.7555C14.2555 25.5781 14.5391 26.6191 14.5391 27.8785C14.5391 29.1379 14.2555 30.184 13.6884 31.0168C13.1313 31.8395 12.4426 32.4488 11.6222 32.8449C10.8018 33.241 9.9865 33.4645 9.17626 33.5152C8.85218 33.5355 8.16342 33.5457 7.11011 33.5457C6.11756 33.5457 5.01863 33.5355 3.81338 33.5152ZM8.75088 33.0582C9.2978 33.0582 9.82953 32.916 10.3461 32.6316C10.8626 32.3472 11.2981 31.8192 11.6526 31.0473C12.0172 30.2754 12.1995 29.2191 12.1995 27.8785C12.1995 26.5379 12.0172 25.4817 11.6526 24.7098C11.2981 23.9379 10.8626 23.4098 10.3461 23.1254C9.82953 22.841 9.2978 22.6988 8.75088 22.6988H8.64453C8.17861 22.6988 7.85453 22.7699 7.67222 22.9121C7.48992 23.0543 7.39876 23.3031 7.39876 23.6586V32.0984C7.39876 32.4641 7.48992 32.718 7.67222 32.8602C7.85453 32.9922 8.17861 33.0582 8.64453 33.0582H8.75088ZM23.6179 32.1289C23.6483 32.1289 23.6737 32.1391 23.6939 32.1594C23.7243 32.1797 23.7395 32.2101 23.7395 32.2508L23.7243 32.3269C23.6028 32.7129 23.3749 33.0379 23.0406 33.302C22.7064 33.5559 22.3469 33.6828 21.962 33.6828C21.3138 33.6828 20.8631 33.4492 20.6099 32.982C20.5491 32.8703 20.4782 32.8145 20.3972 32.8145C20.3263 32.8145 20.2604 32.8399 20.1997 32.8906C19.825 33.1648 19.4198 33.3731 18.9843 33.5152C18.5488 33.6574 18.1183 33.7285 17.6929 33.7285C17.0549 33.7285 16.5535 33.5812 16.1889 33.2867C15.8344 32.982 15.6572 32.5656 15.6572 32.0375C15.6572 31.2453 16.1029 30.6156 16.9941 30.1484C17.2372 30.0266 17.5056 29.9301 17.7993 29.859C18.0931 29.7778 18.4627 29.7016 18.9083 29.6305L20.0629 29.3867C20.2453 29.336 20.3364 29.2141 20.3364 29.0211V28.625C20.3364 28.0054 20.3212 27.5738 20.2908 27.3301C20.2604 27.0761 20.1845 26.868 20.0629 26.7055C19.8604 26.4617 19.592 26.3398 19.2578 26.3398C19.0046 26.3398 18.7818 26.4211 18.5893 26.5836C18.407 26.7461 18.2551 27.0863 18.1335 27.6043C18.0424 27.9801 17.8956 28.2594 17.6929 28.4422C17.5006 28.625 17.2777 28.7164 17.0245 28.7164C16.7713 28.7164 16.5485 28.6453 16.356 28.5031C16.1636 28.3508 16.0674 28.1426 16.0674 27.8785C16.0674 27.6754 16.1433 27.4265 16.2953 27.132C16.4573 26.8273 16.7713 26.5531 17.2372 26.3094C17.7132 26.0554 18.3766 25.9285 19.2274 25.9285C20.4225 25.9285 21.2986 26.2332 21.8556 26.8426C22.0379 27.0457 22.1595 27.2742 22.2203 27.5281C22.2912 27.7719 22.3266 28.0766 22.3266 28.4422L22.3114 30.118C22.3013 30.4531 22.2962 30.9711 22.2962 31.6719C22.2962 32.1187 22.3418 32.4082 22.4329 32.5402C22.5241 32.6621 22.6456 32.723 22.7976 32.723C22.9191 32.723 23.0406 32.6824 23.1622 32.6012C23.2939 32.5098 23.4104 32.3777 23.5116 32.2051C23.542 32.1543 23.5775 32.1289 23.6179 32.1289ZM18.8628 32.8602C19.3185 32.8602 19.7541 32.718 20.1693 32.4336C20.2807 32.3524 20.3364 32.2406 20.3364 32.0984C20.3364 31.9359 20.3314 31.814 20.3212 31.7328L20.306 31.3824L20.3212 30.0875C20.3212 29.8945 20.2402 29.798 20.0781 29.798C20.0275 29.798 19.987 29.8031 19.9566 29.8133C19.1666 30.057 18.5893 30.3515 18.2247 30.6969C17.8702 31.0422 17.6929 31.4535 17.6929 31.9309C17.6929 32.2153 17.7993 32.4438 18.012 32.6164C18.2247 32.7789 18.5083 32.8602 18.8628 32.8602ZM27.1908 33.7133C26.4919 33.7133 25.9602 33.5152 25.5956 33.1191C25.2309 32.7129 25.0386 32.1238 25.0183 31.3519V26.934C25.0183 26.8324 24.9879 26.7562 24.9271 26.7055C24.8765 26.6445 24.8005 26.6141 24.6992 26.6141H23.9852C23.7725 26.6141 23.6661 26.5277 23.6661 26.3551C23.6661 26.1824 23.7573 26.0758 23.9396 26.0352C24.598 25.8726 25.1601 25.5731 25.6259 25.1363C26.102 24.6996 26.4362 24.0649 26.6286 23.232C26.6692 23.039 26.7401 22.9426 26.8413 22.9426C26.892 22.9426 26.9274 22.973 26.9477 23.034C26.9781 23.0847 26.9933 23.1609 26.9933 23.2625V25.7762C26.9933 25.8778 27.0186 25.959 27.0692 26.0199C27.13 26.0707 27.2111 26.0961 27.3123 26.0961H28.5733C28.7859 26.0961 28.8923 26.1824 28.8923 26.3551C28.8923 26.5277 28.7859 26.6141 28.5733 26.6141H27.3123C27.2111 26.6141 27.13 26.6445 27.0692 26.7055C27.0186 26.7562 26.9933 26.8324 26.9933 26.934L26.9629 30.057C26.9629 30.7375 26.968 31.1437 26.9781 31.2758C27.0084 31.8547 27.1148 32.2558 27.2971 32.4793C27.4896 32.6926 27.7428 32.7992 28.0567 32.7992C28.2593 32.7992 28.4365 32.7586 28.5884 32.6773C28.7404 32.5859 28.9227 32.4336 29.1354 32.2203C29.1861 32.1594 29.2316 32.1289 29.2721 32.1289C29.3126 32.1289 29.3532 32.1492 29.3936 32.1898C29.4443 32.2305 29.4696 32.2711 29.4696 32.3117C29.4696 32.332 29.4595 32.3625 29.4392 32.4031C29.1253 32.8804 28.7859 33.2207 28.4213 33.4238C28.0567 33.6168 27.6465 33.7133 27.1908 33.7133ZM37.7427 32.1289C37.773 32.1289 37.7984 32.1391 37.8186 32.1594C37.849 32.1797 37.8642 32.2101 37.8642 32.2508L37.849 32.3269C37.7275 32.7129 37.4996 33.0379 37.1654 33.302C36.8311 33.5559 36.4716 33.6828 36.0867 33.6828C35.4385 33.6828 34.9878 33.4492 34.7346 32.982C34.6738 32.8703 34.6029 32.8145 34.5219 32.8145C34.451 32.8145 34.3852 32.8399 34.3244 32.8906C33.9496 33.1648 33.5445 33.3731 33.109 33.5152C32.6735 33.6574 32.243 33.7285 31.8177 33.7285C31.1796 33.7285 30.6782 33.5812 30.3136 33.2867C29.9592 32.982 29.7819 32.5656 29.7819 32.0375C29.7819 31.2453 30.2275 30.6156 31.1188 30.1484C31.3619 30.0266 31.6303 29.9301 31.924 29.859C32.2177 29.7778 32.5874 29.7016 33.033 29.6305L34.1877 29.3867C34.37 29.336 34.4611 29.2141 34.4611 29.0211V28.625C34.4611 28.0054 34.4459 27.5738 34.4155 27.3301C34.3852 27.0761 34.3092 26.868 34.1877 26.7055C33.9851 26.4617 33.7167 26.3398 33.3825 26.3398C33.1292 26.3398 32.9065 26.4211 32.714 26.5836C32.5317 26.7461 32.3798 27.0863 32.2582 27.6043C32.1671 27.9801 32.0202 28.2594 31.8177 28.4422C31.6252 28.625 31.4024 28.7164 31.1492 28.7164C30.896 28.7164 30.6732 28.6453 30.4807 28.5031C30.2883 28.3508 30.1921 28.1426 30.1921 27.8785C30.1921 27.6754 30.268 27.4265 30.42 27.132C30.582 26.8273 30.896 26.5531 31.3619 26.3094C31.8379 26.0554 32.5013 25.9285 33.3521 25.9285C34.5472 25.9285 35.4233 26.2332 35.9804 26.8426C36.1627 27.0457 36.2842 27.2742 36.345 27.5281C36.4159 27.7719 36.4513 28.0766 36.4513 28.4422L36.4361 30.118C36.426 30.4531 36.4209 30.9711 36.4209 31.6719C36.4209 32.1187 36.4665 32.4082 36.5577 32.5402C36.6488 32.6621 36.7704 32.723 36.9223 32.723C37.0438 32.723 37.1654 32.6824 37.2869 32.6012C37.4186 32.5098 37.535 32.3777 37.6363 32.2051C37.6667 32.1543 37.7021 32.1289 37.7427 32.1289ZM32.9875 32.8602C33.4432 32.8602 33.8788 32.718 34.294 32.4336C34.4054 32.3524 34.4611 32.2406 34.4611 32.0984C34.4611 31.9359 34.4561 31.814 34.4459 31.7328L34.4307 31.3824L34.4459 30.0875C34.4459 29.8945 34.3649 29.798 34.2029 29.798C34.1522 29.798 34.1117 29.8031 34.0813 29.8133C33.2913 30.057 32.714 30.3515 32.3494 30.6969C31.9949 31.0422 31.8177 31.4535 31.8177 31.9309C31.8177 32.2153 31.924 32.4438 32.1367 32.6164C32.3494 32.7789 32.633 32.8602 32.9875 32.8602ZM8.53819 50.1664C7.79881 50.1664 6.93284 49.9633 5.9403 49.557C5.80863 49.4961 5.68203 49.4656 5.56049 49.4656C5.36805 49.4656 5.13511 49.5723 4.86165 49.7855C4.77049 49.8567 4.69959 49.8922 4.64895 49.8922C4.53755 49.8922 4.46665 49.816 4.43626 49.6637L3.84376 47.1195L3.81338 46.9672C3.81338 46.9469 3.82351 46.9265 3.84376 46.9062C3.87415 46.886 3.89947 46.8707 3.91972 46.8605C3.95011 46.8504 3.97036 46.8403 3.98049 46.8301C4.00075 46.8199 4.03113 46.8148 4.07165 46.8148C4.11216 46.8148 4.16786 46.8555 4.23876 46.9367C4.7553 47.668 5.3478 48.2824 6.01626 48.7801C6.68472 49.2676 7.46968 49.5113 8.37107 49.5113C9.01929 49.5113 9.54088 49.3488 9.93588 49.0238C10.3309 48.6887 10.5284 48.2113 10.5284 47.5918C10.5284 46.8199 10.0979 46.2562 9.23703 45.9008C8.84203 45.7281 8.34573 45.5504 7.74819 45.3676C7.64688 45.3371 7.39372 45.2508 6.98857 45.1086C6.58342 44.9664 6.22391 44.8141 5.90992 44.6516C5.34274 44.357 4.91735 43.9762 4.63376 43.509C4.35017 43.0418 4.20838 42.5086 4.20838 41.9094C4.20838 41.432 4.31979 40.9344 4.54261 40.4164C4.76543 39.8984 5.1503 39.4566 5.69722 39.091C6.2543 38.7152 6.98353 38.5273 7.88492 38.5273C8.209 38.5273 8.51795 38.5629 8.81165 38.634C9.11549 38.7051 9.48011 38.8168 9.90549 38.9691C10.0777 39.0301 10.2195 39.0605 10.3309 39.0605C10.5334 39.0605 10.7208 38.9894 10.893 38.8473C10.974 38.7761 11.05 38.7406 11.1209 38.7406C11.2222 38.7406 11.288 38.8066 11.3184 38.9387L11.9716 41.1781C11.9716 41.1984 11.9767 41.234 11.9868 41.2848C11.997 41.3254 11.9868 41.3609 11.9565 41.3914L11.8653 41.4371C11.8045 41.4574 11.759 41.4676 11.7286 41.4676C11.6779 41.4676 11.6273 41.432 11.5766 41.3609C11.4551 41.1578 11.2374 40.8836 10.9234 40.5383C10.6094 40.1828 10.184 39.8527 9.64722 39.548C9.11045 39.2332 8.51284 39.0758 7.85453 39.0758C7.27722 39.0758 6.8316 39.1926 6.51761 39.4262C6.21376 39.6597 6.0112 39.9187 5.90992 40.2031C5.80863 40.4875 5.75799 40.7363 5.75799 40.9496C5.75799 41.2543 5.83395 41.5285 5.98588 41.7723C6.1378 42.016 6.36064 42.2191 6.65434 42.3816C6.9278 42.534 7.30256 42.6914 7.77857 42.8539C8.26472 43.0164 8.55338 43.1129 8.64453 43.1434C8.77622 43.184 9.04968 43.2754 9.46492 43.4176C9.88015 43.5597 10.2296 43.6969 10.5132 43.8289C11.8805 44.4586 12.5641 45.4082 12.5641 46.6777C12.5641 47.3278 12.4072 47.9168 12.0932 48.4449C11.7792 48.9731 11.3184 49.3945 10.7107 49.7094C10.103 50.0141 9.37881 50.1664 8.53819 50.1664ZM16.6048 50.1664C15.906 50.1664 15.3742 49.9684 15.0096 49.5723C14.645 49.166 14.4526 48.577 14.4323 47.8051V43.3871C14.4323 43.2855 14.4019 43.2094 14.3412 43.1586C14.2905 43.0977 14.2146 43.0672 14.1133 43.0672H13.3992C13.1865 43.0672 13.0802 42.9808 13.0802 42.8082C13.0802 42.6356 13.1714 42.5289 13.3537 42.4883C14.012 42.3258 14.5741 42.0262 15.04 41.5895C15.5161 41.1527 15.8503 40.518 16.0427 39.6852C16.0832 39.4922 16.1541 39.3957 16.2554 39.3957C16.3061 39.3957 16.3415 39.4262 16.3617 39.4871C16.3921 39.5379 16.4073 39.614 16.4073 39.7156V42.2293C16.4073 42.3309 16.4327 42.4121 16.4833 42.473C16.544 42.5238 16.6251 42.5492 16.7264 42.5492H17.9873C18.2 42.5492 18.3064 42.6356 18.3064 42.8082C18.3064 42.9808 18.2 43.0672 17.9873 43.0672H16.7264C16.6251 43.0672 16.544 43.0977 16.4833 43.1586C16.4327 43.2094 16.4073 43.2855 16.4073 43.3871L16.3769 46.5102C16.3769 47.1906 16.382 47.5968 16.3921 47.7289C16.4225 48.3078 16.5289 48.709 16.7112 48.9324C16.9036 49.1457 17.1568 49.2523 17.4708 49.2523C17.6734 49.2523 17.8506 49.2117 18.0025 49.1305C18.1544 49.0391 18.3367 48.8867 18.5494 48.6734C18.6001 48.6125 18.6457 48.582 18.6862 48.582C18.7267 48.582 18.7672 48.6023 18.8077 48.643C18.8584 48.6836 18.8837 48.7242 18.8837 48.7648C18.8837 48.7851 18.8736 48.8156 18.8533 48.8562C18.5393 49.3336 18.2 49.6738 17.8354 49.8769C17.4708 50.0699 17.0606 50.1664 16.6048 50.1664ZM24.2854 42.3664C24.7209 42.3664 25.0703 42.4883 25.3336 42.732C25.6071 42.9758 25.7438 43.2551 25.7438 43.5699C25.7438 43.8137 25.6577 44.0168 25.4856 44.1793C25.3235 44.3418 25.1159 44.423 24.8627 44.423C24.6905 44.423 24.5386 44.3875 24.4069 44.3164C24.2752 44.2352 24.1233 44.1234 23.9511 43.9812C23.8094 43.8492 23.6827 43.7527 23.5713 43.6918C23.4599 43.6207 23.3384 43.5852 23.2067 43.5852C22.994 43.5852 22.7915 43.6918 22.599 43.9051C22.4167 44.1184 22.2598 44.4078 22.1281 44.7734C22.0875 44.9055 22.0673 45.0375 22.0673 45.1695V48.8562C22.0673 49.1711 22.1382 49.3793 22.28 49.4809C22.4218 49.5723 22.6345 49.618 22.9181 49.618H23.0852C23.1561 49.618 23.1915 49.6789 23.1915 49.8008C23.1915 49.9125 23.1561 49.9684 23.0852 49.9684H19.0896C19.0187 49.9684 18.9833 49.9125 18.9833 49.8008C18.9833 49.6789 19.0187 49.618 19.0896 49.618H19.2415C19.5251 49.618 19.7378 49.5723 19.8796 49.4809C20.0214 49.3793 20.0923 49.1711 20.0923 48.8562V44.1488C20.0923 43.8238 20.0214 43.6106 19.8796 43.509C19.7378 43.3973 19.4998 43.3363 19.1656 43.3262C19.1149 43.316 19.0795 43.2855 19.0592 43.2348C19.039 43.184 19.0288 43.1332 19.0288 43.0824C19.0288 43.0215 19.0592 42.986 19.12 42.9758C19.2111 42.9453 20.0771 42.7676 21.7179 42.4426H21.7938C21.8748 42.4426 21.9407 42.468 21.9913 42.5187C22.042 42.5695 22.0673 42.6406 22.0673 42.732V43.4633C22.0673 43.5953 22.1078 43.6613 22.1888 43.6613C22.2698 43.6613 22.3813 43.575 22.5231 43.4023C22.7763 43.0774 23.0498 42.8234 23.3435 42.6406C23.6473 42.4578 23.9613 42.3664 24.2854 42.3664ZM34.0781 48.582C34.1085 48.582 34.1338 48.5922 34.1541 48.6125C34.1844 48.6328 34.1996 48.6633 34.1996 48.7039L34.1844 48.7801C34.0629 49.166 33.835 49.491 33.5008 49.7551C33.1666 50.009 32.807 50.1359 32.4221 50.1359C31.774 50.1359 31.3232 49.9024 31.07 49.4352C31.0093 49.3235 30.9384 49.2676 30.8573 49.2676C30.7865 49.2676 30.7206 49.293 30.6598 49.3437C30.2851 49.618 29.88 49.8262 29.4444 49.9684C29.009 50.1105 28.5785 50.1816 28.1531 50.1816C27.515 50.1816 27.0137 50.0344 26.6491 49.7398C26.2946 49.4352 26.1173 49.0188 26.1173 48.4906C26.1173 47.6984 26.563 47.0688 27.4542 46.6016C27.6973 46.4797 27.9657 46.3832 28.2594 46.3121C28.5532 46.2309 28.9229 46.1547 29.3685 46.0836L30.5231 45.8398C30.7054 45.7891 30.7966 45.6672 30.7966 45.4742V45.0781C30.7966 44.4586 30.7814 44.0269 30.751 43.7832C30.7206 43.5293 30.6446 43.3211 30.5231 43.1586C30.3206 42.9148 30.0521 42.793 29.7179 42.793C29.4647 42.793 29.2419 42.8742 29.0494 43.0367C28.8671 43.1992 28.7152 43.5395 28.5937 44.0574C28.5025 44.4332 28.3557 44.7125 28.1531 44.8953C27.9607 45.0781 27.7379 45.1695 27.4846 45.1695C27.2315 45.1695 27.0086 45.0984 26.8162 44.9562C26.6238 44.8039 26.5275 44.5957 26.5275 44.3316C26.5275 44.1285 26.6035 43.8797 26.7554 43.5852C26.9175 43.2805 27.2315 43.0062 27.6973 42.7625C28.1734 42.5086 28.8367 42.3816 29.6875 42.3816C30.8827 42.3816 31.7588 42.6863 32.3158 43.2957C32.4981 43.4988 32.6196 43.7273 32.6804 43.9812C32.7513 44.225 32.7868 44.5297 32.7868 44.8953L32.7716 46.5711C32.7615 46.9062 32.7564 47.4242 32.7564 48.125C32.7564 48.5719 32.8019 48.8613 32.8931 48.9934C32.9843 49.1152 33.1058 49.1762 33.2577 49.1762C33.3792 49.1762 33.5008 49.1355 33.6223 49.0543C33.754 48.9629 33.8705 48.8308 33.9717 48.6582C34.0021 48.6074 34.0376 48.582 34.0781 48.582ZM29.3229 49.3133C29.7787 49.3133 30.2142 49.1711 30.6294 48.8867C30.7409 48.8055 30.7966 48.6937 30.7966 48.5516C30.7966 48.389 30.7915 48.2672 30.7814 48.1859L30.7662 47.8355L30.7814 46.5406C30.7814 46.3476 30.7004 46.2512 30.5383 46.2512C30.4877 46.2512 30.4471 46.2562 30.4167 46.2664C29.6267 46.5102 29.0494 46.8047 28.6848 47.15C28.3304 47.4953 28.1531 47.9067 28.1531 48.384C28.1531 48.6684 28.2594 48.8969 28.4721 49.0695C28.6848 49.232 28.9684 49.3133 29.3229 49.3133ZM37.6509 50.1664C36.9521 50.1664 36.4203 49.9684 36.0557 49.5723C35.6911 49.166 35.4987 48.577 35.4784 47.8051V43.3871C35.4784 43.2855 35.448 43.2094 35.3872 43.1586C35.3366 43.0977 35.2607 43.0672 35.1594 43.0672H34.4453C34.2326 43.0672 34.1263 42.9808 34.1263 42.8082C34.1263 42.6356 34.2174 42.5289 34.3997 42.4883C35.0581 42.3258 35.6202 42.0262 36.0861 41.5895C36.5622 41.1527 36.8964 40.518 37.0888 39.6852C37.1293 39.4922 37.2002 39.3957 37.3015 39.3957C37.3522 39.3957 37.3876 39.4262 37.4078 39.4871C37.4382 39.5379 37.4534 39.614 37.4534 39.7156V42.2293C37.4534 42.3309 37.4787 42.4121 37.5294 42.473C37.5901 42.5238 37.6712 42.5492 37.7724 42.5492H39.0334C39.2461 42.5492 39.3524 42.6356 39.3524 42.8082C39.3524 42.9808 39.2461 43.0672 39.0334 43.0672H37.7724C37.6712 43.0672 37.5901 43.0977 37.5294 43.1586C37.4787 43.2094 37.4534 43.2855 37.4534 43.3871L37.423 46.5102C37.423 47.1906 37.4281 47.5968 37.4382 47.7289C37.4686 48.3078 37.5749 48.709 37.7572 48.9324C37.9497 49.1457 38.2029 49.2523 38.5169 49.2523C38.7195 49.2523 38.8967 49.2117 39.0486 49.1305C39.2005 49.0391 39.3828 48.8867 39.5955 48.6734C39.6462 48.6125 39.6918 48.582 39.7322 48.582C39.7728 48.582 39.8133 48.6023 39.8538 48.643C39.9045 48.6836 39.9297 48.7242 39.9297 48.7648C39.9297 48.7851 39.9197 48.8156 39.8994 48.8562C39.5854 49.3336 39.2461 49.6738 38.8815 49.8769C38.5169 50.0699 38.1067 50.1664 37.6509 50.1664ZM47.1849 48.0184C47.2457 48.059 47.2761 48.1098 47.2761 48.1707L47.2609 48.2621C47.028 48.7598 46.6481 49.2016 46.1215 49.5875C45.6049 49.9734 44.9618 50.1664 44.192 50.1664C43.4324 50.1664 42.7437 49.9938 42.1259 49.6484C41.5182 49.293 41.0422 48.8207 40.6978 48.2316C40.3636 47.6426 40.1965 47.0078 40.1965 46.3273C40.1965 45.7078 40.3433 45.0934 40.637 44.484C40.9409 43.8746 41.3815 43.3719 41.9588 42.9758C42.5361 42.5797 43.2197 42.3816 44.0097 42.3816C44.82 42.3816 45.534 42.6457 46.1518 43.1738C46.7697 43.6918 47.1596 44.4028 47.3217 45.3066V45.3676C47.3217 45.5606 47.2204 45.657 47.0178 45.657L42.6272 45.6875C42.4145 45.6875 42.3082 45.7738 42.3082 45.9465V46.2055C42.3082 47.0688 42.4955 47.8203 42.8703 48.4602C43.2552 49.0898 43.8426 49.4047 44.6326 49.4047C45.5745 49.4047 46.3493 48.9578 46.957 48.0641C46.9874 48.0133 47.033 47.9879 47.0938 47.9879C47.114 47.9879 47.1444 47.9981 47.1849 48.0184ZM43.9642 42.7777C43.6805 42.7777 43.3868 42.9148 43.083 43.1891C42.7792 43.4633 42.5563 44.0015 42.4145 44.8039V44.8648C42.4145 45.0679 42.5158 45.1695 42.7184 45.1695L45.0428 45.1391C45.1441 45.1391 45.2201 45.1136 45.2707 45.0629C45.3315 45.0121 45.3618 44.941 45.3618 44.8496C45.3618 44.2199 45.2251 43.7172 44.9517 43.3414C44.6782 42.9656 44.349 42.7777 43.9642 42.7777ZM55.0791 43.0672C54.9778 43.0672 54.8968 43.0824 54.836 43.1129C54.7348 43.1535 54.6841 43.2195 54.6841 43.3109C54.6841 43.382 54.7196 43.4633 54.7904 43.5547C55.1753 43.9914 55.3677 44.489 55.3677 45.0477C55.3677 45.5352 55.226 45.9769 54.9424 46.373C54.6588 46.7691 54.2587 47.084 53.7422 47.3176C53.2358 47.541 52.6483 47.6527 51.9799 47.6527C51.7064 47.6527 51.4177 47.6273 51.1139 47.5766C51.0734 47.5664 51.0227 47.5613 50.962 47.5613C50.8708 47.5613 50.7848 47.5867 50.7037 47.6375C50.5315 47.7492 50.4454 47.8457 50.4454 47.927C50.4454 48.0184 50.5062 48.0945 50.6277 48.1555C50.7493 48.2164 51.0076 48.2824 51.4026 48.3535C51.8381 48.4246 52.3698 48.5261 52.9977 48.6582C53.6257 48.7903 54.1473 48.9121 54.5626 49.0238C55.0791 49.1559 55.4944 49.359 55.8083 49.6332C56.1223 49.8972 56.2793 50.2324 56.2793 50.6387C56.2793 51.1769 56.0464 51.6187 55.5804 51.9641C55.1247 52.3195 54.5626 52.5734 53.8941 52.7258C53.2256 52.8781 52.5673 52.9543 51.9191 52.9543C51.0279 52.9543 50.2986 52.8578 49.7314 52.6648C49.1744 52.482 48.7692 52.2535 48.516 51.9793C48.2729 51.7051 48.1514 51.4258 48.1514 51.1414C48.1514 50.8774 48.2679 50.6437 48.5008 50.4406C48.7439 50.2375 49.1035 50.0445 49.5795 49.8617C49.701 49.811 49.7618 49.7653 49.7618 49.7246C49.7618 49.6637 49.701 49.6129 49.5795 49.5723C49.0326 49.3387 48.7591 49.0645 48.7591 48.7496C48.7591 48.3942 49.1794 48.0082 50.0201 47.5918C50.1416 47.5309 50.2024 47.4699 50.2024 47.409C50.2024 47.348 50.1416 47.2871 50.0201 47.2262C49.5542 46.9926 49.1845 46.693 48.911 46.3273C48.6477 45.9617 48.516 45.5453 48.516 45.0781C48.516 44.55 48.6781 44.0828 49.0022 43.6766C49.3364 43.2602 49.7618 42.9403 50.2783 42.7168C50.805 42.4933 51.3469 42.3816 51.9039 42.3816C52.6737 42.3816 53.3624 42.5543 53.9701 42.8996C54.0511 42.9301 54.1119 42.9453 54.1524 42.9453C54.2537 42.9453 54.3347 42.8844 54.3954 42.7625C54.8208 41.9703 55.3728 41.5742 56.0514 41.5742C56.3654 41.5742 56.6085 41.6758 56.7806 41.8789C56.9629 42.082 57.0541 42.3004 57.0541 42.534C57.0541 42.7676 56.9832 42.9707 56.8414 43.1434C56.6996 43.316 56.4869 43.4023 56.2033 43.4023C56.1122 43.4023 56.0109 43.3871 55.8995 43.3566C55.7982 43.316 55.702 43.2754 55.6108 43.2348C55.388 43.1231 55.2108 43.0672 55.0791 43.0672ZM51.9039 47.2871C52.461 47.2871 52.856 47.0383 53.0889 46.5406C53.3219 46.0328 53.4383 45.4793 53.4383 44.8801C53.4383 44.3519 53.3117 43.8695 53.0585 43.4328C52.8154 42.986 52.4458 42.7625 51.9495 42.7625C51.6052 42.7625 51.3215 42.8945 51.0987 43.1586C50.8759 43.4125 50.7139 43.7223 50.6126 44.0879C50.5113 44.4535 50.4606 44.7988 50.4606 45.1238C50.4606 45.6926 50.5923 46.1953 50.8556 46.632C51.119 47.0688 51.4684 47.2871 51.9039 47.2871ZM53.6358 50.5168C53.3927 50.4457 53.0029 50.3492 52.466 50.2273C51.9292 50.1055 51.4026 49.9988 50.886 49.9074C50.8556 49.8972 50.8101 49.8922 50.7493 49.8922C50.648 49.8922 50.5518 49.9227 50.4606 49.9836C49.9441 50.3695 49.6858 50.7301 49.6858 51.0652C49.6858 51.309 49.7973 51.5426 50.0201 51.766C50.2429 51.9895 50.5518 52.1723 50.9468 52.3144C51.3418 52.4566 51.7773 52.5277 52.2533 52.5277C52.7496 52.5277 53.1649 52.4566 53.4991 52.3144C53.8435 52.1723 54.0967 52.0047 54.2587 51.8117C54.4309 51.6187 54.517 51.441 54.517 51.2785C54.517 51.1059 54.436 50.9535 54.2739 50.8215C54.1119 50.6894 53.8992 50.5879 53.6358 50.5168ZM65.6977 42.5492C65.7682 42.5492 65.8041 42.6051 65.8041 42.7168C65.8041 42.7777 65.7889 42.8184 65.7585 42.8387C65.7281 42.859 65.6874 42.8742 65.637 42.8844C65.5859 42.8945 65.5507 42.9047 65.5306 42.9148C65.2772 42.9758 65.0542 43.1027 64.8621 43.2957C64.6798 43.4785 64.4769 43.8035 64.2545 44.2707C63.8898 45.0426 63.4134 46.0633 62.8264 47.3328C62.2387 48.5922 61.7021 49.7551 61.216 50.8215C60.7803 51.766 60.3498 52.4313 59.9244 52.8172C59.499 53.2133 59.0584 53.4113 58.6027 53.4113C58.0861 53.4113 57.7012 53.2996 57.4481 53.0762C57.1948 52.8527 57.0682 52.6039 57.0682 52.3297C57.0682 52.0656 57.1543 51.8524 57.3265 51.6898C57.4987 51.5273 57.7164 51.4461 57.9798 51.4461C58.1519 51.4461 58.2937 51.4664 58.4052 51.507C58.5267 51.5477 58.6634 51.6086 58.8154 51.6898C58.947 51.7711 59.0685 51.8269 59.18 51.8574C59.2914 51.8981 59.4231 51.9184 59.575 51.9184C59.7674 51.9184 59.9345 51.832 60.0763 51.6594C60.2282 51.4969 60.4055 51.2176 60.6081 50.8215L60.9881 50.0293C61.0282 49.9582 61.0489 49.882 61.0489 49.8008C61.0489 49.7398 61.0337 49.6738 61.0033 49.6027C60.8514 49.2778 60.6485 48.836 60.3954 48.2773C60.1523 47.7187 59.8585 47.0636 59.5142 46.3121C58.7444 44.5856 58.3393 43.6816 58.2988 43.6004C58.1671 43.3363 58.0355 43.1535 57.9038 43.052C57.7721 42.9504 57.5797 42.8996 57.3265 42.8996C57.2556 42.8996 57.2202 42.8387 57.2202 42.7168C57.2202 42.6051 57.2556 42.5492 57.3265 42.5492H61.0337C61.1042 42.5492 61.14 42.6051 61.14 42.7168C61.14 42.8285 61.0993 42.8894 61.0185 42.8996C60.8058 42.9199 60.6384 42.9707 60.5169 43.052C60.4055 43.1332 60.3498 43.2297 60.3498 43.3414C60.3498 43.4125 60.3751 43.514 60.4258 43.6461C60.5675 44.0015 60.7754 44.5145 61.0489 45.1848C61.3321 45.8449 61.6159 46.5051 61.8996 47.1652C61.9701 47.2973 62.0412 47.3633 62.1123 47.3633C62.2035 47.3633 62.2795 47.2973 62.3402 47.1652L62.4921 46.8301C62.6137 46.5559 62.8312 46.0734 63.1454 45.3828C63.4693 44.682 63.6565 44.2453 63.7075 44.0727C63.758 43.9406 63.7835 43.8238 63.7835 43.7223C63.7835 43.448 63.6565 43.2398 63.4037 43.0977C63.1503 42.9555 62.8817 42.8844 62.5985 42.8844C62.5274 42.8844 62.4921 42.8285 62.4921 42.7168C62.4921 42.6051 62.5274 42.5492 62.5985 42.5492H65.6977Z" fill="black"/>
<path fill-rule="evenodd" clip-rule="evenodd" d="M84.7962 63.9362L85.0757 63.9588C85.0757 63.9588 85.0435 63.9673 84.9815 63.9813C85.0435 63.996 85.0757 64.0039 85.0757 64.0039L84.7962 64.0264C83.3827 64.3677 77.0633 66.0343 75.9494 68.8594C75.9494 68.8594 75.6747 67.3737 73.1722 65.1294C74.0139 66.4657 74.2588 67.7881 74.3135 68.239C74.3481 68.5267 74.2861 68.5236 74.0759 68.6845C74.0759 68.6845 73.8602 68.6284 73.8577 68.6284C73.7143 68.5181 73.7417 68.4901 73.687 68.3036C73.5065 67.6808 72.8526 65.9386 71.2288 64.8783H70.8776C71.269 65.6199 71.4245 66.336 71.4792 66.7729C71.4792 66.7814 71.4914 66.8746 71.4914 66.8801C71.4744 66.9673 71.4841 67.066 71.4397 67.1397C71.4373 67.1422 71.2416 67.2835 71.2416 67.2835C71.165 67.2634 71.0781 67.275 71.0137 67.2269C70.9937 67.2128 70.942 67.1702 70.8654 66.9423C70.6546 66.3049 70.1447 65.4109 69.3328 64.8783L55.8898 64.8302C55.6126 65.4024 55.0779 65.7887 54.464 65.7887C53.8205 65.7887 53.2635 65.3634 53.0011 64.743C52.9442 64.7571 52.8873 64.7656 52.8254 64.7656C50.1372 64.7089 47.2016 67.1227 47.0877 67.2153L47.0852 67.2183C46.8402 67.4212 46.511 67.4212 46.2659 67.2183C46.2659 67.2183 45.4837 66.5724 44.3476 65.9411C43.412 65.4195 42.2313 64.8978 41.058 64.7881C40.6991 66.7899 39.1422 68.2981 37.2783 68.2981C35.1495 68.2981 33.4219 66.3305 33.4219 63.9052C33.4219 61.4805 35.1496 59.5127 37.2783 59.5127C39.162 59.5127 40.7337 61.0551 41.0704 63.0904C43.5952 62.854 46.157 60.7476 46.261 60.6602L46.2635 60.6574C46.5086 60.4543 46.8378 60.4543 47.0829 60.6574L47.0853 60.6602C47.1992 60.7532 50.1349 63.1666 52.823 63.1105C52.8824 63.1105 52.9418 63.116 52.9987 63.1331C53.2636 62.5152 53.818 62.0868 54.4616 62.0868C55.0755 62.0868 55.6101 62.4762 55.8873 63.0453L69.3304 63.0935C69.4398 63.0228 69.5607 62.9326 69.6798 62.8314C70.5956 62.0307 70.8654 61.007 70.8873 60.9704C70.9299 60.897 70.9517 60.7983 71.0137 60.7476C71.0162 60.7448 71.2416 60.6884 71.244 60.6912C71.3085 60.7391 71.3947 60.7617 71.4397 60.835C71.526 60.9759 71.5011 60.9899 71.4841 61.1593C71.427 61.6864 71.2343 62.4165 70.88 63.0965H71.2288C71.7442 62.7607 72.8204 61.9204 73.5113 60.178C73.566 60.0399 73.6475 59.8143 73.6997 59.6226C73.7441 59.459 73.7313 59.4422 73.8553 59.3434C73.8577 59.3406 74.0734 59.2871 74.0734 59.2871C74.1348 59.335 74.2169 59.3604 74.2588 59.4308C74.3433 59.569 74.3281 59.5803 74.3086 59.7467C74.2193 60.4374 73.9294 61.5006 73.3898 62.4701C73.3229 62.5889 73.2512 62.7126 73.1698 62.8424C75.6699 60.5953 75.947 59.1094 75.947 59.1094C77.0609 61.9375 83.3796 63.6011 84.7937 63.9417L84.7962 63.9362ZM46.6772 65.6169C47.2341 65.211 48.3083 64.4865 49.5782 63.9338C48.3058 63.378 47.2316 62.6535 46.6747 62.2477C46.1202 62.6535 45.0509 63.3726 43.7836 63.9283C44.1994 64.1087 44.5954 64.3086 44.9593 64.5115C45.6994 64.9234 46.3059 65.3433 46.6772 65.6169ZM39.2069 63.8972C39.2069 62.6846 38.343 61.7004 37.2786 61.7004C36.2142 61.7004 35.3503 62.6846 35.3503 63.8972C35.3503 65.1093 36.2142 66.0934 37.2786 66.0934C38.343 66.0934 39.2069 65.1093 39.2069 63.8972Z" fill="black"/>
</g>
</g>
<defs>
<clipPath id="clip0_387_85">
<rect width="79" height="78" fill="white"/>
</clipPath>
</defs>
</svg>
