<svg width="224" height="53" viewBox="0 0 224 53" fill="none" xmlns="http://www.w3.org/2000/svg">
<path d="M10.1209 20.246C8.54894 20.246 6.98575 19.9015 5.4314 19.2125C3.87704 18.5235 2.57881 17.4458 1.53669 15.9795C0.512229 14.4955 0 12.6405 0 10.4145C0 8.75383 0.388588 7.11967 1.16576 5.512C1.94294 3.88667 3.04688 2.56167 4.47759 1.537C5.92597 0.512334 7.58629 0 9.45858 0C9.97081 0 10.4742 0.0618342 10.9688 0.185501C11.4633 0.309167 12.0109 0.477 12.6114 0.689001C12.7527 0.724331 12.9912 0.795001 13.3268 0.901001C13.6624 1.007 13.9274 1.06 14.1216 1.06C14.4219 1.06 14.7398 0.954001 15.0754 0.742001C15.1991 0.671331 15.3139 0.636001 15.4199 0.636001C15.6141 0.636001 15.7378 0.759672 15.7908 1.007L16.6651 4.7965L16.7181 5.0615C16.7181 5.14983 16.6474 5.22933 16.5062 5.3C16.4709 5.31767 16.4267 5.3265 16.3737 5.3265C16.2854 5.3265 16.197 5.2735 16.1087 5.1675C15.5436 4.35483 14.9872 3.657 14.4396 3.074C13.9097 2.47333 13.2473 1.96983 12.4525 1.5635C11.6753 1.1395 10.7745 0.927501 9.75002 0.927501C8.24866 0.927501 7.08289 1.54583 6.25273 2.7825C5.44023 4.0015 4.90151 5.3265 4.63656 6.7575C4.38928 8.17083 4.26563 9.3545 4.26563 10.3085C4.26563 12.1635 4.5659 13.7535 5.16645 15.0785C5.767 16.3858 6.54417 17.3752 7.49798 18.0465C8.45179 18.7002 9.46741 19.027 10.5449 19.027C11.9932 19.027 13.1766 18.6737 14.0951 17.967C15.0312 17.2427 15.8615 16.3063 16.5856 15.158C16.7093 14.9637 16.8064 14.84 16.8771 14.787C16.9478 14.7517 16.9918 14.734 17.0095 14.734C17.0448 14.734 17.1067 14.7605 17.195 14.8135C17.301 14.8842 17.354 14.9725 17.354 15.0785L17.301 15.2375C16.6651 16.5095 15.7555 17.6667 14.572 18.709C13.4063 19.7337 11.9226 20.246 10.1209 20.246ZM26.2605 20.246C24.9358 20.246 23.7523 19.928 22.7102 19.292C21.6857 18.656 20.8909 17.8168 20.3257 16.7745C19.7605 15.7322 19.4779 14.628 19.4779 13.462C19.4779 12.2783 19.7605 11.1742 20.3257 10.1495C20.8909 9.10717 21.6857 8.27683 22.7102 7.6585C23.7523 7.0225 24.9358 6.7045 26.2605 6.7045C27.5852 6.7045 28.7598 7.0225 29.7843 7.6585C30.8264 8.27683 31.6301 9.10717 32.1953 10.1495C32.7605 11.1742 33.0431 12.2783 33.0431 13.462C33.0431 14.628 32.7605 15.7322 32.1953 16.7745C31.6301 17.8168 30.8264 18.656 29.7843 19.292C28.7598 19.928 27.5852 20.246 26.2605 20.246ZM26.2605 19.5835C27.285 19.5835 28.0709 18.9917 28.6185 17.808C29.1837 16.6067 29.4664 15.158 29.4664 13.462C29.4664 11.7483 29.1837 10.3085 28.6185 9.1425C28.0709 7.9765 27.285 7.3935 26.2605 7.3935C25.236 7.3935 24.4501 7.9765 23.9025 9.1425C23.3549 10.3085 23.0812 11.7483 23.0812 13.462C23.0812 15.158 23.3549 16.6067 23.9025 17.808C24.4501 18.9917 25.236 19.5835 26.2605 19.5835ZM44.0614 6.678C44.821 6.678 45.4303 6.89 45.8895 7.314C46.3664 7.738 46.6049 8.22383 46.6049 8.7715C46.6049 9.1955 46.4547 9.54883 46.1545 9.8315C45.8718 10.1142 45.5098 10.2555 45.0682 10.2555C44.768 10.2555 44.503 10.1937 44.2734 10.07C44.0437 9.92867 43.7788 9.73433 43.4785 9.487C43.2313 9.25733 43.0104 9.0895 42.8162 8.9835C42.6219 8.85983 42.4099 8.798 42.1803 8.798C41.8094 8.798 41.4561 8.9835 41.1205 9.3545C40.8026 9.7255 40.5288 10.229 40.2992 10.865C40.2285 11.0947 40.1932 11.3243 40.1932 11.554V17.967C40.1932 18.5147 40.3169 18.8768 40.5641 19.0535C40.8114 19.2125 41.1823 19.292 41.6769 19.292H41.9683C42.092 19.292 42.1538 19.398 42.1538 19.61C42.1538 19.8043 42.092 19.9015 41.9683 19.9015H35.0002C34.8766 19.9015 34.8148 19.8043 34.8148 19.61C34.8148 19.398 34.8766 19.292 35.0002 19.292H35.2652C35.7598 19.292 36.1307 19.2125 36.378 19.0535C36.6252 18.8768 36.7489 18.5147 36.7489 17.967V9.7785C36.7489 9.21317 36.6252 8.84217 36.378 8.6655C36.1307 8.47117 35.7156 8.36517 35.1327 8.3475C35.0444 8.32983 34.9825 8.27683 34.9473 8.1885C34.912 8.10017 34.8943 8.01183 34.8943 7.9235C34.8943 7.8175 34.9473 7.75567 35.0532 7.738C35.2122 7.685 36.7224 7.37583 39.5838 6.8105H39.7163C39.8575 6.8105 39.9724 6.85467 40.0607 6.943C40.149 7.03133 40.1932 7.155 40.1932 7.314V8.586C40.1932 8.81567 40.2639 8.9305 40.4051 8.9305C40.5464 8.9305 40.7408 8.78033 40.988 8.48C41.4296 7.91467 41.9065 7.473 42.4187 7.155C42.9486 6.837 43.4962 6.678 44.0614 6.678ZM62.9411 19.292C63.0647 19.292 63.1266 19.398 63.1266 19.61C63.1266 19.8043 63.0647 19.9015 62.9411 19.9015H55.9995C55.8758 19.9015 55.8141 19.8043 55.8141 19.61C55.8141 19.398 55.8758 19.292 55.9995 19.292H56.291C56.7679 19.292 57.1299 19.2125 57.3772 19.0535C57.6245 18.8768 57.7482 18.5147 57.7482 17.967C57.7835 16.218 57.8012 14.6898 57.8012 13.3825C57.8012 12.4638 57.7835 11.6688 57.7482 10.9975C57.6952 10.0788 57.5097 9.3545 57.1918 8.8245C56.8914 8.2945 56.3704 8.0295 55.6286 8.0295C54.6571 8.0295 53.774 8.639 52.9791 9.858C52.8554 10.0877 52.7937 10.3173 52.7937 10.547V17.967C52.7937 18.5147 52.9172 18.8768 53.1646 19.0535C53.4118 19.2125 53.7828 19.292 54.2774 19.292H54.5688C54.6924 19.292 54.7543 19.398 54.7543 19.61C54.7543 19.8043 54.6924 19.9015 54.5688 19.9015H47.6007C47.4593 19.9015 47.3888 19.8043 47.3888 19.61C47.3888 19.398 47.4593 19.292 47.6007 19.292H47.8657C48.3602 19.292 48.7311 19.2125 48.9784 19.0535C49.2257 18.8768 49.3494 18.5147 49.3494 17.967V9.805C49.3494 9.222 49.2257 8.84217 48.9784 8.6655C48.7311 8.47117 48.3161 8.36517 47.7332 8.3475C47.5742 8.32983 47.4947 8.1885 47.4947 7.9235C47.4947 7.8175 47.5477 7.75567 47.6537 7.738C47.8127 7.685 49.3229 7.37583 52.1843 6.8105H52.3168C52.458 6.8105 52.5728 6.85467 52.6612 6.943C52.7495 7.03133 52.7937 7.155 52.7937 7.314V8.0295C52.7937 8.17083 52.8113 8.28567 52.8467 8.374C52.8996 8.44467 52.9614 8.48 53.0321 8.48C53.1734 8.48 53.3059 8.4005 53.4295 8.2415C54.4009 7.21683 55.5226 6.7045 56.7944 6.7045C57.7482 6.7045 58.5518 6.90767 59.2054 7.314C59.8588 7.70267 60.3446 8.20617 60.6626 8.8245C60.9981 9.44283 61.1748 10.0965 61.1925 10.7855V17.967C61.1925 18.5147 61.316 18.8768 61.5634 19.0535C61.8106 19.2125 62.1816 19.292 62.6762 19.292H62.9411ZM77.1002 16.5095C77.2062 16.5802 77.2592 16.6685 77.2592 16.7745L77.2327 16.9335C76.8265 17.7992 76.1641 18.5677 75.2456 19.239C74.3448 19.9103 73.2232 20.246 71.8808 20.246C70.556 20.246 69.355 19.9457 68.2775 19.345C67.2177 18.7267 66.3876 17.9052 65.787 16.8805C65.2041 15.8558 64.9127 14.7517 64.9127 13.568C64.9127 12.4903 65.1688 11.4215 65.681 10.3615C66.2109 9.3015 66.9792 8.427 67.986 7.738C68.9928 7.049 70.1851 6.7045 71.5628 6.7045C72.9758 6.7045 74.2211 7.16383 75.2986 8.0825C76.3761 8.9835 77.056 10.2202 77.3386 11.7925V11.8985C77.3386 12.2342 77.162 12.402 76.8088 12.402L69.1518 12.455C68.7809 12.455 68.5954 12.6052 68.5954 12.9055V13.356C68.5954 14.8577 68.9221 16.165 69.5757 17.278C70.2469 18.3733 71.2714 18.921 72.6491 18.921C74.2918 18.921 75.643 18.1437 76.7028 16.589C76.7558 16.5007 76.8353 16.4565 76.9412 16.4565C76.9765 16.4565 77.0295 16.4742 77.1002 16.5095ZM71.4833 7.3935C70.9887 7.3935 70.4765 7.632 69.9467 8.109C69.4168 8.586 69.0281 9.52233 68.7809 10.918V11.024C68.7809 11.3773 68.9576 11.554 69.3108 11.554L73.3645 11.501C73.5411 11.501 73.6736 11.4568 73.7619 11.3685C73.8679 11.2802 73.9208 11.1565 73.9208 10.9975C73.9208 9.90217 73.6824 9.02767 73.2055 8.374C72.7286 7.72033 72.1545 7.3935 71.4833 7.3935ZM79.7395 19.9015C79.5982 19.9015 79.5276 19.7955 79.5276 19.5835C79.5276 19.3892 79.5982 19.292 79.7395 19.292H80.0045C80.5167 19.292 80.9141 19.2125 81.1968 19.0535C81.497 18.8768 81.6472 18.5147 81.6472 17.967L81.6207 3.0475C81.6207 2.48217 81.497 2.11117 81.2497 1.9345C81.0201 1.74017 80.6139 1.62533 80.031 1.59C79.925 1.59 79.8543 1.54583 79.819 1.4575C79.7836 1.36917 79.766 1.28083 79.766 1.1925C79.766 1.0865 79.819 1.02467 79.925 1.007C80.2252 0.918672 81.1348 0.733172 82.654 0.4505L84.4821 0.0795H84.6146C84.9325 0.0795 85.0915 0.247334 85.0915 0.583V17.967C85.0915 18.5147 85.2327 18.8768 85.5154 19.0535C85.7979 19.2125 86.1953 19.292 86.7076 19.292H86.9991C87.1226 19.292 87.1845 19.3892 87.1845 19.5835C87.1845 19.7955 87.1226 19.9015 86.9991 19.9015H79.7395ZM89.0799 19.9015C88.9386 19.9015 88.8679 19.7955 88.8679 19.5835C88.8679 19.3892 88.9386 19.292 89.0799 19.292H89.3448C89.8571 19.292 90.2545 19.2125 90.5371 19.0535C90.8374 18.8768 90.9875 18.5147 90.9875 17.967L90.961 3.0475C90.961 2.48217 90.8374 2.11117 90.5901 1.9345C90.3605 1.74017 89.9542 1.62533 89.3713 1.59C89.2653 1.59 89.1947 1.54583 89.1593 1.4575C89.1241 1.36917 89.1064 1.28083 89.1064 1.1925C89.1064 1.0865 89.1593 1.02467 89.2653 1.007C89.5657 0.918672 90.4753 0.733172 91.9943 0.4505L93.8224 0.0795H93.9549C94.2728 0.0795 94.4318 0.247334 94.4318 0.583V17.967C94.4318 18.5147 94.5732 18.8768 94.8557 19.0535C95.1383 19.2125 95.5358 19.292 96.048 19.292H96.3394C96.4631 19.292 96.5249 19.3892 96.5249 19.5835C96.5249 19.7955 96.4631 19.9015 96.3394 19.9015H89.0799ZM105.335 19.9015C105.264 19.9015 105.211 19.875 105.176 19.822C105.158 19.769 105.149 19.6895 105.149 19.5835C105.149 19.4068 105.211 19.3185 105.335 19.3185H105.626C106.262 19.3185 106.792 19.1683 107.216 18.868C107.64 18.55 107.852 17.9405 107.852 17.0395V3.1535C107.852 2.2525 107.64 1.65183 107.216 1.3515C106.792 1.0335 106.262 0.874501 105.626 0.874501H105.335C105.264 0.874501 105.211 0.848001 105.176 0.795001C105.158 0.742001 105.149 0.662501 105.149 0.556501V0.5035C105.149 0.432833 105.202 0.379833 105.308 0.3445C105.414 0.309167 105.529 0.291501 105.653 0.291501C106.783 0.256167 108.567 0.2385 111.005 0.2385C112.877 0.2385 114.105 0.256167 114.687 0.291501C116.1 0.379834 117.522 0.768501 118.953 1.4575C120.384 2.1465 121.585 3.21533 122.556 4.664C123.546 6.095 124.039 7.90583 124.039 10.0965C124.039 12.2872 123.546 14.1068 122.556 15.5555C121.585 16.9865 120.384 18.0465 118.953 18.7355C117.522 19.4245 116.1 19.8132 114.687 19.9015C114.122 19.9368 112.921 19.9545 111.084 19.9545C109.353 19.9545 107.437 19.9368 105.335 19.9015ZM113.946 19.1065C114.899 19.1065 115.827 18.8592 116.727 18.3645C117.628 17.8698 118.388 16.9512 119.006 15.6085C119.642 14.2658 119.96 12.4285 119.96 10.0965C119.96 7.7645 119.642 5.92717 119.006 4.5845C118.388 3.24183 117.628 2.32317 116.727 1.8285C115.827 1.33383 114.899 1.0865 113.946 1.0865H113.76C112.948 1.0865 112.382 1.21017 112.064 1.4575C111.746 1.70483 111.588 2.13767 111.588 2.756V17.437C111.588 18.073 111.746 18.5147 112.064 18.762C112.382 18.9917 112.948 19.1065 113.76 19.1065H113.946ZM140.403 17.49C140.456 17.49 140.5 17.5077 140.536 17.543C140.589 17.5783 140.615 17.6313 140.615 17.702L140.589 17.8345C140.377 18.5058 139.98 19.0712 139.397 19.5305C138.814 19.9722 138.186 20.193 137.516 20.193C136.385 20.193 135.598 19.7867 135.158 18.974C135.052 18.7797 134.927 18.6825 134.787 18.6825C134.663 18.6825 134.548 18.7267 134.442 18.815C133.788 19.292 133.081 19.6542 132.323 19.9015C131.563 20.1488 130.812 20.2725 130.071 20.2725C128.958 20.2725 128.083 20.0163 127.448 19.504C126.829 18.974 126.52 18.2497 126.52 17.331C126.52 15.953 127.297 14.8577 128.852 14.045C129.276 13.833 129.743 13.6652 130.256 13.5415C130.768 13.4002 131.412 13.2677 132.19 13.144L134.204 12.72C134.522 12.6317 134.681 12.4197 134.681 12.084V11.395C134.681 10.3173 134.654 9.5665 134.601 9.1425C134.548 8.70083 134.416 8.33867 134.204 8.056C133.85 7.632 133.382 7.42 132.799 7.42C132.357 7.42 131.969 7.56133 131.634 7.844C131.316 8.12667 131.051 8.7185 130.839 9.6195C130.68 10.2732 130.423 10.759 130.071 11.077C129.735 11.395 129.346 11.554 128.905 11.554C128.463 11.554 128.074 11.4303 127.739 11.183C127.403 10.918 127.236 10.5558 127.236 10.0965C127.236 9.74317 127.368 9.31033 127.633 8.798C127.915 8.268 128.463 7.791 129.276 7.367C130.105 6.92533 131.263 6.7045 132.746 6.7045C134.83 6.7045 136.358 7.2345 137.33 8.2945C137.648 8.64783 137.86 9.04533 137.966 9.487C138.089 9.911 138.151 10.441 138.151 11.077L138.125 13.992C138.107 14.575 138.098 15.476 138.098 16.695C138.098 17.4723 138.178 17.9758 138.337 18.2055C138.496 18.4175 138.708 18.5235 138.973 18.5235C139.185 18.5235 139.397 18.4528 139.609 18.3115C139.837 18.1525 140.041 17.9228 140.218 17.6225C140.271 17.5342 140.332 17.49 140.403 17.49ZM132.111 18.762C132.905 18.762 133.664 18.5147 134.389 18.02C134.583 17.8787 134.681 17.6843 134.681 17.437C134.681 17.1543 134.671 16.9423 134.654 16.801L134.628 16.1915L134.654 13.939C134.654 13.6033 134.512 13.4355 134.23 13.4355C134.141 13.4355 134.071 13.4443 134.018 13.462C132.641 13.886 131.634 14.3983 130.998 14.999C130.379 15.5997 130.071 16.3152 130.071 17.1455C130.071 17.6402 130.256 18.0377 130.627 18.338C130.998 18.6207 131.492 18.762 132.111 18.762ZM147.163 20.246C145.944 20.246 145.017 19.9015 144.381 19.2125C143.745 18.5058 143.411 17.4812 143.374 16.1385V8.4535C143.374 8.27683 143.321 8.14433 143.215 8.056C143.128 7.95 142.995 7.897 142.818 7.897H141.573C141.202 7.897 141.016 7.74683 141.016 7.4465C141.016 7.14617 141.175 6.96067 141.493 6.89C142.642 6.60733 143.623 6.08617 144.434 5.3265C145.265 4.56683 145.848 3.46267 146.183 2.014C146.254 1.67833 146.378 1.5105 146.554 1.5105C146.643 1.5105 146.704 1.5635 146.739 1.6695C146.792 1.75783 146.819 1.89033 146.819 2.067V6.4395C146.819 6.61617 146.863 6.7575 146.951 6.8635C147.057 6.95183 147.199 6.996 147.375 6.996H149.574C149.945 6.996 150.131 7.14617 150.131 7.4465C150.131 7.74683 149.945 7.897 149.574 7.897H147.375C147.199 7.897 147.057 7.95 146.951 8.056C146.863 8.14433 146.819 8.27683 146.819 8.4535L146.766 13.886C146.766 15.0697 146.775 15.7763 146.792 16.006C146.845 17.013 147.031 17.7108 147.349 18.0995C147.685 18.4705 148.127 18.656 148.673 18.656C149.027 18.656 149.336 18.5853 149.601 18.444C149.866 18.285 150.184 18.02 150.555 17.649C150.644 17.543 150.723 17.49 150.793 17.49C150.864 17.49 150.935 17.5253 151.005 17.596C151.094 17.6667 151.137 17.7373 151.137 17.808C151.137 17.8433 151.121 17.8963 151.084 17.967C150.538 18.7973 149.945 19.3892 149.309 19.7425C148.673 20.0782 147.958 20.246 147.163 20.246ZM166.096 17.49C166.149 17.49 166.192 17.5077 166.228 17.543C166.281 17.5783 166.308 17.6313 166.308 17.702L166.281 17.8345C166.07 18.5058 165.672 19.0712 165.089 19.5305C164.506 19.9722 163.879 20.193 163.208 20.193C162.077 20.193 161.291 19.7867 160.85 18.974C160.744 18.7797 160.62 18.6825 160.479 18.6825C160.355 18.6825 160.241 18.7267 160.135 18.815C159.481 19.292 158.774 19.6542 158.015 19.9015C157.255 20.1488 156.505 20.2725 155.763 20.2725C154.65 20.2725 153.776 20.0163 153.14 19.504C152.521 18.974 152.213 18.2497 152.213 17.331C152.213 15.953 152.99 14.8577 154.544 14.045C154.968 13.833 155.436 13.6652 155.949 13.5415C156.46 13.4002 157.105 13.2677 157.883 13.144L159.896 12.72C160.214 12.6317 160.373 12.4197 160.373 12.084V11.395C160.373 10.3173 160.347 9.5665 160.294 9.1425C160.241 8.70083 160.108 8.33867 159.896 8.056C159.542 7.632 159.075 7.42 158.492 7.42C158.05 7.42 157.661 7.56133 157.326 7.844C157.008 8.12667 156.743 8.7185 156.531 9.6195C156.372 10.2732 156.116 10.759 155.763 11.077C155.427 11.395 155.038 11.554 154.597 11.554C154.155 11.554 153.766 11.4303 153.432 11.183C153.096 10.918 152.928 10.5558 152.928 10.0965C152.928 9.74317 153.061 9.31033 153.326 8.798C153.607 8.268 154.155 7.791 154.968 7.367C155.798 6.92533 156.955 6.7045 158.439 6.7045C160.523 6.7045 162.051 7.2345 163.023 8.2945C163.341 8.64783 163.553 9.04533 163.659 9.487C163.781 9.911 163.844 10.441 163.844 11.077L163.817 13.992C163.799 14.575 163.791 15.476 163.791 16.695C163.791 17.4723 163.87 17.9758 164.029 18.2055C164.188 18.4175 164.4 18.5235 164.665 18.5235C164.877 18.5235 165.089 18.4528 165.301 18.3115C165.53 18.1525 165.734 17.9228 165.911 17.6225C165.964 17.5342 166.025 17.49 166.096 17.49ZM157.803 18.762C158.598 18.762 159.357 18.5147 160.082 18.02C160.276 17.8787 160.373 17.6843 160.373 17.437C160.373 17.1543 160.364 16.9423 160.347 16.801L160.32 16.1915L160.347 13.939C160.347 13.6033 160.205 13.4355 159.923 13.4355C159.834 13.4355 159.764 13.4443 159.711 13.462C158.333 13.886 157.326 14.3983 156.69 14.999C156.071 15.5997 155.763 16.3152 155.763 17.1455C155.763 17.6402 155.949 18.0377 156.32 18.338C156.69 18.6207 157.184 18.762 157.803 18.762ZM101.52 43.672C101.608 43.672 101.688 43.7073 101.758 43.778C101.829 43.831 101.864 43.8928 101.864 43.9635C101.864 44.0165 101.829 44.0872 101.758 44.1755C100.451 45.9068 98.7822 46.7725 96.7509 46.7725C95.5144 46.7725 94.3222 46.428 93.1741 45.739C92.9975 45.6507 92.8562 45.6065 92.7502 45.6065C92.6619 45.6065 92.547 45.633 92.4058 45.686C90.8868 46.375 89.1822 46.7195 87.2923 46.7195C85.9146 46.7195 84.74 46.5075 83.7685 46.0835C82.797 45.6418 82.0641 45.0588 81.5695 44.3345C81.0926 43.6102 80.8541 42.8152 80.8541 41.9495C80.8541 40.7128 81.278 39.644 82.1259 38.743C82.9914 37.8243 84.2102 36.9498 85.7821 36.1195C85.9941 36.0135 86.1001 35.8633 86.1001 35.669C86.1001 35.5453 86.0824 35.4482 86.0471 35.3775C85.4995 33.9995 85.2257 32.7275 85.2257 31.5615C85.2257 30.6252 85.4377 29.7772 85.8616 29.0175C86.3032 28.2402 86.9126 27.6307 87.6897 27.189C88.4669 26.7297 89.3589 26.5 90.3657 26.5C91.2665 26.5 92.1143 26.6502 92.9092 26.9505C93.7217 27.2332 94.3664 27.6483 94.8433 28.196C95.3379 28.7437 95.5851 29.3885 95.5851 30.1305C95.5851 31.0668 95.1877 31.8795 94.3929 32.5685C93.598 33.2575 92.4411 33.9642 90.9221 34.6885C90.6924 34.7945 90.5777 34.9447 90.5777 35.139C90.5777 35.2273 90.6041 35.3245 90.6571 35.4305L91.2665 36.5965L91.6639 37.3385C92.5825 39.0522 93.5892 40.6157 94.6843 42.029C94.8256 42.188 94.9581 42.2675 95.0817 42.2675C95.2407 42.2675 95.3732 42.188 95.4792 42.029C95.9913 41.3577 96.38 40.6598 96.6449 39.9355C96.9276 39.2112 97.0688 38.5398 97.0688 37.9215C97.0688 37.2148 96.8569 36.676 96.433 36.305C96.009 35.934 95.3997 35.7485 94.6048 35.7485C94.4636 35.7485 94.3929 35.6425 94.3929 35.4305C94.3929 35.2362 94.4636 35.139 94.6048 35.139H101.255C101.379 35.139 101.44 35.2362 101.44 35.4305C101.44 35.6425 101.379 35.7485 101.255 35.7485C99.683 35.7485 98.7115 36.5523 98.3406 38.16C97.9344 39.9443 97.1836 41.5167 96.0885 42.877C95.9826 43.0007 95.9296 43.1332 95.9296 43.2745C95.9296 43.4158 95.9913 43.5483 96.115 43.672C97.1395 44.6613 98.0139 45.156 98.738 45.156C99.2149 45.156 99.6565 45.0412 100.063 44.8115C100.469 44.5642 100.884 44.2197 101.308 43.778C101.379 43.7073 101.449 43.672 101.52 43.672ZM90.6571 27.401C90.0743 27.401 89.5974 27.6395 89.2264 28.1165C88.8555 28.5935 88.67 29.203 88.67 29.945C88.67 30.7753 89.0057 31.9325 89.6768 33.4165C89.7828 33.6462 89.9241 33.761 90.1007 33.761C90.242 33.761 90.3569 33.7257 90.4452 33.655C91.293 33.1073 91.9112 32.542 92.2998 31.959C92.706 31.376 92.9092 30.7135 92.9092 29.9715C92.9092 29.2295 92.7149 28.62 92.3263 28.143C91.9554 27.6483 91.399 27.401 90.6571 27.401ZM89.4119 45.103C89.9771 45.103 90.4982 45.05 90.9751 44.944C91.24 44.891 91.3725 44.7585 91.3725 44.5465C91.3725 44.4228 91.3107 44.2992 91.187 44.1755C89.933 42.8858 88.7937 41.1898 87.7692 39.0875L87.3718 38.2925L86.8949 37.3385C86.7889 37.1265 86.6477 37.0205 86.471 37.0205C86.365 37.0205 86.2502 37.0647 86.1266 37.153C85.5614 37.6123 85.164 38.0982 84.9343 38.6105C84.7046 39.1052 84.5899 39.6793 84.5899 40.333C84.5899 41.764 85.0315 42.9212 85.9146 43.8045C86.8154 44.6702 87.9812 45.103 89.4119 45.103ZM120.354 46.746C119.064 46.746 117.554 46.3927 115.823 45.686C115.593 45.58 115.373 45.527 115.161 45.527C114.825 45.527 114.419 45.7125 113.942 46.0835C113.783 46.2072 113.659 46.269 113.571 46.269C113.377 46.269 113.253 46.1365 113.2 45.8715L112.167 41.446L112.114 41.181C112.114 41.1457 112.131 41.1103 112.167 41.075C112.22 41.0397 112.264 41.0132 112.299 40.9955C112.352 40.9778 112.387 40.9602 112.405 40.9425C112.44 40.9248 112.493 40.916 112.564 40.916C112.635 40.916 112.732 40.9867 112.856 41.128C113.756 42.4 114.79 43.4688 115.955 44.3345C117.121 45.1825 118.49 45.6065 120.062 45.6065C121.192 45.6065 122.102 45.3238 122.791 44.7585C123.479 44.1755 123.824 43.3452 123.824 42.2675C123.824 40.9248 123.074 39.9443 121.572 39.326C120.883 39.0257 120.018 38.7165 118.976 38.3985C118.799 38.3455 118.358 38.1953 117.651 37.948C116.945 37.7007 116.317 37.4357 115.77 37.153C114.781 36.6407 114.039 35.9782 113.544 35.1655C113.05 34.3528 112.803 33.4253 112.803 32.383C112.803 31.5527 112.997 30.687 113.385 29.786C113.774 28.885 114.445 28.1165 115.399 27.4805C116.37 26.8268 117.642 26.5 119.214 26.5C119.779 26.5 120.318 26.5618 120.83 26.6855C121.36 26.8092 121.996 27.0035 122.738 27.2685C123.039 27.3745 123.286 27.4275 123.479 27.4275C123.833 27.4275 124.16 27.3038 124.46 27.0565C124.602 26.9328 124.734 26.871 124.857 26.871C125.034 26.871 125.149 26.9858 125.202 27.2155L126.341 31.111C126.341 31.1463 126.35 31.2082 126.367 31.2965C126.385 31.3672 126.367 31.429 126.314 31.482L126.155 31.5615C126.049 31.5968 125.97 31.6145 125.917 31.6145C125.829 31.6145 125.741 31.5527 125.652 31.429C125.44 31.0757 125.061 30.5987 124.513 29.998C123.966 29.3797 123.224 28.8055 122.287 28.2755C121.351 27.7278 120.309 27.454 119.161 27.454C118.154 27.454 117.377 27.6572 116.83 28.0635C116.3 28.4698 115.947 28.9203 115.77 29.415C115.593 29.9097 115.505 30.3425 115.505 30.7135C115.505 31.2435 115.637 31.7205 115.902 32.1445C116.167 32.5685 116.556 32.9218 117.068 33.2045C117.545 33.4695 118.199 33.7433 119.029 34.026C119.877 34.3087 120.38 34.4765 120.538 34.5295C120.769 34.6002 121.245 34.7592 121.969 35.0065C122.694 35.2538 123.304 35.4923 123.797 35.722C126.182 36.8173 127.374 38.4692 127.374 40.6775C127.374 41.8082 127.101 42.8328 126.553 43.7515C126.006 44.6702 125.202 45.4033 124.142 45.951C123.082 46.481 121.82 46.746 120.354 46.746ZM134.952 46.746C133.733 46.746 132.806 46.4015 132.17 45.7125C131.534 45.0058 131.198 43.9812 131.163 42.6385V34.9535C131.163 34.7768 131.11 34.6443 131.004 34.556C130.915 34.45 130.782 34.397 130.606 34.397H129.361C128.99 34.397 128.805 34.2468 128.805 33.9465C128.805 33.6462 128.964 33.4607 129.282 33.39C130.429 33.1073 131.41 32.5862 132.223 31.8265C133.052 31.0668 133.635 29.9627 133.971 28.514C134.041 28.1783 134.165 28.0105 134.342 28.0105C134.43 28.0105 134.492 28.0635 134.528 28.1695C134.581 28.2578 134.607 28.3903 134.607 28.567V32.9395C134.607 33.1162 134.65 33.2575 134.74 33.3635C134.846 33.4518 134.986 33.496 135.164 33.496H137.363C137.734 33.496 137.919 33.6462 137.919 33.9465C137.919 34.2468 137.734 34.397 137.363 34.397H135.164C134.986 34.397 134.846 34.45 134.74 34.556C134.65 34.6443 134.607 34.7768 134.607 34.9535L134.554 40.386C134.554 41.5697 134.563 42.2763 134.581 42.506C134.634 43.513 134.819 44.2108 135.137 44.5995C135.472 44.9705 135.914 45.156 136.462 45.156C136.815 45.156 137.124 45.0853 137.389 44.944C137.654 44.785 137.972 44.52 138.343 44.149C138.431 44.043 138.51 43.99 138.581 43.99C138.651 43.99 138.722 44.0253 138.793 44.096C138.881 44.1667 138.926 44.2373 138.926 44.308C138.926 44.3433 138.908 44.3963 138.873 44.467C138.325 45.2973 137.734 45.8892 137.098 46.2425C136.462 46.5782 135.746 46.746 134.952 46.746ZM148.876 33.178C149.636 33.178 150.245 33.39 150.704 33.814C151.181 34.238 151.419 34.7238 151.419 35.2715C151.419 35.6955 151.269 36.0488 150.969 36.3315C150.686 36.6142 150.324 36.7555 149.883 36.7555C149.583 36.7555 149.318 36.6937 149.088 36.57C148.858 36.4287 148.593 36.2343 148.293 35.987C148.046 35.7573 147.824 35.5895 147.63 35.4835C147.437 35.3598 147.225 35.298 146.995 35.298C146.624 35.298 146.271 35.4835 145.935 35.8545C145.617 36.2255 145.343 36.729 145.113 37.365C145.042 37.5947 145.007 37.8243 145.007 38.054V44.467C145.007 45.0147 145.132 45.3768 145.378 45.5535C145.625 45.7125 145.996 45.792 146.491 45.792H146.783C146.907 45.792 146.968 45.898 146.968 46.11C146.968 46.3043 146.907 46.4015 146.783 46.4015H139.815C139.691 46.4015 139.629 46.3043 139.629 46.11C139.629 45.898 139.691 45.792 139.815 45.792H140.079C140.574 45.792 140.945 45.7125 141.192 45.5535C141.439 45.3768 141.563 45.0147 141.563 44.467V36.2785C141.563 35.7132 141.439 35.3422 141.192 35.1655C140.945 34.9712 140.53 34.8652 139.947 34.8475C139.859 34.8298 139.796 34.7768 139.762 34.6885C139.727 34.6002 139.709 34.5118 139.709 34.4235C139.709 34.3175 139.762 34.2557 139.868 34.238C140.027 34.185 141.537 33.8758 144.398 33.3105H144.531C144.671 33.3105 144.787 33.3547 144.875 33.443C144.963 33.5313 145.007 33.655 145.007 33.814V35.086C145.007 35.3157 145.079 35.4305 145.219 35.4305C145.36 35.4305 145.555 35.2803 145.802 34.98C146.244 34.4147 146.721 33.973 147.233 33.655C147.763 33.337 148.311 33.178 148.876 33.178ZM166.484 43.99C166.537 43.99 166.58 44.0077 166.616 44.043C166.669 44.0783 166.696 44.1313 166.696 44.202L166.669 44.3345C166.457 45.0058 166.06 45.5712 165.477 46.0305C164.894 46.4722 164.267 46.693 163.596 46.693C162.465 46.693 161.679 46.2867 161.238 45.474C161.132 45.2797 161.008 45.1825 160.867 45.1825C160.743 45.1825 160.628 45.2267 160.523 45.315C159.869 45.792 159.162 46.1542 158.403 46.4015C157.643 46.6488 156.893 46.7725 156.151 46.7725C155.038 46.7725 154.164 46.5163 153.528 46.004C152.909 45.474 152.601 44.7497 152.601 43.831C152.601 42.453 153.377 41.3577 154.932 40.545C155.356 40.333 155.823 40.1652 156.336 40.0415C156.848 39.9002 157.492 39.7677 158.27 39.644L160.284 39.22C160.602 39.1317 160.761 38.9197 160.761 38.584V37.895C160.761 36.8173 160.734 36.0665 160.681 35.6425C160.628 35.2008 160.496 34.8387 160.284 34.556C159.93 34.132 159.463 33.92 158.88 33.92C158.438 33.92 158.049 34.0613 157.714 34.344C157.396 34.6267 157.131 35.2185 156.919 36.1195C156.76 36.7732 156.504 37.259 156.151 37.577C155.815 37.895 155.426 38.054 154.985 38.054C154.543 38.054 154.154 37.9303 153.819 37.683C153.483 37.418 153.316 37.0558 153.316 36.5965C153.316 36.2432 153.448 35.8103 153.713 35.298C153.995 34.768 154.543 34.291 155.356 33.867C156.186 33.4253 157.343 33.2045 158.827 33.2045C160.91 33.2045 162.439 33.7345 163.41 34.7945C163.728 35.1478 163.94 35.5453 164.046 35.987C164.169 36.411 164.232 36.941 164.232 37.577L164.205 40.492C164.187 41.075 164.179 41.976 164.179 43.195C164.179 43.9723 164.258 44.4758 164.417 44.7055C164.576 44.9175 164.788 45.0235 165.053 45.0235C165.265 45.0235 165.477 44.9528 165.689 44.8115C165.918 44.6525 166.121 44.4228 166.298 44.1225C166.351 44.0342 166.413 43.99 166.484 43.99ZM158.191 45.262C158.986 45.262 159.745 45.0147 160.47 44.52C160.663 44.3787 160.761 44.1843 160.761 43.937C160.761 43.6543 160.751 43.4423 160.734 43.301L160.708 42.6915L160.734 40.439C160.734 40.1033 160.592 39.9355 160.311 39.9355C160.221 39.9355 160.152 39.9443 160.099 39.962C158.721 40.386 157.714 40.8983 157.078 41.499C156.459 42.0997 156.151 42.8152 156.151 43.6455C156.151 44.1402 156.336 44.5377 156.707 44.838C157.078 45.1207 157.572 45.262 158.191 45.262ZM173.245 46.746C172.026 46.746 171.099 46.4015 170.463 45.7125C169.827 45.0058 169.491 43.9812 169.456 42.6385V34.9535C169.456 34.7768 169.403 34.6443 169.297 34.556C169.208 34.45 169.075 34.397 168.9 34.397H167.654C167.283 34.397 167.098 34.2468 167.098 33.9465C167.098 33.6462 167.257 33.4607 167.575 33.39C168.723 33.1073 169.703 32.5862 170.516 31.8265C171.346 31.0668 171.928 29.9627 172.264 28.514C172.334 28.1783 172.458 28.0105 172.635 28.0105C172.723 28.0105 172.785 28.0635 172.821 28.1695C172.874 28.2578 172.9 28.3903 172.9 28.567V32.9395C172.9 33.1162 172.944 33.2575 173.033 33.3635C173.139 33.4518 173.28 33.496 173.457 33.496H175.656C176.027 33.496 176.212 33.6462 176.212 33.9465C176.212 34.2468 176.027 34.397 175.656 34.397H173.457C173.28 34.397 173.139 34.45 173.033 34.556C172.944 34.6443 172.9 34.7768 172.9 34.9535L172.847 40.386C172.847 41.5697 172.856 42.2763 172.874 42.506C172.927 43.513 173.112 44.2108 173.43 44.5995C173.765 44.9705 174.207 45.156 174.755 45.156C175.108 45.156 175.417 45.0853 175.682 44.944C175.947 44.785 176.265 44.52 176.636 44.149C176.724 44.043 176.803 43.99 176.875 43.99C176.944 43.99 177.015 44.0253 177.086 44.096C177.174 44.1667 177.219 44.2373 177.219 44.308C177.219 44.3433 177.201 44.3963 177.166 44.467C176.618 45.2973 176.027 45.8892 175.391 46.2425C174.755 46.5782 174.04 46.746 173.245 46.746ZM190.401 43.0095C190.507 43.0802 190.56 43.1685 190.56 43.2745L190.534 43.4335C190.127 44.2992 189.464 45.0677 188.547 45.739C187.646 46.4103 186.523 46.746 185.182 46.746C183.857 46.746 182.655 46.4457 181.579 45.845C180.519 45.2267 179.688 44.4052 179.088 43.3805C178.505 42.3558 178.214 41.2517 178.214 40.068C178.214 38.9903 178.469 37.9215 178.982 36.8615C179.512 35.8015 180.28 34.927 181.287 34.238C182.294 33.549 183.486 33.2045 184.864 33.2045C186.276 33.2045 187.522 33.6638 188.6 34.5825C189.676 35.4835 190.357 36.7202 190.64 38.2925V38.3985C190.64 38.7342 190.463 38.902 190.11 38.902L182.453 38.955C182.082 38.955 181.896 39.1052 181.896 39.4055V39.856C181.896 41.3577 182.223 42.665 182.877 43.778C183.548 44.8733 184.572 45.421 185.95 45.421C187.593 45.421 188.944 44.6437 190.004 43.089C190.057 43.0007 190.136 42.9565 190.242 42.9565C190.277 42.9565 190.33 42.9742 190.401 43.0095ZM184.784 33.8935C184.289 33.8935 183.778 34.132 183.248 34.609C182.718 35.086 182.329 36.0223 182.082 37.418V37.524C182.082 37.8773 182.258 38.054 182.612 38.054L186.665 38.001C186.841 38.001 186.974 37.9568 187.063 37.8685C187.169 37.7802 187.222 37.6565 187.222 37.4975C187.222 36.4022 186.983 35.5277 186.507 34.874C186.03 34.2203 185.455 33.8935 184.784 33.8935ZM204.697 34.397C204.522 34.397 204.38 34.4235 204.274 34.4765C204.098 34.5472 204.009 34.662 204.009 34.821C204.009 34.9447 204.071 35.086 204.194 35.245C204.866 36.0047 205.201 36.8703 205.201 37.842C205.201 38.69 204.954 39.4585 204.459 40.1475C203.965 40.8365 203.267 41.3842 202.366 41.7905C201.483 42.1792 200.458 42.3735 199.293 42.3735C198.816 42.3735 198.312 42.3293 197.782 42.241C197.713 42.2233 197.623 42.2145 197.517 42.2145C197.358 42.2145 197.209 42.2587 197.067 42.347C196.767 42.5413 196.617 42.7092 196.617 42.8505C196.617 43.0095 196.723 43.142 196.935 43.248C197.146 43.354 197.597 43.4688 198.286 43.5925C199.046 43.7162 199.973 43.8928 201.068 44.1225C202.164 44.3522 203.073 44.5642 203.797 44.7585C204.697 44.9882 205.422 45.3415 205.969 45.8185C206.517 46.2778 206.791 46.8608 206.791 47.5675C206.791 48.5038 206.385 49.2723 205.572 49.873C204.777 50.4913 203.797 50.933 202.631 51.198C201.465 51.463 200.317 51.5955 199.187 51.5955C197.633 51.5955 196.361 51.4277 195.371 51.092C194.401 50.774 193.694 50.3765 193.252 49.8995C192.828 49.4225 192.616 48.9367 192.616 48.442C192.616 47.9827 192.819 47.5763 193.225 47.223C193.649 46.8697 194.277 46.534 195.106 46.216C195.318 46.1277 195.424 46.0482 195.424 45.9775C195.424 45.8715 195.318 45.7832 195.106 45.7125C194.153 45.3062 193.676 44.8292 193.676 44.2815C193.676 43.6632 194.409 42.9918 195.875 42.2675C196.087 42.1615 196.193 42.0555 196.193 41.9495C196.193 41.8435 196.087 41.7375 195.875 41.6315C195.063 41.2252 194.418 40.704 193.941 40.068C193.482 39.432 193.252 38.7077 193.252 37.895C193.252 36.9763 193.535 36.1637 194.1 35.457C194.683 34.7327 195.424 34.1762 196.325 33.7875C197.244 33.3988 198.189 33.2045 199.16 33.2045C200.503 33.2045 201.704 33.5048 202.763 34.1055C202.905 34.1585 203.011 34.185 203.081 34.185C203.258 34.185 203.399 34.079 203.505 33.867C204.247 32.489 205.211 31.8 206.393 31.8C206.941 31.8 207.365 31.9767 207.665 32.33C207.983 32.6833 208.142 33.0632 208.142 33.4695C208.142 33.8758 208.019 34.2292 207.771 34.5295C207.524 34.8298 207.153 34.98 206.658 34.98C206.499 34.98 206.323 34.9535 206.128 34.9005C205.952 34.8298 205.784 34.7592 205.625 34.6885C205.237 34.4942 204.927 34.397 204.697 34.397ZM199.16 41.7375C200.132 41.7375 200.821 41.3047 201.227 40.439C201.634 39.5557 201.836 38.5928 201.836 37.5505C201.836 36.6318 201.616 35.7927 201.174 35.033C200.75 34.2557 200.105 33.867 199.24 33.867C198.64 33.867 198.145 34.0967 197.756 34.556C197.368 34.9977 197.085 35.5365 196.908 36.1725C196.732 36.8085 196.643 37.4092 196.643 37.9745C196.643 38.9638 196.873 39.8383 197.332 40.598C197.792 41.3577 198.401 41.7375 199.16 41.7375ZM202.18 47.3555C201.757 47.2318 201.077 47.064 200.14 46.852C199.205 46.64 198.286 46.4545 197.385 46.2955C197.332 46.2778 197.252 46.269 197.147 46.269C196.971 46.269 196.802 46.322 196.643 46.428C195.742 47.0993 195.292 47.7265 195.292 48.3095C195.292 48.7335 195.487 49.1398 195.875 49.5285C196.264 49.9172 196.802 50.2352 197.491 50.4825C198.18 50.7298 198.94 50.8535 199.769 50.8535C200.635 50.8535 201.359 50.7298 201.942 50.4825C202.543 50.2352 202.985 49.9437 203.267 49.608C203.568 49.2723 203.717 48.9632 203.717 48.6805C203.717 48.3802 203.576 48.1152 203.293 47.8855C203.011 47.6558 202.641 47.4792 202.18 47.3555ZM223.746 33.496C223.869 33.496 223.931 33.5932 223.931 33.7875C223.931 33.8935 223.905 33.9642 223.852 33.9995C223.799 34.0348 223.728 34.0613 223.64 34.079C223.551 34.0967 223.489 34.1143 223.454 34.132C223.012 34.238 222.624 34.4588 222.289 34.7945C221.971 35.1125 221.617 35.6778 221.229 36.4905C220.593 37.8332 219.762 39.6087 218.738 41.817C217.714 44.0077 216.778 46.0305 215.93 47.8855C215.17 49.5285 214.42 50.6857 213.678 51.357C212.936 52.046 212.168 52.3905 211.373 52.3905C210.472 52.3905 209.8 52.1962 209.359 51.8075C208.917 51.4188 208.697 50.986 208.697 50.509C208.697 50.0497 208.846 49.6787 209.147 49.396C209.447 49.1133 209.827 48.972 210.287 48.972C210.587 48.972 210.833 49.0073 211.028 49.078C211.24 49.1487 211.479 49.2547 211.744 49.396C211.973 49.5373 212.185 49.6345 212.38 49.6875C212.574 49.7582 212.804 49.7935 213.069 49.7935C213.403 49.7935 213.695 49.6433 213.943 49.343C214.208 49.0603 214.516 48.5745 214.87 47.8855L215.533 46.5075C215.602 46.3838 215.639 46.2513 215.639 46.11C215.639 46.004 215.612 45.8892 215.559 45.7655C215.294 45.2002 214.94 44.4317 214.499 43.46C214.075 42.4883 213.562 41.3488 212.963 40.0415C211.62 37.0382 210.913 35.4658 210.843 35.3245C210.613 34.8652 210.383 34.5472 210.154 34.3705C209.924 34.1938 209.588 34.1055 209.147 34.1055C209.023 34.1055 208.962 33.9995 208.962 33.7875C208.962 33.5932 209.023 33.496 209.147 33.496H215.612C215.735 33.496 215.798 33.5932 215.798 33.7875C215.798 33.9818 215.726 34.0878 215.586 34.1055C215.215 34.1408 214.923 34.2292 214.711 34.3705C214.516 34.5118 214.42 34.6797 214.42 34.874C214.42 34.9977 214.463 35.1743 214.552 35.404C214.799 36.0223 215.162 36.9145 215.639 38.0805C216.132 39.2288 216.627 40.3772 217.122 41.5255C217.245 41.7552 217.369 41.87 217.493 41.87C217.652 41.87 217.785 41.7552 217.891 41.5255L218.156 40.9425C218.367 40.4655 218.747 39.6263 219.295 38.425C219.86 37.206 220.186 36.4463 220.275 36.146C220.363 35.9163 220.408 35.7132 220.408 35.5365C220.408 35.0595 220.186 34.6973 219.745 34.45C219.303 34.2027 218.835 34.079 218.341 34.079C218.217 34.079 218.156 33.9818 218.156 33.7875C218.156 33.5932 218.217 33.496 218.341 33.496H223.746Z" fill="white"/>
</svg>
