<svg width="1667" height="1851" viewBox="0 0 1667 1851" fill="#9c0000ff" xmlns="http://www.w3.org/2000/svg">
<path fill-rule="evenodd" clip-rule="evenodd" d="M814.681 905.282L702.691 784.507C647.031 724.481 510.681 760.364 398.215 864.65C285.748 968.937 239.69 1102.19 295.35 1162.22L407.341 1282.99C463.036 1343.06 416.943 1476.28 304.476 1580.56C192.01 1684.85 55.6961 1720.77 4.03358e-05 1660.71L149.363 1821.79C205.023 1881.81 341.373 1845.93 453.839 1741.64C566.306 1637.36 612.364 1504.1 556.704 1444.07L657.51 1552.79C713.169 1612.81 849.519 1576.93 961.986 1472.64C1074.45 1368.36 1120.51 1235.1 1064.85 1175.07L964.044 1066.36C1019.7 1126.39 1156.05 1090.5 1268.52 986.218C1380.99 881.931 1427.05 748.675 1371.39 688.648L1259.39 567.873C1203.7 507.809 1249.76 374.551 1362.22 270.264C1474.69 165.978 1611.04 130.095 1666.74 190.161L1517.37 29.0814C1461.71 -30.9443 1325.36 4.9381 1212.9 109.225C1100.43 213.511 1054.37 346.768 1110.03 406.794L1222.02 527.569C1277.72 587.633 1231.62 720.852 1119.16 825.139C1006.69 929.425 870.377 965.347 814.681 905.282ZM915.487 1014L852.048 945.58C796.353 885.516 660.003 921.398 547.536 1025.68C435.069 1129.97 389.011 1263.23 444.708 1323.29L508.147 1391.71C563.842 1451.77 700.193 1415.89 812.659 1311.6C925.126 1207.32 971.184 1074.06 915.487 1014Z" fill="#F0F0F0"/>
</svg>
