<svg width="1131" height="327" viewBox="0 0 1131 327" fill="none" xmlns="http://www.w3.org/2000/svg">
<g opacity="0.45" clip-path="url(#clip0_339_54)">
<path d="M1213.41 -121.162C1206.06 -100.248 1187.22 -82.2691 1164.83 -73.5818C1126.68 -58.8047 1081.26 -62.7962 1038.02 -68.1587L1030.68 -69.0748C990.007 -74.1636 947.965 -79.4266 910.227 -70.0368C858.188 -57.0782 817.001 -14.5145 802.744 41.093C789.344 93.3564 798.744 150.873 809.702 200.25C812.251 211.689 814.993 223.336 817.672 234.597C827.49 276.018 837.634 318.839 839.147 360.947C840.167 389.461 835.644 415.917 826.07 437.443C814.63 463.147 796.561 480.964 772.375 490.434C732.027 506.212 677.686 497.301 610.886 463.933C585.253 451.135 560.024 436.76 535.613 422.855C502.784 404.165 468.847 384.834 433.602 369.136C383.007 346.611 308.428 323.346 240.586 340.407C181.1 355.36 133.046 401.63 111.953 464.321C93.9672 517.781 94.9687 575.156 102.006 644.86L100.465 644.836C93.4119 574.987 92.4096 517.472 110.465 463.812C131.634 400.813 180.086 354.166 240.012 339.102C308.345 321.921 383.314 345.308 434.186 367.945C469.506 383.669 503.488 403.015 536.356 421.733C560.742 435.616 585.957 449.985 611.535 462.75C677.871 495.871 731.734 504.768 771.621 489.163C815.216 472.109 839.874 424.134 837.607 360.825C836.104 318.832 825.957 276.067 816.165 234.711C813.487 223.45 810.73 211.798 808.2 200.351C797.207 150.836 787.786 93.1445 801.234 40.6469C815.597 -15.3565 857.141 -58.2701 909.656 -71.3544C947.689 -80.8225 989.907 -75.5394 1030.73 -70.4235L1038.08 -69.5074C1081.1 -64.1805 1126.27 -60.1925 1164.07 -74.8396C1200.54 -88.9631 1227.45 -128.075 1209.41 -163.78L1210.81 -164.21C1218.08 -149.8 1218.2 -134.856 1213.41 -121.174L1213.41 -121.162Z" fill="#253439"/>
<path d="M1206.77 -110.475C1199.51 -89.7852 1181.09 -72.1723 1159.67 -63.3114C1122.75 -48.0347 1078.69 -50.7922 1036.75 -54.9044C1034.01 -55.1681 1031.27 -55.4442 1028.52 -55.7255C995.763 -59.0004 961.879 -62.3913 930.259 -57.8506C923.887 -56.9311 917.694 -55.7118 911.883 -54.2046C860.294 -40.8647 819.876 -0.586811 803.798 53.5155C789.843 100.43 795.052 149.996 801.157 187.948C802.02 193.321 802.962 198.847 804.056 204.845C806.068 215.915 808.302 227.16 810.448 238.038C818.112 276.72 826.016 316.715 825.839 355.995C825.694 384.882 818.613 454.601 756.12 477.785C751.583 479.46 746.82 480.875 741.942 481.956C704.066 490.361 655.184 480.616 596.642 453.01C572.027 441.393 547.782 428.44 524.353 415.913C491.412 398.301 457.361 380.103 422.17 365.625C376.489 346.808 333.513 336.804 294.421 335.858C272.974 335.34 252.755 337.64 234.33 342.708C176.702 358.536 129.859 404.728 109.092 466.346C91.3043 519.052 91.6863 575.582 97.7317 644.267L96.195 644.23C90.1339 575.4 89.751 518.731 107.604 465.838C128.465 403.904 175.664 357.362 233.716 341.417C252.301 336.322 272.681 333.994 294.293 334.514C333.604 335.453 376.807 345.523 422.696 364.413C457.971 378.934 492.063 397.16 525.048 414.788C548.462 427.31 572.677 440.253 597.252 451.841C655.406 479.269 703.911 488.952 741.401 480.648C746.207 479.584 750.908 478.204 755.372 476.545C817.136 453.635 824.144 384.505 824.273 355.85C824.46 316.685 816.554 276.745 808.901 238.124C806.756 227.245 804.522 216 802.499 204.913C801.41 198.903 800.453 193.371 799.594 187.986C793.48 149.919 788.248 100.178 802.263 53.0465C809.778 27.7948 823.177 4.58055 841.042 -14.0772C860.391 -34.3082 884.681 -48.6291 911.255 -55.5004C917.119 -57.0168 923.37 -58.258 929.79 -59.1742C961.615 -63.7271 995.601 -60.3422 1028.47 -57.0557C1031.22 -56.7744 1033.96 -56.5107 1036.7 -56.2347C1078.45 -52.1352 1122.26 -49.3936 1158.83 -64.5278C1193.66 -78.9195 1220.44 -116.806 1203 -152.9L1204.43 -153.294C1211.44 -138.766 1211.46 -123.956 1206.72 -110.465L1206.77 -110.475Z" fill="#253439"/>
<path d="M1199.85 -99.6917C1198.75 -96.5335 1197.36 -93.4018 1195.73 -90.3161C1187.27 -74.4317 1172.25 -60.8369 1154.54 -53.0055C1118.84 -37.2292 1076.15 -38.7404 1035.49 -41.6323C1032.43 -41.8529 1029.36 -42.0788 1026.28 -42.3099C994.763 -44.6176 962.177 -47.008 931.583 -42.1628C925.336 -41.1716 919.272 -39.8929 913.569 -38.3617C863.669 -24.9455 823.294 13.5038 805.34 64.6431C805.187 65.0783 805.034 65.5135 804.877 65.961C789.527 110.822 792.308 157.719 796.439 193.554C797.021 198.59 797.677 203.793 798.45 209.469C799.903 220.091 801.572 230.858 803.167 241.264C808.719 277.277 814.439 314.521 812.571 351.071C811.175 378.207 801.297 443.647 739.905 465.165C735.422 466.734 730.695 468.049 725.873 469.065C688.141 476.963 641.232 468.148 582.457 442.108C558.988 431.69 535.873 420.167 513.539 409.03C480.355 392.491 446.051 375.392 410.792 362.105C366.073 345.246 324.216 336.752 286.386 336.864C265.568 336.929 245.98 339.661 228.127 344.999C172.338 361.71 126.71 407.812 106.284 468.363C88.6993 520.303 88.4575 575.998 93.5257 643.67L91.9828 643.603C86.9094 575.804 87.1504 519.968 104.797 467.855C114.529 439.233 130.156 412.947 150.062 391.891C171.968 368.745 198.003 352.537 227.479 343.71C245.482 338.327 265.23 335.567 286.199 335.499C324.248 335.38 366.326 343.91 411.263 360.86C446.611 374.178 480.97 391.31 514.179 407.872C536.498 419.004 559.587 430.504 583.027 440.911C641.44 466.796 687.997 475.572 725.355 467.739C730.12 466.744 734.775 465.445 739.205 463.886C799.876 442.618 809.636 377.75 811.036 350.84C812.894 314.412 807.167 277.235 801.632 241.27C800.022 230.859 798.372 220.084 796.909 209.445C796.136 203.769 795.469 198.549 794.888 193.512C790.736 157.544 787.959 110.495 803.383 65.4226C821.251 13.2474 862.187 -26.0385 912.949 -39.6824C918.71 -41.2353 924.828 -42.5233 931.127 -43.5237C961.915 -48.3986 994.614 -45.9967 1026.22 -43.6702C1029.29 -43.4443 1032.36 -43.2184 1035.42 -42.9977C1075.86 -40.1114 1118.32 -38.6109 1153.71 -54.2468C1187.07 -68.9716 1212.99 -106.728 1196.72 -142.033L1198.16 -142.41C1204.37 -128.929 1204.9 -114.077 1199.86 -99.7041L1199.85 -99.6917Z" fill="#253439"/>
<path d="M1193.12 -89.2605C1186.12 -69.3046 1169.21 -52.0978 1149.37 -42.7397C1114.85 -26.4492 1073.54 -26.7214 1034.19 -28.3878C1030.77 -28.5386 1027.34 -28.6821 1023.9 -28.8432C993.669 -30.2106 962.409 -31.6326 932.865 -26.5027C926.748 -25.4521 920.812 -24.1141 915.199 -22.5516C866.119 -8.86142 825.261 28.8737 805.9 78.3738C789.172 121.131 789.505 165.367 791.65 199.122C791.956 203.852 792.326 208.731 792.777 214.043C793.648 224.139 794.71 234.357 795.727 244.226C799.19 277.647 802.768 312.212 799.236 346.097C796.736 369.828 789.714 391.538 778.912 408.876C765.699 430.089 747.101 444.76 723.643 452.488C719.195 453.957 714.518 455.178 709.736 456.125C672.702 463.415 626.413 455.251 568.205 431.156C546.039 421.963 524.231 411.89 503.124 402.148C467.994 385.932 434.815 370.61 399.328 358.542C355.576 343.629 314.834 336.657 278.246 337.834C258.076 338.475 239.1 341.646 221.833 347.259C167.739 364.887 124.944 408.897 104.131 468.181C103.878 468.902 103.625 469.623 103.371 470.344C84.0341 527.227 85.9154 589.31 89.1994 643.032L87.661 642.953C84.3822 589.121 82.4913 526.923 101.884 469.836C122.534 409.071 166 363.955 221.147 345.985C238.549 340.321 257.684 337.123 278.02 336.484C314.823 335.312 355.771 342.314 399.735 357.289C435.307 369.4 470.079 385.449 503.704 400.969C524.782 410.701 546.579 420.756 568.711 429.951C626.572 453.896 672.538 462.031 709.215 454.81C713.924 453.88 718.548 452.668 722.938 451.221C782.482 431.596 795.049 370.981 797.68 345.83C801.202 312.068 797.618 277.57 794.167 244.208C793.139 234.323 792.092 224.109 791.211 213.995C790.76 208.683 790.379 203.787 790.093 199.05C787.923 165.175 787.613 120.779 804.415 77.8105C823.913 27.9675 865.082 -10.0357 914.57 -23.8475C920.223 -25.4245 926.226 -26.7664 932.386 -27.8439C962.109 -33.0088 993.467 -31.5805 1023.79 -30.2067C1027.24 -30.0456 1030.66 -29.8895 1034.07 -29.7564C1073.22 -28.0903 1114.3 -27.8166 1148.49 -43.9541C1181.1 -59.3343 1205.66 -96.1704 1190.34 -131.172L1191.79 -131.531C1198.04 -117.225 1197.79 -102.637 1193.1 -89.2834L1193.12 -89.2605Z" fill="#253439"/>
<path d="M1186.21 -78.4052C1185.2 -75.5206 1183.97 -72.6416 1182.53 -69.8106C1174.66 -54.3627 1160.69 -40.7455 1144.23 -32.4341C1110.89 -15.6047 1070.97 -14.6502 1032.93 -15.116C1029.11 -15.1575 1025.26 -15.2218 1021.4 -15.279C992.502 -15.7328 962.606 -16.2008 934.184 -10.8026C928.187 -9.66791 922.352 -8.28106 916.88 -6.69662C869.075 7.16161 827.999 43.6192 806.974 90.8315C788.882 131.448 786.758 173.047 786.924 204.753C786.941 209.214 787.02 213.781 787.148 218.686C787.414 228.179 787.839 237.741 788.271 246.999C789.746 279.345 791.151 309.894 785.959 341.198C781.066 370.513 764.343 422.322 707.42 439.893C703.007 441.262 698.374 442.401 693.653 443.271C656.866 450.048 612.493 442.738 554.007 420.291C533.353 412.342 513.033 403.727 493.382 395.39C457.628 380.239 423.847 365.921 387.952 355.065C345.176 342.114 305.549 336.665 270.213 338.882C250.69 340.1 232.327 343.709 215.627 349.605C162.743 368.342 120.798 413.112 100.576 472.421C81.4565 528.445 82.5045 589.579 84.9946 642.477L83.4457 642.38C80.9609 589.372 79.9033 528.123 99.0921 471.9C119.469 412.198 161.663 367.195 214.922 348.338C231.741 342.386 250.26 338.762 269.938 337.528C305.494 335.305 345.331 340.772 388.314 353.795C424.318 364.676 458.124 379.017 493.937 394.188C513.578 402.508 533.898 411.122 554.502 419.068C612.663 441.401 656.731 448.674 693.18 441.96C697.848 441.099 702.408 439.977 706.779 438.634C763.047 421.267 779.6 369.943 784.44 340.875C789.607 309.687 788.218 279.186 786.752 246.912C786.32 237.655 785.899 228.08 785.633 218.587C785.495 213.664 785.43 209.103 785.403 204.624C785.242 172.808 787.385 131.062 805.551 90.2341C826.704 42.7037 868.101 5.99576 916.277 -7.96966C921.806 -9.57584 927.676 -10.9647 933.731 -12.1211C962.313 -17.547 992.291 -17.0778 1021.29 -16.6176C1025.15 -16.5604 1028.98 -16.5013 1032.81 -16.4546C1070.64 -15.9943 1110.34 -16.9295 1143.38 -33.6132C1174.09 -49.1003 1198.78 -84.7324 1184.06 -120.263L1185.51 -120.592C1191.02 -107.289 1191.24 -92.5887 1186.26 -78.3896L1186.21 -78.4052Z" fill="#253439"/>
<path d="M1179.52 -68.0731C1172.67 -48.5525 1156.87 -31.7523 1139.09 -22.1575C1106.91 -4.7695 1066.76 -2.56609 1031.66 -1.87321C1027.4 -1.79107 1023.09 -1.72447 1018.77 -1.65069C991.224 -1.22321 962.76 -0.783742 935.503 4.85585C929.611 6.06951 923.909 7.50321 918.541 9.12411C872.034 23.1306 830.72 58.3179 808.029 103.255C788.628 141.666 784.019 180.661 782.177 210.349C781.927 214.479 781.705 218.717 781.517 223.288C781.174 232.049 780.978 240.863 780.79 249.373C780.144 279.215 779.528 307.406 772.651 336.248C766.148 363.363 746.91 411.23 691.17 427.233C686.811 428.496 682.214 429.535 677.529 430.349C630.253 438.429 576.267 422.241 539.772 409.344C520.909 402.652 502.315 395.482 484.335 388.555C447.687 374.431 413.064 361.089 376.524 351.5C334.73 340.5 296.233 336.579 262.113 339.837C243.223 341.627 225.487 345.679 209.374 351.852C158.363 371.47 117.609 416.169 97.7135 474.405C78.8233 529.588 79.0424 589.761 80.7193 641.843L79.1747 641.733C77.4839 589.549 77.2595 529.248 96.2257 473.897C116.336 415.289 157.251 370.367 208.626 350.611C224.859 344.383 242.75 340.316 261.781 338.506C296.104 335.235 334.812 339.174 376.807 350.217C413.456 359.83 448.124 373.188 484.831 387.332C502.796 394.254 521.376 401.419 540.223 408.106C576.53 420.923 630.206 437.044 677.095 429.023C681.722 428.231 686.251 427.196 690.557 425.942C745.665 410.123 764.717 362.693 771.148 335.831C778 307.107 778.609 278.983 779.253 249.196C779.43 240.669 779.626 231.855 779.973 223.081C780.166 218.498 780.373 214.255 780.642 210.118C782.504 180.325 787.132 141.183 806.613 102.59C829.439 57.3651 871.049 21.9472 917.909 7.84067C923.33 6.21052 929.07 4.76236 935 3.53421C962.402 -2.13835 990.964 -2.57138 1018.58 -3.00292C1022.88 -3.06945 1027.19 -3.13599 1031.45 -3.21816C1066.37 -3.91861 1106.28 -6.10789 1138.17 -23.3326C1167.44 -39.1299 1191.25 -74.6548 1177.68 -109.401L1179.14 -109.701C1184.68 -95.4925 1184.1 -81.171 1179.51 -68.0783L1179.52 -68.0731Z" fill="#253439"/>
<path d="M1172.75 -57.2379C1166.08 -38.227 1151.11 -21.8048 1133.93 -11.8743C1102.88 6.09206 1064.21 9.55335 1030.38 11.3939C1025.61 11.6588 1020.79 11.8956 1015.95 12.1219C989.828 13.3842 962.823 14.699 936.812 20.5386C931.06 21.8292 925.472 23.3171 920.197 24.9569C874.318 39.3096 833.815 72.379 809.078 115.69C788.433 151.807 781.322 188.248 777.425 215.957C776.898 219.739 776.39 223.652 775.877 227.914C774.933 235.822 774.132 243.753 773.358 251.414C770.578 278.887 767.95 304.835 759.345 331.339C749.384 361.751 726.694 400.893 674.921 414.615C670.602 415.766 666.064 416.729 661.425 417.461C615.794 424.652 564.84 411.078 525.552 398.445C508.809 393.027 492.272 387.305 476.269 381.771C438.385 368.652 402.593 356.267 365.107 347.995C324.32 338.968 286.957 336.563 254.025 340.853C235.782 343.219 218.649 347.692 203.117 354.152C154.411 374.468 115.207 418.454 95.3719 474.952C95.1973 475.45 95.027 475.934 94.8524 476.432C76.1849 530.742 75.5664 589.979 76.4598 641.255L74.9048 641.128C74.0079 589.767 74.636 530.408 93.3646 475.923C93.5392 475.426 93.7139 474.929 93.8841 474.444C113.833 417.622 153.29 373.39 202.327 352.939C217.978 346.423 235.241 341.911 253.625 339.525C286.75 335.205 324.328 337.616 365.312 346.698C402.907 354.995 438.743 367.395 476.687 380.535C492.675 386.064 509.196 391.78 525.925 397.193C565.02 409.759 615.709 423.281 660.972 416.142C665.558 415.42 670.042 414.466 674.308 413.324C725.512 399.752 747.998 361 757.838 330.837C766.399 304.458 769.025 278.565 771.803 251.147C772.58 243.474 773.382 235.543 774.326 227.634C774.843 223.361 775.35 219.447 775.882 215.653C779.795 187.851 786.94 151.269 807.675 114.988C832.572 71.4118 873.334 38.1261 919.531 23.6754C924.844 22.0212 930.47 20.5189 936.26 19.2138C962.416 13.3412 989.5 12.04 1015.68 10.756C1020.51 10.5245 1025.32 10.2878 1030.1 10.023C1063.73 8.19968 1102.2 4.75046 1132.96 -13.0525C1161.53 -29.5446 1183.88 -64.2103 1171.32 -98.5478L1172.79 -98.8294C1177.99 -84.601 1177.31 -70.3161 1172.73 -57.2608L1172.75 -57.2379Z" fill="#253439"/>
<path d="M1165.81 -46.6858C1159.24 -27.9732 1145.01 -11.6432 1128.77 -1.60427C1098.83 16.96 1061.63 21.6793 1029.1 24.6302C1023.75 25.1243 1018.34 25.5725 1012.9 26.0229C988.27 28.0734 962.814 30.1974 938.115 36.1906C932.488 37.5529 927.034 39.0876 921.863 40.7638C877.343 55.2308 836.624 87.0651 810.132 128.112C788.347 161.831 778.666 195.764 772.659 221.56C771.797 225.251 770.996 228.908 770.208 232.528C768.744 239.403 767.398 246.276 766.096 252.928C761.135 278.211 756.453 302.083 746.014 326.406C728.87 366.126 698.654 392.249 658.667 401.967C654.402 403.011 649.895 403.887 645.312 404.554C600.925 410.954 550.385 398.81 511.323 387.526C497.128 383.395 483.061 379.085 469.463 374.911C429.885 362.775 392.498 351.326 353.685 344.459C313.924 337.399 277.676 336.516 245.946 341.842C228.351 344.785 211.845 349.702 196.88 356.445C149.961 377.653 111.956 421.641 92.439 477.232C92.2949 477.642 92.1553 478.04 92.0112 478.45C73.5663 531.889 72.1251 590.195 72.2053 640.654L70.659 640.503C70.5753 589.958 72.0218 531.542 90.5278 477.929C110.038 421.456 148.485 376.73 196.06 355.221C211.14 348.435 227.776 343.479 245.497 340.511C277.42 335.155 313.873 336.026 353.835 343.129C392.756 350.02 430.188 361.485 469.83 373.629C483.428 377.803 497.48 382.108 511.66 386.234C550.54 397.468 600.829 409.565 644.886 403.204C649.42 402.533 653.869 401.679 658.097 400.649C708.082 388.506 732.71 353.243 744.561 325.798C754.941 301.594 759.625 277.764 764.579 252.549C765.881 245.897 767.228 239.024 768.696 232.137C769.469 228.512 770.289 224.847 771.137 221.151C777.159 195.263 786.879 161.218 808.751 127.348C835.389 86.073 876.374 54.0525 921.177 39.4896C926.386 37.799 931.894 36.255 937.54 34.8854C962.364 28.8665 987.893 26.7261 1012.57 24.6787C1018.01 24.2284 1023.42 23.7801 1028.77 23.2861C1061.12 20.34 1098.12 15.6629 1127.79 -2.73279C1154.91 -19.5226 1176.41 -54.083 1164.99 -87.6597L1166.47 -87.9061C1171.23 -73.889 1170.38 -59.7038 1165.81 -46.6858Z" fill="#253439"/>
<path d="M1159.08 -35.9196C1152.53 -17.2568 1138.62 -1.26222 1123.63 8.68442C1094.76 27.8911 1059.05 33.831 1027.84 37.9028C1021.82 38.6797 1015.61 39.4316 1009.6 40.1588C986.537 42.9263 962.705 45.788 939.419 51.8861C933.931 53.3254 928.577 54.9089 923.51 56.6216C880.407 71.1811 839.457 101.775 811.158 140.568C788.576 171.522 776.604 201.731 767.879 227.2C766.73 230.568 765.609 233.903 764.539 237.187C762.713 242.816 760.985 248.355 759.283 253.819C752.011 277.145 745.143 299.174 732.687 321.505C712.29 357.82 681.914 380.647 642.418 389.349C638.187 390.294 633.73 391.076 629.188 391.674C586.439 397.252 538.431 387.198 497.103 376.627C486.011 373.766 474.978 370.829 464.315 367.979C422.446 356.813 382.893 346.264 342.283 340.959C303.567 335.858 268.434 336.498 237.872 342.863C220.924 346.382 205.031 351.737 190.638 358.751C145.519 380.857 108.694 424.854 89.4959 479.537C89.3825 479.86 89.2733 480.171 89.1642 480.482C70.942 533.05 68.6632 590.418 67.9494 640.055L66.4074 639.891C67.1221 590.157 69.4166 532.696 87.6808 479.961C87.7899 479.65 87.9034 479.327 88.0169 479.004C107.315 424.035 144.359 379.793 189.779 357.542C204.277 350.467 220.281 345.081 237.359 341.524C268.119 335.117 303.437 334.472 342.344 339.598C383.077 344.933 422.679 355.484 464.607 366.671C475.271 369.521 486.303 372.458 497.381 375.314C538.541 385.84 586.333 395.846 628.796 390.321C633.285 389.732 637.693 388.948 641.886 388.017C680.986 379.399 711.053 356.785 731.289 320.79C743.694 298.554 750.559 276.579 757.796 253.31C759.502 247.834 761.229 242.296 763.06 236.654C764.134 233.358 765.236 230.029 766.404 226.655C775.164 201.086 787.167 170.789 809.837 139.727C838.274 100.731 879.466 69.9707 922.833 55.3225C927.934 53.6079 933.312 52.0045 938.833 50.5632C962.215 44.429 986.116 41.5633 1009.24 38.7866C1015.24 38.0593 1021.45 37.32 1027.45 36.5378C1058.5 32.5062 1094 26.5909 1122.61 7.55792C1147.53 -8.98568 1169.44 -42.4381 1158.65 -76.7954L1160.15 -77.0118C1164.6 -62.7939 1163.58 -48.7386 1159.09 -35.932L1159.08 -35.9196Z" fill="#253439"/>
<path d="M1152.13 -25.275C1145.7 -6.94794 1132.56 8.92769 1118.49 18.9598C1093.48 36.8541 1063.66 44.7642 1026.58 51.1445C1019.79 52.3079 1012.76 53.4305 1005.95 54.5161C984.558 57.9147 962.448 61.4229 940.733 67.5557C935.351 69.074 930.126 70.717 925.186 72.4464C868.192 92.4497 829.937 131.504 812.208 153.002C789.152 180.941 774.995 207.883 763.109 232.815C761.659 235.854 760.252 238.865 758.881 241.82C757.046 245.812 755.252 249.735 753.495 253.601C743.624 275.359 734.278 295.904 719.352 316.585C695.53 349.365 665.049 369.027 626.164 376.701C621.972 377.534 617.561 378.234 613.075 378.767C569.991 383.781 523.288 374.661 482.875 365.709C475.659 364.098 468.516 362.47 461.432 360.863C416.434 350.637 373.939 340.969 330.861 337.423C293.209 334.274 259.191 336.437 229.779 343.848C213.478 347.943 198.202 353.724 184.386 361.039C140.434 384.378 105.703 427.253 86.5486 481.811C86.4656 482.048 86.3871 482.272 86.3041 482.508C68.3194 534.209 65.1882 590.636 63.676 639.462L62.1236 639.28C63.6366 590.357 66.7687 533.832 84.8059 481.982C84.8888 481.745 84.9717 481.509 85.0503 481.285C104.301 426.453 139.228 383.354 183.466 359.864C197.382 352.501 212.773 346.676 229.185 342.55C258.78 335.091 292.983 332.924 330.831 336.086C374.036 339.648 416.594 349.325 461.652 359.571C468.736 361.178 475.879 362.806 483.095 364.418C523.356 373.329 569.882 382.43 612.689 377.445C617.141 376.913 621.495 376.235 625.653 375.404C664.181 367.8 694.385 348.307 717.999 315.788C732.86 295.196 742.173 274.696 752.023 253.001C753.785 249.122 755.564 245.194 757.413 241.206C758.784 238.252 760.191 235.241 761.641 232.202C773.553 207.195 787.752 180.184 810.891 152.149C828.704 130.554 867.127 91.3076 924.438 71.2063C929.416 69.4624 934.661 67.8122 940.081 66.2795C961.888 60.1229 984.051 56.6055 1005.47 53.2049C1012.27 52.1265 1019.31 51.0091 1026.08 49.8405C1062.95 43.4972 1092.59 35.6345 1117.39 17.9047C1140.96 1.09449 1161.93 -32.2963 1152.28 -65.8929L1153.78 -66.0791C1157.81 -52.0372 1156.58 -38.0423 1152.09 -25.2481L1152.13 -25.275Z" fill="#253439"/>
<path d="M1145.29 -14.2831C1139.07 3.4223 1126.83 18.8857 1113.33 29.2432C1087.82 48.8774 1055.95 57.743 1025.3 64.3993C1017.62 66.0724 1009.95 67.5983 1001.83 69.2178C982.269 73.1169 962.038 77.1591 942.026 83.2336C936.769 84.8236 931.658 86.5205 926.827 88.274C871.986 108.265 832.124 145.205 813.242 165.433C789.424 190.939 773.043 215.48 758.318 238.438C756.577 241.165 754.873 243.835 753.187 246.455L750.001 251.495C736.218 273.29 724.311 292.112 705.992 311.685C688.728 330.009 659.981 355.363 609.899 364.078C605.758 364.817 601.4 365.41 596.955 365.874C555.929 370.059 511.076 362.692 468.659 354.797L461.719 353.492C412.42 344.173 365.861 335.355 319.467 333.898C282.909 332.711 250.011 336.384 221.709 344.856C206.056 349.527 191.396 355.735 178.148 363.332C136.008 387.587 102.433 430.491 83.588 484.166L83.457 484.539C65.6993 535.357 61.7453 590.853 59.4305 638.879L57.8868 638.673C60.213 590.566 64.1679 534.973 81.9736 484.019C100.912 429.887 134.707 386.641 177.2 362.189C190.548 354.544 205.313 348.275 221.073 343.585C249.553 335.078 282.616 331.365 319.369 332.565C365.91 334.031 412.532 342.857 461.909 352.19L468.849 353.496C511.139 361.374 555.835 368.714 596.638 364.548C601.049 364.085 605.357 363.489 609.476 362.77C659.132 354.129 687.647 328.959 704.795 310.776C723.034 291.287 734.909 272.509 748.675 250.764L751.861 245.724C753.532 243.099 755.236 240.429 756.991 237.707C771.749 214.705 788.166 190.106 812.04 164.536C831.002 144.224 871.033 107.135 926.143 87.0423C930.993 85.2816 936.128 83.565 941.419 81.973C961.503 75.882 981.768 71.8379 1001.37 67.9243C1009.47 66.312 1017.12 64.7808 1024.81 63.1077C1055.29 56.4916 1086.97 47.6859 1112.27 28.2162C1135.24 10.5829 1154.57 -21.9863 1145.99 -55.013L1147.5 -55.1692C1151.15 -41.0802 1149.81 -27.0793 1145.31 -14.2602L1145.29 -14.2831Z" fill="#253439"/>
<path d="M1138.29 -2.88627C1132.78 12.8173 1122.45 27.7106 1108.19 39.5194C1083.64 59.9068 1053.24 69.8903 1024.04 77.6416C1015.27 79.9692 1006.48 82.0914 997.175 84.3414C979.585 88.5983 961.41 92.9995 943.346 98.8916C938.213 100.553 933.216 102.304 928.504 104.1C878.682 122.99 838.891 154.647 814.293 177.868C791.294 199.569 774.039 219.908 758.826 237.848C757.036 239.957 755.274 242.034 753.54 244.079C751.498 246.476 749.493 248.817 747.525 251.101C729.896 271.699 714.656 288.862 692.657 306.766C671.578 323.806 641.263 344.28 593.676 351.441C589.573 352.068 585.262 352.579 580.857 352.974C539.306 356.612 494.431 349.879 454.828 343.936L454.45 343.873C401.978 335.856 354.752 329.317 308.065 330.356C272.629 331.099 240.856 336.313 213.636 345.834C198.634 351.07 184.602 357.721 171.902 365.608C131.573 390.778 99.1496 433.723 80.6062 486.541C63.0755 536.474 58.2839 591.034 55.1664 638.262L53.627 638.043C56.7516 590.747 61.5633 536.083 79.1376 486.025C97.7683 432.959 130.368 389.796 170.93 364.485C183.715 356.544 197.848 349.844 212.941 344.584C240.315 335.005 272.263 329.77 307.884 329.022C354.703 327.987 402.022 334.544 454.577 342.563L454.955 342.626C494.45 348.545 539.212 355.266 580.555 351.653C584.925 351.26 589.203 350.75 593.271 350.126C640.504 343.022 670.606 322.683 691.563 305.753C713.472 287.915 728.669 270.779 746.262 250.238C748.234 247.942 750.235 245.614 752.276 243.216C754.006 241.184 755.768 239.107 757.558 236.998C772.795 219.038 790.058 198.675 813.123 176.927C837.816 153.628 877.748 121.852 927.781 102.882C932.528 101.085 937.544 99.3268 942.696 97.6578C960.818 91.744 979.027 87.3409 996.636 83.0768C1005.93 80.8216 1014.7 78.7066 1023.47 76.379C1052.5 68.6678 1082.73 58.7494 1107.09 38.5317C1133.45 16.6979 1146.22 -15.7442 1139.64 -44.1418L1141.15 -44.2678C1144.26 -30.8588 1143.12 -16.5528 1138.31 -2.86344L1138.29 -2.88627Z" fill="#253439"/>
<path d="M1131.3 7.99813C1125.92 23.3412 1116.22 37.9961 1103.05 49.7952C1079.37 71.0497 1049.2 82.4933 1022.79 90.8889C1012.71 94.0976 1002.54 97.0076 991.766 100.081C976.408 104.48 960.52 109.013 944.674 114.567C939.566 116.349 934.817 118.104 930.179 119.925C892.297 134.851 853.656 158.532 815.327 190.298C797.357 205.176 781.979 219.315 768.418 231.789C761.508 238.133 754.985 244.139 748.72 249.691C746.377 251.759 744.086 253.776 741.802 255.725C719.341 275.185 701.221 288.544 679.272 301.843C652.915 317.687 622.32 333.118 577.421 338.793C573.373 339.313 569.106 339.742 564.743 340.068C526.733 342.826 485.739 338.14 449.563 334.015C446.424 333.653 443.315 333.302 440.24 332.948C386.291 326.717 341.22 323.295 296.666 326.801C262.391 329.46 231.733 336.196 205.546 346.806C191.211 352.611 177.791 359.701 165.654 367.884C127.231 393.89 96.0223 436.745 77.7496 488.555L77.6099 488.953C60.4328 537.879 54.822 591.354 50.8965 637.657L49.351 637.407C53.2687 591.033 58.9101 537.47 76.1265 488.432L76.2662 488.034C94.6175 436.001 125.998 392.941 164.624 366.782C176.832 358.541 190.348 351.414 204.779 345.573C231.104 334.9 261.922 328.136 296.368 325.467C341.062 321.941 386.227 325.382 440.273 331.619C443.348 331.973 446.457 332.324 449.596 332.686C485.689 336.81 526.591 341.477 564.445 338.734C568.774 338.411 573.006 337.983 577.036 337.47C621.653 331.837 652.09 316.476 678.315 300.725C700.197 287.472 718.27 274.153 740.665 254.74C742.934 252.785 745.24 250.773 747.564 248.712C753.824 243.173 760.344 237.18 767.239 230.83C780.818 218.349 796.201 204.197 814.195 189.3C852.622 157.443 891.387 133.693 929.408 118.704C934.065 116.876 938.818 115.109 943.96 113.325C959.855 107.774 975.767 103.221 991.144 98.8155C1001.91 95.7366 1012.08 92.8266 1022.11 89.6324C1048.37 81.2821 1078.39 69.9087 1101.87 48.8239C1126.57 26.7116 1138.9 -5.52182 1133.28 -33.276L1134.8 -33.372C1137.49 -20.0663 1136.13 -5.74095 1131.29 8.02307L1131.3 7.99813Z" fill="#253439"/>
<path d="M1124.42 19.089C1119.22 33.9223 1110.15 48.1562 1097.89 60.0657C1075.14 82.2029 1046.52 94.7657 1021.5 104.126C1009.84 108.506 997.9 112.458 985.249 116.648C972.444 120.895 959.21 125.271 945.952 130.239C940.95 132.1 936.335 133.901 931.815 135.764C896.196 150.367 858.409 172.282 816.338 202.747C805.995 210.233 796.478 217.311 787.259 224.158C771.159 236.131 757.248 246.47 743.876 255.322C741.243 257.079 738.617 258.769 736.07 260.375C714.238 274.246 693.904 284.844 665.882 296.933C641.823 307.228 608.867 321.314 561.157 326.17C557.144 326.59 552.927 326.925 548.619 327.187C514.646 329.128 479.655 326.326 445.803 323.603C439.094 323.063 432.483 322.53 426.02 322.048C366.573 317.476 324.489 317.84 285.253 323.283C252.162 327.838 222.623 336.084 197.462 347.809C183.783 354.165 170.976 361.694 159.401 370.172C112.612 404.582 87.6204 454.647 74.888 490.581C74.7788 490.892 74.6697 491.202 74.5606 491.513C57.7676 539.345 51.5586 589.636 46.6216 637.064L45.0805 636.802C50.0508 588.995 56.3017 538.3 73.4045 490.06C86.1893 453.977 111.294 403.686 158.325 369.109C169.97 360.572 182.858 353.003 196.618 346.605C221.918 334.817 251.591 326.52 284.838 321.95C324.195 316.494 366.401 316.117 425.975 320.706C432.452 321.192 439.064 321.726 445.777 322.253C479.565 324.968 514.488 327.773 548.345 325.833C552.618 325.574 556.816 325.246 560.81 324.833C608.292 320.009 641.118 305.961 665.077 295.714C693.022 283.654 713.308 273.095 735.079 259.259C737.625 257.653 740.237 255.958 742.865 254.213C756.199 245.375 770.091 235.043 786.187 223.083C795.406 216.236 804.927 209.146 815.27 201.66C857.431 171.128 895.299 149.173 931.034 134.526C935.568 132.669 940.202 130.86 945.224 128.992C958.497 124.029 971.754 119.633 984.574 115.391C997.191 111.204 1009.12 107.264 1020.77 102.891C1045.64 93.576 1074.1 81.0961 1096.69 59.1141C1120.12 36.3891 1131.71 5.13726 1126.94 -22.43L1128.47 -22.4783C1130.79 -9.01051 1129.28 5.30539 1124.44 19.1067L1124.42 19.089Z" fill="#253439"/>
<path d="M1117.53 30.2846C1112.51 44.5832 1104.09 58.3714 1092.75 70.3416C1070.78 93.5894 1042.47 107.686 1020.25 117.373C1006.53 123.366 992.289 128.728 977.198 134.407C967.445 138.078 957.38 141.876 947.285 145.902C942.365 147.862 937.845 149.724 933.495 151.577C890.638 169.854 851.09 193.985 817.377 215.165C789.375 232.75 762.932 249.359 739.061 260.922C736.15 262.33 733.219 263.703 730.352 264.987C703.627 277.084 678.271 284.663 652.491 291.98L646.758 293.598C620.601 300.993 588.055 310.209 544.907 313.509C540.948 313.823 536.781 314.064 532.514 314.256C503.395 315.471 473.453 313.995 444.498 312.558C433.134 311.99 422.405 311.464 411.818 311.099C356.905 309.04 313.07 311.779 273.859 319.716C241.984 326.122 213.555 335.903 189.391 348.774C176.384 355.687 164.193 363.642 153.173 372.44C118.094 400.501 90.0439 442.048 72.0506 492.587C55.2342 539.727 48.1815 589.526 42.3709 636.451L40.8386 636.165C46.6518 589.184 53.7115 539.318 70.5672 492.066C88.6303 441.329 116.81 399.603 152.068 371.41C163.155 362.565 175.412 354.564 188.501 347.609C212.803 334.676 241.347 324.851 273.367 318.412C312.704 310.449 356.655 307.709 411.72 309.766C422.321 310.135 433.065 310.667 444.434 311.223C473.344 312.644 503.247 314.134 532.284 312.918C536.546 312.739 540.688 312.475 544.628 312.168C587.625 308.871 620.075 299.691 646.159 292.313L651.893 290.695C677.605 283.381 702.902 275.825 729.546 263.769C732.394 262.492 735.321 261.131 738.217 259.718C762.011 248.184 788.427 231.607 816.39 214.036C850.146 192.83 889.741 168.659 932.694 150.346C937.063 148.486 941.583 146.624 946.508 144.651C956.607 140.613 966.691 136.808 976.444 133.137C991.501 127.46 1005.73 122.105 1019.42 116.132C1041.52 106.5 1069.67 92.4741 1091.5 69.3992C1113.6 46.0707 1124.48 15.7984 1120.58 -11.5891L1122.12 -11.6073C1124.06 2.0476 1122.39 16.4035 1117.52 30.267L1117.53 30.2846Z" fill="#253439"/>
<path d="M1110.43 41.633C1105.58 55.4592 1097.83 68.842 1087.59 80.6252C1071.15 99.588 1050 115.008 1018.98 130.628C1002.55 138.907 985.135 146.216 966.688 153.957C960.727 156.459 954.69 158.99 948.592 161.598C943.634 163.712 939.233 165.616 935.145 167.435C900.584 182.773 866.775 201.237 836.942 217.537C830.611 220.998 824.428 224.372 818.401 227.633C782.232 247.169 757.063 258.821 734.234 266.56C731.057 267.637 727.829 268.668 724.623 269.637C697.497 277.893 672.344 281.855 643.23 286.424L639.104 287.07C633.656 287.923 628.021 288.835 622.182 289.802C595.89 294.119 566.097 299.008 528.652 300.917C524.761 301.129 520.625 301.283 516.385 301.401C493.464 301.998 469.945 301.451 447.221 300.917C429.898 300.519 413.536 300.138 397.608 300.23C345.909 300.403 301.699 305.635 262.475 316.221C231.848 324.435 204.549 335.744 181.336 349.8C169.003 357.258 157.44 365.656 146.944 374.764C113.818 403.622 86.9487 445.081 69.213 494.649C52.6428 540.898 44.7969 589.776 38.1348 635.9L36.5964 635.583C43.2611 589.404 51.1611 540.419 67.7339 494.116C85.5307 444.374 112.525 402.749 145.797 373.761C156.344 364.601 167.969 356.169 180.368 348.664C203.706 334.54 231.124 323.175 261.881 314.923C301.25 304.304 345.601 299.052 397.45 298.876C413.413 298.782 429.79 299.168 447.112 299.566C469.836 300.1 493.321 300.649 516.193 300.048C520.418 299.926 524.525 299.761 528.411 299.562C565.758 297.646 595.513 292.771 621.752 288.464C627.605 287.503 633.226 286.585 638.689 285.738L642.815 285.091C671.88 280.519 696.96 276.573 723.99 268.354C727.177 267.392 730.386 266.368 733.549 265.285C756.301 257.575 781.408 245.957 817.495 226.463C823.518 223.214 829.705 219.828 836.032 216.379C865.884 200.073 899.732 181.594 934.351 166.234C938.438 164.415 942.839 162.511 947.802 160.384C953.88 157.784 959.917 155.253 965.897 152.743C984.325 145.01 1001.72 137.709 1018.11 129.456C1048.96 113.931 1070 98.5971 1086.33 79.7627C1106.79 56.2211 1117.23 26.1575 1114.27 -0.664435L1115.81 -0.64018C1117.32 13.0461 1115.38 27.5758 1110.44 41.6631L1110.43 41.633Z" fill="#253439"/>
<path d="M1103.4 53.2145C1098.77 66.3941 1091.7 79.2317 1082.44 90.8963C1066.92 110.504 1046.35 127.332 1017.7 143.853C997.497 155.515 975.431 165.589 952.055 176.264L949.892 177.251C945.567 179.224 941.199 181.224 936.808 183.243C916.101 192.817 895.454 203.025 875.491 212.902C855.828 222.632 837.255 231.823 819.412 240.028C784.241 256.199 755.635 266.393 729.385 272.107C725.902 272.867 722.373 273.569 718.885 274.202C691.885 279.108 665.932 280.276 638.474 281.501C634.261 281.684 630.01 281.882 625.705 282.088C613.865 282.638 601.344 283.465 588.084 284.355C565.95 285.843 540.866 287.525 512.388 288.239C508.571 288.338 504.612 288.414 500.262 288.465C486.051 288.601 471.534 288.518 457.479 288.445C432.637 288.298 406.946 288.147 383.374 289.27C333.774 291.535 290.486 299.172 251.052 312.631C221.706 322.607 195.523 335.439 173.237 350.743C161.584 358.733 150.634 367.569 140.688 377.01C109.538 406.646 83.8345 448.012 66.3477 496.633C50.0822 541.871 41.3743 589.93 33.8563 635.265L32.3222 634.935C39.8577 589.551 48.6215 541.428 64.8643 496.113C82.393 447.324 108.198 405.812 139.493 376.046C149.486 366.566 160.499 357.695 172.203 349.654C194.598 334.277 220.901 321.389 250.362 311.369C289.945 297.865 333.378 290.195 383.133 287.915C406.74 286.79 432.464 286.939 457.326 287.078C471.376 287.164 485.893 287.247 500.089 287.106C504.425 287.05 508.38 286.986 512.182 286.882C540.629 286.157 565.695 284.483 587.81 283.001C601.069 282.112 613.609 281.277 625.464 280.733C629.769 280.526 634.035 280.334 638.234 280.146C665.642 278.917 691.523 277.766 718.421 272.866C721.89 272.241 725.419 271.538 728.863 270.792C755.007 265.097 783.517 254.939 818.587 238.817C836.397 230.614 854.966 221.436 874.628 211.705C894.596 201.816 915.247 191.595 935.983 182.032C940.375 180.012 944.743 178.012 949.068 176.039L951.231 175.053C974.569 164.392 996.615 154.325 1016.76 142.71C1045.26 126.264 1065.71 109.535 1081.13 90.0481C1100.23 65.9724 1109.99 36.8565 1107.91 10.1769L1109.46 10.2313C1110.55 24.259 1108.41 38.9407 1103.4 53.2145Z" fill="#253439"/>
<path d="M1096.15 65.1672C1091.75 77.6878 1085.39 89.9232 1077.3 101.159C1062.49 121.742 1043.15 139.519 1016.46 157.087C995.679 170.756 972.834 182.386 951.225 192.913C947.025 194.958 942.771 197.012 938.484 199.068L932.347 202.025C894.912 220.041 856.193 238.681 820.447 252.458C785.127 266.063 753.767 274.326 724.559 277.689C720.79 278.125 716.96 278.498 713.161 278.784C685.095 280.984 658.27 279.555 629.847 278.025C624.074 277.716 618.237 277.399 612.323 277.11C582.63 275.638 550.029 275.617 512.276 275.602L496.134 275.591C492.167 275.595 488.175 275.576 484.148 275.559C445.43 275.304 405.386 275.029 369.168 278.333C321.332 282.599 278.961 292.653 239.639 309.071C211.595 320.747 186.531 335.089 165.148 351.716C154.179 360.225 143.841 369.5 134.425 379.28C104.83 410.09 80.9677 450.245 63.4766 498.642C47.5289 542.832 37.9694 590.089 29.5719 634.654L28.0465 634.3C36.4467 589.68 46.0018 542.436 61.9975 498.109C79.541 449.563 103.485 409.269 133.188 378.343C142.651 368.523 153.021 359.204 164.037 350.655C185.525 333.968 210.694 319.565 238.842 307.827C278.318 291.352 320.833 281.265 368.826 276.984C405.127 273.681 445.209 273.941 483.976 274.2C488.002 274.217 491.98 274.23 495.947 274.227L512.089 274.238C549.861 274.245 582.481 274.259 612.218 275.747C618.132 276.035 623.974 276.34 629.762 276.655C658.106 278.17 684.893 279.614 712.841 277.415C716.626 277.124 720.437 276.758 724.187 276.329C753.258 272.974 784.489 264.749 819.688 251.2C855.381 237.433 894.058 218.82 931.473 200.811L937.61 197.854C941.883 195.793 946.132 193.751 950.333 191.706C971.884 181.2 994.705 169.59 1015.42 155.968C1042 138.486 1061.22 120.807 1075.95 100.351C1093.4 76.1415 1102.73 47.227 1101.57 21.0227L1103.12 21.1196C1103.75 35.3933 1101.31 50.4707 1096.16 65.1547L1096.15 65.1672Z" fill="#253439"/>
<path d="M1088.9 77.5225C1084.8 89.1853 1079.17 100.629 1072.15 111.43C1058.27 132.786 1039.64 152.055 1015.18 170.325C998.139 183.071 978.225 195.227 952.522 208.591C948.647 210.61 944.589 212.677 940.142 214.901C894.891 237.575 856.073 253.931 821.464 264.895C785.716 276.212 751.487 282.393 719.736 283.271C715.696 283.389 711.554 283.415 707.434 283.379C677.62 283.107 649.175 279.126 619.059 274.921C612.402 273.995 605.716 273.058 598.953 272.15C561.924 267.181 522.972 264.175 479.888 262.974C475.96 262.865 472.013 262.765 468.043 262.683C423.239 261.632 386.252 263.186 354.966 267.439C309.292 273.567 266.65 286.389 228.248 305.546C201.514 318.855 177.561 334.733 157.081 352.724C146.82 361.733 137.099 371.434 128.201 381.592C100.646 413.09 77.9162 453.153 60.6581 500.696C44.9751 543.848 35.0041 588.433 25.3402 634.089L23.8236 633.711C33.4901 587.999 43.4698 543.39 59.1791 500.163C76.4956 452.501 99.2886 412.306 126.946 380.704C135.872 370.514 145.641 360.774 155.944 351.738C176.518 333.668 200.557 317.737 227.391 304.379C265.951 285.152 308.742 272.285 354.591 266.134C385.965 261.87 423.053 260.31 467.94 261.363C471.91 261.444 475.872 261.55 479.8 261.658C522.952 262.856 561.968 265.869 599.061 270.847C605.828 271.743 612.529 272.685 619.185 273.611C649.238 277.808 677.634 281.785 707.331 282.058C711.432 282.101 715.544 282.064 719.565 281.954C751.165 281.079 785.234 274.926 820.853 263.647C855.385 252.712 894.141 236.389 939.315 213.745C943.762 211.521 947.805 209.449 951.676 207.442C977.317 194.112 997.154 181.985 1014.14 169.29C1038.47 151.101 1057.01 131.941 1070.82 110.699C1086.85 86.0629 1095.54 58.0813 1095.28 31.9272L1096.83 32.0667C1096.98 46.9534 1094.25 62.4314 1088.95 77.5558L1088.9 77.5225Z" fill="#253439"/>
<path d="M1081.46 90.5521C1077.74 101.146 1072.9 111.598 1066.99 121.701C1053.87 144.204 1036.51 164.433 1013.9 183.549C996.905 197.93 977.267 211.245 953.84 224.249C949.951 226.403 945.902 228.585 941.803 230.721C901.935 251.541 860.685 267.659 822.489 277.307C785.629 286.614 749.429 290.483 714.919 288.828C710.612 288.614 706.165 288.324 701.733 287.941C669.665 285.216 639.115 278.639 606.766 271.681C599.75 270.167 592.684 268.65 585.59 267.165C540.905 257.804 502.16 252.455 463.633 250.325C459.745 250.105 455.843 249.923 451.933 249.765C411.687 248.121 374.281 250.393 340.765 256.489C296.357 264.515 254.66 279.819 216.839 301.973C191.407 316.842 168.583 334.248 148.996 353.684C139.437 363.162 130.343 373.307 121.947 383.837C96.4537 415.919 74.8807 455.914 57.7956 502.68C42.4592 544.655 31.6681 588.49 21.0644 633.454L19.5417 633.045C30.1584 588.044 40.9626 544.171 56.3017 502.141C73.4261 455.264 95.0681 415.167 120.63 382.984C129.044 372.404 138.18 362.232 147.768 352.722C167.43 333.215 190.354 315.761 215.876 300.825C253.839 278.595 295.691 263.233 340.277 255.173C373.919 249.051 411.456 246.783 451.82 248.426C455.749 248.577 459.661 248.777 463.554 248.985C502.163 251.116 541.007 256.471 585.785 265.851C592.894 267.341 599.944 268.853 606.976 270.372C639.261 277.321 669.766 283.883 701.718 286.609C706.134 286.987 710.562 287.284 714.84 287.487C749.184 289.14 785.199 285.276 821.91 276.014C859.995 266.397 901.144 250.328 940.912 229.556C944.992 227.427 949.037 225.258 952.911 223.098C976.257 210.136 995.843 196.873 1012.77 182.538C1035.27 163.496 1052.55 143.376 1065.61 120.991C1080.19 96.0271 1088.23 68.9785 1088.9 42.7753L1090.44 42.952C1090.05 58.7356 1086.99 74.8113 1081.46 90.5521Z" fill="#253439"/>
<path d="M1073.54 104.949C1070.31 114.138 1066.4 123.184 1061.83 131.971C1049.7 155.348 1033.14 177.161 1012.63 196.791C996.092 212.631 976.752 227.139 955.149 239.931C951.38 242.169 947.45 244.393 943.474 246.558C906.244 266.839 864.761 281.771 823.508 289.732C785.404 297.079 747.263 298.646 710.116 294.39C705.519 293.865 700.79 293.238 696.043 292.521C661.297 287.264 626.699 277.505 593.235 268.075C586.244 266.11 579.257 264.131 572.238 262.198C536.168 252.216 493.143 241.496 447.384 237.707C443.482 237.384 439.596 237.11 435.825 236.889C398.041 234.685 361.286 237.619 326.565 245.582C283.243 255.497 242.49 273.284 205.45 298.435C181.318 314.822 159.599 333.733 140.931 354.678C132.082 364.602 123.601 375.186 115.724 386.135C92.0233 419.14 72.1556 457.932 54.9597 504.728C40.0414 545.37 28.8597 586.806 16.8108 632.896L15.2968 632.462C27.3353 586.354 38.5344 544.868 53.4658 504.19C70.6775 457.301 90.6097 418.42 114.371 385.339C122.265 374.339 130.774 363.724 139.647 353.781C158.39 332.764 180.184 313.782 204.401 297.341C241.593 272.089 282.5 254.245 326.005 244.282C360.875 236.273 397.8 233.329 435.745 235.548C439.536 235.762 443.437 236.042 447.354 236.37C493.255 240.181 536.407 250.917 572.551 260.925C579.57 262.859 586.572 264.842 593.564 266.808C626.964 276.23 661.517 285.973 696.14 291.201C700.872 291.912 705.582 292.546 710.15 293.061C747.12 297.298 785.095 295.728 823.021 288.415C864.128 280.487 905.458 265.613 942.554 245.383C946.511 243.225 950.426 240.996 954.185 238.783C975.703 226.044 994.973 211.595 1011.44 195.826C1031.85 176.275 1048.33 154.577 1060.42 131.306C1073.3 106.54 1080.94 79.6859 1082.56 53.6335L1084.1 53.8527C1083.04 70.8015 1079.45 88.1018 1073.54 104.949Z" fill="#253439"/>
<path d="M1065.14 121.567C1046.14 175.665 1008.34 222.825 956.451 255.583C887.081 299.398 795.526 315.563 705.299 299.947C662.256 292.503 619.708 277.956 578.54 263.894C527.031 246.299 473.767 228.102 419.68 223.973C311.487 215.722 204.245 264.941 132.797 355.636C68.7208 437.006 40.1512 536.275 12.5403 632.29L11.035 631.832C38.6765 535.729 67.2706 436.343 131.505 354.805C164.563 312.851 207.216 278.358 254.854 255.056C306.898 229.599 363.867 218.4 419.645 222.648C473.962 226.787 527.344 245.026 578.972 262.663C620.066 276.699 662.555 291.225 705.44 298.642C795.275 314.19 886.404 298.099 955.455 254.48C1024.52 210.866 1068.53 141.625 1076.21 64.5045L1077.75 64.7662C1075.81 84.294 1071.54 103.339 1065.13 121.579L1065.14 121.567Z" fill="#253439"/>
</g>
<defs>
<clipPath id="clip0_339_54">
<rect width="1148.56" height="907.782" fill="white" transform="translate(0 628) rotate(-70.6547)"/>
</clipPath>
</defs>
</svg>
