<svg width="1115" height="130" viewBox="0 0 1115 130" fill="none" xmlns="http://www.w3.org/2000/svg">
<g clip-path="url(#clip0_2400_72)">
<rect width="1115" height="130" fill="white"/>
<path fill-rule="evenodd" clip-rule="evenodd" d="M219.17 28.3568L220 28.4239C220 28.4239 219.905 28.4493 219.721 28.4909C219.905 28.5344 220 28.558 220 28.558L219.17 28.6251C214.985 29.6401 196.267 34.5972 192.968 43C192.968 43 192.154 38.5811 184.742 31.9057C187.233 35.8805 187.96 39.8136 188.12 41.1549C188.223 42.0104 188.041 42.0013 187.417 42.4798C187.417 42.4798 186.779 42.3131 186.772 42.3131C186.347 41.985 186.427 41.9016 186.266 41.347C185.73 39.4946 183.795 34.3127 178.985 31.1589H177.945C179.102 33.3648 179.565 35.4944 179.727 36.794C179.727 36.8194 179.763 37.0967 179.763 37.113C179.711 37.3722 179.741 37.6658 179.608 37.8851C179.601 37.8924 179.021 38.3129 179.021 38.3129C178.795 38.2531 178.539 38.2875 178.348 38.1443C178.289 38.1026 178.136 37.9757 177.907 37.2979C177.284 35.402 175.774 32.7431 173.369 31.1589L133.55 31.0158C132.729 32.7177 131.145 33.8668 129.327 33.8668C127.421 33.8668 125.771 32.6017 124.994 30.7566C124.826 30.7983 124.657 30.8236 124.473 30.8236C116.511 30.6551 107.816 37.8344 107.478 38.1099L107.471 38.1189C106.745 38.7225 105.77 38.7225 105.044 38.1189C105.044 38.1189 102.727 36.1977 99.3623 34.3199C96.5908 32.7684 93.0936 31.2169 89.6184 30.8907C88.5553 36.8447 83.9437 41.3307 78.4228 41.3307C72.1174 41.3307 67 35.4781 67 28.2644C67 21.0524 72.1176 15.1995 78.4228 15.1995C84.0024 15.1995 88.6579 19.7873 89.6551 25.8411C97.1335 25.1378 104.722 18.8727 105.03 18.6126L105.037 18.6043C105.763 18.0004 106.738 18.0004 107.464 18.6043L107.471 18.6126C107.809 18.8894 116.504 26.0676 124.466 25.9009C124.642 25.9009 124.818 25.9172 124.987 25.9679C125.771 24.1301 127.414 22.8559 129.32 22.8559C131.138 22.8559 132.722 24.0141 133.543 25.7069L173.362 25.8501C173.684 25.6399 174.044 25.3716 174.395 25.0708C177.108 22.6891 177.907 19.6441 177.974 19.5354C178.098 19.3172 178.165 19.0235 178.348 18.8725C178.355 18.8642 179.023 18.6966 179.03 18.7049C179.219 18.8475 179.477 18.9146 179.608 19.1326C179.866 19.5517 179.792 19.5934 179.741 20.0972C179.572 21.6651 179 23.8364 177.952 25.8592H178.985C180.51 24.8605 183.7 22.3611 185.746 17.1786C185.906 16.7677 186.149 16.0967 186.302 15.5265C186.436 15.04 186.398 14.9898 186.765 14.6962C186.772 14.6878 187.409 14.5285 187.409 14.5285C187.593 14.671 187.836 14.7466 187.96 14.9561C188.209 15.3672 188.165 15.4007 188.106 15.8955C187.843 17.95 186.985 21.1122 185.386 23.9959C185.188 24.3494 184.976 24.7173 184.735 25.1034C192.14 18.4196 192.961 14 192.961 14C196.26 22.4118 214.976 27.3599 219.163 28.3731L219.17 28.3568ZM106.262 33.3557C107.912 32.1486 111.094 29.9935 114.855 28.3496C111.087 26.6966 107.905 24.5415 106.255 23.3344C104.613 24.5415 101.445 26.6802 97.6915 28.3332C98.9233 28.8697 100.096 29.4642 101.174 30.0678C103.366 31.2931 105.163 32.5419 106.262 33.3557ZM84.1352 28.2408C84.1352 24.6339 81.5764 21.7067 78.4237 21.7067C75.271 21.7067 72.7121 24.6339 72.7121 28.2408C72.7121 31.8459 75.271 34.7731 78.4237 34.7731C81.5764 34.7731 84.1352 31.8459 84.1352 28.2408Z" fill="black"/>
<path fill-rule="evenodd" clip-rule="evenodd" d="M603.17 43.3568L604 43.4239C604 43.4239 603.905 43.4493 603.721 43.4909C603.905 43.5344 604 43.558 604 43.558L603.17 43.6251C598.985 44.6401 580.267 49.5972 576.968 58C576.968 58 576.154 53.5811 568.742 46.9057C571.233 50.8805 571.96 54.8136 572.12 56.1549C572.223 57.0104 572.041 57.0013 571.417 57.4798C571.417 57.4798 570.779 57.3131 570.772 57.3131C570.347 56.985 570.427 56.9016 570.266 56.347C569.73 54.4946 567.795 49.3127 562.985 46.1589H561.945C563.102 48.3648 563.565 50.4944 563.727 51.794C563.727 51.8194 563.763 52.0967 563.763 52.113C563.711 52.3722 563.741 52.6658 563.608 52.8851C563.601 52.8924 563.021 53.3129 563.021 53.3129C562.795 53.2531 562.539 53.2875 562.348 53.1443C562.289 53.1026 562.136 52.9757 561.907 52.2979C561.284 50.402 559.774 47.7431 557.369 46.1589L517.55 46.0158C516.729 47.7177 515.145 48.8668 513.327 48.8668C511.421 48.8668 509.771 47.6017 508.994 45.7566C508.826 45.7983 508.657 45.8236 508.473 45.8236C500.511 45.6551 491.816 52.8344 491.478 53.1099L491.471 53.1189C490.745 53.7225 489.77 53.7225 489.044 53.1189C489.044 53.1189 486.727 51.1977 483.362 49.3199C480.591 47.7684 477.094 46.2169 473.618 45.8907C472.555 51.8447 467.944 56.3307 462.423 56.3307C456.117 56.3307 451 50.4781 451 43.2644C451 36.0524 456.118 30.1995 462.423 30.1995C468.002 30.1995 472.658 34.7873 473.655 40.8411C481.134 40.1378 488.722 33.8727 489.03 33.6126L489.037 33.6043C489.763 33.0004 490.738 33.0004 491.464 33.6043L491.471 33.6126C491.809 33.8894 500.504 41.0676 508.466 40.9009C508.642 40.9009 508.818 40.9172 508.987 40.9679C509.771 39.1301 511.414 37.8559 513.32 37.8559C515.138 37.8559 516.722 39.0141 517.543 40.7069L557.362 40.8501C557.684 40.6399 558.044 40.3716 558.395 40.0708C561.108 37.6891 561.907 34.6441 561.974 34.5354C562.098 34.3172 562.165 34.0235 562.348 33.8725C562.355 33.8642 563.023 33.6966 563.03 33.7049C563.219 33.8475 563.477 33.9146 563.608 34.1326C563.866 34.5517 563.792 34.5934 563.741 35.0972C563.572 36.6651 563 38.8364 561.952 40.8592H562.985C564.51 39.8605 567.7 37.3611 569.746 32.1786C569.906 31.7677 570.149 31.0967 570.302 30.5265C570.436 30.04 570.398 29.9898 570.765 29.6962C570.772 29.6878 571.409 29.5285 571.409 29.5285C571.593 29.671 571.836 29.7466 571.96 29.9561C572.209 30.3672 572.165 30.4007 572.106 30.8955C571.843 32.95 570.985 36.1122 569.386 38.9959C569.188 39.3494 568.976 39.7173 568.735 40.1034C576.14 33.4196 576.961 29 576.961 29C580.26 37.4118 598.976 42.3599 603.163 43.3731L603.17 43.3568ZM490.262 48.3557C491.912 47.1486 495.094 44.9935 498.855 43.3496C495.087 41.6966 491.905 39.5415 490.255 38.3344C488.613 39.5415 485.445 41.6802 481.692 43.3332C482.923 43.8697 484.096 44.4642 485.174 45.0678C487.366 46.2931 489.163 47.5419 490.262 48.3557ZM468.135 43.2408C468.135 39.6339 465.576 36.7067 462.424 36.7067C459.271 36.7067 456.712 39.6339 456.712 43.2408C456.712 46.8459 459.271 49.7731 462.424 49.7731C465.576 49.7731 468.135 46.8459 468.135 43.2408Z" fill="black"/>
<path fill-rule="evenodd" clip-rule="evenodd" d="M847.17 106.357L848 106.424C848 106.424 847.905 106.449 847.721 106.491C847.905 106.534 848 106.558 848 106.558L847.17 106.625C842.985 107.64 824.267 112.597 820.968 121C820.968 121 820.154 116.581 812.742 109.906C815.233 113.88 815.96 117.814 816.12 119.155C816.223 120.01 816.041 120.001 815.417 120.48C815.417 120.48 814.779 120.313 814.772 120.313C814.347 119.985 814.427 119.902 814.266 119.347C813.73 117.495 811.795 112.313 806.985 109.159H805.945C807.102 111.365 807.565 113.494 807.727 114.794C807.727 114.819 807.763 115.097 807.763 115.113C807.711 115.372 807.741 115.666 807.608 115.885C807.601 115.892 807.021 116.313 807.021 116.313C806.795 116.253 806.539 116.287 806.348 116.144C806.289 116.103 806.136 115.976 805.907 115.298C805.284 113.402 803.774 110.743 801.369 109.159L761.55 109.016C760.729 110.718 759.145 111.867 757.327 111.867C755.421 111.867 753.771 110.602 752.994 108.757C752.826 108.798 752.657 108.824 752.473 108.824C744.511 108.655 735.816 115.834 735.478 116.11L735.471 116.119C734.745 116.722 733.77 116.722 733.044 116.119C733.044 116.119 730.727 114.198 727.362 112.32C724.591 110.768 721.094 109.217 717.618 108.891C716.555 114.845 711.944 119.331 706.423 119.331C700.117 119.331 695 113.478 695 106.264C695 99.0524 700.118 93.1995 706.423 93.1995C712.002 93.1995 716.658 97.7873 717.655 103.841C725.134 103.138 732.722 96.8727 733.03 96.6126L733.037 96.6043C733.763 96.0004 734.738 96.0004 735.464 96.6043L735.471 96.6126C735.809 96.8894 744.504 104.068 752.466 103.901C752.642 103.901 752.818 103.917 752.987 103.968C753.771 102.13 755.414 100.856 757.32 100.856C759.138 100.856 760.722 102.014 761.543 103.707L801.362 103.85C801.684 103.64 802.044 103.372 802.395 103.071C805.108 100.689 805.907 97.6441 805.974 97.5354C806.098 97.3172 806.165 97.0235 806.348 96.8725C806.355 96.8642 807.023 96.6966 807.03 96.7049C807.219 96.8475 807.477 96.9146 807.608 97.1326C807.866 97.5517 807.792 97.5934 807.741 98.0972C807.572 99.6651 807 101.836 805.952 103.859H806.985C808.51 102.86 811.7 100.361 813.746 95.1786C813.906 94.7677 814.149 94.0967 814.302 93.5265C814.436 93.04 814.398 92.9898 814.765 92.6962C814.772 92.6878 815.409 92.5285 815.409 92.5285C815.593 92.671 815.836 92.7466 815.96 92.9561C816.209 93.3672 816.165 93.4007 816.106 93.8955C815.843 95.95 814.985 99.1122 813.386 101.996C813.188 102.349 812.976 102.717 812.735 103.103C820.14 96.4196 820.961 92 820.961 92C824.26 100.412 842.976 105.36 847.163 106.373L847.17 106.357ZM734.262 111.356C735.912 110.149 739.094 107.993 742.855 106.35C739.087 104.697 735.905 102.542 734.255 101.334C732.613 102.542 729.445 104.68 725.692 106.333C726.923 106.87 728.096 107.464 729.174 108.068C731.366 109.293 733.163 110.542 734.262 111.356ZM712.135 106.241C712.135 102.634 709.576 99.7067 706.424 99.7067C703.271 99.7067 700.712 102.634 700.712 106.241C700.712 109.846 703.271 112.773 706.424 112.773C709.576 112.773 712.135 109.846 712.135 106.241Z" fill="black"/>
<path fill-rule="evenodd" clip-rule="evenodd" d="M947.17 29.3568L948 29.4239C948 29.4239 947.905 29.4493 947.721 29.4909C947.905 29.5344 948 29.558 948 29.558L947.17 29.6251C942.985 30.6401 924.267 35.5972 920.968 44C920.968 44 920.154 39.5811 912.742 32.9057C915.233 36.8805 915.96 40.8136 916.12 42.1549C916.223 43.0104 916.041 43.0013 915.417 43.4798C915.417 43.4798 914.779 43.3131 914.772 43.3131C914.347 42.985 914.427 42.9016 914.266 42.347C913.73 40.4946 911.795 35.3127 906.985 32.1589H905.945C907.102 34.3648 907.565 36.4944 907.727 37.794C907.727 37.8194 907.763 38.0967 907.763 38.113C907.711 38.3722 907.741 38.6658 907.608 38.8851C907.601 38.8924 907.021 39.3129 907.021 39.3129C906.795 39.2531 906.539 39.2875 906.348 39.1443C906.289 39.1026 906.136 38.9757 905.907 38.2979C905.284 36.402 903.774 33.7431 901.369 32.1589L861.55 32.0158C860.729 33.7177 859.145 34.8668 857.327 34.8668C855.421 34.8668 853.771 33.6017 852.994 31.7566C852.826 31.7983 852.657 31.8236 852.473 31.8236C844.511 31.6551 835.816 38.8344 835.478 39.1099L835.471 39.1189C834.745 39.7225 833.77 39.7225 833.044 39.1189C833.044 39.1189 830.727 37.1977 827.362 35.3199C824.591 33.7684 821.094 32.2169 817.618 31.8907C816.555 37.8447 811.944 42.3307 806.423 42.3307C800.117 42.3307 795 36.4781 795 29.2644C795 22.0524 800.118 16.1995 806.423 16.1995C812.002 16.1995 816.658 20.7873 817.655 26.8411C825.134 26.1378 832.722 19.8727 833.03 19.6126L833.037 19.6043C833.763 19.0004 834.738 19.0004 835.464 19.6043L835.471 19.6126C835.809 19.8894 844.504 27.0676 852.466 26.9009C852.642 26.9009 852.818 26.9172 852.987 26.9679C853.771 25.1301 855.414 23.8559 857.32 23.8559C859.138 23.8559 860.722 25.0141 861.543 26.7069L901.362 26.8501C901.684 26.6399 902.044 26.3716 902.395 26.0708C905.108 23.6891 905.907 20.6441 905.974 20.5354C906.098 20.3172 906.165 20.0235 906.348 19.8725C906.355 19.8642 907.023 19.6966 907.03 19.7049C907.219 19.8475 907.477 19.9146 907.608 20.1326C907.866 20.5517 907.792 20.5934 907.741 21.0972C907.572 22.6651 907 24.8364 905.952 26.8592H906.985C908.51 25.8605 911.7 23.3611 913.746 18.1786C913.906 17.7677 914.149 17.0967 914.302 16.5265C914.436 16.04 914.398 15.9898 914.765 15.6962C914.772 15.6878 915.409 15.5285 915.409 15.5285C915.593 15.671 915.836 15.7466 915.96 15.9561C916.209 16.3672 916.165 16.4007 916.106 16.8955C915.843 18.95 914.985 22.1122 913.386 24.9959C913.188 25.3494 912.976 25.7173 912.735 26.1034C920.14 19.4196 920.961 15 920.961 15C924.26 23.4118 942.976 28.3599 947.163 29.3731L947.17 29.3568ZM834.262 34.3557C835.912 33.1486 839.094 30.9935 842.855 29.3496C839.087 27.6966 835.905 25.5415 834.255 24.3344C832.613 25.5415 829.445 27.6802 825.692 29.3332C826.923 29.8697 828.096 30.4642 829.174 31.0678C831.366 32.2931 833.163 33.5419 834.262 34.3557ZM812.135 29.2408C812.135 25.6339 809.576 22.7067 806.424 22.7067C803.271 22.7067 800.712 25.6339 800.712 29.2408C800.712 32.8459 803.271 35.7731 806.424 35.7731C809.576 35.7731 812.135 32.8459 812.135 29.2408Z" fill="black"/>
<path fill-rule="evenodd" clip-rule="evenodd" d="M1132.17 72.3568L1133 72.4239C1133 72.4239 1132.9 72.4493 1132.72 72.4909C1132.9 72.5344 1133 72.558 1133 72.558L1132.17 72.6251C1127.99 73.6401 1109.27 78.5972 1105.97 87C1105.97 87 1105.15 82.5811 1097.74 75.9057C1100.23 79.8805 1100.96 83.8136 1101.12 85.1549C1101.22 86.0104 1101.04 86.0013 1100.42 86.4798C1100.42 86.4798 1099.78 86.3131 1099.77 86.3131C1099.35 85.985 1099.43 85.9016 1099.27 85.347C1098.73 83.4946 1096.79 78.3127 1091.99 75.1589H1090.94C1092.1 77.3648 1092.56 79.4944 1092.73 80.794C1092.73 80.8194 1092.76 81.0967 1092.76 81.113C1092.71 81.3722 1092.74 81.6658 1092.61 81.8851C1092.6 81.8924 1092.02 82.3129 1092.02 82.3129C1091.79 82.2531 1091.54 82.2875 1091.35 82.1443C1091.29 82.1026 1091.14 81.9757 1090.91 81.2979C1090.28 79.402 1088.77 76.7431 1086.37 75.1589L1046.55 75.0158C1045.73 76.7177 1044.15 77.8668 1042.33 77.8668C1040.42 77.8668 1038.77 76.6017 1037.99 74.7566C1037.83 74.7983 1037.66 74.8236 1037.47 74.8236C1029.51 74.6551 1020.82 81.8344 1020.48 82.1099L1020.47 82.1189C1019.75 82.7225 1018.77 82.7225 1018.04 82.1189C1018.04 82.1189 1015.73 80.1977 1012.36 78.3199C1009.59 76.7684 1006.09 75.2169 1002.62 74.8907C1001.56 80.8447 996.944 85.3307 991.423 85.3307C985.117 85.3307 980 79.4781 980 72.2644C980 65.0524 985.118 59.1995 991.423 59.1995C997.002 59.1995 1001.66 63.7873 1002.66 69.8411C1010.13 69.1378 1017.72 62.8727 1018.03 62.6126L1018.04 62.6043C1018.76 62.0004 1019.74 62.0004 1020.46 62.6043L1020.47 62.6126C1020.81 62.8894 1029.5 70.0676 1037.47 69.9009C1037.64 69.9009 1037.82 69.9172 1037.99 69.9679C1038.77 68.1301 1040.41 66.8559 1042.32 66.8559C1044.14 66.8559 1045.72 68.0141 1046.54 69.7069L1086.36 69.8501C1086.68 69.6399 1087.04 69.3716 1087.4 69.0708C1090.11 66.6891 1090.91 63.6441 1090.97 63.5354C1091.1 63.3172 1091.16 63.0235 1091.35 62.8725C1091.36 62.8642 1092.02 62.6966 1092.03 62.7049C1092.22 62.8475 1092.48 62.9146 1092.61 63.1326C1092.87 63.5517 1092.79 63.5934 1092.74 64.0972C1092.57 65.6651 1092 67.8364 1090.95 69.8592H1091.99C1093.51 68.8605 1096.7 66.3611 1098.75 61.1786C1098.91 60.7677 1099.15 60.0967 1099.3 59.5265C1099.44 59.04 1099.4 58.9898 1099.76 58.6962C1099.77 58.6878 1100.41 58.5285 1100.41 58.5285C1100.59 58.671 1100.84 58.7466 1100.96 58.9561C1101.21 59.3672 1101.17 59.4007 1101.11 59.8955C1100.84 61.95 1099.98 65.1122 1098.39 67.9959C1098.19 68.3494 1097.98 68.7173 1097.73 69.1034C1105.14 62.4196 1105.96 58 1105.96 58C1109.26 66.4118 1127.98 71.3599 1132.16 72.3731L1132.17 72.3568ZM1019.26 77.3557C1020.91 76.1486 1024.09 73.9935 1027.86 72.3496C1024.09 70.6966 1020.9 68.5415 1019.25 67.3344C1017.61 68.5415 1014.45 70.6802 1010.69 72.3332C1011.92 72.8697 1013.1 73.4642 1014.17 74.0678C1016.37 75.2931 1018.16 76.5419 1019.26 77.3557ZM997.135 72.2408C997.135 68.6339 994.576 65.7067 991.424 65.7067C988.271 65.7067 985.712 68.6339 985.712 72.2408C985.712 75.8459 988.271 78.7731 991.424 78.7731C994.576 78.7731 997.135 75.8459 997.135 72.2408Z" fill="black"/>
<path fill-rule="evenodd" clip-rule="evenodd" d="M115.17 91.3568L116 91.4239C116 91.4239 115.905 91.4493 115.721 91.4909C115.905 91.5344 116 91.558 116 91.558L115.17 91.6251C110.985 92.6401 92.2671 97.5972 88.9677 106C88.9677 106 88.1541 101.581 80.7418 94.9057C83.2329 98.8805 83.9601 102.814 84.1203 104.155C84.2229 105.01 84.0411 105.001 83.4165 105.48C83.4165 105.48 82.7793 105.313 82.7721 105.313C82.3473 104.985 82.4266 104.902 82.2663 104.347C81.7299 102.495 79.7949 97.3127 74.9854 94.1589H73.945C75.1024 96.3648 75.565 98.4944 75.727 99.794C75.727 99.8194 75.763 100.097 75.763 100.113C75.7108 100.372 75.7414 100.666 75.6082 100.885C75.601 100.892 75.0214 101.313 75.0214 101.313C74.7946 101.253 74.539 101.287 74.3482 101.144C74.2888 101.103 74.1358 100.976 73.9072 100.298C73.2844 98.402 71.7742 95.7431 69.3694 94.1589L29.5503 94.0158C28.7291 95.7177 27.1455 96.8668 25.3271 96.8668C23.4209 96.8668 21.7712 95.6017 20.994 93.7566C20.8255 93.7983 20.6569 93.8236 20.4734 93.8236C12.5112 93.6551 3.81577 100.834 3.47844 101.11L3.47106 101.119C2.7453 101.722 1.77025 101.722 1.04431 101.119C1.04431 101.119 -1.27264 99.1977 -4.63773 97.3199C-7.40918 95.7684 -10.9064 94.2169 -14.3816 93.8907C-15.4447 99.8447 -20.0563 104.331 -25.5772 104.331C-31.8826 104.331 -37 98.4781 -37 91.2644C-37 84.0524 -31.8824 78.1995 -25.5772 78.1995C-19.9976 78.1995 -15.3421 82.7873 -14.3449 88.8411C-6.86648 88.1378 0.72176 81.8727 1.02992 81.6126L1.03711 81.6043C1.76305 81.0004 2.73811 81.0004 3.46404 81.6043L3.47143 81.6126C3.80857 81.8894 12.5042 89.0676 20.4664 88.9009C20.6425 88.9009 20.8183 88.9172 20.987 88.9679C21.7714 87.1301 23.4139 85.8559 25.3201 85.8559C27.1383 85.8559 28.7219 87.0141 29.5431 88.7069L69.3622 88.8501C69.6844 88.6399 70.0444 88.3716 70.3954 88.0708C73.108 85.6891 73.9072 82.6441 73.9738 82.5354C74.098 82.3172 74.1646 82.0235 74.3482 81.8725C74.3554 81.8642 75.0232 81.6966 75.0304 81.7049C75.2194 81.8475 75.4768 81.9146 75.6082 82.1326C75.8656 82.5517 75.7918 82.5934 75.7414 83.0972C75.5722 84.6651 74.9998 86.8364 73.9522 88.8592H74.9854C76.51 87.8605 79.6996 85.3611 81.7462 80.1786C81.9063 79.7677 82.1493 79.0967 82.3023 78.5265C82.4355 78.04 82.3977 77.9898 82.7649 77.6962C82.7721 77.6878 83.4093 77.5285 83.4093 77.5285C83.5929 77.671 83.8359 77.7466 83.9601 77.9561C84.2085 78.3672 84.1653 78.4007 84.1059 78.8955C83.8431 80.95 82.9845 84.1122 81.3861 86.9959C81.1881 87.3494 80.9757 87.7173 80.7345 88.1034C88.1397 81.4196 88.9605 77 88.9605 77C92.2599 85.4118 110.976 90.3599 115.163 91.3731L115.17 91.3568ZM2.26237 96.3557C3.91207 95.1486 7.09391 92.9935 10.8552 91.3496C7.08653 89.6966 3.90468 87.5415 2.25499 86.3344C0.612671 87.5415 -2.5546 89.6802 -6.30849 91.3332C-5.07675 91.8697 -3.9037 92.4642 -2.82586 93.0678C-0.633648 94.2931 1.16258 95.5419 2.26237 96.3557ZM-19.8648 91.2408C-19.8648 87.6339 -22.4236 84.7067 -25.5763 84.7067C-28.729 84.7067 -31.2879 87.6339 -31.2879 91.2408C-31.2879 94.8459 -28.729 97.7731 -25.5763 97.7731C-22.4236 97.7731 -19.8648 94.8459 -19.8648 91.2408Z" fill="black"/>
<path fill-rule="evenodd" clip-rule="evenodd" d="M405.17 79.3568L406 79.4239C406 79.4239 405.905 79.4493 405.721 79.4909C405.905 79.5344 406 79.558 406 79.558L405.17 79.6251C400.985 80.6401 382.267 85.5972 378.968 94C378.968 94 378.154 89.5811 370.742 82.9057C373.233 86.8805 373.96 90.8136 374.12 92.1549C374.223 93.0104 374.041 93.0013 373.417 93.4798C373.417 93.4798 372.779 93.3131 372.772 93.3131C372.347 92.985 372.427 92.9016 372.266 92.347C371.73 90.4946 369.795 85.3127 364.985 82.1589H363.945C365.102 84.3648 365.565 86.4944 365.727 87.794C365.727 87.8194 365.763 88.0967 365.763 88.113C365.711 88.3722 365.741 88.6658 365.608 88.8851C365.601 88.8924 365.021 89.3129 365.021 89.3129C364.795 89.2531 364.539 89.2875 364.348 89.1443C364.289 89.1026 364.136 88.9757 363.907 88.2979C363.284 86.402 361.774 83.7431 359.369 82.1589L319.55 82.0158C318.729 83.7177 317.145 84.8668 315.327 84.8668C313.421 84.8668 311.771 83.6017 310.994 81.7566C310.826 81.7983 310.657 81.8236 310.473 81.8236C302.511 81.6551 293.816 88.8344 293.478 89.1099L293.471 89.1189C292.745 89.7225 291.77 89.7225 291.044 89.1189C291.044 89.1189 288.727 87.1977 285.362 85.3199C282.591 83.7684 279.094 82.2169 275.618 81.8907C274.555 87.8447 269.944 92.3307 264.423 92.3307C258.117 92.3307 253 86.4781 253 79.2644C253 72.0524 258.118 66.1995 264.423 66.1995C270.002 66.1995 274.658 70.7873 275.655 76.8411C283.134 76.1378 290.722 69.8727 291.03 69.6126L291.037 69.6043C291.763 69.0004 292.738 69.0004 293.464 69.6043L293.471 69.6126C293.809 69.8894 302.504 77.0676 310.466 76.9009C310.642 76.9009 310.818 76.9172 310.987 76.9679C311.771 75.1301 313.414 73.8559 315.32 73.8559C317.138 73.8559 318.722 75.0141 319.543 76.7069L359.362 76.8501C359.684 76.6399 360.044 76.3716 360.395 76.0708C363.108 73.6891 363.907 70.6441 363.974 70.5354C364.098 70.3172 364.165 70.0235 364.348 69.8725C364.355 69.8642 365.023 69.6966 365.03 69.7049C365.219 69.8475 365.477 69.9146 365.608 70.1326C365.866 70.5517 365.792 70.5934 365.741 71.0972C365.572 72.6651 365 74.8364 363.952 76.8592H364.985C366.51 75.8605 369.7 73.3611 371.746 68.1786C371.906 67.7677 372.149 67.0967 372.302 66.5265C372.436 66.04 372.398 65.9898 372.765 65.6962C372.772 65.6878 373.409 65.5285 373.409 65.5285C373.593 65.671 373.836 65.7466 373.96 65.9561C374.209 66.3672 374.165 66.4007 374.106 66.8955C373.843 68.95 372.985 72.1122 371.386 74.9959C371.188 75.3494 370.976 75.7173 370.735 76.1034C378.14 69.4196 378.961 65 378.961 65C382.26 73.4118 400.976 78.3599 405.163 79.3731L405.17 79.3568ZM292.262 84.3557C293.912 83.1486 297.094 80.9935 300.855 79.3496C297.087 77.6966 293.905 75.5415 292.255 74.3344C290.613 75.5415 287.445 77.6802 283.692 79.3332C284.923 79.8697 286.096 80.4642 287.174 81.0678C289.366 82.2931 291.163 83.5419 292.262 84.3557ZM270.135 79.2408C270.135 75.6339 267.576 72.7067 264.424 72.7067C261.271 72.7067 258.712 75.6339 258.712 79.2408C258.712 82.8459 261.271 85.7731 264.424 85.7731C267.576 85.7731 270.135 82.8459 270.135 79.2408Z" fill="black"/>
</g>
<defs>
<clipPath id="clip0_2400_72">
<rect width="1115" height="130" fill="white"/>
</clipPath>
</defs>
</svg>
