<svg width="69" height="69" viewBox="0 0 69 69" fill="none" xmlns="http://www.w3.org/2000/svg">
<g clip-path="url(#clip0_184_53)">
<path fill-rule="evenodd" clip-rule="evenodd" d="M69 6.31036V39.5809C69 36.1058 62.8214 33.3082 55.2 33.3082C52.6909 33.3082 50.3324 33.6093 48.3 34.1425C44.1725 35.2276 41.4 37.2475 41.4 39.5746V6.27273C41.4 2.81018 47.5786 0 55.2 0C62.8214 0 69 2.81018 69 6.27273V6.31036ZM48.3 62.7273C48.3 66.1898 42.1214 69 34.5 69C26.8786 69 20.7 66.1898 20.7 62.7273C20.7 59.2585 26.8786 56.4545 34.5 56.4545C42.1214 56.4545 48.3 59.2585 48.3 62.7273ZM27.6 23.9869C23.4725 25.0721 20.7 27.0982 20.7 29.4191V45.7156C18.6676 45.1825 16.3091 44.8751 13.8 44.8751C6.17864 44.8751 0 47.6853 0 51.1478V17.8396C0 14.3896 6.17864 11.5669 13.8 11.5669C21.4214 11.5669 27.6 14.3896 27.6 17.8396V23.9869Z" fill="#1E52EF"/>
</g>
<defs>
<clipPath id="clip0_184_53">
<rect width="69" height="69" fill="white"/>
</clipPath>
</defs>
</svg>
