<svg width="63" height="63" viewBox="0 0 63 63" fill="none" xmlns="http://www.w3.org/2000/svg">
<g clip-path="url(#clip0_184_58)">
<path fill-rule="evenodd" clip-rule="evenodd" d="M63 5.76164V36.1391C63 32.9662 57.3586 30.4118 50.4 30.4118C48.1091 30.4118 45.9556 30.6867 44.1 31.1735C40.3315 32.1644 37.8 34.0085 37.8 36.1334V5.72727C37.8 2.56582 43.4414 0 50.4 0C57.3586 0 63 2.56582 63 5.72727V5.76164ZM44.1 57.2727C44.1 60.4342 38.4586 63 31.5 63C24.5414 63 18.9 60.4342 18.9 57.2727C18.9 54.1055 24.5414 51.5455 31.5 51.5455C38.4586 51.5455 44.1 54.1055 44.1 57.2727ZM25.2 21.9011C21.4315 22.8919 18.9 24.7418 18.9 26.8609V41.7404C17.0444 41.2535 14.8909 40.9729 12.6 40.9729C5.64136 40.9729 0 43.5387 0 46.7002V16.2884C0 13.1384 5.64136 10.5611 12.6 10.5611C19.5586 10.5611 25.2 13.1384 25.2 16.2884V21.9011Z" fill="white"/>
</g>
<defs>
<clipPath id="clip0_184_58">
<rect width="63" height="63" fill="white"/>
</clipPath>
</defs>
</svg>
