<svg width="75" height="73" viewBox="0 0 75 73" fill="none" xmlns="http://www.w3.org/2000/svg">
<g clip-path="url(#clip0_184_60)">
<path fill-rule="evenodd" clip-rule="evenodd" d="M75 34.9558L64.033 50.0331L67.2028 55.452C69.1557 58.8072 64.6981 64.9841 57.2547 69.2448C49.8113 73.5125 42.184 74.2425 40.2311 70.8873L37.0755 65.4474L18.0425 67.3847L0 36.0789L35.8373 32.4991L56.8868 3.50968L75 34.9558ZM31.4858 25.0306C24.6792 28.9263 17.717 29.8739 15.0849 27.4453C14.8373 27.2206 14.6321 26.9539 14.4623 26.6731L11.066 20.8472L7.92453 15.4424C8.80189 16.9445 10.8255 17.6183 13.4788 17.5271C15.2618 17.4569 17.3349 17.0357 19.5212 16.2777C21.2901 15.6459 23.0943 14.8177 24.9198 13.7718C26.7382 12.7189 28.3868 11.5678 29.8019 10.3675C31.5566 8.86535 32.9646 7.30006 33.9198 5.80497C35.3349 3.55881 35.7453 1.48112 34.8679 -0.0209961L38.0165 5.38381L41.4127 11.2098C41.5825 11.4905 41.6958 11.8064 41.7665 12.1223C42.5802 15.6038 38.2783 21.1069 31.4646 25.0026L31.4858 25.0306Z" fill="white"/>
</g>
<defs>
<clipPath id="clip0_184_60">
<rect width="75" height="73" fill="white"/>
</clipPath>
</defs>
</svg>
