<svg width="53" height="56" viewBox="0 0 53 56" fill="none" xmlns="http://www.w3.org/2000/svg">
<path d="M17.0712 19.2837L9.94091 16.3561V25.444L17.0712 28.1928V19.2837Z" fill="#2562F5"/>
<path d="M36.5062 4.05284L11.0981 15.3281L17.5987 18.0033L43.0455 6.98744L36.5062 4.05284Z" fill="#2562F5"/>
<path fill-rule="evenodd" clip-rule="evenodd" d="M34.8285 3.27823L9.30424 14.5993L1.27748 11.3071C1.79456 10.7145 2.43476 10.2447 3.15236 9.92564L24.2299 0.473325C25.6439 -0.157775 27.2621 -0.157775 28.6762 0.473325L34.8285 3.27823ZM26.4527 21.6294L19.4526 18.7403L44.783 7.76638L49.7429 10.0173C50.4604 10.3363 51.1006 10.8061 51.6212 11.3917L26.4527 21.6294ZM18.4783 19.8622L25.795 22.8635L25.7953 55.9893C25.3169 55.9367 24.8491 55.821 24.3988 55.6457L3.33122 46.8838C1.30857 46.0529 -0.00700676 44.0894 2.80748e-05 41.9086V14.8415C2.80748e-05 14.028 0.189983 13.2251 0.552297 12.4959H0.555816L8.53737 15.7775V25.9138C8.53737 26.2013 8.71677 26.4643 8.98763 26.566H8.98411L17.5215 29.8582C17.6024 29.8933 17.6868 29.9143 17.7747 29.9143C17.919 29.9143 18.0561 29.8688 18.1687 29.7846C18.3622 29.6584 18.4783 29.4445 18.4783 29.2131V19.8622Z" fill="white"/>
<path fill-rule="evenodd" clip-rule="evenodd" d="M52.4548 12.5801C52.81 13.3093 52.9965 14.1087 53 14.9187V41.695C52.9965 43.8547 51.702 45.8077 49.7075 46.6491L28.6012 55.6248C28.151 55.8107 27.6831 55.9369 27.2012 56V22.8635L52.4548 12.5801ZM47.3824 39.1426C47.5582 39.2197 47.6989 39.3634 47.7658 39.5458L47.7271 39.5528C47.8713 39.9069 47.7024 40.3101 47.3507 40.4609L31.4052 46.6878C31.3208 46.7158 31.2329 46.7333 31.1414 46.7333C30.7896 46.7544 30.4801 46.5125 30.4133 46.1653C30.3464 45.8217 30.5469 45.4816 30.8811 45.3695L46.8266 39.1426C47.0024 39.0654 47.2065 39.0654 47.3824 39.1426ZM47.7658 34.8686V34.8721L47.7271 34.8616C47.8185 35.0404 47.8326 35.2508 47.7587 35.4366C47.6849 35.6259 47.5336 35.7732 47.3436 35.8433H47.3401L31.3947 42.0702C31.3103 42.0878 31.2188 42.0878 31.1344 42.0702C30.8459 42.0702 30.5891 41.8949 30.4871 41.6284C30.4097 41.4531 30.4062 41.2533 30.4836 41.078C30.5575 40.9027 30.7017 40.7624 30.8811 40.6958V40.6923L46.8266 34.4759C47.0024 34.4023 47.2029 34.3988 47.3788 34.4724C47.5582 34.546 47.6954 34.6898 47.7658 34.8686ZM47.7658 30.195V30.1985L47.7271 30.1774C47.8115 30.3527 47.8185 30.5526 47.7482 30.7349C47.6743 30.9137 47.5336 31.0575 47.3507 31.1311L31.4052 37.358C31.3173 37.3685 31.2293 37.3685 31.1414 37.358C30.8178 37.3405 30.5469 37.1091 30.4836 36.79C30.4238 36.4744 30.5856 36.1554 30.8811 36.0186L46.8266 29.7917C47.0024 29.7181 47.2065 29.7181 47.3824 29.7917C47.5582 29.8689 47.6989 30.0126 47.7658 30.195ZM47.7658 25.5213V25.5248L47.7271 25.4933C47.8713 25.8474 47.7024 26.2471 47.3507 26.3978L31.4052 32.6247C31.3208 32.6563 31.2329 32.6703 31.1414 32.6738C30.8248 32.6493 30.5645 32.4179 30.5012 32.1093C30.4414 31.7973 30.5962 31.4852 30.8811 31.345L46.8266 25.1181C47.0024 25.041 47.2065 25.041 47.3824 25.1181C47.5582 25.1952 47.6989 25.339 47.7658 25.5213ZM47.7658 20.8442V20.8512L47.7271 20.7986C47.8326 20.9809 47.8537 21.2018 47.7798 21.3981C47.7024 21.598 47.5442 21.7523 47.3436 21.8189H47.3401L31.3947 28.0458C31.3103 28.0633 31.2188 28.0633 31.1344 28.0458C30.8459 28.0458 30.5891 27.8705 30.4871 27.604C30.4097 27.4287 30.4062 27.2288 30.4836 27.0535C30.5575 26.8782 30.7017 26.738 30.8811 26.6714V26.6679L46.8266 20.4515C47.0024 20.3778 47.2029 20.3743 47.3788 20.448C47.5582 20.5216 47.6954 20.6653 47.7658 20.8442Z" fill="#2562F5"/>
</svg>
