<svg width="133" height="117" viewBox="0 0 133 117" fill="none" xmlns="http://www.w3.org/2000/svg">
<path d="M41.502 16.7697L41.5752 33.5398L45.9209 35.9256L50.291 38.3115L62.6445 31.5898L75.0225 24.8909L75.0957 12.4339L75.1445 -0.000259399H58.2988H41.4531L41.502 16.7697Z" fill="#E8EEFF"/>
<path d="M92.2344 17.5041L76.9756 25.8089L76.9023 30.6265L76.8535 35.4442L84.2266 39.4359C88.3037 41.6383 93.8701 44.6665 96.6289 46.1577L101.658 48.8877L112.864 42.7853C119.017 39.4359 124.168 36.6142 124.266 36.5224C124.461 36.3389 108.03 9.33708 107.664 9.24532C107.566 9.22238 100.633 12.9389 92.2344 17.5041Z" fill="#E8EEFF"/>
<path d="M8.27649 35.8114C3.68664 43.2902 -0.0242943 49.4155 0.000119777 49.4384C0.219846 49.599 30.3224 65.8873 30.5909 65.979C30.7618 66.0479 32.837 65.0614 35.1564 63.7996L39.4288 61.4826L39.5753 53.8661C39.673 49.6908 39.7462 43.6573 39.7462 40.4684V34.6414L38.8429 34.0908C37.0363 33.0125 17.0411 22.2531 16.8214 22.2531C16.6993 22.2531 12.8663 28.3555 8.27649 35.8114Z" fill="#E8EEFF"/>
<path d="M61.9612 51.2279C57.2005 53.8432 57.3226 53.6368 57.3226 58.5232C57.3226 62.102 57.347 62.3773 57.8841 63.0885C58.5921 64.0979 65.0862 67.6768 66.1849 67.6768C66.6731 67.6768 68.138 67.0344 70.4329 65.8185C75.2425 63.272 75.1448 63.3868 75.1448 58.5462C75.1448 53.6597 75.2181 53.7744 70.4573 51.205C68.2112 50.012 66.6731 49.3238 66.2093 49.3238C65.7454 49.3238 64.2317 50.012 61.9612 51.2279Z" fill="#E8EEFF"/>
<path d="M97.1211 53.3153L92.8486 55.6553L92.7998 69.0759L92.7266 82.4735L104.055 88.5988C110.28 91.9941 115.48 94.7471 115.603 94.7471C115.92 94.7471 132.351 67.9747 132.229 67.6535C132.18 67.5159 128.518 65.4512 124.099 63.0424C119.655 60.6335 112.844 56.94 108.913 54.8065C104.982 52.6729 101.687 50.9294 101.589 50.9523C101.491 50.9523 99.4648 52.0076 97.1211 53.3153Z" fill="#E8EEFF"/>
<path d="M19.5824 74.2376C13.4301 77.587 8.27871 80.4088 8.18105 80.5005C8.01015 80.6611 23.9525 107.021 24.6117 107.663C24.7094 107.778 31.6918 104.107 40.1391 99.5188L55.4955 91.1911L55.5688 86.4653C55.6176 82.8635 55.5443 81.6705 55.3246 81.51C55.1537 81.3723 50.0023 78.5505 43.8988 75.247C37.7953 71.9205 32.351 68.9841 31.7895 68.6858L30.8129 68.1352L19.5824 74.2376Z" fill="#E8EEFF"/>
<path d="M69.7734 85.4329L57.4443 92.1088L57.3711 104.566L57.3223 117H74.168H91.0137V100.276V83.5517L87.5469 81.6476C85.6182 80.6153 83.6162 79.537 83.0791 79.2388L82.1025 78.7341L69.7734 85.4329Z" fill="#E8EEFF"/>
</svg>
