<svg width="62" height="55" viewBox="0 0 62 55" fill="none" xmlns="http://www.w3.org/2000/svg">
<path d="M34.3067 0C30.2345 0 26.3045 0.863582 22.6242 2.56612C22.0042 2.85343 21.7347 3.58567 22.0241 4.20216C22.3134 4.81784 23.0499 5.08545 23.6716 4.79813C27.0213 3.2491 30.5991 2.46269 34.3067 2.46269C34.8093 2.46269 35.3078 2.48157 35.8029 2.5103C35.7988 3.99858 35.5161 5.89731 34.4579 7.82396C33.785 9.05037 32.9228 9.59217 32.011 10.166C31.0413 10.7759 29.9427 11.4671 29.2566 12.9193C28.0984 15.3746 28.4828 19.0234 30.237 22.2167C31.6448 24.7796 33.5949 26.4016 35.588 26.6676C35.7914 26.6947 35.9914 26.7078 36.189 26.7078C39.0162 26.7078 41.2589 24.0268 43.2528 21.6446C44.9136 19.6596 46.6306 17.6082 47.969 17.9234C48.756 18.1098 49.2437 19.0497 49.9538 20.5749C50.7755 22.3407 51.7981 24.539 54.2153 25.4675C55.7388 26.0528 57.4847 25.9945 59.4175 25.3164C59.4811 26.0372 59.52 26.7637 59.52 27.5C59.52 29.9315 59.1629 32.2793 58.509 34.5039C53.4349 30.6555 47.0125 29.072 44.0613 31.1472C42.3667 32.3392 41.9434 34.0261 41.5689 35.5144C41.2069 36.9584 40.8935 38.2061 39.5833 39.2716C37.7423 40.769 35.6401 40.7394 33.4081 40.7041C31.148 40.6721 28.8077 40.6352 26.8791 42.3057C25.2662 43.7028 24.3081 47.3517 24.8355 50.669C19.5159 48.5125 14.9891 44.5919 12.1702 39.4719C15.2032 38.3243 17.3526 36.5783 18.5678 34.2658C21.2495 29.159 18.977 22.3981 16.9723 16.4327C16.0406 13.6597 15.1602 11.0394 14.9387 9.00933C14.8941 8.60216 14.6485 8.24343 14.284 8.05299C13.9186 7.8609 13.4821 7.86336 13.1192 8.05709C9.71581 9.86963 0 17.4563 0 28.1756C0 37.0684 7.29699 39.3644 9.58189 39.8643C14.265 49.0748 23.8898 55 34.3067 55C49.5769 55 62 42.6636 62 27.5C62 12.3364 49.5769 0 34.3067 0ZM2.48 28.1756C2.48 19.9207 9.25536 13.6581 12.7968 11.1699C13.2101 13.0194 13.8996 15.0725 14.6188 17.2125L14.6197 17.2152C16.4679 22.7153 18.5625 28.9487 16.368 33.1272C15.4074 34.9562 13.6747 36.3033 11.1079 37.2325C9.93901 34.0466 8.88667 27.7011 11.4799 20.9632C11.7238 20.3287 11.4039 19.6161 10.764 19.3731C10.125 19.1293 9.40829 19.4487 9.16277 20.084C6.58275 26.7907 7.2416 33.0911 8.40555 36.9682C6.01152 36.057 2.48 33.7675 2.48 28.1756ZM55.1106 23.1706C53.6297 22.6019 52.9386 21.117 52.2065 19.544L52.2057 19.5422L52.2042 19.5391C51.4324 17.8816 50.5585 16.0047 48.5443 15.5281C45.7089 14.8557 43.4901 17.5072 41.3457 20.0709C41.3339 20.085 41.3221 20.0991 41.3103 20.1133C39.5159 22.2583 37.6663 24.4693 35.9195 24.2271C34.7531 24.0719 33.4106 22.8488 32.4153 21.0371C31.0479 18.5481 30.6817 15.7062 31.5034 13.9643C31.8821 13.1631 32.493 12.7781 33.3386 12.2461C34.3703 11.5968 35.6541 10.789 36.6354 9.00358C37.8696 6.75679 38.2449 4.54612 38.2821 2.77627C48.7585 4.43119 57.0995 12.5162 59.0711 22.8168C57.5087 23.4587 56.1778 23.581 55.1106 23.1706ZM34.3067 52.5373C32.0143 52.5373 29.7666 52.2131 27.6107 51.6171C26.6038 48.7719 27.5139 45.0228 28.5084 44.1617C29.7203 43.1126 31.41 43.1356 33.3709 43.1668C33.375 43.1669 33.3791 43.1669 33.3832 43.167C35.8379 43.2022 38.6162 43.2421 41.1556 41.1761C43.1005 39.5943 43.5854 37.6649 43.9755 36.113L43.9762 36.1104C44.3432 34.6484 44.5954 33.7897 45.4956 33.156C47.2118 31.9484 52.9174 33.0657 57.6451 36.9641C53.8763 46.0908 44.8376 52.5373 34.3067 52.5373Z" fill="white"/>
<path d="M2.48 28.1756C2.48 19.9207 9.25536 13.6581 12.7968 11.1699C13.2101 13.0194 13.8996 15.0725 14.6188 17.2125L14.6197 17.2152C16.4679 22.7153 18.5625 28.9487 16.368 33.1272C15.4074 34.9562 13.6747 36.3033 11.1079 37.2325C9.93901 34.0466 8.88667 27.7011 11.4799 20.9632C11.7238 20.3287 11.4039 19.6161 10.764 19.3731C10.125 19.1293 9.40829 19.4487 9.16277 20.084C6.58275 26.7907 7.2416 33.0911 8.40555 36.9682C6.01152 36.057 2.48 33.7675 2.48 28.1756Z" fill="#2562F5"/>
<path d="M34.3067 52.5373C32.0143 52.5373 29.7666 52.2131 27.6107 51.6171C26.6038 48.7719 27.5139 45.0228 28.5084 44.1617C29.7203 43.1126 31.41 43.1356 33.3709 43.1668L33.3832 43.167C35.8379 43.2022 38.6162 43.2421 41.1556 41.1761C43.1005 39.5943 43.5854 37.6649 43.9755 36.113L43.9762 36.1104C44.3432 34.6484 44.5954 33.7897 45.4956 33.156C47.2118 31.9484 52.9174 33.0657 57.6451 36.9641C53.8763 46.0908 44.8376 52.5373 34.3067 52.5373Z" fill="#2562F5"/>
<path d="M48.5443 15.5281C45.7089 14.8557 43.4901 17.5072 41.3457 20.0709L41.3103 20.1133C39.5159 22.2583 37.6663 24.4693 35.9195 24.2271C34.7531 24.0719 33.4106 22.8488 32.4153 21.0371C31.0479 18.5481 30.6817 15.7062 31.5034 13.9643C31.8821 13.1631 32.493 12.7781 33.3386 12.2461C34.3703 11.5968 35.6541 10.789 36.6354 9.00358C37.8696 6.75679 38.2449 4.54612 38.2821 2.77627C48.7585 4.43119 57.0995 12.5162 59.0711 22.8168C57.5087 23.4587 56.1778 23.581 55.1106 23.1706C53.6297 22.6019 52.9386 21.117 52.2065 19.544L52.2057 19.5422L52.2042 19.5391C51.4324 17.8816 50.5585 16.0047 48.5443 15.5281Z" fill="#2562F5"/>
</svg>
