<svg width="35" height="35" viewBox="0 0 35 35" fill="none" xmlns="http://www.w3.org/2000/svg">
<path fill-rule="evenodd" clip-rule="evenodd" d="M0 15.5556C0 8.22259 -2.98023e-07 4.55612 2.27805 2.27805C4.55612 -2.98023e-07 8.22259 0 15.5556 0H19.4444C26.7773 0 30.444 -2.98023e-07 32.7219 2.27805C35 4.55612 35 8.22259 35 15.5556V19.4444C35 26.7773 35 30.444 32.7219 32.7219C30.444 35 26.7773 35 19.4444 35H15.5556C8.22259 35 4.55612 35 2.27805 32.7219C-2.98023e-07 30.444 0 26.7773 0 19.4444V15.5556ZM29.1667 8.75C29.1667 10.3608 27.8608 11.6667 26.25 11.6667C24.6392 11.6667 23.3333 10.3608 23.3333 8.75C23.3333 7.13916 24.6392 5.83333 26.25 5.83333C27.8608 5.83333 29.1667 7.13916 29.1667 8.75ZM21.3889 19.4444C21.3889 21.5923 19.6478 23.3333 17.5 23.3333C15.3522 23.3333 13.6111 21.5923 13.6111 19.4444C13.6111 17.2966 15.3522 15.5556 17.5 15.5556C19.6478 15.5556 21.3889 17.2966 21.3889 19.4444ZM25.2778 19.4444C25.2778 23.7399 21.7955 27.2222 17.5 27.2222C13.2044 27.2222 9.72222 23.7399 9.72222 19.4444C9.72222 15.149 13.2044 11.6667 17.5 11.6667C21.7955 11.6667 25.2778 15.149 25.2778 19.4444Z" fill="#2562F5"/>
</svg>
