<svg width="39" height="40" viewBox="0 0 39 40" fill="none" xmlns="http://www.w3.org/2000/svg">
<path d="M9.41052 12.5713H1.73033C1.38947 12.5713 1.11328 12.8638 1.11328 13.2246V39.3466C1.11328 39.7075 1.38947 39.9999 1.73033 39.9999H9.41052C9.75137 39.9999 10.0276 39.7075 10.0276 39.3466V13.2246C10.0276 12.8638 9.75137 12.5713 9.41052 12.5713Z" fill="#2562F5"/>
<path d="M5.0163 0C2.25029 0 0 2.30661 0 5.14179C0 7.97823 2.25029 10.2857 5.0163 10.2857C7.78012 10.2857 10.0286 7.97811 10.0286 5.14179C10.0287 2.30661 7.78012 0 5.0163 0Z" fill="#2562F5"/>
<path d="M28.9977 12.5713C25.8548 12.5713 23.5315 13.9427 22.1224 15.501V13.8437C22.1224 13.4913 21.841 13.2055 21.4937 13.2055H13.9998C13.6525 13.2055 13.3711 13.4913 13.3711 13.8437V39.3616C13.3711 39.7141 13.6525 39.9997 13.9998 39.9997H21.8078C22.1551 39.9997 22.4365 39.7141 22.4365 39.3616V26.7361C22.4365 22.4817 23.5749 20.8242 26.4966 20.8242C29.6785 20.8242 29.9314 23.4813 29.9314 26.955V39.3617C29.9314 39.7142 30.2128 39.9999 30.5601 39.9999H38.371C38.7183 39.9999 38.9997 39.7142 38.9997 39.3617V25.3647C38.9997 19.0384 37.8113 12.5713 28.9977 12.5713Z" fill="#2562F5"/>
</svg>
