<svg width="59" height="55" viewBox="0 0 59 55" fill="none" xmlns="http://www.w3.org/2000/svg">
<path fill-rule="evenodd" clip-rule="evenodd" d="M42.1394 6.3385C42.1394 2.85856 44.9895 0 48.4559 0H52.6704C56.1368 0 59 2.85856 59 6.3385V48.6615C59 52.1414 56.1368 55 52.6704 55H48.4559C44.9921 55 42.1394 52.1414 42.1394 48.6615V6.3385ZM0 19.0368C0 15.5568 2.85007 12.6983 6.31646 12.6983H10.5309C13.9947 12.6983 16.8474 15.5568 16.8474 19.0368V48.6615C16.8474 52.1414 13.9973 55 10.5309 55H6.31646C2.8527 55 0 52.1414 0 48.6615V19.0368Z" fill="white"/>
<path d="M27.3943 25.3911C23.9279 25.3911 21.0647 28.2549 21.0647 31.7322V48.6614C21.0647 52.1414 23.9279 54.9999 27.3943 54.9999H31.6088C35.0752 54.9999 37.9252 52.1414 37.9252 48.6614V31.7322C37.9252 28.2523 35.0725 25.3911 31.6088 25.3911H27.3943Z" fill="#2562F5"/>
</svg>
