<svg width="187" height="47" viewBox="0 0 187 47" fill="none" xmlns="http://www.w3.org/2000/svg">
<path d="M8.416 17.286C7.11067 17.286 5.81267 17 4.522 16.428C3.23133 15.856 2.15333 14.9613 1.288 13.744C0.437333 12.512 0.0120001 10.972 0.0120001 9.124C0.0120001 7.74533 0.334667 6.38867 0.98 5.054C1.62533 3.70467 2.542 2.60467 3.73 1.754C4.93267 0.903333 6.31133 0.477999 7.866 0.477999C8.29133 0.477999 8.70933 0.529333 9.12 0.632C9.53067 0.734666 9.98533 0.873999 10.484 1.05C10.6013 1.07933 10.7993 1.138 11.078 1.226C11.3567 1.314 11.5767 1.358 11.738 1.358C11.9873 1.358 12.2513 1.27 12.53 1.094C12.6327 1.03533 12.728 1.006 12.816 1.006C12.9773 1.006 13.08 1.10867 13.124 1.314L13.85 4.46L13.894 4.68C13.894 4.75333 13.8353 4.81933 13.718 4.878C13.6887 4.89267 13.652 4.9 13.608 4.9C13.5347 4.9 13.4613 4.856 13.388 4.768C12.9187 4.09333 12.4567 3.514 12.002 3.03C11.562 2.53133 11.012 2.11333 10.352 1.776C9.70667 1.424 8.95867 1.248 8.108 1.248C6.86133 1.248 5.89333 1.76133 5.204 2.788C4.52933 3.8 4.082 4.9 3.862 6.088C3.65667 7.26133 3.554 8.244 3.554 9.036C3.554 10.576 3.80333 11.896 4.302 12.996C4.80067 14.0813 5.446 14.9027 6.238 15.46C7.03 16.0027 7.87333 16.274 8.768 16.274C9.97067 16.274 10.9533 15.9807 11.716 15.394C12.4933 14.7927 13.1827 14.0153 13.784 13.062C13.8867 12.9007 13.9673 12.798 14.026 12.754C14.0847 12.7247 14.1213 12.71 14.136 12.71C14.1653 12.71 14.2167 12.732 14.29 12.776C14.378 12.8347 14.422 12.908 14.422 12.996L14.378 13.128C13.85 14.184 13.0947 15.1447 12.112 16.01C11.144 16.8607 9.912 17.286 8.416 17.286ZM21.3776 17.286C20.2776 17.286 19.2949 17.022 18.4296 16.494C17.5789 15.966 16.9189 15.2693 16.4496 14.404C15.9803 13.5387 15.7456 12.622 15.7456 11.654C15.7456 10.6713 15.9803 9.75467 16.4496 8.904C16.9189 8.03867 17.5789 7.34933 18.4296 6.836C19.2949 6.308 20.2776 6.044 21.3776 6.044C22.4776 6.044 23.4529 6.308 24.3036 6.836C25.1689 7.34933 25.8363 8.03867 26.3056 8.904C26.7749 9.75467 27.0096 10.6713 27.0096 11.654C27.0096 12.622 26.7749 13.5387 26.3056 14.404C25.8363 15.2693 25.1689 15.966 24.3036 16.494C23.4529 17.022 22.4776 17.286 21.3776 17.286ZM21.3776 16.736C22.2283 16.736 22.8809 16.2447 23.3356 15.262C23.8049 14.2647 24.0396 13.062 24.0396 11.654C24.0396 10.2313 23.8049 9.036 23.3356 8.068C22.8809 7.1 22.2283 6.616 21.3776 6.616C20.5269 6.616 19.8743 7.1 19.4196 8.068C18.9649 9.036 18.7376 10.2313 18.7376 11.654C18.7376 13.062 18.9649 14.2647 19.4196 15.262C19.8743 16.2447 20.5269 16.736 21.3776 16.736ZM35.7187 6.022C36.3494 6.022 36.8554 6.198 37.2367 6.55C37.6327 6.902 37.8307 7.30533 37.8307 7.76C37.8307 8.112 37.706 8.40533 37.4567 8.64C37.222 8.87467 36.9214 8.992 36.5547 8.992C36.3054 8.992 36.0854 8.94067 35.8947 8.838C35.704 8.72067 35.484 8.55933 35.2347 8.354C35.0294 8.16333 34.846 8.024 34.6847 7.936C34.5234 7.83333 34.3474 7.782 34.1567 7.782C33.8487 7.782 33.5554 7.936 33.2767 8.244C33.0127 8.552 32.7854 8.97 32.5947 9.498C32.536 9.68867 32.5067 9.87933 32.5067 10.07V15.394C32.5067 15.8487 32.6094 16.1493 32.8147 16.296C33.02 16.428 33.328 16.494 33.7387 16.494H33.9807C34.0834 16.494 34.1347 16.582 34.1347 16.758C34.1347 16.9193 34.0834 17 33.9807 17H28.1947C28.092 17 28.0407 16.9193 28.0407 16.758C28.0407 16.582 28.092 16.494 28.1947 16.494H28.4147C28.8254 16.494 29.1334 16.428 29.3387 16.296C29.544 16.1493 29.6467 15.8487 29.6467 15.394V8.596C29.6467 8.12667 29.544 7.81867 29.3387 7.672C29.1334 7.51067 28.7887 7.42267 28.3047 7.408C28.2314 7.39333 28.18 7.34933 28.1507 7.276C28.1214 7.20267 28.1067 7.12933 28.1067 7.056C28.1067 6.968 28.1507 6.91667 28.2387 6.902C28.3707 6.858 29.6247 6.60133 32.0007 6.132H32.1107C32.228 6.132 32.3234 6.16867 32.3967 6.242C32.47 6.31533 32.5067 6.418 32.5067 6.55V7.606C32.5067 7.79667 32.5654 7.892 32.6827 7.892C32.8 7.892 32.9614 7.76733 33.1667 7.518C33.5334 7.04867 33.9294 6.682 34.3547 6.418C34.7947 6.154 35.2494 6.022 35.7187 6.022ZM50.9556 16.494C51.0582 16.494 51.1096 16.582 51.1096 16.758C51.1096 16.9193 51.0582 17 50.9556 17H45.1916C45.0889 17 45.0376 16.9193 45.0376 16.758C45.0376 16.582 45.0889 16.494 45.1916 16.494H45.4336C45.8296 16.494 46.1302 16.428 46.3356 16.296C46.5409 16.1493 46.6436 15.8487 46.6436 15.394C46.6729 13.942 46.6876 12.6733 46.6876 11.588C46.6876 10.8253 46.6729 10.1653 46.6436 9.608C46.5996 8.84533 46.4456 8.244 46.1816 7.804C45.9322 7.364 45.4996 7.144 44.8836 7.144C44.0769 7.144 43.3436 7.65 42.6836 8.662C42.5809 8.85267 42.5296 9.04333 42.5296 9.234V15.394C42.5296 15.8487 42.6322 16.1493 42.8376 16.296C43.0429 16.428 43.3509 16.494 43.7616 16.494H44.0036C44.1062 16.494 44.1576 16.582 44.1576 16.758C44.1576 16.9193 44.1062 17 44.0036 17H38.2176C38.1002 17 38.0416 16.9193 38.0416 16.758C38.0416 16.582 38.1002 16.494 38.2176 16.494H38.4376C38.8482 16.494 39.1562 16.428 39.3616 16.296C39.5669 16.1493 39.6696 15.8487 39.6696 15.394V8.618C39.6696 8.134 39.5669 7.81867 39.3616 7.672C39.1562 7.51067 38.8116 7.42267 38.3276 7.408C38.1956 7.39333 38.1296 7.276 38.1296 7.056C38.1296 6.968 38.1736 6.91667 38.2616 6.902C38.3936 6.858 39.6476 6.60133 42.0236 6.132H42.1336C42.2509 6.132 42.3462 6.16867 42.4196 6.242C42.4929 6.31533 42.5296 6.418 42.5296 6.55V7.144C42.5296 7.26133 42.5442 7.35667 42.5736 7.43C42.6176 7.48867 42.6689 7.518 42.7276 7.518C42.8449 7.518 42.9549 7.452 43.0576 7.32C43.8642 6.46933 44.7956 6.044 45.8516 6.044C46.6436 6.044 47.3109 6.21267 47.8536 6.55C48.3962 6.87267 48.7996 7.29067 49.0636 7.804C49.3422 8.31733 49.4889 8.86 49.5036 9.432V15.394C49.5036 15.8487 49.6062 16.1493 49.8116 16.296C50.0169 16.428 50.3249 16.494 50.7356 16.494H50.9556ZM62.2727 14.184C62.3607 14.2427 62.4047 14.316 62.4047 14.404L62.3827 14.536C62.0454 15.2547 61.4954 15.8927 60.7327 16.45C59.9847 17.0073 59.0534 17.286 57.9387 17.286C56.8387 17.286 55.8414 17.0367 54.9467 16.538C54.0667 16.0247 53.3774 15.3427 52.8787 14.492C52.3947 13.6413 52.1527 12.7247 52.1527 11.742C52.1527 10.8473 52.3654 9.96 52.7907 9.08C53.2307 8.2 53.8687 7.474 54.7047 6.902C55.5407 6.33 56.5307 6.044 57.6747 6.044C58.848 6.044 59.882 6.42533 60.7767 7.188C61.6714 7.936 62.236 8.96267 62.4707 10.268V10.356C62.4707 10.6347 62.324 10.774 62.0307 10.774L55.6727 10.818C55.3647 10.818 55.2107 10.9427 55.2107 11.192V11.566C55.2107 12.8127 55.482 13.898 56.0247 14.822C56.582 15.7313 57.4327 16.186 58.5767 16.186C59.9407 16.186 61.0627 15.5407 61.9427 14.25C61.9867 14.1767 62.0527 14.14 62.1407 14.14C62.17 14.14 62.214 14.1547 62.2727 14.184ZM57.6087 6.616C57.198 6.616 56.7727 6.814 56.3327 7.21C55.8927 7.606 55.57 8.38333 55.3647 9.542V9.63C55.3647 9.92333 55.5114 10.07 55.8047 10.07L59.1707 10.026C59.3174 10.026 59.4274 9.98933 59.5007 9.916C59.5887 9.84267 59.6327 9.74 59.6327 9.608C59.6327 8.69867 59.4347 7.97267 59.0387 7.43C58.6427 6.88733 58.166 6.616 57.6087 6.616ZM64.0243 17C63.9069 17 63.8483 16.912 63.8483 16.736C63.8483 16.5747 63.9069 16.494 64.0243 16.494H64.2443C64.6696 16.494 64.9996 16.428 65.2343 16.296C65.4836 16.1493 65.6083 15.8487 65.6083 15.394L65.5863 3.008C65.5863 2.53867 65.4836 2.23067 65.2783 2.084C65.0876 1.92267 64.7503 1.82733 64.2663 1.798C64.1783 1.798 64.1196 1.76133 64.0903 1.688C64.0609 1.61467 64.0463 1.54133 64.0463 1.468C64.0463 1.38 64.0903 1.32867 64.1783 1.314C64.4276 1.24067 65.1829 1.08667 66.4443 0.851999L67.9623 0.543999H68.0723C68.3363 0.543999 68.4683 0.683333 68.4683 0.961999V15.394C68.4683 15.8487 68.5856 16.1493 68.8203 16.296C69.0549 16.428 69.3849 16.494 69.8103 16.494H70.0523C70.1549 16.494 70.2063 16.5747 70.2063 16.736C70.2063 16.912 70.1549 17 70.0523 17H64.0243ZM71.3401 17C71.2228 17 71.1641 16.912 71.1641 16.736C71.1641 16.5747 71.2228 16.494 71.3401 16.494H71.5601C71.9855 16.494 72.3155 16.428 72.5501 16.296C72.7995 16.1493 72.9241 15.8487 72.9241 15.394L72.9021 3.008C72.9021 2.53867 72.7995 2.23067 72.5941 2.084C72.4035 1.92267 72.0661 1.82733 71.5821 1.798C71.4941 1.798 71.4355 1.76133 71.4061 1.688C71.3768 1.61467 71.3621 1.54133 71.3621 1.468C71.3621 1.38 71.4061 1.32867 71.4941 1.314C71.7435 1.24067 72.4988 1.08667 73.7601 0.851999L75.2781 0.543999H75.3881C75.6521 0.543999 75.7841 0.683333 75.7841 0.961999V15.394C75.7841 15.8487 75.9015 16.1493 76.1361 16.296C76.3708 16.428 76.7008 16.494 77.1261 16.494H77.3681C77.4708 16.494 77.5221 16.5747 77.5221 16.736C77.5221 16.912 77.4708 17 77.3681 17H71.3401ZM83.9575 17C83.8988 17 83.8548 16.978 83.8255 16.934C83.8108 16.89 83.8035 16.824 83.8035 16.736C83.8035 16.5893 83.8548 16.516 83.9575 16.516H84.1995C84.7275 16.516 85.1675 16.3913 85.5195 16.142C85.8715 15.878 86.0475 15.372 86.0475 14.624V3.096C86.0475 2.348 85.8715 1.84933 85.5195 1.6C85.1675 1.336 84.7275 1.204 84.1995 1.204H83.9575C83.8988 1.204 83.8548 1.182 83.8255 1.138C83.8108 1.094 83.8035 1.028 83.8035 0.94V0.895999C83.8035 0.837332 83.8475 0.793332 83.9355 0.763999C84.0235 0.734666 84.1188 0.72 84.2215 0.72C85.1601 0.690666 86.6415 0.675999 88.6655 0.675999C90.2201 0.675999 91.2395 0.690666 91.7235 0.72C92.8968 0.793333 94.0775 1.116 95.2655 1.688C96.4535 2.26 97.4508 3.14733 98.2575 4.35C99.0788 5.538 99.4895 7.04133 99.4895 8.86C99.4895 10.6787 99.0788 12.1893 98.2575 13.392C97.4508 14.58 96.4535 15.46 95.2655 16.032C94.0775 16.604 92.8968 16.9267 91.7235 17C91.2541 17.0293 90.2568 17.044 88.7315 17.044C87.2941 17.044 85.7028 17.0293 83.9575 17ZM91.1075 16.34C91.8995 16.34 92.6695 16.1347 93.4175 15.724C94.1655 15.3133 94.7961 14.5507 95.3095 13.436C95.8375 12.3213 96.1015 10.796 96.1015 8.86C96.1015 6.924 95.8375 5.39867 95.3095 4.284C94.7961 3.16933 94.1655 2.40667 93.4175 1.996C92.6695 1.58533 91.8995 1.38 91.1075 1.38H90.9535C90.2788 1.38 89.8095 1.48267 89.5455 1.688C89.2815 1.89333 89.1495 2.25267 89.1495 2.766V14.954C89.1495 15.482 89.2815 15.8487 89.5455 16.054C89.8095 16.2447 90.2788 16.34 90.9535 16.34H91.1075ZM112.637 14.998C112.681 14.998 112.717 15.0127 112.747 15.042C112.791 15.0713 112.813 15.1153 112.813 15.174L112.791 15.284C112.615 15.8413 112.285 16.3107 111.801 16.692C111.317 17.0587 110.796 17.242 110.239 17.242C109.3 17.242 108.647 16.9047 108.281 16.23C108.193 16.0687 108.09 15.988 107.973 15.988C107.87 15.988 107.775 16.0247 107.687 16.098C107.144 16.494 106.557 16.7947 105.927 17C105.296 17.2053 104.673 17.308 104.057 17.308C103.133 17.308 102.407 17.0953 101.879 16.67C101.365 16.23 101.109 15.6287 101.109 14.866C101.109 13.722 101.754 12.8127 103.045 12.138C103.397 11.962 103.785 11.8227 104.211 11.72C104.636 11.6027 105.171 11.4927 105.817 11.39L107.489 11.038C107.753 10.9647 107.885 10.7887 107.885 10.51V9.938C107.885 9.04333 107.863 8.42 107.819 8.068C107.775 7.70133 107.665 7.40067 107.489 7.166C107.195 6.814 106.807 6.638 106.323 6.638C105.956 6.638 105.633 6.75533 105.355 6.99C105.091 7.22467 104.871 7.716 104.695 8.464C104.563 9.00667 104.35 9.41 104.057 9.674C103.778 9.938 103.455 10.07 103.089 10.07C102.722 10.07 102.399 9.96733 102.121 9.762C101.842 9.542 101.703 9.24133 101.703 8.86C101.703 8.56667 101.813 8.20733 102.033 7.782C102.267 7.342 102.722 6.946 103.397 6.594C104.086 6.22733 105.047 6.044 106.279 6.044C108.009 6.044 109.278 6.484 110.085 7.364C110.349 7.65733 110.525 7.98733 110.613 8.354C110.715 8.706 110.767 9.146 110.767 9.674L110.745 12.094C110.73 12.578 110.723 13.326 110.723 14.338C110.723 14.9833 110.789 15.4013 110.921 15.592C111.053 15.768 111.229 15.856 111.449 15.856C111.625 15.856 111.801 15.7973 111.977 15.68C112.167 15.548 112.336 15.3573 112.483 15.108C112.527 15.0347 112.578 14.998 112.637 14.998ZM105.751 16.054C106.411 16.054 107.041 15.8487 107.643 15.438C107.804 15.3207 107.885 15.1593 107.885 14.954C107.885 14.7193 107.877 14.5433 107.863 14.426L107.841 13.92L107.863 12.05C107.863 11.7713 107.745 11.632 107.511 11.632C107.437 11.632 107.379 11.6393 107.335 11.654C106.191 12.006 105.355 12.4313 104.827 12.93C104.313 13.4287 104.057 14.0227 104.057 14.712C104.057 15.1227 104.211 15.4527 104.519 15.702C104.827 15.9367 105.237 16.054 105.751 16.054ZM117.81 17.286C116.798 17.286 116.028 17 115.5 16.428C114.972 15.8413 114.694 14.9907 114.664 13.876V7.496C114.664 7.34933 114.62 7.23933 114.532 7.166C114.459 7.078 114.349 7.034 114.202 7.034H113.168C112.86 7.034 112.706 6.90933 112.706 6.66C112.706 6.41067 112.838 6.25667 113.102 6.198C114.056 5.96333 114.87 5.53067 115.544 4.9C116.234 4.26933 116.718 3.35267 116.996 2.15C117.055 1.87133 117.158 1.732 117.304 1.732C117.378 1.732 117.429 1.776 117.458 1.864C117.502 1.93733 117.524 2.04733 117.524 2.194V5.824C117.524 5.97067 117.561 6.088 117.634 6.176C117.722 6.24933 117.84 6.286 117.986 6.286H119.812C120.12 6.286 120.274 6.41067 120.274 6.66C120.274 6.90933 120.12 7.034 119.812 7.034H117.986C117.84 7.034 117.722 7.078 117.634 7.166C117.561 7.23933 117.524 7.34933 117.524 7.496L117.48 12.006C117.48 12.9887 117.488 13.5753 117.502 13.766C117.546 14.602 117.7 15.1813 117.964 15.504C118.243 15.812 118.61 15.966 119.064 15.966C119.358 15.966 119.614 15.9073 119.834 15.79C120.054 15.658 120.318 15.438 120.626 15.13C120.7 15.042 120.766 14.998 120.824 14.998C120.883 14.998 120.942 15.0273 121 15.086C121.074 15.1447 121.11 15.2033 121.11 15.262C121.11 15.2913 121.096 15.3353 121.066 15.394C120.612 16.0833 120.12 16.5747 119.592 16.868C119.064 17.1467 118.47 17.286 117.81 17.286ZM133.091 14.998C133.135 14.998 133.171 15.0127 133.201 15.042C133.245 15.0713 133.267 15.1153 133.267 15.174L133.245 15.284C133.069 15.8413 132.739 16.3107 132.255 16.692C131.771 17.0587 131.25 17.242 130.693 17.242C129.754 17.242 129.101 16.9047 128.735 16.23C128.647 16.0687 128.544 15.988 128.427 15.988C128.324 15.988 128.229 16.0247 128.141 16.098C127.598 16.494 127.011 16.7947 126.381 17C125.75 17.2053 125.127 17.308 124.511 17.308C123.587 17.308 122.861 17.0953 122.333 16.67C121.819 16.23 121.563 15.6287 121.563 14.866C121.563 13.722 122.208 12.8127 123.499 12.138C123.851 11.962 124.239 11.8227 124.665 11.72C125.09 11.6027 125.625 11.4927 126.271 11.39L127.943 11.038C128.207 10.9647 128.339 10.7887 128.339 10.51V9.938C128.339 9.04333 128.317 8.42 128.273 8.068C128.229 7.70133 128.119 7.40067 127.943 7.166C127.649 6.814 127.261 6.638 126.777 6.638C126.41 6.638 126.087 6.75533 125.809 6.99C125.545 7.22467 125.325 7.716 125.149 8.464C125.017 9.00667 124.804 9.41 124.511 9.674C124.232 9.938 123.909 10.07 123.543 10.07C123.176 10.07 122.853 9.96733 122.575 9.762C122.296 9.542 122.157 9.24133 122.157 8.86C122.157 8.56667 122.267 8.20733 122.487 7.782C122.721 7.342 123.176 6.946 123.851 6.594C124.54 6.22733 125.501 6.044 126.733 6.044C128.463 6.044 129.732 6.484 130.539 7.364C130.803 7.65733 130.979 7.98733 131.067 8.354C131.169 8.706 131.221 9.146 131.221 9.674L131.199 12.094C131.184 12.578 131.177 13.326 131.177 14.338C131.177 14.9833 131.243 15.4013 131.375 15.592C131.507 15.768 131.683 15.856 131.903 15.856C132.079 15.856 132.255 15.7973 132.431 15.68C132.621 15.548 132.79 15.3573 132.937 15.108C132.981 15.0347 133.032 14.998 133.091 14.998ZM126.205 16.054C126.865 16.054 127.495 15.8487 128.097 15.438C128.258 15.3207 128.339 15.1593 128.339 14.954C128.339 14.7193 128.331 14.5433 128.317 14.426L128.295 13.92L128.317 12.05C128.317 11.7713 128.199 11.632 127.965 11.632C127.891 11.632 127.833 11.6393 127.789 11.654C126.645 12.006 125.809 12.4313 125.281 12.93C124.767 13.4287 124.511 14.0227 124.511 14.712C124.511 15.1227 124.665 15.4527 124.973 15.702C125.281 15.9367 125.691 16.054 126.205 16.054ZM89.1928 39.734C89.2661 39.734 89.3321 39.7633 89.3908 39.822C89.4494 39.866 89.4788 39.9173 89.4788 39.976C89.4788 40.02 89.4494 40.0787 89.3908 40.152C88.3054 41.5893 86.9194 42.308 85.2328 42.308C84.2061 42.308 83.2161 42.022 82.2628 41.45C82.1161 41.3767 81.9988 41.34 81.9108 41.34C81.8374 41.34 81.7421 41.362 81.6248 41.406C80.3634 41.978 78.9481 42.264 77.3788 42.264C76.2348 42.264 75.2594 42.088 74.4528 41.736C73.6461 41.3693 73.0374 40.8853 72.6268 40.284C72.2308 39.6827 72.0328 39.0227 72.0328 38.304C72.0328 37.2773 72.3848 36.39 73.0888 35.642C73.8074 34.8793 74.8194 34.1533 76.1248 33.464C76.3008 33.376 76.3888 33.2513 76.3888 33.09C76.3888 32.9873 76.3741 32.9067 76.3448 32.848C75.8901 31.704 75.6628 30.648 75.6628 29.68C75.6628 28.9027 75.8388 28.1987 76.1908 27.568C76.5574 26.9227 77.0634 26.4167 77.7088 26.05C78.3541 25.6687 79.0948 25.478 79.9308 25.478C80.6788 25.478 81.3828 25.6027 82.0428 25.852C82.7174 26.0867 83.2528 26.4313 83.6488 26.886C84.0594 27.3407 84.2648 27.876 84.2648 28.492C84.2648 29.2693 83.9348 29.944 83.2748 30.516C82.6148 31.088 81.6541 31.6747 80.3928 32.276C80.2021 32.364 80.1068 32.4887 80.1068 32.65C80.1068 32.7233 80.1288 32.804 80.1728 32.892L80.6788 33.86L81.0088 34.476C81.7714 35.8987 82.6074 37.1967 83.5168 38.37C83.6341 38.502 83.7441 38.568 83.8468 38.568C83.9788 38.568 84.0888 38.502 84.1768 38.37C84.6021 37.8127 84.9248 37.2333 85.1448 36.632C85.3794 36.0307 85.4968 35.4733 85.4968 34.96C85.4968 34.3733 85.3208 33.926 84.9688 33.618C84.6168 33.31 84.1108 33.156 83.4508 33.156C83.3334 33.156 83.2748 33.068 83.2748 32.892C83.2748 32.7307 83.3334 32.65 83.4508 32.65H88.9728C89.0754 32.65 89.1268 32.7307 89.1268 32.892C89.1268 33.068 89.0754 33.156 88.9728 33.156C87.6674 33.156 86.8608 33.8233 86.5528 35.158C86.2154 36.6393 85.5921 37.9447 84.6828 39.074C84.5948 39.1767 84.5508 39.2867 84.5508 39.404C84.5508 39.5213 84.6021 39.6313 84.7048 39.734C85.5554 40.5553 86.2814 40.966 86.8828 40.966C87.2788 40.966 87.6454 40.8707 87.9828 40.68C88.3201 40.4747 88.6648 40.1887 89.0168 39.822C89.0754 39.7633 89.1341 39.734 89.1928 39.734ZM80.1728 26.226C79.6888 26.226 79.2928 26.424 78.9848 26.82C78.6768 27.216 78.5228 27.722 78.5228 28.338C78.5228 29.0273 78.8014 29.988 79.3588 31.22C79.4468 31.4107 79.5641 31.506 79.7108 31.506C79.8281 31.506 79.9234 31.4767 79.9968 31.418C80.7008 30.9633 81.2141 30.494 81.5368 30.01C81.8741 29.526 82.0428 28.976 82.0428 28.36C82.0428 27.744 81.8814 27.238 81.5588 26.842C81.2508 26.4313 80.7888 26.226 80.1728 26.226ZM79.1388 40.922C79.6081 40.922 80.0408 40.878 80.4368 40.79C80.6568 40.746 80.7668 40.636 80.7668 40.46C80.7668 40.3573 80.7154 40.2547 80.6128 40.152C79.5714 39.0813 78.6254 37.6733 77.7748 35.928L77.4448 35.268L77.0488 34.476C76.9608 34.3 76.8434 34.212 76.6968 34.212C76.6088 34.212 76.5134 34.2487 76.4108 34.322C75.9414 34.7033 75.6114 35.1067 75.4208 35.532C75.2301 35.9427 75.1348 36.4193 75.1348 36.962C75.1348 38.15 75.5014 39.1107 76.2348 39.844C76.9828 40.5627 77.9508 40.922 79.1388 40.922ZM103.951 42.286C102.881 42.286 101.627 41.9927 100.189 41.406C99.9987 41.318 99.8153 41.274 99.6393 41.274C99.3607 41.274 99.0233 41.428 98.6273 41.736C98.4953 41.8387 98.3927 41.89 98.3193 41.89C98.158 41.89 98.0553 41.78 98.0113 41.56L97.1533 37.886L97.1093 37.666C97.1093 37.6367 97.124 37.6073 97.1533 37.578C97.1973 37.5487 97.234 37.5267 97.2633 37.512C97.3073 37.4973 97.3367 37.4827 97.3513 37.468C97.3807 37.4533 97.4247 37.446 97.4833 37.446C97.542 37.446 97.6227 37.5047 97.7253 37.622C98.4733 38.678 99.3313 39.5653 100.299 40.284C101.267 40.988 102.404 41.34 103.709 41.34C104.648 41.34 105.403 41.1053 105.975 40.636C106.547 40.152 106.833 39.4627 106.833 38.568C106.833 37.4533 106.21 36.6393 104.963 36.126C104.391 35.8767 103.673 35.62 102.807 35.356C102.661 35.312 102.294 35.1873 101.707 34.982C101.121 34.7767 100.6 34.5567 100.145 34.322C99.324 33.8967 98.708 33.3467 98.2973 32.672C97.8867 31.9973 97.6813 31.2273 97.6813 30.362C97.6813 29.6727 97.8427 28.954 98.1653 28.206C98.488 27.458 99.0453 26.82 99.8373 26.292C100.644 25.7493 101.7 25.478 103.005 25.478C103.475 25.478 103.922 25.5293 104.347 25.632C104.787 25.7347 105.315 25.896 105.931 26.116C106.181 26.204 106.386 26.248 106.547 26.248C106.841 26.248 107.112 26.1453 107.361 25.94C107.479 25.8373 107.589 25.786 107.691 25.786C107.838 25.786 107.933 25.8813 107.977 26.072L108.923 29.306C108.923 29.3353 108.931 29.3867 108.945 29.46C108.96 29.5187 108.945 29.57 108.901 29.614L108.769 29.68C108.681 29.7093 108.615 29.724 108.571 29.724C108.498 29.724 108.425 29.6727 108.351 29.57C108.175 29.2767 107.86 28.8807 107.405 28.382C106.951 27.8687 106.335 27.392 105.557 26.952C104.78 26.4973 103.915 26.27 102.961 26.27C102.125 26.27 101.48 26.4387 101.025 26.776C100.585 27.1133 100.292 27.4873 100.145 27.898C99.9987 28.3087 99.9253 28.668 99.9253 28.976C99.9253 29.416 100.035 29.812 100.255 30.164C100.475 30.516 100.798 30.8093 101.223 31.044C101.619 31.264 102.162 31.4913 102.851 31.726C103.555 31.9607 103.973 32.1 104.105 32.144C104.296 32.2027 104.692 32.3347 105.293 32.54C105.895 32.7453 106.401 32.9433 106.811 33.134C108.791 34.0433 109.781 35.4147 109.781 37.248C109.781 38.1867 109.554 39.0373 109.099 39.8C108.645 40.5627 107.977 41.1713 107.097 41.626C106.217 42.066 105.169 42.286 103.951 42.286ZM115.633 42.286C114.621 42.286 113.851 42 113.323 41.428C112.795 40.8413 112.516 39.9907 112.487 38.876V32.496C112.487 32.3493 112.443 32.2393 112.355 32.166C112.281 32.078 112.171 32.034 112.025 32.034H110.991C110.683 32.034 110.529 31.9093 110.529 31.66C110.529 31.4107 110.661 31.2567 110.925 31.198C111.878 30.9633 112.692 30.5307 113.367 29.9C114.056 29.2693 114.54 28.3527 114.819 27.15C114.877 26.8713 114.98 26.732 115.127 26.732C115.2 26.732 115.251 26.776 115.281 26.864C115.325 26.9373 115.347 27.0473 115.347 27.194V30.824C115.347 30.9707 115.383 31.088 115.457 31.176C115.545 31.2493 115.662 31.286 115.809 31.286H117.635C117.943 31.286 118.097 31.4107 118.097 31.66C118.097 31.9093 117.943 32.034 117.635 32.034H115.809C115.662 32.034 115.545 32.078 115.457 32.166C115.383 32.2393 115.347 32.3493 115.347 32.496L115.303 37.006C115.303 37.9887 115.31 38.5753 115.325 38.766C115.369 39.602 115.523 40.1813 115.787 40.504C116.065 40.812 116.432 40.966 116.887 40.966C117.18 40.966 117.437 40.9073 117.657 40.79C117.877 40.658 118.141 40.438 118.449 40.13C118.522 40.042 118.588 39.998 118.647 39.998C118.705 39.998 118.764 40.0273 118.823 40.086C118.896 40.1447 118.933 40.2033 118.933 40.262C118.933 40.2913 118.918 40.3353 118.889 40.394C118.434 41.0833 117.943 41.5747 117.415 41.868C116.887 42.1467 116.293 42.286 115.633 42.286ZM126.755 31.022C127.386 31.022 127.892 31.198 128.273 31.55C128.669 31.902 128.867 32.3053 128.867 32.76C128.867 33.112 128.742 33.4053 128.493 33.64C128.258 33.8747 127.958 33.992 127.591 33.992C127.342 33.992 127.122 33.9407 126.931 33.838C126.74 33.7207 126.52 33.5593 126.271 33.354C126.066 33.1633 125.882 33.024 125.721 32.936C125.56 32.8333 125.384 32.782 125.193 32.782C124.885 32.782 124.592 32.936 124.313 33.244C124.049 33.552 123.822 33.97 123.631 34.498C123.572 34.6887 123.543 34.8793 123.543 35.07V40.394C123.543 40.8487 123.646 41.1493 123.851 41.296C124.056 41.428 124.364 41.494 124.775 41.494H125.017C125.12 41.494 125.171 41.582 125.171 41.758C125.171 41.9193 125.12 42 125.017 42H119.231C119.128 42 119.077 41.9193 119.077 41.758C119.077 41.582 119.128 41.494 119.231 41.494H119.451C119.862 41.494 120.17 41.428 120.375 41.296C120.58 41.1493 120.683 40.8487 120.683 40.394V33.596C120.683 33.1267 120.58 32.8187 120.375 32.672C120.17 32.5107 119.825 32.4227 119.341 32.408C119.268 32.3933 119.216 32.3493 119.187 32.276C119.158 32.2027 119.143 32.1293 119.143 32.056C119.143 31.968 119.187 31.9167 119.275 31.902C119.407 31.858 120.661 31.6013 123.037 31.132H123.147C123.264 31.132 123.36 31.1687 123.433 31.242C123.506 31.3153 123.543 31.418 123.543 31.55V32.606C123.543 32.7967 123.602 32.892 123.719 32.892C123.836 32.892 123.998 32.7673 124.203 32.518C124.57 32.0487 124.966 31.682 125.391 31.418C125.831 31.154 126.286 31.022 126.755 31.022ZM140.936 39.998C140.98 39.998 141.016 40.0127 141.046 40.042C141.09 40.0713 141.112 40.1153 141.112 40.174L141.09 40.284C140.914 40.8413 140.584 41.3107 140.1 41.692C139.616 42.0587 139.095 42.242 138.538 42.242C137.599 42.242 136.946 41.9047 136.58 41.23C136.492 41.0687 136.389 40.988 136.272 40.988C136.169 40.988 136.074 41.0247 135.986 41.098C135.443 41.494 134.856 41.7947 134.226 42C133.595 42.2053 132.972 42.308 132.356 42.308C131.432 42.308 130.706 42.0953 130.178 41.67C129.664 41.23 129.408 40.6287 129.408 39.866C129.408 38.722 130.053 37.8127 131.344 37.138C131.696 36.962 132.084 36.8227 132.51 36.72C132.935 36.6027 133.47 36.4927 134.116 36.39L135.788 36.038C136.052 35.9647 136.184 35.7887 136.184 35.51V34.938C136.184 34.0433 136.162 33.42 136.118 33.068C136.074 32.7013 135.964 32.4007 135.788 32.166C135.494 31.814 135.106 31.638 134.622 31.638C134.255 31.638 133.932 31.7553 133.654 31.99C133.39 32.2247 133.17 32.716 132.994 33.464C132.862 34.0067 132.649 34.41 132.356 34.674C132.077 34.938 131.754 35.07 131.388 35.07C131.021 35.07 130.698 34.9673 130.42 34.762C130.141 34.542 130.002 34.2413 130.002 33.86C130.002 33.5667 130.112 33.2073 130.332 32.782C130.566 32.342 131.021 31.946 131.696 31.594C132.385 31.2273 133.346 31.044 134.578 31.044C136.308 31.044 137.577 31.484 138.384 32.364C138.648 32.6573 138.824 32.9873 138.912 33.354C139.014 33.706 139.066 34.146 139.066 34.674L139.044 37.094C139.029 37.578 139.022 38.326 139.022 39.338C139.022 39.9833 139.088 40.4013 139.22 40.592C139.352 40.768 139.528 40.856 139.748 40.856C139.924 40.856 140.1 40.7973 140.276 40.68C140.466 40.548 140.635 40.3573 140.782 40.108C140.826 40.0347 140.877 39.998 140.936 39.998ZM134.05 41.054C134.71 41.054 135.34 40.8487 135.942 40.438C136.103 40.3207 136.184 40.1593 136.184 39.954C136.184 39.7193 136.176 39.5433 136.162 39.426L136.14 38.92L136.162 37.05C136.162 36.7713 136.044 36.632 135.81 36.632C135.736 36.632 135.678 36.6393 135.634 36.654C134.49 37.006 133.654 37.4313 133.126 37.93C132.612 38.4287 132.356 39.0227 132.356 39.712C132.356 40.1227 132.51 40.4527 132.818 40.702C133.126 40.9367 133.536 41.054 134.05 41.054ZM146.11 42.286C145.098 42.286 144.328 42 143.8 41.428C143.272 40.8413 142.993 39.9907 142.964 38.876V32.496C142.964 32.3493 142.92 32.2393 142.832 32.166C142.758 32.078 142.648 32.034 142.502 32.034H141.468C141.16 32.034 141.006 31.9093 141.006 31.66C141.006 31.4107 141.138 31.2567 141.402 31.198C142.355 30.9633 143.169 30.5307 143.844 29.9C144.533 29.2693 145.017 28.3527 145.296 27.15C145.354 26.8713 145.457 26.732 145.604 26.732C145.677 26.732 145.728 26.776 145.758 26.864C145.802 26.9373 145.824 27.0473 145.824 27.194V30.824C145.824 30.9707 145.86 31.088 145.934 31.176C146.022 31.2493 146.139 31.286 146.286 31.286H148.112C148.42 31.286 148.574 31.4107 148.574 31.66C148.574 31.9093 148.42 32.034 148.112 32.034H146.286C146.139 32.034 146.022 32.078 145.934 32.166C145.86 32.2393 145.824 32.3493 145.824 32.496L145.78 37.006C145.78 37.9887 145.787 38.5753 145.802 38.766C145.846 39.602 146 40.1813 146.264 40.504C146.542 40.812 146.909 40.966 147.364 40.966C147.657 40.966 147.914 40.9073 148.134 40.79C148.354 40.658 148.618 40.438 148.926 40.13C148.999 40.042 149.065 39.998 149.124 39.998C149.182 39.998 149.241 40.0273 149.3 40.086C149.373 40.1447 149.41 40.2033 149.41 40.262C149.41 40.2913 149.395 40.3353 149.366 40.394C148.911 41.0833 148.42 41.5747 147.892 41.868C147.364 42.1467 146.77 42.286 146.11 42.286ZM159.916 39.184C160.004 39.2427 160.048 39.316 160.048 39.404L160.026 39.536C159.688 40.2547 159.138 40.8927 158.376 41.45C157.628 42.0073 156.696 42.286 155.582 42.286C154.482 42.286 153.484 42.0367 152.59 41.538C151.71 41.0247 151.02 40.3427 150.522 39.492C150.038 38.6413 149.796 37.7247 149.796 36.742C149.796 35.8473 150.008 34.96 150.434 34.08C150.874 33.2 151.512 32.474 152.348 31.902C153.184 31.33 154.174 31.044 155.318 31.044C156.491 31.044 157.525 31.4253 158.42 32.188C159.314 32.936 159.879 33.9627 160.114 35.268V35.356C160.114 35.6347 159.967 35.774 159.674 35.774L153.316 35.818C153.008 35.818 152.854 35.9427 152.854 36.192V36.566C152.854 37.8127 153.125 38.898 153.668 39.822C154.225 40.7313 155.076 41.186 156.22 41.186C157.584 41.186 158.706 40.5407 159.586 39.25C159.63 39.1767 159.696 39.14 159.784 39.14C159.813 39.14 159.857 39.1547 159.916 39.184ZM155.252 31.616C154.841 31.616 154.416 31.814 153.976 32.21C153.536 32.606 153.213 33.3833 153.008 34.542V34.63C153.008 34.9233 153.154 35.07 153.448 35.07L156.814 35.026C156.96 35.026 157.07 34.9893 157.144 34.916C157.232 34.8427 157.276 34.74 157.276 34.608C157.276 33.6987 157.078 32.9727 156.682 32.43C156.286 31.8873 155.809 31.616 155.252 31.616ZM171.347 32.034C171.201 32.034 171.083 32.056 170.995 32.1C170.849 32.1587 170.775 32.254 170.775 32.386C170.775 32.4887 170.827 32.606 170.929 32.738C171.487 33.3687 171.765 34.0873 171.765 34.894C171.765 35.598 171.56 36.236 171.149 36.808C170.739 37.38 170.159 37.8347 169.411 38.172C168.678 38.4947 167.827 38.656 166.859 38.656C166.463 38.656 166.045 38.6193 165.605 38.546C165.547 38.5313 165.473 38.524 165.385 38.524C165.253 38.524 165.129 38.5607 165.011 38.634C164.762 38.7953 164.637 38.9347 164.637 39.052C164.637 39.184 164.725 39.294 164.901 39.382C165.077 39.47 165.451 39.5653 166.023 39.668C166.654 39.7707 167.424 39.9173 168.333 40.108C169.243 40.2987 169.998 40.4747 170.599 40.636C171.347 40.8267 171.949 41.12 172.403 41.516C172.858 41.8973 173.085 42.3813 173.085 42.968C173.085 43.7453 172.748 44.3833 172.073 44.882C171.413 45.3953 170.599 45.762 169.631 45.982C168.663 46.202 167.71 46.312 166.771 46.312C165.481 46.312 164.425 46.1727 163.603 45.894C162.797 45.63 162.21 45.3 161.843 44.904C161.491 44.508 161.315 44.1047 161.315 43.694C161.315 43.3127 161.484 42.9753 161.821 42.682C162.173 42.3887 162.694 42.11 163.383 41.846C163.559 41.7727 163.647 41.7067 163.647 41.648C163.647 41.56 163.559 41.4867 163.383 41.428C162.591 41.0907 162.195 40.6947 162.195 40.24C162.195 39.7267 162.804 39.1693 164.021 38.568C164.197 38.48 164.285 38.392 164.285 38.304C164.285 38.216 164.197 38.128 164.021 38.04C163.347 37.7027 162.811 37.27 162.415 36.742C162.034 36.214 161.843 35.6127 161.843 34.938C161.843 34.1753 162.078 33.5007 162.547 32.914C163.031 32.3127 163.647 31.8507 164.395 31.528C165.158 31.2053 165.943 31.044 166.749 31.044C167.864 31.044 168.861 31.2933 169.741 31.792C169.859 31.836 169.947 31.858 170.005 31.858C170.152 31.858 170.269 31.77 170.357 31.594C170.973 30.45 171.773 29.878 172.755 29.878C173.21 29.878 173.562 30.0247 173.811 30.318C174.075 30.6113 174.207 30.9267 174.207 31.264C174.207 31.6013 174.105 31.8947 173.899 32.144C173.694 32.3933 173.386 32.518 172.975 32.518C172.843 32.518 172.697 32.496 172.535 32.452C172.389 32.3933 172.249 32.3347 172.117 32.276C171.795 32.1147 171.538 32.034 171.347 32.034ZM166.749 38.128C167.556 38.128 168.128 37.7687 168.465 37.05C168.803 36.3167 168.971 35.5173 168.971 34.652C168.971 33.8893 168.788 33.1927 168.421 32.562C168.069 31.9167 167.534 31.594 166.815 31.594C166.317 31.594 165.906 31.7847 165.583 32.166C165.261 32.5327 165.026 32.98 164.879 33.508C164.733 34.036 164.659 34.5347 164.659 35.004C164.659 35.8253 164.85 36.5513 165.231 37.182C165.613 37.8127 166.119 38.128 166.749 38.128ZM169.257 42.792C168.905 42.6893 168.341 42.55 167.563 42.374C166.786 42.198 166.023 42.044 165.275 41.912C165.231 41.8973 165.165 41.89 165.077 41.89C164.931 41.89 164.791 41.934 164.659 42.022C163.911 42.5793 163.537 43.1 163.537 43.584C163.537 43.936 163.699 44.2733 164.021 44.596C164.344 44.9187 164.791 45.1827 165.363 45.388C165.935 45.5933 166.566 45.696 167.255 45.696C167.974 45.696 168.575 45.5933 169.059 45.388C169.558 45.1827 169.925 44.9407 170.159 44.662C170.409 44.3833 170.533 44.1267 170.533 43.892C170.533 43.6427 170.416 43.4227 170.181 43.232C169.947 43.0413 169.639 42.8947 169.257 42.792ZM186.724 31.286C186.826 31.286 186.878 31.3667 186.878 31.528C186.878 31.616 186.856 31.6747 186.812 31.704C186.768 31.7333 186.709 31.7553 186.636 31.77C186.562 31.7847 186.511 31.7993 186.482 31.814C186.115 31.902 185.792 32.0853 185.514 32.364C185.25 32.628 184.956 33.0973 184.634 33.772C184.106 34.8867 183.416 36.3607 182.566 38.194C181.715 40.0127 180.938 41.692 180.234 43.232C179.603 44.596 178.98 45.5567 178.364 46.114C177.748 46.686 177.11 46.972 176.45 46.972C175.702 46.972 175.144 46.8107 174.778 46.488C174.411 46.1653 174.228 45.806 174.228 45.41C174.228 45.0287 174.352 44.7207 174.602 44.486C174.851 44.2513 175.166 44.134 175.548 44.134C175.797 44.134 176.002 44.1633 176.164 44.222C176.34 44.2807 176.538 44.3687 176.758 44.486C176.948 44.6033 177.124 44.684 177.286 44.728C177.447 44.7867 177.638 44.816 177.858 44.816C178.136 44.816 178.378 44.6913 178.584 44.442C178.804 44.2073 179.06 43.804 179.354 43.232L179.904 42.088C179.962 41.9853 179.992 41.8753 179.992 41.758C179.992 41.67 179.97 41.5747 179.926 41.472C179.706 41.0027 179.412 40.3647 179.046 39.558C178.694 38.7513 178.268 37.8053 177.77 36.72C176.655 34.2267 176.068 32.9213 176.01 32.804C175.819 32.4227 175.628 32.1587 175.438 32.012C175.247 31.8653 174.968 31.792 174.602 31.792C174.499 31.792 174.448 31.704 174.448 31.528C174.448 31.3667 174.499 31.286 174.602 31.286H179.97C180.072 31.286 180.124 31.3667 180.124 31.528C180.124 31.6893 180.065 31.7773 179.948 31.792C179.64 31.8213 179.398 31.8947 179.222 32.012C179.06 32.1293 178.98 32.2687 178.98 32.43C178.98 32.5327 179.016 32.6793 179.09 32.87C179.295 33.3833 179.596 34.124 179.992 35.092C180.402 36.0453 180.813 36.9987 181.224 37.952C181.326 38.1427 181.429 38.238 181.532 38.238C181.664 38.238 181.774 38.1427 181.862 37.952L182.082 37.468C182.258 37.072 182.573 36.3753 183.028 35.378C183.497 34.366 183.768 33.7353 183.842 33.486C183.915 33.2953 183.952 33.1267 183.952 32.98C183.952 32.584 183.768 32.2833 183.402 32.078C183.035 31.8727 182.646 31.77 182.236 31.77C182.133 31.77 182.082 31.6893 182.082 31.528C182.082 31.3667 182.133 31.286 182.236 31.286H186.724Z" fill="#333333"/>
</svg>
