<svg width="57" height="71" viewBox="0 0 57 71" fill="none" xmlns="http://www.w3.org/2000/svg">
<path d="M49.8701 30.6423C59.3849 30.2458 59.3684 16.6839 49.8701 16.2875C45.0136 16.2214 41.4455 21.2596 43.0974 25.8188L39.7441 27.5367C38.4722 25.571 36.5229 24.1174 34.2929 23.4566L36.0935 14.2887C40.1736 14.52 43.6756 11.2162 43.659 7.1361C43.2626 -2.3787 29.7172 -2.3787 29.3208 7.1361C29.3208 10.2251 31.303 12.9342 34.1443 13.9088L32.3437 23.0767C29.0565 22.7794 25.8023 24.1669 23.754 26.7438L13.6775 20.2685C15.891 15.6102 12.323 10.0434 7.16914 10.093C3.22116 10.093 0 13.3141 0 17.2621C0 23.8861 8.34197 26.9421 12.6203 21.9369L22.6968 28.3957C20.9458 31.7325 21.3587 36.0604 23.7209 38.9842L19.426 43.1304C14.7843 39.4633 7.81337 42.8496 7.8464 48.7799C7.8464 52.7278 11.0676 55.949 15.0155 55.949C20.8301 55.982 24.2495 49.2259 20.8136 44.5511L25.1085 40.4049C27.5698 42.5027 31.0552 43.2626 34.1773 42.3541L40.1406 57.4357C37.9105 58.7076 36.5229 61.0533 36.5229 63.6632C36.9194 73.178 50.4648 73.178 50.8612 63.6632C50.9273 59.0876 46.4012 55.5525 41.9741 56.6923L36.0109 41.6107C40.4214 39.4468 42.5193 33.8304 40.6526 29.2712L44.0059 27.5533C45.344 29.5025 47.5079 30.6423 49.8701 30.6423ZM49.8701 18.2697C56.7419 18.5506 56.7584 28.3792 49.8701 28.66C47.9209 28.66 46.1534 27.5698 45.2448 25.8353C43.4773 22.449 46.0377 18.2202 49.8701 18.2697ZM31.303 7.15262C31.303 4.29487 33.6322 1.96573 36.4899 1.96573C43.3782 2.24655 43.3617 12.0587 36.4899 12.3395C33.6487 12.356 31.2865 9.97732 31.303 7.15262ZM7.16914 22.482C0.280819 22.2012 0.297338 12.3891 7.16914 12.1082C11.2327 12.0752 13.7601 16.7005 11.5301 20.1033C10.5885 21.59 8.95316 22.482 7.16914 22.482ZM15.0155 53.9998C8.12722 53.719 8.14374 43.9068 15.0155 43.626C16.4362 43.626 17.7577 44.1876 18.7488 45.2118C21.9204 48.4495 19.5582 54.0163 15.0155 53.9998ZM48.879 63.6963C48.5982 70.5846 38.786 70.5681 38.5052 63.6963C38.5052 61.5488 39.7937 59.6657 41.7759 58.8728C45.0962 57.5018 48.9285 60.0952 48.879 63.6963ZM34.5242 40.1736C29.3868 42.3541 23.5723 38.5217 23.5888 32.9219C23.5227 28.0488 28.2305 24.1834 32.9714 25.1911C40.5866 26.6943 41.6768 37.1011 34.5242 40.1736Z" fill="white"/>
<path d="M39.9892 5.89708C40.9143 4.97203 39.6258 3.58446 38.6347 4.45995C38.453 4.62514 35.397 7.4994 35.3144 7.582L34.4885 6.24398C33.7617 5.15374 32.1428 6.14486 32.8036 7.28466L34.2572 9.64684C34.4389 9.94418 34.7528 10.1259 35.0997 10.1259C35.3475 10.1259 35.5953 10.0268 35.777 9.86158L39.9892 5.89708Z" fill="#2562F5"/>
<path d="M47.0479 25.0094L47.6426 25.9674C47.8243 26.2648 48.1381 26.43 48.485 26.43C48.7328 26.43 48.9806 26.3309 49.1623 26.1657L53.3746 22.2342C54.2996 21.3092 53.0112 19.9216 52.02 20.7806L48.6832 23.8861L47.8738 22.5481C47.593 22.0855 46.9818 21.9369 46.5193 22.2177C46.0568 22.4985 45.9081 23.1097 46.1889 23.5722L47.0479 25.0094Z" fill="#2562F5"/>
<path d="M17.1639 46.1204L13.8436 49.2259L13.0342 47.9044C12.7534 47.4419 12.1422 47.2932 11.6631 47.5906C11.2006 47.8714 11.0519 48.4826 11.3493 48.9616L12.8029 51.3073C12.9846 51.6046 13.2985 51.7698 13.6454 51.7698C13.8932 51.7698 14.1409 51.6707 14.3227 51.5055L18.5184 47.5741C19.4435 46.649 18.155 45.2614 17.1639 46.1204Z" fill="#2562F5"/>
</svg>
