<svg width="73" height="73" viewBox="0 0 73 73" fill="none" xmlns="http://www.w3.org/2000/svg">
<path d="M71.1756 32.8495C72.1853 32.8495 73 32.0314 73 31.0251C73 30.0188 72.1853 29.2007 71.1756 29.2007H63.8746V21.8996H71.1756C72.1853 21.8996 73 21.0816 73 20.0753C73 19.069 72.1853 18.2509 71.1756 18.2509H63.8746V16.4265C63.8746 12.3977 60.5988 9.12544 56.5735 9.12544H54.7491V1.82439C54.7491 0.818082 53.9345 0 52.9247 0C51.915 0 51.1003 0.818073 51.1003 1.82439V9.12544H43.7993V1.82439C43.7993 0.818082 42.9846 0 41.9749 0C40.9652 0 40.1505 0.818073 40.1505 1.82439V9.12544H32.8495V1.82439C32.8495 0.818082 32.0314 0 31.0251 0C30.0188 0 29.2007 0.818073 29.2007 1.82439V9.12544H21.8997V1.82439C21.8997 0.818082 21.0816 0 20.0753 0C19.069 0 18.2509 0.818073 18.2509 1.82439V9.12544H16.4265C12.3977 9.12544 9.12544 12.4012 9.12544 16.4265V18.2509H1.82439C0.818082 18.2509 0 19.069 0 20.0753C0 21.0816 0.818073 21.8996 1.82439 21.8996H9.12544V29.2007H1.82439C0.818082 29.2007 0 30.0188 0 31.0251C0 32.0314 0.818073 32.8495 1.82439 32.8495H9.12544V40.1505H1.82439C0.818082 40.1505 0 40.9686 0 41.9749C0 42.9812 0.818073 43.7993 1.82439 43.7993H9.12544V51.1004H1.82439C0.818082 51.1004 0 51.9184 0 52.9247C0 53.931 0.818073 54.7491 1.82439 54.7491H9.12544V56.5735C9.12544 60.6023 12.4012 63.8746 16.4265 63.8746H18.2509V71.1756C18.2509 72.1819 19.069 73 20.0753 73C21.0816 73 21.8997 72.1819 21.8997 71.1756V63.8746H29.2007V71.1756C29.2007 72.1819 30.0188 73 31.0251 73C32.0314 73 32.8495 72.1819 32.8495 71.1756V63.8746H40.1505V71.1756C40.1505 72.1819 40.9652 73 41.9749 73C42.9846 73 43.7993 72.1819 43.7993 71.1756V63.8746H51.1003V71.1756C51.1003 72.1819 51.915 73 52.9247 73C53.9345 73 54.7491 72.1819 54.7491 71.1756V63.8746H56.5735C60.6023 63.8746 63.8746 60.5988 63.8746 56.5735V54.7491H71.1756C72.1853 54.7491 73 53.931 73 52.9247C73 51.9184 72.1853 51.1004 71.1756 51.1004H63.8746V43.7993H71.1756C72.1853 43.7993 73 42.9812 73 41.9749C73 40.9686 72.1853 40.1505 71.1756 40.1505H63.8746V32.8495H71.1756ZM28.2421 34.9204C28.1325 35.3174 27.7731 35.5913 27.3624 35.5913C26.9516 35.5913 26.5922 35.3174 26.4827 34.9204C25.2299 30.3816 24.3571 29.5087 19.8183 28.2559C19.4212 28.1464 19.1474 27.787 19.1474 27.3762C19.1474 26.9655 19.4212 26.6061 19.8183 26.4965C24.3571 25.2437 25.2299 24.3709 26.4827 19.8321C26.7018 19.0414 28.023 19.0414 28.2421 19.8321C29.4949 24.3709 30.3677 25.2437 34.9065 26.4965C35.3036 26.6061 35.5774 26.9655 35.5774 27.3762C35.5774 27.787 35.3036 28.1464 34.9065 28.2559C30.3677 29.5087 29.4949 30.3816 28.2421 34.9204ZM55.7928 43.7724C48.2247 45.8638 46.6533 47.4349 44.566 55.0026C44.4531 55.3997 44.0937 55.6735 43.6864 55.6735C43.279 55.6735 42.9162 55.3997 42.8067 55.0026C40.7153 47.4346 39.1441 45.8632 31.5764 43.7724C31.1794 43.6629 30.9056 43.3035 30.9056 42.8927C30.9056 42.482 31.1794 42.1226 31.5764 42.013C39.1411 39.9216 40.7159 38.3505 42.8067 30.7828C42.9196 30.3857 43.279 30.1119 43.6864 30.1119C44.0937 30.1119 44.4565 30.3857 44.566 30.7828C46.654 38.3474 48.2286 39.9223 55.7928 42.013C56.1898 42.1226 56.4636 42.482 56.4636 42.8927C56.4636 43.3035 56.1898 43.6629 55.7928 43.7724Z" fill="#333333"/>
</svg>
