<svg width="41" height="39" viewBox="0 0 41 39" fill="none" xmlns="http://www.w3.org/2000/svg">
<path id="growth" fill-rule="evenodd" clip-rule="evenodd" d="M40.332 3.56673V22.3718C40.332 20.4076 36.7502 18.8264 32.332 18.8264C30.8775 18.8264 29.5102 18.9965 28.332 19.2979C25.9393 19.9113 24.332 21.0529 24.332 22.3683V3.54545C24.332 1.58836 27.9138 0 32.332 0C36.7502 0 40.332 1.58836 40.332 3.54545V3.56673ZM28.332 35.4545C28.332 37.4116 24.7502 39 20.332 39C15.9138 39 12.332 37.4116 12.332 35.4545C12.332 33.4939 15.9138 31.9091 20.332 31.9091C24.7502 31.9091 28.332 33.4939 28.332 35.4545ZM16.332 13.5578C13.9393 14.1712 12.332 15.3164 12.332 16.6282V25.8393C11.1538 25.5379 9.78658 25.3642 8.33203 25.3642C3.91385 25.3642 0.332031 26.9525 0.332031 28.9096V10.0833C0.332031 8.13327 3.91385 6.53782 8.33203 6.53782C12.7502 6.53782 16.332 8.13327 16.332 10.0833V13.5578Z" fill="black"/>
</svg>
