<svg width="482" height="475" viewBox="0 0 482 475" fill="none" xmlns="http://www.w3.org/2000/svg">
<mask id="mask0_148_99" style="mask-type:luminance" maskUnits="userSpaceOnUse" x="0" y="0" width="482" height="475">
<path d="M481.44 0.894775H0.130859V475H481.44V0.894775Z" fill="white"/>
</mask>
<g mask="url(#mask0_148_99)">
<path d="M481.44 0.894775H0.130859V475H481.44V0.894775Z" fill="black"/>
<path d="M58.2577 105.809C52.766 105.809 47.3049 104.605 41.8747 102.198C36.4444 99.7902 31.9091 96.0233 28.2684 90.9007C24.6895 85.7152 22.9 79.2333 22.9 71.455C22.9 65.6509 24.2575 59.9431 26.9726 54.3242C29.6877 48.6461 33.5443 44.0162 38.5425 40.4344C43.6026 36.8527 49.4027 35.0637 55.9437 35.0637C57.7331 35.0637 59.4917 35.2785 61.2196 35.7119C62.9475 36.1452 64.8602 36.7305 66.9583 37.4713C67.4518 37.5935 68.2849 37.8416 69.4574 38.212C70.6299 38.5824 71.5555 38.7677 72.2342 38.7677C73.2831 38.7677 74.3938 38.3973 75.5663 37.6565C75.9984 37.4083 76.3994 37.2861 76.7696 37.2861C77.4483 37.2861 77.8803 37.7194 78.0654 38.5825L81.1199 51.8241L81.305 52.75C81.305 53.0575 81.0581 53.3353 80.5645 53.5835C80.4413 53.6464 80.2869 53.676 80.1017 53.676C79.7933 53.676 79.4846 53.4909 79.1762 53.1205C77.2017 50.2795 75.2579 47.8423 73.3449 45.8051C71.4937 43.705 69.1797 41.9456 66.4029 40.527C63.688 39.0454 60.541 38.3047 56.9619 38.3047C51.7167 38.3047 47.6441 40.4641 44.744 44.7866C41.9054 49.0461 40.0235 53.6761 39.0979 58.6764C38.2341 63.6137 37.802 67.751 37.802 71.0846C37.802 77.5665 38.8509 83.1224 40.9491 87.7523C43.0472 92.3193 45.7622 95.7788 49.0943 98.1234C52.4264 100.409 55.9744 101.55 59.7387 101.55C64.7987 101.55 68.9328 100.316 72.1416 97.8456C75.4119 95.3158 78.3124 92.0415 80.8422 88.0301C81.2743 87.3523 81.6134 86.919 81.8604 86.7338C82.1073 86.6115 82.2613 86.5486 82.3232 86.5486C82.4465 86.5486 82.6627 86.6412 82.9711 86.8264C83.3413 87.0745 83.5265 87.3819 83.5265 87.7523L83.3413 88.308C81.1199 92.7527 77.9422 96.7974 73.8077 100.438C69.7351 104.02 64.5517 105.809 58.2577 105.809ZM112.79 105.809C108.162 105.809 104.028 104.698 100.387 102.476C96.8084 100.253 94.0316 97.3197 92.0571 93.6787C90.0826 90.0377 89.0952 86.1782 89.0952 82.1038C89.0952 77.9665 90.0826 74.1107 92.0571 70.529C94.0316 66.888 96.8084 63.9841 100.387 61.8247C104.028 59.6023 108.162 58.4912 112.79 58.4912C117.418 58.4912 121.522 59.6023 125.101 61.8247C128.741 63.9841 131.549 66.888 133.524 70.529C135.498 74.1107 136.486 77.9665 136.486 82.1038C136.486 86.1782 135.498 90.0377 133.524 93.6787C131.549 97.3197 128.741 100.253 125.101 102.476C121.522 104.698 117.418 105.809 112.79 105.809ZM112.79 103.494C116.37 103.494 119.115 101.427 121.028 97.29C123.003 93.0934 123.99 88.0302 123.99 82.1038C123.99 76.1146 123.003 71.0846 121.028 67.0103C119.115 62.9359 116.37 60.8987 112.79 60.8987C109.211 60.8987 106.466 62.9359 104.553 67.0103C102.64 71.0846 101.683 76.1146 101.683 82.1038C101.683 88.0302 102.64 93.0934 104.553 97.29C106.466 101.427 109.211 103.494 112.79 103.494ZM173.127 58.3985C175.781 58.3985 177.909 59.1394 179.514 60.6209C181.18 62.1025 182.013 63.7989 182.013 65.7139C182.013 67.1954 181.488 68.4289 180.439 69.4178C179.452 70.4068 178.187 70.8994 176.644 70.8994C175.595 70.8994 174.67 70.6846 173.867 70.2512C173.065 69.7586 172.14 69.0771 171.091 68.214C170.227 67.4103 169.455 66.825 168.777 66.4546C168.098 66.0213 167.358 65.8064 166.555 65.8064C165.259 65.8064 164.025 66.4547 162.853 67.751C161.742 69.0474 160.786 70.8068 159.984 73.0292C159.737 73.8329 159.613 74.633 159.613 75.4367V97.8456C159.613 99.7606 160.045 101.024 160.909 101.642C161.773 102.198 163.069 102.476 164.797 102.476H165.815C166.247 102.476 166.463 102.846 166.463 103.587C166.463 104.265 166.247 104.605 165.815 104.605H141.472C141.04 104.605 140.824 104.265 140.824 103.587C140.824 102.846 141.04 102.476 141.472 102.476H142.397C144.125 102.476 145.421 102.198 146.285 101.642C147.149 101.024 147.581 99.7606 147.581 97.8456V69.2326C147.581 67.2584 147.149 65.962 146.285 65.3434C145.421 64.6656 143.971 64.2953 141.934 64.2323C141.626 64.1693 141.41 63.9841 141.287 63.6767C141.163 63.3693 141.101 63.0581 141.101 62.7507C141.101 62.3803 141.287 62.1655 141.657 62.1025C142.212 61.9173 147.488 60.8357 157.484 58.8615H157.947C158.441 58.8615 158.842 59.0171 159.151 59.3245C159.459 59.632 159.613 60.0653 159.613 60.6209V65.0657C159.613 65.8694 159.86 66.2694 160.354 66.2694C160.847 66.2694 161.526 65.7435 162.39 64.6953C163.933 62.7211 165.599 61.1765 167.388 60.0654C169.24 58.9542 171.153 58.3985 173.127 58.3985ZM237.232 102.476C237.664 102.476 237.88 102.846 237.88 103.587C237.88 104.265 237.664 104.605 237.232 104.605H212.982C212.55 104.605 212.334 104.265 212.334 103.587C212.334 102.846 212.55 102.476 212.982 102.476H214C215.666 102.476 216.931 102.198 217.795 101.642C218.659 101.024 219.091 99.7606 219.091 97.8456C219.214 91.7341 219.276 86.393 219.276 81.8261C219.276 78.6147 219.214 75.8368 219.091 73.4922C218.905 70.2809 218.258 67.751 217.147 65.8991C216.098 64.0471 214.278 63.1211 211.686 63.1211C208.292 63.1211 205.207 65.2508 202.43 69.5104C201.998 70.3141 201.782 71.1142 201.782 71.918V97.8456C201.782 99.7606 202.214 101.024 203.078 101.642C203.942 102.198 205.238 102.476 206.965 102.476H207.983C208.416 102.476 208.631 102.846 208.631 103.587C208.631 104.265 208.416 104.605 207.983 104.605H183.64C183.147 104.605 182.9 104.265 182.9 103.587C182.9 102.846 183.147 102.476 183.64 102.476H184.566C186.294 102.476 187.59 102.198 188.453 101.642C189.318 101.024 189.749 99.7606 189.749 97.8456V69.3252C189.749 67.2881 189.318 65.962 188.453 65.3434C187.59 64.6656 186.139 64.2953 184.103 64.2323C183.548 64.1693 183.27 63.6767 183.27 62.7507C183.27 62.3803 183.455 62.1655 183.825 62.1025C184.381 61.9173 189.657 60.8357 199.653 58.8615H200.116C200.61 58.8615 201.011 59.0171 201.319 59.3245C201.628 59.632 201.782 60.0653 201.782 60.6209V63.1211C201.782 63.6137 201.844 64.0175 201.967 64.3249C202.152 64.573 202.368 64.6953 202.615 64.6953C203.109 64.6953 203.572 64.4175 204.003 63.8619C207.397 60.2802 211.316 58.4912 215.758 58.4912C219.091 58.4912 221.898 59.2023 224.181 60.6209C226.465 61.9803 228.161 63.7397 229.272 65.8991C230.445 68.0585 231.062 70.3438 231.123 72.7513V97.8456C231.123 99.7606 231.555 101.024 232.419 101.642C233.283 102.198 234.579 102.476 236.307 102.476H237.232ZM284.846 92.7527C285.217 93.0009 285.402 93.3083 285.402 93.6787L285.309 94.2342C283.89 97.2604 281.576 99.9457 278.367 102.29C275.22 104.635 271.302 105.809 266.612 105.809C261.984 105.809 257.788 104.761 254.024 102.661C250.322 100.501 247.422 97.6308 245.323 94.049C243.287 90.4673 242.269 86.6115 242.269 82.4742C242.269 78.7073 243.164 74.9737 244.953 71.2698C246.804 67.5658 249.489 64.5101 253.006 62.1025C256.523 59.6949 260.688 58.4912 265.501 58.4912C270.438 58.4912 274.788 60.095 278.552 63.3063C282.317 66.4547 284.692 70.7772 285.679 76.2701V76.6405C285.679 77.8146 285.062 78.3999 283.828 78.3999L257.079 78.5851C255.783 78.5851 255.135 79.111 255.135 80.1592V81.7334C255.135 86.9819 256.276 91.5489 258.559 95.438C260.904 99.2642 264.483 101.179 269.296 101.179C275.035 101.179 279.756 98.4642 283.458 93.0305C283.643 92.723 283.921 92.5675 284.291 92.5675C284.414 92.5675 284.599 92.6305 284.846 92.7527ZM265.224 60.8987C263.496 60.8987 261.706 61.7321 259.855 63.3989C258.004 65.0657 256.646 68.3362 255.783 73.2143V73.5848C255.783 74.8182 256.4 75.4367 257.634 75.4367L271.795 75.2515C272.413 75.2515 272.875 75.0959 273.184 74.7885C273.554 74.4811 273.739 74.0478 273.739 73.4922C273.739 69.666 272.906 66.6102 271.24 64.3249C269.574 62.0395 267.568 60.8987 265.224 60.8987ZM292.216 104.605C291.722 104.605 291.475 104.235 291.475 103.494C291.475 102.816 291.722 102.476 292.216 102.476H293.141C294.931 102.476 296.319 102.198 297.306 101.642C298.355 101.024 298.88 99.7606 298.88 97.8456L298.787 45.7126C298.787 43.7384 298.355 42.442 297.491 41.8234C296.689 41.1456 295.27 40.7419 293.234 40.6196C292.864 40.6196 292.617 40.4641 292.493 40.1566C292.37 39.8492 292.308 39.5381 292.308 39.2307C292.308 38.8603 292.493 38.6454 292.864 38.5825C293.912 38.275 297.091 37.6268 302.397 36.6379L308.784 35.3415H309.247C310.357 35.3415 310.913 35.9267 310.913 37.1008V97.8456C310.913 99.7606 311.406 101.024 312.394 101.642C313.381 102.198 314.769 102.476 316.559 102.476H317.577C318.009 102.476 318.225 102.816 318.225 103.494C318.225 104.235 318.009 104.605 317.577 104.605H292.216ZM322.995 104.605C322.502 104.605 322.255 104.235 322.255 103.494C322.255 102.816 322.502 102.476 322.995 102.476H323.921C325.71 102.476 327.099 102.198 328.086 101.642C329.135 101.024 329.66 99.7606 329.66 97.8456L329.567 45.7126C329.567 43.7384 329.135 42.442 328.271 41.8234C327.469 41.1456 326.05 40.7419 324.013 40.6196C323.643 40.6196 323.396 40.4641 323.273 40.1566C323.15 39.8492 323.088 39.5381 323.088 39.2307C323.088 38.8603 323.273 38.6454 323.643 38.5825C324.692 38.275 327.87 37.6268 333.177 36.6379L339.563 35.3415H340.026C341.137 35.3415 341.692 35.9267 341.692 37.1008V97.8456C341.692 99.7606 342.186 101.024 343.173 101.642C344.161 102.198 345.549 102.476 347.338 102.476H348.357C348.789 102.476 349.005 102.816 349.005 103.494C349.005 104.235 348.789 104.605 348.357 104.605H322.995ZM23.3628 204.612C23.116 204.612 22.9308 204.519 22.8074 204.334C22.7457 204.149 22.7148 203.871 22.7148 203.501C22.7148 202.882 22.9308 202.575 23.3628 202.575H24.3809C26.6023 202.575 28.4535 202.049 29.9345 201.001C31.4154 199.889 32.1559 197.76 32.1559 194.611V146.09C32.1559 142.941 31.4154 140.841 29.9345 139.793C28.4535 138.682 26.6023 138.126 24.3809 138.126H23.3628C23.116 138.126 22.9308 138.033 22.8074 137.848C22.7457 137.663 22.7148 137.385 22.7148 137.015V136.83C22.7148 136.581 22.9 136.396 23.2702 136.274C23.6404 136.152 24.0416 136.089 24.4735 136.089C28.4227 135.967 34.655 135.904 43.1705 135.904C49.7115 135.904 54 135.967 56.0363 136.089C60.9727 136.396 65.9401 137.756 70.9384 140.163C75.9366 142.571 80.1325 146.304 83.5265 151.368C86.9819 156.368 88.7098 162.694 88.7098 170.35C88.7098 178.006 86.9819 184.362 83.5265 189.426C80.1325 194.426 75.9366 198.13 70.9384 200.538C65.9401 202.945 60.9727 204.304 56.0363 204.612C54.0618 204.734 49.8655 204.797 43.4482 204.797C37.4011 204.797 30.7058 204.734 23.3628 204.612ZM53.4446 201.834C56.7767 201.834 60.0163 200.971 63.1634 199.241C66.3104 197.511 68.9639 194.304 71.1235 189.611C73.3449 184.918 74.4556 178.499 74.4556 170.35C74.4556 162.202 73.3449 155.783 71.1235 151.09C68.9639 146.397 66.3104 143.189 63.1634 141.46C60.0163 139.73 56.7767 138.867 53.4446 138.867H52.7967C49.9581 138.867 47.9836 139.3 46.8729 140.163C45.7622 141.026 45.2068 142.541 45.2068 144.701V196C45.2068 198.223 45.7622 199.767 46.8729 200.63C47.9836 201.434 49.9581 201.834 52.7967 201.834H53.4446ZM144.023 196.185C144.208 196.185 144.362 196.248 144.485 196.371C144.671 196.493 144.763 196.678 144.763 196.926L144.671 197.389C143.93 199.734 142.542 201.712 140.505 203.315C138.469 204.86 136.279 205.63 133.934 205.63C129.985 205.63 127.239 204.212 125.696 201.371C125.326 200.693 124.894 200.352 124.4 200.352C123.968 200.352 123.567 200.508 123.197 200.815C120.914 202.482 118.445 203.749 115.792 204.612C113.139 205.475 110.516 205.908 107.924 205.908C104.037 205.908 100.982 205.012 98.761 203.223C96.6014 201.371 95.5214 198.841 95.5214 195.63C95.5214 190.815 98.2367 186.989 103.667 184.148C105.148 183.407 106.783 182.822 108.572 182.388C110.362 181.896 112.614 181.433 115.329 180.999L122.364 179.518C123.474 179.21 124.03 178.469 124.03 177.295V174.888C124.03 171.121 123.937 168.498 123.752 167.017C123.567 165.472 123.104 164.209 122.364 163.22C121.13 161.739 119.494 160.998 117.458 160.998C115.916 160.998 114.558 161.491 113.385 162.479C112.275 163.468 111.349 165.535 110.609 168.684C110.053 170.969 109.159 172.665 107.924 173.777C106.752 174.888 105.395 175.443 103.852 175.443C102.309 175.443 100.952 175.01 99.7792 174.147C98.607 173.221 98.0205 171.954 98.0205 170.35C98.0205 169.117 98.4833 167.602 99.4089 165.813C100.396 163.961 102.309 162.294 105.148 160.813C108.048 159.268 112.09 158.498 117.273 158.498C124.554 158.498 129.892 160.35 133.286 164.054C134.396 165.287 135.137 166.676 135.507 168.221C135.939 169.702 136.155 171.554 136.155 173.777L136.062 183.962C136.001 186 135.97 189.148 135.97 193.407C135.97 196.122 136.248 197.882 136.803 198.686C137.358 199.426 138.099 199.797 139.024 199.797C139.765 199.797 140.505 199.549 141.246 199.056C142.048 198.5 142.758 197.697 143.375 196.648C143.56 196.341 143.776 196.185 144.023 196.185ZM115.051 200.63C117.828 200.63 120.482 199.767 123.012 198.037C123.691 197.545 124.03 196.863 124.03 196C124.03 195.011 123.999 194.27 123.937 193.778L123.845 191.648L123.937 183.777C123.937 182.603 123.444 182.018 122.456 182.018C122.148 182.018 121.901 182.047 121.716 182.11C116.903 183.592 113.385 185.381 111.164 187.481C109.004 189.581 107.924 192.081 107.924 194.982C107.924 196.711 108.572 198.1 109.868 199.149C111.164 200.137 112.892 200.63 115.051 200.63ZM165.79 205.816C161.532 205.816 158.293 204.612 156.071 202.204C153.85 199.734 152.678 196.156 152.554 191.463V164.609C152.554 163.991 152.369 163.528 151.999 163.22C151.69 162.85 151.227 162.665 150.61 162.665H146.26C144.964 162.665 144.316 162.139 144.316 161.091C144.316 160.042 144.872 159.394 145.982 159.146C149.993 158.157 153.418 156.338 156.256 153.683C159.157 151.027 161.193 147.171 162.365 142.108C162.612 140.934 163.044 140.348 163.661 140.348C163.97 140.348 164.186 140.534 164.309 140.904C164.494 141.211 164.587 141.674 164.587 142.293V157.572C164.587 158.19 164.741 158.683 165.05 159.053C165.42 159.361 165.914 159.516 166.53 159.516H174.213C175.509 159.516 176.157 160.042 176.157 161.091C176.157 162.139 175.509 162.665 174.213 162.665H166.53C165.914 162.665 165.42 162.85 165.05 163.22C164.741 163.528 164.587 163.991 164.587 164.609L164.402 183.592C164.402 187.729 164.433 190.196 164.494 191C164.679 194.519 165.327 196.956 166.438 198.315C167.61 199.612 169.153 200.26 171.066 200.26C172.3 200.26 173.38 200.012 174.305 199.519C175.231 198.963 176.342 198.037 177.638 196.741C177.946 196.371 178.224 196.185 178.471 196.185C178.718 196.185 178.965 196.308 179.211 196.556C179.52 196.804 179.674 197.048 179.674 197.297C179.674 197.419 179.612 197.604 179.489 197.852C177.576 200.752 175.509 202.823 173.287 204.056C171.066 205.23 168.567 205.816 165.79 205.816ZM230.078 196.185C230.263 196.185 230.417 196.248 230.541 196.371C230.726 196.493 230.818 196.678 230.818 196.926L230.726 197.389C229.985 199.734 228.597 201.712 226.561 203.315C224.524 204.86 222.334 205.63 219.989 205.63C216.039 205.63 213.294 204.212 211.751 201.371C211.381 200.693 210.949 200.352 210.455 200.352C210.023 200.352 209.622 200.508 209.252 200.815C206.969 202.482 204.501 203.749 201.847 204.612C199.194 205.475 196.571 205.908 193.98 205.908C190.092 205.908 187.038 205.012 184.816 203.223C182.657 201.371 181.577 198.841 181.577 195.63C181.577 190.815 184.292 186.989 189.722 184.148C191.203 183.407 192.838 182.822 194.627 182.388C196.417 181.896 198.669 181.433 201.384 180.999L208.419 179.518C209.53 179.21 210.085 178.469 210.085 177.295V174.888C210.085 171.121 209.992 168.498 209.807 167.017C209.622 165.472 209.159 164.209 208.419 163.22C207.185 161.739 205.55 160.998 203.513 160.998C201.97 160.998 200.613 161.491 199.441 162.479C198.33 163.468 197.404 165.535 196.664 168.684C196.108 170.969 195.214 172.665 193.98 173.777C192.807 174.888 191.45 175.443 189.907 175.443C188.364 175.443 187.007 175.01 185.834 174.147C184.662 173.221 184.076 171.954 184.076 170.35C184.076 169.117 184.539 167.602 185.464 165.813C186.452 163.961 188.364 162.294 191.203 160.813C194.103 159.268 198.145 158.498 203.328 158.498C210.61 158.498 215.947 160.35 219.341 164.054C220.452 165.287 221.192 166.676 221.562 168.221C221.994 169.702 222.21 171.554 222.21 173.777L222.118 183.962C222.056 186 222.025 189.148 222.025 193.407C222.025 196.122 222.303 197.882 222.858 198.686C223.414 199.426 224.154 199.797 225.08 199.797C225.82 199.797 226.561 199.549 227.301 199.056C228.103 198.5 228.813 197.697 229.43 196.648C229.615 196.341 229.831 196.185 230.078 196.185ZM201.107 200.63C203.883 200.63 206.537 199.767 209.067 198.037C209.745 197.545 210.085 196.863 210.085 196C210.085 195.011 210.054 194.27 209.992 193.778L209.9 191.648L209.992 183.777C209.992 182.603 209.499 182.018 208.511 182.018C208.203 182.018 207.956 182.047 207.771 182.11C202.958 183.592 199.441 185.381 197.219 187.481C195.06 189.581 193.98 192.081 193.98 194.982C193.98 196.711 194.627 198.1 195.923 199.149C197.219 200.137 198.947 200.63 201.107 200.63ZM52.1488 305.822C47.6441 305.822 42.3682 304.589 36.3211 302.118C35.5188 301.748 34.7476 301.563 34.0071 301.563C32.8347 301.563 31.4154 302.211 29.7494 303.507C29.194 303.941 28.7621 304.155 28.4535 304.155C27.7748 304.155 27.3428 303.692 27.1577 302.766L23.5479 287.302L23.3628 286.377C23.3628 286.254 23.4245 286.128 23.5479 286.006C23.733 285.884 23.8873 285.791 24.0107 285.728C24.1958 285.665 24.3192 285.606 24.3809 285.543C24.5044 285.48 24.6895 285.451 24.9363 285.451C25.1831 285.451 25.5225 285.699 25.9544 286.191C29.1015 290.636 32.7113 294.37 36.7839 297.396C40.8565 300.359 45.6389 301.841 51.1306 301.841C55.0799 301.841 58.2577 300.852 60.6642 298.877C63.0708 296.84 64.2741 293.94 64.2741 290.173C64.2741 285.48 61.6517 282.054 56.4065 279.895C54 278.846 50.9762 277.765 47.3357 276.654C46.7185 276.468 45.1761 275.942 42.7077 275.079C40.2393 274.216 38.049 273.29 36.136 272.302C32.6804 270.512 30.0888 268.198 28.361 265.357C26.6332 262.516 25.7693 259.275 25.7693 255.634C25.7693 252.734 26.4481 249.707 27.8056 246.559C29.1632 243.411 31.508 240.725 34.8401 238.503C38.2341 236.218 42.677 235.077 48.1687 235.077C50.1432 235.077 52.0255 235.292 53.8148 235.725C55.666 236.158 57.8875 236.836 60.4791 237.762C61.528 238.133 62.3921 238.318 63.0708 238.318C64.3048 238.318 65.4466 237.884 66.4955 237.021C66.989 236.588 67.4518 236.373 67.8839 236.373C68.5011 236.373 68.902 236.773 69.0872 237.577L73.0672 251.189C73.0672 251.311 73.098 251.53 73.1598 251.837C73.2216 252.085 73.1598 252.3 72.9747 252.485L72.4193 252.763C72.0491 252.885 71.7714 252.948 71.5863 252.948C71.2779 252.948 70.9691 252.734 70.6607 252.3C69.9202 251.067 68.5936 249.4 66.6806 247.3C64.7676 245.14 62.1759 243.133 58.9056 241.281C55.6353 239.366 51.9944 238.41 47.9836 238.41C44.4663 238.41 41.7514 239.122 39.8384 240.54C37.9872 241.959 36.7532 243.533 36.136 245.263C35.5188 246.992 35.2104 248.504 35.2104 249.8C35.2104 251.652 35.6732 253.319 36.5988 254.8C37.5244 256.282 38.882 257.515 40.6714 258.504C42.3375 259.43 44.6207 260.386 47.5208 261.375C50.4827 262.364 52.2413 262.949 52.7967 263.134C53.599 263.382 55.2651 263.938 57.7949 264.801C60.3247 265.664 62.4536 266.497 64.1815 267.301C72.5119 271.127 76.677 276.902 76.677 284.617C76.677 288.569 75.7207 292.147 73.8077 295.359C71.8947 298.57 69.0872 301.129 65.3848 303.044C61.6824 304.896 57.2703 305.822 52.1488 305.822ZM101.295 305.822C97.0372 305.822 93.7976 304.618 91.5762 302.211C89.3547 299.74 88.1826 296.162 88.0589 291.469V264.616C88.0589 263.997 87.8738 263.534 87.5036 263.227C87.1951 262.856 86.7323 262.671 86.1152 262.671H81.7649C80.469 262.671 79.8211 262.145 79.8211 261.097C79.8211 260.049 80.3765 259.401 81.4872 259.153C85.4983 258.164 88.923 256.345 91.7613 253.689C94.6617 251.033 96.698 247.178 97.8702 242.114C98.1172 240.94 98.5492 240.355 99.166 240.355C99.4748 240.355 99.6907 240.54 99.814 240.911C99.9991 241.218 100.092 241.681 100.092 242.3V257.578C100.092 258.197 100.246 258.69 100.554 259.06C100.925 259.367 101.419 259.523 102.035 259.523H109.718C111.014 259.523 111.662 260.049 111.662 261.097C111.662 262.145 111.014 262.671 109.718 262.671H102.035C101.419 262.671 100.925 262.856 100.554 263.227C100.246 263.534 100.092 263.997 100.092 264.616L99.9065 283.599C99.9065 287.736 99.9376 290.203 99.9991 291.006C100.184 294.525 100.832 296.962 101.943 298.322C103.115 299.618 104.658 300.266 106.571 300.266C107.805 300.266 108.885 300.018 109.81 299.526C110.736 298.97 111.847 298.044 113.143 296.748C113.451 296.377 113.729 296.192 113.976 296.192C114.223 296.192 114.469 296.314 114.716 296.562C115.025 296.811 115.179 297.055 115.179 297.303C115.179 297.425 115.117 297.611 114.994 297.859C113.081 300.759 111.014 302.829 108.792 304.063C106.571 305.237 104.072 305.822 101.295 305.822ZM148.089 258.412C150.742 258.412 152.871 259.153 154.476 260.634C156.142 262.116 156.975 263.812 156.975 265.727C156.975 267.209 156.45 268.442 155.401 269.431C154.414 270.42 153.149 270.913 151.606 270.913C150.557 270.913 149.632 270.698 148.829 270.264C148.027 269.772 147.102 269.09 146.053 268.227C145.189 267.423 144.417 266.838 143.739 266.468C143.06 266.034 142.32 265.82 141.517 265.82C140.221 265.82 138.987 266.468 137.815 267.764C136.704 269.061 135.748 270.82 134.945 273.042C134.699 273.846 134.575 274.646 134.575 275.45V297.859C134.575 299.774 135.007 301.037 135.871 301.655C136.735 302.211 138.031 302.489 139.759 302.489H140.777C141.209 302.489 141.425 302.859 141.425 303.6C141.425 304.278 141.209 304.618 140.777 304.618H116.434C116.002 304.618 115.786 304.278 115.786 303.6C115.786 302.859 116.002 302.489 116.434 302.489H117.359C119.087 302.489 120.383 302.211 121.247 301.655C122.11 301.037 122.543 299.774 122.543 297.859V269.246C122.543 267.272 122.11 265.975 121.247 265.357C120.383 264.679 118.933 264.308 116.896 264.245C116.588 264.182 116.372 263.997 116.248 263.69C116.125 263.382 116.063 263.071 116.063 262.764C116.063 262.393 116.248 262.179 116.619 262.116C117.174 261.93 122.45 260.849 132.446 258.875H132.909C133.403 258.875 133.804 259.03 134.112 259.338C134.421 259.645 134.575 260.078 134.575 260.634V265.079C134.575 265.883 134.822 266.283 135.316 266.283C135.809 266.283 136.488 265.757 137.352 264.708C138.895 262.734 140.561 261.19 142.35 260.079C144.201 258.967 146.114 258.412 148.089 258.412ZM207.751 296.192C207.936 296.192 208.091 296.255 208.214 296.377C208.399 296.499 208.492 296.685 208.492 296.933L208.399 297.396C207.659 299.74 206.27 301.718 204.234 303.322C202.198 304.867 200.007 305.637 197.662 305.637C193.713 305.637 190.967 304.218 189.425 301.378C189.054 300.7 188.623 300.359 188.129 300.359C187.697 300.359 187.296 300.515 186.925 300.822C184.643 302.489 182.174 303.755 179.521 304.618C176.868 305.481 174.245 305.915 171.653 305.915C167.766 305.915 164.711 305.018 162.49 303.229C160.33 301.378 159.25 298.848 159.25 295.636C159.25 290.821 161.965 286.995 167.395 284.154C168.876 283.413 170.512 282.828 172.301 282.395C174.091 281.902 176.343 281.439 179.058 281.006L186.092 279.524C187.203 279.217 187.758 278.476 187.758 277.302V274.894C187.758 271.127 187.666 268.505 187.481 267.023C187.296 265.479 186.833 264.216 186.092 263.227C184.858 261.745 183.223 261.005 181.187 261.005C179.644 261.005 178.287 261.497 177.114 262.486C176.003 263.475 175.078 265.542 174.337 268.69C173.782 270.976 172.887 272.672 171.653 273.783C170.481 274.894 169.123 275.45 167.58 275.45C166.038 275.45 164.68 275.016 163.508 274.153C162.336 273.227 161.749 271.961 161.749 270.357C161.749 269.124 162.212 267.609 163.138 265.82C164.125 263.968 166.038 262.301 168.876 260.819C171.777 259.275 175.818 258.504 181.002 258.504C188.283 258.504 193.621 260.356 197.014 264.06C198.125 265.294 198.866 266.683 199.236 268.227C199.668 269.709 199.884 271.561 199.884 273.783L199.791 283.969C199.73 286.006 199.699 289.155 199.699 293.414C199.699 296.129 199.976 297.888 200.532 298.692C201.087 299.433 201.828 299.803 202.753 299.803C203.494 299.803 204.234 299.555 204.975 299.063C205.777 298.507 206.487 297.703 207.103 296.655C207.289 296.348 207.505 296.192 207.751 296.192ZM178.78 300.637C181.557 300.637 184.21 299.774 186.74 298.044C187.419 297.551 187.758 296.87 187.758 296.007C187.758 295.018 187.728 294.277 187.666 293.784L187.573 291.655L187.666 283.784C187.666 282.61 187.172 282.024 186.185 282.024C185.877 282.024 185.63 282.054 185.444 282.117C180.631 283.599 177.114 285.388 174.893 287.488C172.733 289.588 171.653 292.088 171.653 294.988C171.653 296.718 172.301 298.107 173.597 299.155C174.893 300.144 176.621 300.637 178.78 300.637ZM229.519 305.822C225.261 305.822 222.021 304.618 219.8 302.211C217.579 299.74 216.406 296.162 216.283 291.469V264.616C216.283 263.997 216.098 263.534 215.727 263.227C215.419 262.856 214.956 262.671 214.339 262.671H209.989C208.693 262.671 208.045 262.145 208.045 261.097C208.045 260.049 208.6 259.401 209.711 259.153C213.722 258.164 217.147 256.345 219.985 253.689C222.886 251.033 224.922 247.178 226.094 242.114C226.341 240.94 226.773 240.355 227.39 240.355C227.699 240.355 227.914 240.54 228.038 240.911C228.223 241.218 228.315 241.681 228.315 242.3V257.578C228.315 258.197 228.47 258.69 228.778 259.06C229.148 259.367 229.642 259.523 230.259 259.523H237.942C239.237 259.523 239.885 260.049 239.885 261.097C239.885 262.145 239.237 262.671 237.942 262.671H230.259C229.642 262.671 229.148 262.856 228.778 263.227C228.47 263.534 228.315 263.997 228.315 264.616L228.13 283.599C228.13 287.736 228.161 290.203 228.223 291.006C228.408 294.525 229.056 296.962 230.167 298.322C231.339 299.618 232.882 300.266 234.795 300.266C236.029 300.266 237.109 300.018 238.034 299.526C238.96 298.97 240.071 298.044 241.366 296.748C241.675 296.377 241.953 296.192 242.199 296.192C242.446 296.192 242.693 296.314 242.94 296.562C243.249 296.811 243.403 297.055 243.403 297.303C243.403 297.425 243.341 297.611 243.218 297.859C241.305 300.759 239.237 302.829 237.016 304.063C234.795 305.237 232.296 305.822 229.519 305.822ZM287.605 292.766C287.975 293.014 288.16 293.321 288.16 293.692L288.068 294.247C286.649 297.274 284.335 299.959 281.126 302.303C277.979 304.648 274.061 305.822 269.371 305.822C264.743 305.822 260.547 304.774 256.783 302.674C253.08 300.515 250.18 297.644 248.082 294.062C246.046 290.48 245.028 286.625 245.028 282.487C245.028 278.72 245.922 274.987 247.712 271.283C249.563 267.579 252.247 264.523 255.765 262.116C259.282 259.708 263.447 258.504 268.26 258.504C273.196 258.504 277.547 260.108 281.311 263.319C285.075 266.468 287.451 270.79 288.438 276.283V276.654C288.438 277.828 287.821 278.413 286.587 278.413L259.837 278.598C258.541 278.598 257.893 279.124 257.893 280.172V281.747C257.893 286.995 259.035 291.562 261.318 295.451C263.663 299.277 267.242 301.192 272.055 301.192C277.794 301.192 282.514 298.477 286.217 293.044C286.402 292.736 286.679 292.581 287.05 292.581C287.173 292.581 287.358 292.644 287.605 292.766ZM267.982 260.912C266.254 260.912 264.465 261.745 262.614 263.412C260.763 265.079 259.405 268.349 258.541 273.227V273.598C258.541 274.831 259.159 275.45 260.393 275.45L274.554 275.265C275.171 275.265 275.634 275.109 275.943 274.802C276.313 274.494 276.498 274.061 276.498 273.505C276.498 269.679 275.665 266.623 273.999 264.338C272.333 262.053 270.327 260.912 267.982 260.912ZM335.7 262.671C335.084 262.671 334.59 262.764 334.219 262.949C333.603 263.197 333.294 263.597 333.294 264.153C333.294 264.586 333.51 265.079 333.942 265.634C336.287 268.29 337.459 271.313 337.459 274.709C337.459 277.672 336.595 280.358 334.867 282.765C333.14 285.173 330.702 287.088 327.555 288.506C324.47 289.866 320.891 290.543 316.818 290.543C315.152 290.543 313.394 290.388 311.542 290.08C311.296 290.017 310.987 289.988 310.617 289.988C310.061 289.988 309.537 290.143 309.043 290.451C307.994 291.129 307.47 291.718 307.47 292.21C307.47 292.766 307.84 293.229 308.58 293.599C309.321 293.97 310.894 294.37 313.301 294.803C315.955 295.236 319.194 295.851 323.02 296.655C326.846 297.459 330.024 298.2 332.553 298.877C335.7 299.681 338.231 300.915 340.143 302.581C342.056 304.185 343.013 306.222 343.013 308.693C343.013 311.963 341.593 314.649 338.755 316.749C335.978 318.908 332.553 320.453 328.481 321.379C324.408 322.305 320.397 322.768 316.448 322.768C311.018 322.768 306.575 322.183 303.119 321.008C299.726 319.897 297.257 318.508 295.715 316.841C294.234 315.175 293.493 313.478 293.493 311.749C293.493 310.145 294.203 308.722 295.622 307.489C297.103 306.256 299.294 305.082 302.194 303.97C302.934 303.663 303.305 303.385 303.305 303.137C303.305 302.767 302.934 302.459 302.194 302.211C298.862 300.792 297.196 299.126 297.196 297.211C297.196 295.051 299.757 292.703 304.878 290.173C305.619 289.803 305.989 289.432 305.989 289.062C305.989 288.692 305.619 288.321 304.878 287.951C302.04 286.532 299.787 284.71 298.121 282.487C296.517 280.265 295.715 277.735 295.715 274.894C295.715 271.683 296.702 268.846 298.677 266.375C300.713 263.845 303.305 261.901 306.452 260.542C309.66 259.182 312.962 258.504 316.355 258.504C321.045 258.504 325.241 259.553 328.944 261.653C329.437 261.838 329.808 261.93 330.054 261.93C330.671 261.93 331.165 261.56 331.535 260.819C334.127 256.004 337.49 253.597 341.624 253.597C343.537 253.597 345.018 254.215 346.067 255.449C347.178 256.682 347.733 258.012 347.733 259.43C347.733 260.849 347.301 262.086 346.437 263.134C345.574 264.182 344.278 264.708 342.55 264.708C341.994 264.708 341.378 264.616 340.699 264.431C340.082 264.182 339.495 263.938 338.94 263.69C337.583 263.012 336.503 262.671 335.7 262.671ZM316.355 288.321C319.749 288.321 322.156 286.81 323.575 283.784C324.995 280.698 325.704 277.331 325.704 273.69C325.704 270.479 324.933 267.549 323.39 264.894C321.909 262.179 319.657 260.819 316.633 260.819C314.535 260.819 312.807 261.623 311.45 263.227C310.093 264.771 309.105 266.653 308.488 268.875C307.871 271.098 307.562 273.198 307.562 275.172C307.562 278.628 308.365 281.684 309.969 284.339C311.573 286.995 313.702 288.321 316.355 288.321ZM326.907 307.952C325.426 307.519 323.051 306.933 319.78 306.193C316.51 305.452 313.301 304.804 310.154 304.248C309.969 304.185 309.691 304.155 309.321 304.155C308.704 304.155 308.118 304.341 307.562 304.711C304.415 307.056 302.842 309.248 302.842 311.286C302.842 312.767 303.521 314.186 304.878 315.545C306.236 316.905 308.118 318.016 310.524 318.879C312.931 319.742 315.584 320.175 318.484 320.175C321.508 320.175 324.038 319.742 326.074 318.879C328.172 318.016 329.715 316.997 330.702 315.823C331.751 314.649 332.276 313.571 332.276 312.582C332.276 311.534 331.782 310.608 330.795 309.804C329.808 309 328.512 308.385 326.907 307.952ZM400.392 259.523C400.825 259.523 401.04 259.864 401.04 260.542C401.04 260.912 400.947 261.16 400.762 261.282C400.577 261.405 400.333 261.497 400.022 261.56C399.715 261.623 399.5 261.682 399.374 261.745C397.834 262.116 396.475 262.886 395.301 264.06C394.191 265.171 392.958 267.146 391.599 269.987C389.378 274.679 386.479 280.884 382.898 288.599C379.322 296.255 376.049 303.322 373.087 309.804C370.436 315.545 367.811 319.59 365.221 321.934C362.629 324.342 359.945 325.546 357.168 325.546C354.021 325.546 351.676 324.868 350.133 323.509C348.591 322.149 347.819 320.638 347.819 318.971C347.819 317.367 348.344 316.071 349.393 315.082C350.442 314.093 351.768 313.6 353.373 313.6C354.422 313.6 355.286 313.723 355.965 313.971C356.705 314.219 357.538 314.59 358.464 315.082C359.266 315.575 360.006 315.916 360.685 316.101C361.364 316.349 362.166 316.471 363.092 316.471C364.264 316.471 365.282 315.945 366.146 314.897C367.072 313.908 368.152 312.212 369.385 309.804L371.699 304.989C371.947 304.556 372.069 304.093 372.069 303.6C372.069 303.23 371.976 302.829 371.791 302.396C370.866 300.422 369.633 297.737 368.089 294.34C366.609 290.944 364.819 286.962 362.721 282.395C358.032 271.901 355.563 266.405 355.317 265.912C354.514 264.308 353.712 263.197 352.91 262.579C352.108 261.96 350.935 261.653 349.393 261.653C348.961 261.653 348.745 261.282 348.745 260.542C348.745 259.864 348.961 259.523 349.393 259.523H371.976C372.41 259.523 372.624 259.864 372.624 260.542C372.624 261.219 372.38 261.59 371.884 261.653C370.588 261.775 369.57 262.086 368.829 262.579C368.152 263.071 367.811 263.66 367.811 264.338C367.811 264.771 367.967 265.386 368.274 266.19C369.14 268.349 370.403 271.468 372.069 275.542C373.798 279.554 375.527 283.569 377.252 287.58C377.685 288.384 378.119 288.784 378.548 288.784C379.103 288.784 379.566 288.384 379.936 287.58L380.862 285.543C381.603 283.876 382.932 280.943 384.842 276.746C386.819 272.487 387.96 269.831 388.267 268.783C388.578 267.979 388.73 267.272 388.73 266.653C388.73 264.986 387.96 263.719 386.416 262.856C384.875 261.993 383.239 261.56 381.51 261.56C381.081 261.56 380.862 261.219 380.862 260.542C380.862 259.864 381.081 259.523 381.51 259.523H400.392Z" fill="white"/>
<path fill-rule="evenodd" clip-rule="evenodd" d="M516.758 389.517L518.465 389.654C518.465 389.654 518.269 389.706 517.891 389.791C518.269 389.88 518.465 389.928 518.465 389.928L516.758 390.065C508.15 392.139 469.649 402.269 462.863 419.441C462.863 419.441 461.189 410.411 445.943 396.769C451.067 404.892 452.563 412.929 452.892 415.67C453.103 417.419 452.729 417.4 451.445 418.378C451.445 418.378 450.134 418.037 450.119 418.037C449.246 417.367 449.408 417.196 449.079 416.063C447.976 412.278 443.996 401.688 434.103 395.243H431.963C434.343 399.751 435.295 404.103 435.628 406.759C435.628 406.81 435.702 407.377 435.702 407.411C435.595 407.94 435.658 408.54 435.384 408.988C435.369 409.003 434.177 409.862 434.177 409.862C433.71 409.74 433.185 409.811 432.792 409.518C432.67 409.433 432.355 409.174 431.885 407.788C430.604 403.914 427.498 398.48 422.551 395.243L340.648 394.95C338.959 398.428 335.702 400.777 331.961 400.777C328.041 400.777 324.647 398.191 323.049 394.421C322.702 394.506 322.355 394.558 321.978 394.558C305.601 394.213 287.715 408.885 287.021 409.448L287.006 409.466C285.513 410.7 283.508 410.7 282.015 409.466C282.015 409.466 277.249 405.54 270.327 401.703C264.627 398.532 257.433 395.362 250.285 394.695C248.098 406.862 238.613 416.03 227.257 416.03C214.288 416.03 203.762 404.069 203.762 389.328C203.762 374.59 214.288 362.63 227.257 362.63C238.734 362.63 248.31 372.004 250.361 384.376C265.743 382.938 281.351 370.134 281.985 369.604L282 369.586C283.493 368.352 285.498 368.352 286.992 369.586L287.007 369.604C287.7 370.171 305.586 384.839 321.964 384.498C322.326 384.498 322.687 384.531 323.034 384.635C324.648 380.879 328.026 378.275 331.947 378.275C335.687 378.275 338.944 380.642 340.633 384.102L422.537 384.394C423.199 383.964 423.94 383.416 424.662 382.801C430.241 377.934 431.885 371.712 432.022 371.49C432.278 371.045 432.414 370.445 432.792 370.134C432.807 370.119 434.181 369.775 434.195 369.793C434.584 370.082 435.114 370.219 435.384 370.667C435.913 371.523 435.761 371.608 435.658 372.638C435.31 375.842 434.132 380.279 431.978 384.413H434.103C437.239 382.372 443.799 377.264 448.009 366.674C448.338 365.834 448.838 364.463 449.153 363.296C449.427 362.304 449.349 362.2 450.104 361.6C450.119 361.582 451.43 361.259 451.43 361.259C451.808 361.548 452.307 361.704 452.563 362.133C453.074 362.971 452.985 363.041 452.863 364.052C452.322 368.249 450.556 374.712 447.268 380.605C446.861 381.327 446.424 382.079 445.928 382.868C461.16 369.208 462.848 360.178 462.848 360.178C469.635 377.368 508.132 387.48 516.744 389.55L516.758 389.517ZM284.52 399.732C287.913 397.265 294.458 392.861 302.194 389.502C294.443 386.124 287.898 381.72 284.505 379.253C281.127 381.72 274.612 386.091 266.891 389.469C269.424 390.565 271.837 391.78 274.054 393.013C278.563 395.517 282.258 398.069 284.52 399.732ZM239.007 389.28C239.007 381.909 233.744 375.927 227.259 375.927C220.774 375.927 215.511 381.909 215.511 389.28C215.511 396.647 220.774 402.629 227.259 402.629C233.744 402.629 239.007 396.647 239.007 389.28Z" fill="white"/>
</g>
</svg>
