<svg width="873" height="222" viewBox="0 0 873 222" fill="none" xmlns="http://www.w3.org/2000/svg">
<rect x="208" y="46" width="168" height="163" rx="13" fill="#E7E6FF" stroke="#333333" stroke-width="2"/>
<g filter="url(#filter0_d_53_135)">
<circle cx="719.5" cy="131.5" r="90.5" fill="url(#paint0_radial_53_135)" shape-rendering="crispEdges"/>
<circle cx="719.5" cy="131.5" r="89.5" stroke="#333333" stroke-width="2" shape-rendering="crispEdges"/>
</g>
<path d="M62.94 18V4H66.78C68.5933 4 70.12 4.62667 71.36 5.88C72.6 7.12 73.22 8.82667 73.22 11C73.22 13.16 72.6 14.8733 71.36 16.14C70.12 17.38 68.5933 18 66.78 18H62.94ZM66.48 5.68H64.7V16.32H66.48C67.1467 16.32 67.76 16.2267 68.32 16.04C68.8933 15.84 69.4067 15.54 69.86 15.14C70.3267 14.74 70.6867 14.1867 70.94 13.48C71.2067 12.7733 71.34 11.9467 71.34 11C71.34 10.0533 71.2067 9.22667 70.94 8.52C70.6867 7.81333 70.3267 7.26 69.86 6.86C69.4067 6.46 68.8933 6.16667 68.32 5.98C67.76 5.78 67.1467 5.68 66.48 5.68ZM76.8236 15.1C76.8236 15.58 76.9636 15.96 77.2436 16.24C77.5369 16.5067 77.9503 16.64 78.4836 16.64C79.2569 16.64 79.9169 16.3933 80.4636 15.9C81.0236 15.4067 81.3036 14.6267 81.3036 13.56V13.32H79.5036C78.6503 13.32 77.9903 13.4733 77.5236 13.78C77.0569 14.0867 76.8236 14.5267 76.8236 15.1ZM82.9836 11.56V18H81.6636L81.3836 16.58C80.6503 17.6333 79.5969 18.16 78.2236 18.16C77.2769 18.16 76.5169 17.9 75.9436 17.38C75.3836 16.86 75.1036 16.1 75.1036 15.1C75.1036 14.0467 75.5036 13.2333 76.3036 12.66C77.1169 12.0867 78.2369 11.8 79.6636 11.8H81.3036V11.36C81.3036 9.97333 80.5703 9.28 79.1036 9.28C78.5703 9.28 78.1103 9.42 77.7236 9.7C77.3503 9.98 77.1103 10.3667 77.0036 10.86L75.5236 10.52C75.6569 9.68 76.0436 9.01333 76.6836 8.52C77.3369 8.01333 78.1436 7.76 79.1036 7.76C80.3036 7.76 81.2503 8.08 81.9436 8.72C82.6369 9.36 82.9836 10.3067 82.9836 11.56ZM86.5314 9.44H84.7914V7.92H86.5314V4.9L88.2114 3.84V7.92H90.8514V9.44H88.2114V14.98C88.2114 15.5133 88.3247 15.9267 88.5514 16.22C88.7914 16.5 89.1247 16.64 89.5514 16.64C90.0047 16.64 90.3847 16.5333 90.6914 16.32L91.0914 17.78C90.6647 18.0333 90.1181 18.16 89.4514 18.16C88.5447 18.16 87.8314 17.8733 87.3114 17.3C86.7914 16.7267 86.5314 15.9067 86.5314 14.84V9.44ZM94.4509 15.1C94.4509 15.58 94.5909 15.96 94.8709 16.24C95.1643 16.5067 95.5776 16.64 96.1109 16.64C96.8843 16.64 97.5443 16.3933 98.0909 15.9C98.6509 15.4067 98.9309 14.6267 98.9309 13.56V13.32H97.1309C96.2776 13.32 95.6176 13.4733 95.1509 13.78C94.6843 14.0867 94.4509 14.5267 94.4509 15.1ZM100.611 11.56V18H99.2909L99.0109 16.58C98.2776 17.6333 97.2243 18.16 95.8509 18.16C94.9043 18.16 94.1443 17.9 93.5709 17.38C93.0109 16.86 92.7309 16.1 92.7309 15.1C92.7309 14.0467 93.1309 13.2333 93.9309 12.66C94.7443 12.0867 95.8643 11.8 97.2909 11.8H98.9309V11.36C98.9309 9.97333 98.1976 9.28 96.7309 9.28C96.1976 9.28 95.7376 9.42 95.3509 9.7C94.9776 9.98 94.7376 10.3667 94.6309 10.86L93.1509 10.52C93.2843 9.68 93.6709 9.01333 94.3109 8.52C94.9643 8.01333 95.7709 7.76 96.7309 7.76C97.9309 7.76 98.8776 8.08 99.5709 8.72C100.264 9.36 100.611 10.3067 100.611 11.56Z" fill="black"/>
<path d="M201.24 18L206.08 4H207.76L212.6 18H210.84L209.6 14.26H204.24L203 18H201.24ZM209.04 12.58L206.92 6.28L204.8 12.58H209.04ZM222.456 10.9V18H220.776V11.34C220.776 9.96667 220.196 9.28 219.036 9.28C218.263 9.28 217.583 9.69333 216.996 10.52C216.436 11.3467 216.156 12.4333 216.156 13.78V18H214.476V7.92H216.156V9.78C216.916 8.43333 218.029 7.76 219.496 7.76C220.416 7.76 221.136 8.03333 221.656 8.58C222.189 9.12667 222.456 9.9 222.456 10.9ZM226.604 15.1C226.604 15.58 226.744 15.96 227.024 16.24C227.317 16.5067 227.731 16.64 228.264 16.64C229.037 16.64 229.697 16.3933 230.244 15.9C230.804 15.4067 231.084 14.6267 231.084 13.56V13.32H229.284C228.431 13.32 227.771 13.4733 227.304 13.78C226.837 14.0867 226.604 14.5267 226.604 15.1ZM232.764 11.56V18H231.444L231.164 16.58C230.431 17.6333 229.377 18.16 228.004 18.16C227.057 18.16 226.297 17.9 225.724 17.38C225.164 16.86 224.884 16.1 224.884 15.1C224.884 14.0467 225.284 13.2333 226.084 12.66C226.897 12.0867 228.017 11.8 229.444 11.8H231.084V11.36C231.084 9.97333 230.351 9.28 228.884 9.28C228.351 9.28 227.891 9.42 227.504 9.7C227.131 9.98 226.891 10.3667 226.784 10.86L225.304 10.52C225.437 9.68 225.824 9.01333 226.464 8.52C227.117 8.01333 227.924 7.76 228.884 7.76C230.084 7.76 231.031 8.08 231.724 8.72C232.417 9.36 232.764 10.3067 232.764 11.56ZM235.598 18V3.84H237.278V18H235.598ZM243.65 15.2L246.15 7.92H247.91L242.91 22.08H241.19L242.79 17.58L239.25 7.92H241.09L243.65 15.2ZM250.756 9.44H249.016V7.92H250.756V4.9L252.436 3.84V7.92H255.076V9.44H252.436V14.98C252.436 15.5133 252.549 15.9267 252.776 16.22C253.016 16.5 253.349 16.64 253.776 16.64C254.229 16.64 254.609 16.5333 254.916 16.32L255.316 17.78C254.889 18.0333 254.342 18.16 253.676 18.16C252.769 18.16 252.056 17.8733 251.536 17.3C251.016 16.7267 250.756 15.9067 250.756 14.84V9.44ZM257.695 18V7.92H259.375V18H257.695ZM257.275 5.12C257.275 4.76 257.395 4.46 257.635 4.22C257.875 3.96667 258.175 3.84 258.535 3.84C258.895 3.84 259.195 3.96667 259.435 4.22C259.675 4.46 259.795 4.76 259.795 5.12C259.795 5.46667 259.675 5.76 259.435 6C259.195 6.24 258.895 6.36 258.535 6.36C258.175 6.36 257.875 6.24 257.635 6C257.395 5.76 257.275 5.46667 257.275 5.12ZM269.172 14.78L270.632 15.38C269.819 17.2333 268.412 18.16 266.412 18.16C264.946 18.16 263.812 17.66 263.012 16.66C262.226 15.6333 261.832 14.4 261.832 12.96C261.832 11.52 262.226 10.2933 263.012 9.28C263.812 8.26667 264.946 7.76 266.412 7.76C268.412 7.76 269.819 8.68667 270.632 10.54L269.172 11.14C268.626 9.9 267.706 9.28 266.412 9.28C265.506 9.28 264.799 9.62 264.292 10.3C263.799 10.9667 263.552 11.8533 263.552 12.96C263.552 14.0667 263.799 14.96 264.292 15.64C264.799 16.3067 265.506 16.64 266.412 16.64C267.706 16.64 268.626 16.02 269.172 14.78ZM276.034 7.76C277.261 7.76 278.234 8.27333 278.954 9.3L277.814 10.28C277.187 9.61333 276.574 9.28 275.974 9.28C275.614 9.28 275.321 9.4 275.094 9.64C274.867 9.86667 274.754 10.1733 274.754 10.56C274.754 10.88 274.914 11.1667 275.234 11.42C275.554 11.66 275.941 11.8733 276.394 12.06C276.861 12.2333 277.321 12.4267 277.774 12.64C278.241 12.8533 278.634 13.16 278.954 13.56C279.274 13.9467 279.434 14.4133 279.434 14.96C279.434 15.96 279.134 16.7467 278.534 17.32C277.934 17.88 277.121 18.16 276.094 18.16C275.187 18.16 274.407 17.9133 273.754 17.42C273.114 16.9133 272.641 16.2533 272.334 15.44L273.754 14.66C274.287 15.98 275.067 16.64 276.094 16.64C277.174 16.64 277.714 16.1133 277.714 15.06C277.714 14.4733 277.167 13.9867 276.074 13.6C275.714 13.4667 275.434 13.36 275.234 13.28C275.034 13.1867 274.774 13.0467 274.454 12.86C274.147 12.6733 273.907 12.4867 273.734 12.3C273.561 12.1133 273.407 11.8667 273.274 11.56C273.141 11.2533 273.074 10.9133 273.074 10.54C273.074 9.72667 273.347 9.06 273.894 8.54C274.441 8.02 275.154 7.76 276.034 7.76ZM291.204 18.16C289.911 18.16 288.884 17.7867 288.124 17.04C287.364 16.2933 286.984 15.28 286.984 14C286.984 13.04 287.244 12.1867 287.764 11.44C288.324 10.68 288.964 10.1133 289.684 9.74C288.871 8.64667 288.464 7.67333 288.464 6.82C288.464 5.95333 288.758 5.24 289.344 4.68C289.944 4.12 290.684 3.84 291.564 3.84C292.511 3.84 293.264 4.10667 293.824 4.64C294.398 5.16 294.684 5.82667 294.684 6.64C294.684 7.2 294.518 7.76667 294.184 8.34C293.811 8.96667 293.071 9.57333 291.964 10.16L294.884 13.86C295.164 13.2867 295.478 12.4933 295.824 11.48L296.944 12.7C296.584 13.7 296.238 14.52 295.904 15.16L298.144 18H296.124L294.944 16.52C293.984 17.6133 292.738 18.16 291.204 18.16ZM291.204 16.6C292.351 16.6 293.278 16.1667 293.984 15.3L290.544 10.88C289.264 11.6 288.624 12.6533 288.624 14.04C288.624 14.8267 288.864 15.4533 289.344 15.92C289.838 16.3733 290.458 16.6 291.204 16.6ZM290.064 6.9C290.064 7.5 290.391 8.22667 291.044 9.08C291.751 8.73333 292.271 8.38 292.604 8.02C292.938 7.66 293.104 7.23333 293.104 6.74C293.104 6.32667 292.958 5.98 292.664 5.7C292.371 5.42 292.004 5.28 291.564 5.28C291.124 5.28 290.764 5.43333 290.484 5.74C290.204 6.03333 290.064 6.42 290.064 6.9ZM305.911 18V4H308.071L311.811 13.86L315.551 4H317.711V18H315.951V7.8L312.431 16.72H311.191L307.671 7.8V18H305.911ZM321.796 16.64C320.916 15.6267 320.476 14.4 320.476 12.96C320.476 11.5467 320.916 10.3267 321.796 9.3C322.703 8.27333 323.876 7.76 325.316 7.76C326.769 7.76 327.936 8.27333 328.816 9.3C329.709 10.3133 330.156 11.5333 330.156 12.96C330.156 14.4 329.709 15.6267 328.816 16.64C327.936 17.6533 326.769 18.16 325.316 18.16C323.863 18.16 322.689 17.6533 321.796 16.64ZM323.016 10.38C322.469 11.1133 322.196 11.9733 322.196 12.96C322.196 13.9467 322.469 14.8133 323.016 15.56C323.576 16.28 324.343 16.64 325.316 16.64C326.303 16.64 327.063 16.28 327.596 15.56C328.156 14.8133 328.436 13.9467 328.436 12.96C328.436 11.96 328.156 11.1 327.596 10.38C327.063 9.64667 326.303 9.28 325.316 9.28C324.343 9.28 323.576 9.64667 323.016 10.38ZM336.768 7.76C337.381 7.76 337.974 7.90667 338.548 8.2C339.148 8.50667 339.534 8.81333 339.708 9.12V3.84H341.388V18H339.708V16.76C339.454 17.16 339.048 17.4933 338.488 17.76C337.928 18.0267 337.354 18.16 336.768 18.16C335.354 18.16 334.254 17.6933 333.468 16.76C332.681 15.8133 332.288 14.5467 332.288 12.96C332.288 11.3733 332.681 10.1133 333.468 9.18C334.254 8.23333 335.354 7.76 336.768 7.76ZM336.928 16.64C337.821 16.64 338.528 16.3067 339.048 15.64C339.581 14.96 339.848 14.0667 339.848 12.96C339.848 11.8533 339.581 10.9667 339.048 10.3C338.528 9.62 337.821 9.28 336.928 9.28C336.048 9.28 335.341 9.62 334.808 10.3C334.274 10.98 334.008 11.8667 334.008 12.96C334.008 14.0533 334.274 14.94 334.808 15.62C335.341 16.3 336.048 16.64 336.928 16.64ZM352.966 12.54V13.32H345.566C345.619 14.3333 345.892 15.14 346.386 15.74C346.879 16.34 347.552 16.64 348.406 16.64C349.099 16.64 349.666 16.4867 350.106 16.18C350.546 15.8733 350.912 15.3867 351.206 14.72L352.686 15.36C352.219 16.3467 351.646 17.06 350.966 17.5C350.299 17.94 349.446 18.16 348.406 18.16C346.952 18.16 345.826 17.66 345.026 16.66C344.239 15.6333 343.846 14.4 343.846 12.96C343.846 11.52 344.239 10.2933 345.026 9.28C345.826 8.26667 346.952 7.76 348.406 7.76C349.832 7.76 350.946 8.22667 351.746 9.16C352.559 10.0667 352.966 11.1933 352.966 12.54ZM348.406 9.28C347.672 9.28 347.072 9.50667 346.606 9.96C346.139 10.4 345.826 11.0133 345.666 11.8H351.206C351.046 11.0133 350.726 10.4 350.246 9.96C349.766 9.50667 349.152 9.28 348.406 9.28ZM355.44 18V3.84H357.12V18H355.44ZM360.24 18V3.84H361.92V18H360.24ZM364.729 18V7.92H366.409V18H364.729ZM364.309 5.12C364.309 4.76 364.429 4.46 364.669 4.22C364.909 3.96667 365.209 3.84 365.569 3.84C365.929 3.84 366.229 3.96667 366.469 4.22C366.709 4.46 366.829 4.76 366.829 5.12C366.829 5.46667 366.709 5.76 366.469 6C366.229 6.24 365.929 6.36 365.569 6.36C365.209 6.36 364.909 6.24 364.669 6C364.429 5.76 364.309 5.46667 364.309 5.12ZM377.176 10.9V18H375.496V11.34C375.496 9.96667 374.916 9.28 373.756 9.28C372.983 9.28 372.303 9.69333 371.716 10.52C371.156 11.3467 370.876 12.4333 370.876 13.78V18H369.196V7.92H370.876V9.78C371.636 8.43333 372.75 7.76 374.216 7.76C375.136 7.76 375.856 8.03333 376.376 8.58C376.91 9.12667 377.176 9.9 377.176 10.9ZM380.245 11.16C380.245 10.16 380.579 9.34667 381.245 8.72C381.912 8.09333 382.752 7.78 383.765 7.78C384.432 7.78 385.039 7.92667 385.585 8.22L387.385 7.2L388.145 8.58L386.785 9.34C387.119 9.84667 387.285 10.4533 387.285 11.16C387.285 12.1733 386.952 12.9933 386.285 13.62C385.619 14.22 384.779 14.52 383.765 14.52C383.099 14.52 382.519 14.4 382.025 14.16C381.585 14.3733 381.365 14.7 381.365 15.14C381.365 15.7 381.745 15.98 382.505 15.98H384.885C385.859 15.98 386.625 16.2267 387.185 16.72C387.759 17.2 388.045 17.88 388.045 18.76C388.045 19.8933 387.659 20.7533 386.885 21.34C386.112 21.94 385.079 22.24 383.785 22.24C382.479 22.24 381.439 21.94 380.665 21.34C379.892 20.7533 379.505 19.9467 379.505 18.92C379.505 18.0667 379.819 17.3667 380.445 16.82C379.992 16.4467 379.765 15.9133 379.765 15.22C379.765 14.3933 380.172 13.7733 380.985 13.36C380.492 12.7733 380.245 12.04 380.245 11.16ZM384.625 17.42H382.585C382.492 17.42 382.245 17.4067 381.845 17.38C381.405 17.7267 381.185 18.22 381.185 18.86C381.185 19.4467 381.412 19.9067 381.865 20.24C382.319 20.5867 382.959 20.76 383.785 20.76C384.612 20.76 385.239 20.5933 385.665 20.26C386.105 19.9267 386.325 19.48 386.325 18.92C386.325 17.92 385.759 17.42 384.625 17.42ZM382.425 9.74C382.065 10.0733 381.885 10.5467 381.885 11.16C381.885 11.7733 382.065 12.2467 382.425 12.58C382.785 12.9133 383.232 13.08 383.765 13.08C384.299 13.08 384.745 12.9133 385.105 12.58C385.465 12.2467 385.645 11.7733 385.645 11.16C385.645 10.5467 385.465 10.0733 385.105 9.74C384.745 9.39333 384.299 9.22 383.765 9.22C383.232 9.22 382.785 9.39333 382.425 9.74Z" fill="black"/>
<path d="M480.8 6.08L479.38 7C479.073 6.45333 478.747 6.07333 478.4 5.86C478.067 5.63333 477.653 5.52 477.16 5.52C476.68 5.52 476.28 5.69333 475.96 6.04C475.64 6.37333 475.48 6.78 475.48 7.26C475.48 7.91333 475.753 8.45333 476.3 8.88C476.687 9.14667 476.953 9.32 477.1 9.4L478.18 9.96C478.94 10.3467 479.553 10.7133 480.02 11.06C480.967 11.7667 481.467 12.74 481.52 13.98C481.52 15.1 481.16 16.0533 480.44 16.84C479.64 17.72 478.6 18.16 477.32 18.16C476.187 18.16 475.207 17.8067 474.38 17.1C473.567 16.4067 473.04 15.5 472.8 14.38L474.32 13.46C474.613 14.4733 474.987 15.2333 475.44 15.74C475.907 16.2333 476.533 16.48 477.32 16.48C478.133 16.48 478.767 16.2133 479.22 15.68C479.58 15.24 479.76 14.6867 479.76 14.02C479.76 13.4467 479.547 12.96 479.12 12.56C478.707 12.16 478.04 11.74 477.12 11.3C476.147 10.86 475.36 10.38 474.76 9.86C474.067 9.24667 473.72 8.42667 473.72 7.4C473.72 6.38667 474.06 5.54 474.74 4.86C475.42 4.18 476.227 3.84 477.16 3.84C478.053 3.84 478.787 4.02667 479.36 4.4C479.933 4.77333 480.413 5.33333 480.8 6.08ZM484.669 16.64C483.789 15.6267 483.349 14.4 483.349 12.96C483.349 11.5467 483.789 10.3267 484.669 9.3C485.575 8.27333 486.749 7.76 488.189 7.76C489.642 7.76 490.809 8.27333 491.689 9.3C492.582 10.3133 493.029 11.5333 493.029 12.96C493.029 14.4 492.582 15.6267 491.689 16.64C490.809 17.6533 489.642 18.16 488.189 18.16C486.735 18.16 485.562 17.6533 484.669 16.64ZM485.889 10.38C485.342 11.1133 485.069 11.9733 485.069 12.96C485.069 13.9467 485.342 14.8133 485.889 15.56C486.449 16.28 487.215 16.64 488.189 16.64C489.175 16.64 489.935 16.28 490.469 15.56C491.029 14.8133 491.309 13.9467 491.309 12.96C491.309 11.96 491.029 11.1 490.469 10.38C489.935 9.64667 489.175 9.28 488.189 9.28C487.215 9.28 486.449 9.64667 485.889 10.38ZM495.451 18V3.84H497.131V18H495.451ZM499.975 15.02V7.92H501.655V14.58C501.655 15.9533 502.235 16.64 503.395 16.64C504.182 16.64 504.855 16.2267 505.415 15.4C505.989 14.5867 506.275 13.5 506.275 12.14V7.92H507.955V18H506.275V16.14C505.515 17.4867 504.402 18.16 502.935 18.16C502.015 18.16 501.289 17.8867 500.755 17.34C500.235 16.7933 499.975 16.02 499.975 15.02ZM511.897 9.44H510.157V7.92H511.897V4.9L513.577 3.84V7.92H516.217V9.44H513.577V14.98C513.577 15.5133 513.69 15.9267 513.917 16.22C514.157 16.5 514.49 16.64 514.917 16.64C515.37 16.64 515.75 16.5333 516.057 16.32L516.457 17.78C516.03 18.0333 515.484 18.16 514.817 18.16C513.91 18.16 513.197 17.8733 512.677 17.3C512.157 16.7267 511.897 15.9067 511.897 14.84V9.44ZM518.837 18V7.92H520.517V18H518.837ZM518.417 5.12C518.417 4.76 518.537 4.46 518.777 4.22C519.017 3.96667 519.317 3.84 519.677 3.84C520.037 3.84 520.337 3.96667 520.577 4.22C520.817 4.46 520.937 4.76 520.937 5.12C520.937 5.46667 520.817 5.76 520.577 6C520.337 6.24 520.037 6.36 519.677 6.36C519.317 6.36 519.017 6.24 518.777 6C518.537 5.76 518.417 5.46667 518.417 5.12ZM524.294 16.64C523.414 15.6267 522.974 14.4 522.974 12.96C522.974 11.5467 523.414 10.3267 524.294 9.3C525.2 8.27333 526.374 7.76 527.814 7.76C529.267 7.76 530.434 8.27333 531.314 9.3C532.207 10.3133 532.654 11.5333 532.654 12.96C532.654 14.4 532.207 15.6267 531.314 16.64C530.434 17.6533 529.267 18.16 527.814 18.16C526.36 18.16 525.187 17.6533 524.294 16.64ZM525.514 10.38C524.967 11.1133 524.694 11.9733 524.694 12.96C524.694 13.9467 524.967 14.8133 525.514 15.56C526.074 16.28 526.84 16.64 527.814 16.64C528.8 16.64 529.56 16.28 530.094 15.56C530.654 14.8133 530.934 13.9467 530.934 12.96C530.934 11.96 530.654 11.1 530.094 10.38C529.56 9.64667 528.8 9.28 527.814 9.28C526.84 9.28 526.074 9.64667 525.514 10.38ZM543.213 10.9V18H541.533V11.34C541.533 9.96667 540.953 9.28 539.793 9.28C539.02 9.28 538.34 9.69333 537.753 10.52C537.193 11.3467 536.913 12.4333 536.913 13.78V18H535.233V7.92H536.913V9.78C537.673 8.43333 538.786 7.76 540.253 7.76C541.173 7.76 541.893 8.03333 542.413 8.58C542.946 9.12667 543.213 9.9 543.213 10.9Z" fill="black"/>
<path d="M609.94 18V4H611.7V18H609.94ZM628.221 10.9V18H626.541V11.26C626.541 9.94 626.001 9.28 624.921 9.28C624.148 9.28 623.508 9.7 623.001 10.54C622.495 11.3667 622.241 12.4733 622.241 13.86V18H620.561V11.26C620.561 9.94 620.021 9.28 618.941 9.28C618.168 9.28 617.528 9.7 617.021 10.54C616.515 11.3667 616.261 12.4733 616.261 13.86V18H614.581V7.92H616.261V9.78C616.941 8.43333 617.988 7.76 619.401 7.76C620.095 7.76 620.675 7.94667 621.141 8.32C621.621 8.68 621.941 9.19333 622.101 9.86C622.848 8.46 623.941 7.76 625.381 7.76C626.288 7.76 626.988 8.03333 627.481 8.58C627.975 9.12667 628.221 9.9 628.221 10.9ZM635.759 18.16C635.146 18.16 634.553 18.0133 633.979 17.72C633.379 17.4133 632.993 17.1067 632.819 16.8V22.08H631.139V7.92H632.819V9.16C633.073 8.76 633.479 8.42667 634.039 8.16C634.599 7.89333 635.173 7.76 635.759 7.76C637.173 7.76 638.273 8.23333 639.059 9.18C639.846 10.1133 640.239 11.3733 640.239 12.96C640.239 14.5467 639.846 15.8133 639.059 16.76C638.273 17.6933 637.173 18.16 635.759 18.16ZM635.599 9.28C634.706 9.28 633.993 9.62 633.459 10.3C632.939 10.9667 632.679 11.8533 632.679 12.96C632.679 14.0667 632.939 14.96 633.459 15.64C633.993 16.3067 634.706 16.64 635.599 16.64C636.479 16.64 637.186 16.3 637.719 15.62C638.253 14.94 638.519 14.0533 638.519 12.96C638.519 11.8667 638.253 10.98 637.719 10.3C637.186 9.62 636.479 9.28 635.599 9.28ZM642.657 18V3.84H644.337V18H642.657ZM655.838 12.54V13.32H648.438C648.491 14.3333 648.764 15.14 649.258 15.74C649.751 16.34 650.424 16.64 651.278 16.64C651.971 16.64 652.538 16.4867 652.978 16.18C653.418 15.8733 653.784 15.3867 654.078 14.72L655.558 15.36C655.091 16.3467 654.518 17.06 653.838 17.5C653.171 17.94 652.318 18.16 651.278 18.16C649.824 18.16 648.698 17.66 647.898 16.66C647.111 15.6333 646.718 14.4 646.718 12.96C646.718 11.52 647.111 10.2933 647.898 9.28C648.698 8.26667 649.824 7.76 651.278 7.76C652.704 7.76 653.818 8.22667 654.618 9.16C655.431 10.0667 655.838 11.1933 655.838 12.54ZM651.278 9.28C650.544 9.28 649.944 9.50667 649.478 9.96C649.011 10.4 648.698 11.0133 648.538 11.8H654.078C653.918 11.0133 653.598 10.4 653.118 9.96C652.638 9.50667 652.024 9.28 651.278 9.28ZM672.109 10.9V18H670.429V11.26C670.429 9.94 669.889 9.28 668.809 9.28C668.036 9.28 667.396 9.7 666.889 10.54C666.382 11.3667 666.129 12.4733 666.129 13.86V18H664.449V11.26C664.449 9.94 663.909 9.28 662.829 9.28C662.056 9.28 661.416 9.7 660.909 10.54C660.402 11.3667 660.149 12.4733 660.149 13.86V18H658.469V7.92H660.149V9.78C660.829 8.43333 661.876 7.76 663.289 7.76C663.982 7.76 664.562 7.94667 665.029 8.32C665.509 8.68 665.829 9.19333 665.989 9.86C666.736 8.46 667.829 7.76 669.269 7.76C670.176 7.76 670.876 8.03333 671.369 8.58C671.862 9.12667 672.109 9.9 672.109 10.9ZM683.66 12.54V13.32H676.26C676.313 14.3333 676.587 15.14 677.08 15.74C677.573 16.34 678.247 16.64 679.1 16.64C679.793 16.64 680.36 16.4867 680.8 16.18C681.24 15.8733 681.607 15.3867 681.9 14.72L683.38 15.36C682.913 16.3467 682.34 17.06 681.66 17.5C680.993 17.94 680.14 18.16 679.1 18.16C677.647 18.16 676.52 17.66 675.72 16.66C674.933 15.6333 674.54 14.4 674.54 12.96C674.54 11.52 674.933 10.2933 675.72 9.28C676.52 8.26667 677.647 7.76 679.1 7.76C680.527 7.76 681.64 8.22667 682.44 9.16C683.253 10.0667 683.66 11.1933 683.66 12.54ZM679.1 9.28C678.367 9.28 677.767 9.50667 677.3 9.96C676.833 10.4 676.52 11.0133 676.36 11.8H681.9C681.74 11.0133 681.42 10.4 680.94 9.96C680.46 9.50667 679.847 9.28 679.1 9.28ZM694.311 10.9V18H692.631V11.34C692.631 9.96667 692.051 9.28 690.891 9.28C690.117 9.28 689.437 9.69333 688.851 10.52C688.291 11.3467 688.011 12.4333 688.011 13.78V18H686.331V7.92H688.011V9.78C688.771 8.43333 689.884 7.76 691.351 7.76C692.271 7.76 692.991 8.03333 693.511 8.58C694.044 9.12667 694.311 9.9 694.311 10.9ZM698.015 9.44H696.275V7.92H698.015V4.9L699.695 3.84V7.92H702.335V9.44H699.695V14.98C699.695 15.5133 699.808 15.9267 700.035 16.22C700.275 16.5 700.608 16.64 701.035 16.64C701.488 16.64 701.868 16.5333 702.175 16.32L702.575 17.78C702.148 18.0333 701.602 18.16 700.935 18.16C700.028 18.16 699.315 17.8733 698.795 17.3C698.275 16.7267 698.015 15.9067 698.015 14.84V9.44ZM705.935 15.1C705.935 15.58 706.075 15.96 706.355 16.24C706.648 16.5067 707.061 16.64 707.595 16.64C708.368 16.64 709.028 16.3933 709.575 15.9C710.135 15.4067 710.415 14.6267 710.415 13.56V13.32H708.615C707.761 13.32 707.101 13.4733 706.635 13.78C706.168 14.0867 705.935 14.5267 705.935 15.1ZM712.095 11.56V18H710.775L710.495 16.58C709.761 17.6333 708.708 18.16 707.335 18.16C706.388 18.16 705.628 17.9 705.055 17.38C704.495 16.86 704.215 16.1 704.215 15.1C704.215 14.0467 704.615 13.2333 705.415 12.66C706.228 12.0867 707.348 11.8 708.775 11.8H710.415V11.36C710.415 9.97333 709.681 9.28 708.215 9.28C707.681 9.28 707.221 9.42 706.835 9.7C706.461 9.98 706.221 10.3667 706.115 10.86L704.635 10.52C704.768 9.68 705.155 9.01333 705.795 8.52C706.448 8.01333 707.255 7.76 708.215 7.76C709.415 7.76 710.361 8.08 711.055 8.72C711.748 9.36 712.095 10.3067 712.095 11.56ZM715.642 9.44H713.902V7.92H715.642V4.9L717.322 3.84V7.92H719.962V9.44H717.322V14.98C717.322 15.5133 717.436 15.9267 717.662 16.22C717.902 16.5 718.236 16.64 718.662 16.64C719.116 16.64 719.496 16.5333 719.802 16.32L720.202 17.78C719.776 18.0333 719.229 18.16 718.562 18.16C717.656 18.16 716.942 17.8733 716.422 17.3C715.902 16.7267 715.642 15.9067 715.642 14.84V9.44ZM722.582 18V7.92H724.262V18H722.582ZM722.162 5.12C722.162 4.76 722.282 4.46 722.522 4.22C722.762 3.96667 723.062 3.84 723.422 3.84C723.782 3.84 724.082 3.96667 724.322 4.22C724.562 4.46 724.682 4.76 724.682 5.12C724.682 5.46667 724.562 5.76 724.322 6C724.082 6.24 723.782 6.36 723.422 6.36C723.062 6.36 722.762 6.24 722.522 6C722.282 5.76 722.162 5.46667 722.162 5.12ZM728.039 16.64C727.159 15.6267 726.719 14.4 726.719 12.96C726.719 11.5467 727.159 10.3267 728.039 9.3C728.946 8.27333 730.119 7.76 731.559 7.76C733.012 7.76 734.179 8.27333 735.059 9.3C735.952 10.3133 736.399 11.5333 736.399 12.96C736.399 14.4 735.952 15.6267 735.059 16.64C734.179 17.6533 733.012 18.16 731.559 18.16C730.106 18.16 728.932 17.6533 728.039 16.64ZM729.259 10.38C728.712 11.1133 728.439 11.9733 728.439 12.96C728.439 13.9467 728.712 14.8133 729.259 15.56C729.819 16.28 730.586 16.64 731.559 16.64C732.546 16.64 733.306 16.28 733.839 15.56C734.399 14.8133 734.679 13.9467 734.679 12.96C734.679 11.96 734.399 11.1 733.839 10.38C733.306 9.64667 732.546 9.28 731.559 9.28C730.586 9.28 729.819 9.64667 729.259 10.38ZM746.958 10.9V18H745.278V11.34C745.278 9.96667 744.698 9.28 743.538 9.28C742.765 9.28 742.085 9.69333 741.498 10.52C740.938 11.3467 740.658 12.4333 740.658 13.78V18H738.978V7.92H740.658V9.78C741.418 8.43333 742.532 7.76 743.998 7.76C744.918 7.76 745.638 8.03333 746.158 8.58C746.692 9.12667 746.958 9.9 746.958 10.9ZM759.353 18.16C758.059 18.16 757.033 17.7867 756.273 17.04C755.513 16.2933 755.133 15.28 755.133 14C755.133 13.04 755.393 12.1867 755.913 11.44C756.473 10.68 757.113 10.1133 757.833 9.74C757.019 8.64667 756.613 7.67333 756.613 6.82C756.613 5.95333 756.906 5.24 757.493 4.68C758.093 4.12 758.833 3.84 759.713 3.84C760.659 3.84 761.413 4.10667 761.973 4.64C762.546 5.16 762.833 5.82667 762.833 6.64C762.833 7.2 762.666 7.76667 762.333 8.34C761.959 8.96667 761.219 9.57333 760.113 10.16L763.033 13.86C763.313 13.2867 763.626 12.4933 763.973 11.48L765.093 12.7C764.733 13.7 764.386 14.52 764.053 15.16L766.293 18H764.273L763.093 16.52C762.133 17.6133 760.886 18.16 759.353 18.16ZM759.353 16.6C760.499 16.6 761.426 16.1667 762.133 15.3L758.693 10.88C757.413 11.6 756.773 12.6533 756.773 14.04C756.773 14.8267 757.013 15.4533 757.493 15.92C757.986 16.3733 758.606 16.6 759.353 16.6ZM758.213 6.9C758.213 7.5 758.539 8.22667 759.193 9.08C759.899 8.73333 760.419 8.38 760.753 8.02C761.086 7.66 761.253 7.23333 761.253 6.74C761.253 6.32667 761.106 5.98 760.813 5.7C760.519 5.42 760.153 5.28 759.713 5.28C759.273 5.28 758.913 5.43333 758.633 5.74C758.353 6.03333 758.213 6.42 758.213 6.9ZM774.06 18V4H782.2V5.68H775.82V9.86H781V11.54H775.82V18H774.06ZM792.198 12.54V13.32H784.798C784.851 14.3333 785.124 15.14 785.618 15.74C786.111 16.34 786.784 16.64 787.638 16.64C788.331 16.64 788.898 16.4867 789.338 16.18C789.778 15.8733 790.144 15.3867 790.438 14.72L791.918 15.36C791.451 16.3467 790.878 17.06 790.198 17.5C789.531 17.94 788.678 18.16 787.638 18.16C786.184 18.16 785.058 17.66 784.258 16.66C783.471 15.6333 783.078 14.4 783.078 12.96C783.078 11.52 783.471 10.2933 784.258 9.28C785.058 8.26667 786.184 7.76 787.638 7.76C789.064 7.76 790.178 8.22667 790.978 9.16C791.791 10.0667 792.198 11.1933 792.198 12.54ZM787.638 9.28C786.904 9.28 786.304 9.50667 785.838 9.96C785.371 10.4 785.058 11.0133 784.898 11.8H790.438C790.278 11.0133 789.958 10.4 789.478 9.96C788.998 9.50667 788.384 9.28 787.638 9.28ZM803.443 12.54V13.32H796.043C796.096 14.3333 796.37 15.14 796.863 15.74C797.356 16.34 798.03 16.64 798.883 16.64C799.576 16.64 800.143 16.4867 800.583 16.18C801.023 15.8733 801.39 15.3867 801.683 14.72L803.163 15.36C802.696 16.3467 802.123 17.06 801.443 17.5C800.776 17.94 799.923 18.16 798.883 18.16C797.43 18.16 796.303 17.66 795.503 16.66C794.716 15.6333 794.323 14.4 794.323 12.96C794.323 11.52 794.716 10.2933 795.503 9.28C796.303 8.26667 797.43 7.76 798.883 7.76C800.31 7.76 801.423 8.22667 802.223 9.16C803.036 10.0667 803.443 11.1933 803.443 12.54ZM798.883 9.28C798.15 9.28 797.55 9.50667 797.083 9.96C796.616 10.4 796.303 11.0133 796.143 11.8H801.683C801.523 11.0133 801.203 10.4 800.723 9.96C800.243 9.50667 799.63 9.28 798.883 9.28ZM810.048 7.76C810.662 7.76 811.255 7.90667 811.828 8.2C812.428 8.50667 812.815 8.81333 812.988 9.12V3.84H814.668V18H812.988V16.76C812.735 17.16 812.328 17.4933 811.768 17.76C811.208 18.0267 810.635 18.16 810.048 18.16C808.635 18.16 807.535 17.6933 806.748 16.76C805.962 15.8133 805.568 14.5467 805.568 12.96C805.568 11.3733 805.962 10.1133 806.748 9.18C807.535 8.23333 808.635 7.76 810.048 7.76ZM810.208 16.64C811.102 16.64 811.808 16.3067 812.328 15.64C812.862 14.96 813.128 14.0667 813.128 12.96C813.128 11.8533 812.862 10.9667 812.328 10.3C811.808 9.62 811.102 9.28 810.208 9.28C809.328 9.28 808.622 9.62 808.088 10.3C807.555 10.98 807.288 11.8667 807.288 12.96C807.288 14.0533 807.555 14.94 808.088 15.62C808.622 16.3 809.328 16.64 810.208 16.64ZM822.76 18.16C822.173 18.16 821.6 18.0267 821.04 17.76C820.48 17.4933 820.073 17.16 819.82 16.76V18H818.14V3.84H819.82V9.12C819.993 8.81333 820.38 8.50667 820.98 8.2C821.553 7.90667 822.147 7.76 822.76 7.76C824.173 7.76 825.273 8.23333 826.06 9.18C826.847 10.1133 827.24 11.3733 827.24 12.96C827.24 14.5467 826.847 15.8133 826.06 16.76C825.273 17.6933 824.173 18.16 822.76 18.16ZM822.6 9.28C821.707 9.28 820.993 9.62 820.46 10.3C819.94 10.9667 819.68 11.8533 819.68 12.96C819.68 14.0667 819.94 14.96 820.46 15.64C820.993 16.3067 821.707 16.64 822.6 16.64C823.48 16.64 824.187 16.3 824.72 15.62C825.253 14.94 825.52 14.0533 825.52 12.96C825.52 11.8667 825.253 10.98 824.72 10.3C824.187 9.62 823.48 9.28 822.6 9.28ZM831.01 15.1C831.01 15.58 831.15 15.96 831.43 16.24C831.724 16.5067 832.137 16.64 832.67 16.64C833.444 16.64 834.104 16.3933 834.65 15.9C835.21 15.4067 835.49 14.6267 835.49 13.56V13.32H833.69C832.837 13.32 832.177 13.4733 831.71 13.78C831.244 14.0867 831.01 14.5267 831.01 15.1ZM837.17 11.56V18H835.85L835.57 16.58C834.837 17.6333 833.784 18.16 832.41 18.16C831.464 18.16 830.704 17.9 830.13 17.38C829.57 16.86 829.29 16.1 829.29 15.1C829.29 14.0467 829.69 13.2333 830.49 12.66C831.304 12.0867 832.424 11.8 833.85 11.8H835.49V11.36C835.49 9.97333 834.757 9.28 833.29 9.28C832.757 9.28 832.297 9.42 831.91 9.7C831.537 9.98 831.297 10.3667 831.19 10.86L829.71 10.52C829.844 9.68 830.23 9.01333 830.87 8.52C831.524 8.01333 832.33 7.76 833.29 7.76C834.49 7.76 835.437 8.08 836.13 8.72C836.824 9.36 837.17 10.3067 837.17 11.56ZM846.898 14.78L848.358 15.38C847.545 17.2333 846.138 18.16 844.138 18.16C842.671 18.16 841.538 17.66 840.738 16.66C839.951 15.6333 839.558 14.4 839.558 12.96C839.558 11.52 839.951 10.2933 840.738 9.28C841.538 8.26667 842.671 7.76 844.138 7.76C846.138 7.76 847.545 8.68667 848.358 10.54L846.898 11.14C846.351 9.9 845.431 9.28 844.138 9.28C843.231 9.28 842.525 9.62 842.018 10.3C841.525 10.9667 841.278 11.8533 841.278 12.96C841.278 14.0667 841.525 14.96 842.018 15.64C842.525 16.3067 843.231 16.64 844.138 16.64C845.431 16.64 846.351 16.02 846.898 14.78ZM850.626 18V3.84H852.306V12.14L856.226 7.92H858.386L854.106 12.54L858.706 18H856.566L852.306 12.94V18H850.626Z" fill="black"/>
<path d="M718.768 134.768C719.744 133.791 719.744 132.209 718.768 131.232L702.858 115.322C701.882 114.346 700.299 114.346 699.322 115.322C698.346 116.299 698.346 117.882 699.322 118.858L713.464 133L699.322 147.142C698.346 148.118 698.346 149.701 699.322 150.678C700.299 151.654 701.882 151.654 702.858 150.678L718.768 134.768ZM598 135.5L717 135.5L717 130.5L598 130.5L598 135.5Z" fill="#333333"/>
<circle cx="507.5" cy="131.5" r="89.5" fill="#6562F5" fill-opacity="0.6" stroke="#333333" stroke-width="2"/>
<path d="M484.768 134.768C485.744 133.791 485.744 132.209 484.768 131.232L468.858 115.322C467.882 114.346 466.299 114.346 465.322 115.322C464.346 116.299 464.346 117.882 465.322 118.858L479.464 133L465.322 147.142C464.346 148.118 464.346 149.701 465.322 150.678C466.299 151.654 467.882 151.654 468.858 150.678L484.768 134.768ZM377 135.5L483 135.5L483 130.5L377 130.5L377 135.5Z" fill="#333333"/>
<path d="M284.302 90.6047H284.163H284.023L283.884 90.4651C283.884 90.4651 283.884 90.4651 283.884 90.3256C283.884 90.3256 283.884 90.186 283.744 90.186C283.744 90.186 283.744 90.186 283.744 90.0465C283.047 86.5581 281.791 83.3488 279.837 80.4186C279.837 80.4186 279.837 80.2791 279.698 80.2791V80.1395V80V79.8605V79.7209V79.5814L283.605 74L278.86 69.2558L273.279 73.1628C273.279 73.1628 273.279 73.1628 273.14 73.1628C273 73.1628 273 73.1628 273 73.1628C272.86 73.1628 272.721 73.1628 272.721 73.0233C269.791 71.0698 266.581 69.6744 263.093 69.1163C263.093 69.1163 262.953 69.1163 262.953 68.9767C262.953 68.9767 262.953 68.9767 262.814 68.9767L262.674 68.8372C262.674 68.8372 262.674 68.8372 262.674 68.6977C262.674 68.6977 262.674 68.5581 262.535 68.5581C262.535 68.5581 262.535 68.5581 262.535 68.4186L261.279 62H254.721L253.605 68.6977V68.8372V68.9767C253.605 69.1163 253.465 69.1163 253.465 69.1163C253.326 69.1163 253.326 69.2558 253.186 69.2558C249.698 69.9535 246.488 71.2093 243.558 73.1628C243.419 73.3023 243.279 73.3023 243.279 73.3023C243.14 73.3023 243.14 73.3023 243.14 73.3023H243L237.419 69.3954L232.674 74.1395L236.581 79.7209C236.581 79.7209 236.581 79.8605 236.721 79.8605V80V80.1395V80.2791V80.4186V80.5581C234.767 83.4884 233.372 86.6977 232.814 90.186C232.814 90.186 232.814 90.1861 232.814 90.3256C232.814 90.3256 232.814 90.4651 232.674 90.4651C232.674 90.4651 232.674 90.4651 232.535 90.6047L232.395 90.7442C232.395 90.7442 232.395 90.7442 232.256 90.7442H232.116L225 91.7209V98.2791L231.698 99.3954H231.837C231.837 99.3954 231.977 99.3954 231.977 99.5349L232.116 99.6744C232.116 99.6744 232.116 99.6744 232.116 99.814C232.116 99.814 232.116 99.9535 232.256 99.9535C232.953 103.442 234.209 106.651 236.163 109.581V109.721V109.86V110V110.14V110.279C236.163 110.279 236.163 110.419 236.023 110.419L232.116 116L236.86 120.744L242.442 116.837C242.442 116.837 242.581 116.837 242.581 116.698H242.721H242.86H243C243 116.698 243 116.698 243.14 116.698C243.279 116.698 243.279 116.698 243.279 116.837C246.209 118.791 249.419 120.186 252.907 120.744H253.047H253.186C253.186 120.744 253.186 120.884 253.326 120.884L253.465 121.023V121.163V121.302L254.581 128H261.279L262.395 121.302V121.163V121.023C262.395 121.023 262.395 121.023 262.535 120.884L262.674 120.744C262.674 120.744 262.674 120.744 262.814 120.744C262.953 120.744 262.953 120.744 262.953 120.605C266.442 119.907 269.651 118.651 272.581 116.698C272.581 116.698 272.721 116.698 272.721 116.558C272.721 116.558 272.721 116.558 272.86 116.558H273H273.14C273.14 116.558 273.14 116.558 273.279 116.558C273.279 116.558 273.419 116.558 273.419 116.698L279 120.605L283.744 115.86L279.837 110.279V110.14V110V109.86V109.721C279.837 109.721 279.837 109.721 279.837 109.581C279.837 109.581 279.837 109.442 279.977 109.442C281.93 106.512 283.326 103.302 283.884 99.814V99.6744V99.5349L284.023 99.3954C284.023 99.3954 284.163 99.3953 284.163 99.2558C284.163 99.2558 284.163 99.2558 284.302 99.2558L291 98.1395V91.5814L284.302 90.6047ZM258.07 109.302C250.256 109.302 243.837 102.884 243.837 95.0698C243.837 87.2558 250.256 80.8372 258.07 80.8372C265.884 80.8372 272.302 87.2558 272.302 95.0698C272.163 102.884 265.884 109.302 258.07 109.302Z" fill="#6562F5" fill-opacity="0.77"/>
<path d="M351.444 153.688H351.222H351L350.778 153.465C350.778 153.465 350.778 153.465 350.778 153.241C350.778 153.241 350.778 153.017 350.556 153.017C350.556 153.017 350.556 153.017 350.556 152.793C349.889 148.765 348.111 144.737 345.889 141.38V141.156V140.932V140.708V140.484V140.261C345.889 140.261 345.889 140.037 346.111 140.037L350.778 133.547L345.222 127.952L338.778 132.652H338.556C338.333 132.652 338.333 132.652 338.111 132.652C337.889 132.652 337.667 132.652 337.444 132.428C333.889 130.19 330.111 128.399 326.111 127.728H325.889H325.667L325.444 127.504C325.444 127.504 325.444 127.504 325.444 127.28C325.444 127.28 325.444 127.057 325.222 127.057C325.222 127.057 325.222 127.057 325.222 126.833L323.889 119H316.333L315 127.057V127.28V127.504L314.778 127.728C314.778 127.728 314.778 127.952 314.556 127.952H314.333H314.111C310.111 128.847 306.111 130.414 302.778 132.652C302.556 132.875 302.333 132.875 302.111 132.875C301.889 132.875 301.889 132.875 301.667 132.875C301.667 132.875 301.667 132.875 301.444 132.875L294.778 127.952L289.444 133.323L294.111 139.813C294.111 139.813 294.111 140.037 294.333 140.037V140.261V140.484V140.708V140.932V141.156C291.889 144.737 290.333 148.541 289.667 152.569C289.667 152.569 289.667 152.569 289.667 152.793C289.667 152.793 289.667 153.017 289.444 153.017C289.444 153.017 289.444 153.017 289.444 153.241L289.222 153.465C289.222 153.465 289.222 153.465 289 153.465H288.778L281 154.807V162.416L288.778 163.759C289 163.759 289.222 163.983 289.444 164.207C289.444 164.207 289.444 164.207 289.444 164.431C289.444 164.431 289.444 164.654 289.667 164.654C290.556 168.683 292.111 172.711 294.333 176.068V176.292V176.516V176.739V176.963V177.187C294.333 177.187 294.333 177.411 294.111 177.411L289.444 183.901L294.778 189.272L301.222 184.572H301.444H301.667H302.111C302.111 184.572 302.111 184.572 302.333 184.572H302.556C306.111 186.81 309.889 188.601 313.889 189.272H314.111H314.333L314.556 189.496C314.556 189.496 314.556 189.496 314.778 189.72V189.943V190.167L316.111 198H323.889L325.222 190.167C325.222 189.72 325.667 189.272 326.111 189.272C330.111 188.377 334.111 186.81 337.444 184.572H337.667H337.889H338.333C338.333 184.572 338.333 184.572 338.556 184.572C338.556 184.572 338.778 184.572 338.778 184.796L345.222 189.496L350.556 184.125L345.889 177.635C345.889 177.635 345.889 177.411 345.667 177.411C345.667 177.411 345.667 177.411 345.667 177.187V176.963V176.739V176.516V176.292C348.111 172.711 349.667 168.907 350.333 164.878V164.654V164.431L350.556 164.207C350.556 164.207 350.556 164.207 350.778 164.207C350.778 164.207 351 164.207 351 163.983H351.222L359 162.64V155.031L351.444 153.688ZM320.111 176.068C310.556 176.068 302.778 168.235 302.778 158.612C302.778 148.989 310.556 141.156 320.111 141.156C329.667 141.156 337.444 148.989 337.444 158.612C337.444 168.459 329.667 176.068 320.111 176.068Z" fill="#6562F5" fill-opacity="0.77"/>
<path d="M259.768 133.768C260.744 132.791 260.744 131.209 259.768 130.232L243.858 114.322C242.882 113.346 241.299 113.346 240.322 114.322C239.346 115.299 239.346 116.882 240.322 117.858L254.464 132L240.322 146.142C239.346 147.118 239.346 148.701 240.322 149.678C241.299 150.654 242.882 150.654 243.858 149.678L259.768 133.768ZM76 134.5H258V129.5H76V134.5Z" fill="#333333"/>
<rect x="1" y="46" width="168" height="163" fill="#E0DDD6" stroke="#333333" stroke-width="2"/>
<path d="M125.945 119.522C119.774 119.522 114.71 124.167 113.996 130.171H101.798C101.513 126.454 100.015 123.024 97.7323 120.344L114.959 103.085C118.027 105.193 122.235 104.907 124.946 102.156C128.013 99.0827 128.013 94.1157 124.946 91.0427C121.879 87.9696 116.921 87.9696 113.854 91.0427C111.143 93.7584 110.822 97.9749 112.926 101.048L95.6993 118.307C93.0243 116.02 89.6003 114.555 85.891 114.234V102.049C91.883 101.334 96.5197 96.2597 96.5197 90.0779C96.5553 83.3957 91.134 78 84.5 78C77.866 78 72.4447 83.3957 72.4447 90.0779C72.4447 96.2597 77.0813 101.334 83.0733 102.049V114.269C79.364 114.555 75.94 116.056 73.265 118.343L70.2333 115.306C72.3377 112.233 72.0523 108.016 69.306 105.3C66.2387 102.227 61.281 102.227 58.2137 105.3C55.1463 108.373 55.1463 113.34 58.2137 116.413C60.9243 119.129 65.133 119.451 68.2003 117.342L71.232 120.38C68.9493 123.06 67.487 126.49 67.166 130.206H55.0037C54.2903 124.203 49.2257 119.558 43.0553 119.558C36.3857 119.522 31 124.954 31 131.6C31 138.246 36.3857 143.678 43.0553 143.678C49.2257 143.678 54.2903 139.033 55.0037 133.029H67.2017C67.487 136.746 68.985 140.176 71.2677 142.856L68.236 145.893C65.1687 143.785 60.96 144.071 58.2493 146.822C55.182 149.895 55.182 154.862 58.2493 157.935C61.3167 161.009 66.2743 161.009 69.3417 157.935C72.0523 155.22 72.3733 151.003 70.269 147.93L73.3007 144.893C75.9757 147.18 79.3997 148.645 83.109 148.966V161.187C77.117 161.902 72.4803 166.976 72.4803 173.158C72.4803 179.804 77.866 185.236 84.5357 185.236C91.2053 185.236 96.591 179.84 96.591 173.158C96.591 166.976 91.9543 161.902 85.9623 161.187V148.966C89.6717 148.681 93.0957 147.18 95.7707 144.893L98.8023 147.93C96.698 151.003 96.9833 155.22 99.7297 157.935C102.797 161.009 107.755 161.009 110.822 157.935C113.889 154.862 113.889 149.895 110.822 146.822C108.111 144.107 103.903 143.785 100.835 145.893L97.8037 142.856C100.086 140.176 101.549 136.746 101.87 133.029H114.068C114.781 139.033 119.846 143.678 126.016 143.678C132.65 143.678 138.071 138.282 138.071 131.6C138.071 124.918 132.614 119.522 125.945 119.522Z" fill="#C1BBAC"/>
<defs>
<filter id="filter0_d_53_135" x="628" y="41" width="182" height="181" filterUnits="userSpaceOnUse" color-interpolation-filters="sRGB">
<feFlood flood-opacity="0" result="BackgroundImageFix"/>
<feColorMatrix in="SourceAlpha" type="matrix" values="0 0 0 0 0 0 0 0 0 0 0 0 0 0 0 0 0 0 127 0" result="hardAlpha"/>
<feOffset dx="-1"/>
<feComposite in2="hardAlpha" operator="out"/>
<feColorMatrix type="matrix" values="0 0 0 0 0.2 0 0 0 0 0.2 0 0 0 0 0.2 0 0 0 1 0"/>
<feBlend mode="normal" in2="BackgroundImageFix" result="effect1_dropShadow_53_135"/>
<feBlend mode="normal" in="SourceGraphic" in2="effect1_dropShadow_53_135" result="shape"/>
</filter>
<radialGradient id="paint0_radial_53_135" cx="0" cy="0" r="1" gradientUnits="userSpaceOnUse" gradientTransform="translate(820 139) rotate(166.726) scale(145.898 215.581)">
<stop offset="0.0433636" stop-color="#6562F5"/>
<stop offset="1" stop-color="#62D2F5"/>
<stop offset="1" stop-color="#6562F5" stop-opacity="0"/>
</radialGradient>
</defs>
</svg>
