<svg width="113" height="34" viewBox="0 0 113 34" fill="none" xmlns="http://www.w3.org/2000/svg">
<rect width="35.0686" height="5.62938" transform="matrix(0.707384 -0.70683 0.707384 0.70683 2.69238 26.8508)" fill="#6562F5"/>
<rect width="36.1186" height="5.62938" transform="matrix(0.707384 0.70683 -0.707384 0.70683 6.06934 2.03296)" fill="#333333"/>
<rect y="0.0935059" width="4.74692" height="12.342" fill="#333333"/>
<rect y="20.9797" width="4.74692" height="12.342" fill="#6562F5"/>
<rect x="29.1143" y="20.9797" width="4.74692" height="12.342" fill="#333333"/>
<rect x="28.9561" y="0.0935059" width="4.58869" height="12.342" fill="#6562F5"/>
<rect x="4.58984" y="0.0935059" width="8.06976" height="4.58869" fill="#333333"/>
<rect x="20.8867" y="0.0935059" width="8.06976" height="4.58869" fill="#6562F5"/>
<rect x="21.2021" y="28.8918" width="8.06976" height="4.43046" fill="#333333"/>
<rect x="4.58984" y="28.8918" width="8.06976" height="4.43046" fill="#6562F5"/>
<path d="M50.184 26.868C47.88 24.588 46.728 21.432 46.728 17.4C46.728 13.368 47.88 10.212 50.184 7.932C52.488 5.652 55.308 4.512 58.644 4.512C61.404 4.512 63.684 5.184 65.484 6.528C67.284 7.848 68.484 9.72 69.084 12.144L64.872 13.224C63.768 10.296 61.692 8.832 58.644 8.832C56.58 8.832 54.864 9.564 53.496 11.028C52.152 12.492 51.48 14.616 51.48 17.4C51.48 20.184 52.152 22.308 53.496 23.772C54.864 25.236 56.58 25.968 58.644 25.968C61.692 25.968 63.768 24.504 64.872 21.576L69.084 22.656C68.484 25.08 67.284 26.964 65.484 28.308C63.684 29.628 61.404 30.288 58.644 30.288C55.308 30.288 52.488 29.148 50.184 26.868ZM95.605 23.232L99.385 20.856C100.369 24.264 102.037 25.968 104.389 25.968C106.573 25.968 107.665 24.876 107.665 22.692C107.665 22.14 107.473 21.648 107.089 21.216C106.705 20.76 106.201 20.364 105.577 20.028C104.953 19.692 104.269 19.356 103.525 19.02C102.781 18.684 102.025 18.3 101.257 17.868C100.513 17.412 99.829 16.92 99.205 16.392C98.581 15.84 98.077 15.132 97.693 14.268C97.309 13.404 97.117 12.432 97.117 11.352C97.117 9.432 97.777 7.812 99.097 6.492C100.417 5.172 102.049 4.512 103.993 4.512C107.377 4.512 109.801 6.036 111.265 9.084L107.485 11.496C106.573 9.72 105.409 8.832 103.993 8.832C103.297 8.832 102.721 9.048 102.265 9.48C101.809 9.912 101.581 10.464 101.581 11.136C101.581 11.928 101.953 12.636 102.697 13.26C103.441 13.86 104.329 14.4 105.361 14.88C106.417 15.36 107.473 15.888 108.529 16.464C109.585 17.04 110.485 17.844 111.229 18.876C111.973 19.884 112.345 21.072 112.345 22.44C112.345 24.864 111.613 26.784 110.149 28.2C108.685 29.592 106.729 30.288 104.281 30.288C102.073 30.288 100.165 29.616 98.557 28.272C96.973 26.904 95.989 25.224 95.605 23.232Z" fill="black"/>
<path d="M81.0777 30H73.1937V4.8H81.0777C82.6137 4.8 84.0657 5.052 85.4337 5.556C86.8017 6.06 88.0377 6.804 89.1417 7.788C90.2697 8.772 91.1577 10.092 91.8057 11.748C92.4777 13.38 92.8137 15.264 92.8137 17.4C92.8137 19.536 92.4777 21.432 91.8057 23.088C91.1577 24.72 90.2697 26.028 89.1417 27.012C88.0377 27.996 86.8017 28.74 85.4337 29.244C84.0657 29.748 82.6137 30 81.0777 30ZM77.8737 9.12V25.68H79.6017C80.7057 25.68 81.7137 25.56 82.6257 25.32C83.5617 25.056 84.4497 24.636 85.2897 24.06C86.1537 23.484 86.8257 22.632 87.3057 21.504C87.8097 20.376 88.0617 19.008 88.0617 17.4C88.0617 15.792 87.8097 14.424 87.3057 13.296C86.8257 12.168 86.1537 11.316 85.2897 10.74C84.4497 10.164 83.5617 9.756 82.6257 9.516C81.7137 9.252 80.7057 9.12 79.6017 9.12H77.8737Z" fill="#6562F5"/>
</svg>
