<svg width="194" height="984" viewBox="0 0 194 984" fill="none" xmlns="http://www.w3.org/2000/svg">
<path d="M73.94 15V0.999999H77.78C79.5933 0.999999 81.12 1.62667 82.36 2.88C83.6 4.12 84.22 5.82667 84.22 8C84.22 10.16 83.6 11.8733 82.36 13.14C81.12 14.38 79.5933 15 77.78 15H73.94ZM77.48 2.68H75.7V13.32H77.48C78.1467 13.32 78.76 13.2267 79.32 13.04C79.8933 12.84 80.4067 12.54 80.86 12.14C81.3267 11.74 81.6867 11.1867 81.94 10.48C82.2067 9.77333 82.34 8.94667 82.34 8C82.34 7.05333 82.2067 6.22667 81.94 5.52C81.6867 4.81333 81.3267 4.26 80.86 3.86C80.4067 3.46 79.8933 3.16667 79.32 2.98C78.76 2.78 78.1467 2.68 77.48 2.68ZM87.8236 12.1C87.8236 12.58 87.9636 12.96 88.2436 13.24C88.5369 13.5067 88.9503 13.64 89.4836 13.64C90.2569 13.64 90.9169 13.3933 91.4636 12.9C92.0236 12.4067 92.3036 11.6267 92.3036 10.56V10.32H90.5036C89.6503 10.32 88.9903 10.4733 88.5236 10.78C88.0569 11.0867 87.8236 11.5267 87.8236 12.1ZM93.9836 8.56V15H92.6636L92.3836 13.58C91.6503 14.6333 90.5969 15.16 89.2236 15.16C88.2769 15.16 87.5169 14.9 86.9436 14.38C86.3836 13.86 86.1036 13.1 86.1036 12.1C86.1036 11.0467 86.5036 10.2333 87.3036 9.66C88.1169 9.08667 89.2369 8.8 90.6636 8.8H92.3036V8.36C92.3036 6.97333 91.5703 6.28 90.1036 6.28C89.5703 6.28 89.1103 6.42 88.7236 6.7C88.3503 6.98 88.1103 7.36667 88.0036 7.86L86.5236 7.52C86.6569 6.68 87.0436 6.01333 87.6836 5.52C88.3369 5.01333 89.1436 4.76 90.1036 4.76C91.3036 4.76 92.2503 5.08 92.9436 5.72C93.6369 6.36 93.9836 7.30667 93.9836 8.56ZM97.5314 6.44H95.7914V4.92H97.5314V1.9L99.2114 0.84V4.92H101.851V6.44H99.2114V11.98C99.2114 12.5133 99.3247 12.9267 99.5514 13.22C99.7914 13.5 100.125 13.64 100.551 13.64C101.005 13.64 101.385 13.5333 101.691 13.32L102.091 14.78C101.665 15.0333 101.118 15.16 100.451 15.16C99.5447 15.16 98.8314 14.8733 98.3114 14.3C97.7914 13.7267 97.5314 12.9067 97.5314 11.84V6.44ZM105.451 12.1C105.451 12.58 105.591 12.96 105.871 13.24C106.164 13.5067 106.578 13.64 107.111 13.64C107.884 13.64 108.544 13.3933 109.091 12.9C109.651 12.4067 109.931 11.6267 109.931 10.56V10.32H108.131C107.278 10.32 106.618 10.4733 106.151 10.78C105.684 11.0867 105.451 11.5267 105.451 12.1ZM111.611 8.56V15H110.291L110.011 13.58C109.278 14.6333 108.224 15.16 106.851 15.16C105.904 15.16 105.144 14.9 104.571 14.38C104.011 13.86 103.731 13.1 103.731 12.1C103.731 11.0467 104.131 10.2333 104.931 9.66C105.744 9.08667 106.864 8.8 108.291 8.8H109.931V8.36C109.931 6.97333 109.198 6.28 107.731 6.28C107.198 6.28 106.738 6.42 106.351 6.7C105.978 6.98 105.738 7.36667 105.631 7.86L104.151 7.52C104.284 6.68 104.671 6.01333 105.311 5.52C105.964 5.01333 106.771 4.76 107.731 4.76C108.931 4.76 109.878 5.08 110.571 5.72C111.264 6.36 111.611 7.30667 111.611 8.56Z" fill="black"/>
<g filter="url(#filter0_d_0_1)">
<circle cx="91.5" cy="893.5" r="90.5" fill="url(#paint0_radial_0_1)" shape-rendering="crispEdges"/>
<circle cx="91.5" cy="893.5" r="89.5" stroke="#333333" stroke-width="2" shape-rendering="crispEdges"/>
</g>
<path d="M21.6204 892V879.4H23.2044V892H21.6204ZM38.0737 885.61V892H36.5617V885.934C36.5617 884.746 36.0757 884.152 35.1037 884.152C34.4077 884.152 33.8317 884.53 33.3757 885.286C32.9197 886.03 32.6917 887.026 32.6917 888.274V892H31.1797V885.934C31.1797 884.746 30.6937 884.152 29.7217 884.152C29.0257 884.152 28.4497 884.53 27.9937 885.286C27.5377 886.03 27.3097 887.026 27.3097 888.274V892H25.7977V882.928H27.3097V884.602C27.9217 883.39 28.8637 882.784 30.1357 882.784C30.7597 882.784 31.2817 882.952 31.7017 883.288C32.1337 883.612 32.4217 884.074 32.5657 884.674C33.2377 883.414 34.2217 882.784 35.5177 882.784C36.3337 882.784 36.9637 883.03 37.4077 883.522C37.8517 884.014 38.0737 884.71 38.0737 885.61ZM44.8577 892.144C44.3057 892.144 43.7717 892.012 43.2557 891.748C42.7157 891.472 42.3677 891.196 42.2117 890.92V895.672H40.6997V882.928H42.2117V884.044C42.4397 883.684 42.8057 883.384 43.3097 883.144C43.8137 882.904 44.3297 882.784 44.8577 882.784C46.1297 882.784 47.1197 883.21 47.8277 884.062C48.5357 884.902 48.8897 886.036 48.8897 887.464C48.8897 888.892 48.5357 890.032 47.8277 890.884C47.1197 891.724 46.1297 892.144 44.8577 892.144ZM44.7137 884.152C43.9097 884.152 43.2677 884.458 42.7877 885.07C42.3197 885.67 42.0857 886.468 42.0857 887.464C42.0857 888.46 42.3197 889.264 42.7877 889.876C43.2677 890.476 43.9097 890.776 44.7137 890.776C45.5057 890.776 46.1417 890.47 46.6217 889.858C47.1017 889.246 47.3417 888.448 47.3417 887.464C47.3417 886.48 47.1017 885.682 46.6217 885.07C46.1417 884.458 45.5057 884.152 44.7137 884.152ZM51.0657 892V879.256H52.5777V892H51.0657ZM62.9282 887.086V887.788H56.2682C56.3162 888.7 56.5622 889.426 57.0062 889.966C57.4502 890.506 58.0562 890.776 58.8242 890.776C59.4482 890.776 59.9582 890.638 60.3542 890.362C60.7502 890.086 61.0802 889.648 61.3442 889.048L62.6762 889.624C62.2562 890.512 61.7402 891.154 61.1282 891.55C60.5282 891.946 59.7602 892.144 58.8242 892.144C57.5162 892.144 56.5022 891.694 55.7822 890.794C55.0742 889.87 54.7202 888.76 54.7202 887.464C54.7202 886.168 55.0742 885.064 55.7822 884.152C56.5022 883.24 57.5162 882.784 58.8242 882.784C60.1082 882.784 61.1102 883.204 61.8302 884.044C62.5622 884.86 62.9282 885.874 62.9282 887.086ZM58.8242 884.152C58.1642 884.152 57.6242 884.356 57.2042 884.764C56.7842 885.16 56.5022 885.712 56.3582 886.42H61.3442C61.2002 885.712 60.9122 885.16 60.4802 884.764C60.0482 884.356 59.4962 884.152 58.8242 884.152ZM77.5724 885.61V892H76.0604V885.934C76.0604 884.746 75.5744 884.152 74.6024 884.152C73.9064 884.152 73.3304 884.53 72.8744 885.286C72.4184 886.03 72.1904 887.026 72.1904 888.274V892H70.6784V885.934C70.6784 884.746 70.1924 884.152 69.2204 884.152C68.5244 884.152 67.9484 884.53 67.4924 885.286C67.0364 886.03 66.8084 887.026 66.8084 888.274V892H65.2964V882.928H66.8084V884.602C67.4204 883.39 68.3624 882.784 69.6344 882.784C70.2584 882.784 70.7804 882.952 71.2004 883.288C71.6324 883.612 71.9204 884.074 72.0644 884.674C72.7364 883.414 73.7204 882.784 75.0164 882.784C75.8324 882.784 76.4624 883.03 76.9064 883.522C77.3504 884.014 77.5724 884.71 77.5724 885.61ZM87.9686 887.086V887.788H81.3086C81.3566 888.7 81.6026 889.426 82.0466 889.966C82.4906 890.506 83.0966 890.776 83.8646 890.776C84.4886 890.776 84.9986 890.638 85.3946 890.362C85.7906 890.086 86.1206 889.648 86.3846 889.048L87.7166 889.624C87.2966 890.512 86.7806 891.154 86.1686 891.55C85.5686 891.946 84.8006 892.144 83.8646 892.144C82.5566 892.144 81.5426 891.694 80.8226 890.794C80.1146 889.87 79.7606 888.76 79.7606 887.464C79.7606 886.168 80.1146 885.064 80.8226 884.152C81.5426 883.24 82.5566 882.784 83.8646 882.784C85.1486 882.784 86.1506 883.204 86.8706 884.044C87.6026 884.86 87.9686 885.874 87.9686 887.086ZM83.8646 884.152C83.2046 884.152 82.6646 884.356 82.2446 884.764C81.8246 885.16 81.5426 885.712 81.3986 886.42H86.3846C86.2406 885.712 85.9526 885.16 85.5206 884.764C85.0886 884.356 84.5366 884.152 83.8646 884.152ZM97.554 885.61V892H96.042V886.006C96.042 884.77 95.52 884.152 94.476 884.152C93.78 884.152 93.168 884.524 92.64 885.268C92.136 886.012 91.884 886.99 91.884 888.202V892H90.372V882.928H91.884V884.602C92.568 883.39 93.57 882.784 94.89 882.784C95.718 882.784 96.366 883.03 96.834 883.522C97.314 884.014 97.554 884.71 97.554 885.61ZM100.888 884.296H99.3219V882.928H100.888V880.21L102.4 879.256V882.928H104.776V884.296H102.4V889.282C102.4 889.762 102.502 890.134 102.706 890.398C102.922 890.65 103.222 890.776 103.606 890.776C104.014 890.776 104.356 890.68 104.632 890.488L104.992 891.802C104.608 892.03 104.116 892.144 103.516 892.144C102.7 892.144 102.058 891.886 101.59 891.37C101.122 890.854 100.888 890.116 100.888 889.156V884.296ZM108.015 889.39C108.015 889.822 108.141 890.164 108.393 890.416C108.657 890.656 109.029 890.776 109.509 890.776C110.205 890.776 110.799 890.554 111.291 890.11C111.795 889.666 112.047 888.964 112.047 888.004V887.788H110.427C109.659 887.788 109.065 887.926 108.645 888.202C108.225 888.478 108.015 888.874 108.015 889.39ZM113.559 886.204V892H112.371L112.119 890.722C111.459 891.67 110.511 892.144 109.275 892.144C108.423 892.144 107.739 891.91 107.223 891.442C106.719 890.974 106.467 890.29 106.467 889.39C106.467 888.442 106.827 887.71 107.547 887.194C108.279 886.678 109.287 886.42 110.571 886.42H112.047V886.024C112.047 884.776 111.387 884.152 110.067 884.152C109.587 884.152 109.173 884.278 108.825 884.53C108.489 884.782 108.273 885.13 108.177 885.574L106.845 885.268C106.965 884.512 107.313 883.912 107.889 883.468C108.477 883.012 109.203 882.784 110.067 882.784C111.147 882.784 111.999 883.072 112.623 883.648C113.247 884.224 113.559 885.076 113.559 886.204ZM116.753 884.296H115.187V882.928H116.753V880.21L118.265 879.256V882.928H120.641V884.296H118.265V889.282C118.265 889.762 118.367 890.134 118.571 890.398C118.787 890.65 119.087 890.776 119.471 890.776C119.879 890.776 120.221 890.68 120.497 890.488L120.857 891.802C120.473 892.03 119.981 892.144 119.381 892.144C118.565 892.144 117.923 891.886 117.455 891.37C116.987 890.854 116.753 890.116 116.753 889.156V884.296ZM122.998 892V882.928H124.51V892H122.998ZM122.62 880.408C122.62 880.084 122.728 879.814 122.944 879.598C123.16 879.37 123.43 879.256 123.754 879.256C124.078 879.256 124.348 879.37 124.564 879.598C124.78 879.814 124.888 880.084 124.888 880.408C124.888 880.72 124.78 880.984 124.564 881.2C124.348 881.416 124.078 881.524 123.754 881.524C123.43 881.524 123.16 881.416 122.944 881.2C122.728 880.984 122.62 880.72 122.62 880.408ZM127.91 890.776C127.118 889.864 126.722 888.76 126.722 887.464C126.722 886.192 127.118 885.094 127.91 884.17C128.726 883.246 129.782 882.784 131.078 882.784C132.386 882.784 133.436 883.246 134.228 884.17C135.032 885.082 135.434 886.18 135.434 887.464C135.434 888.76 135.032 889.864 134.228 890.776C133.436 891.688 132.386 892.144 131.078 892.144C129.77 892.144 128.714 891.688 127.91 890.776ZM129.008 885.142C128.516 885.802 128.27 886.576 128.27 887.464C128.27 888.352 128.516 889.132 129.008 889.804C129.512 890.452 130.202 890.776 131.078 890.776C131.966 890.776 132.65 890.452 133.13 889.804C133.634 889.132 133.886 888.352 133.886 887.464C133.886 886.564 133.634 885.79 133.13 885.142C132.65 884.482 131.966 884.152 131.078 884.152C130.202 884.152 129.512 884.482 129.008 885.142ZM144.937 885.61V892H143.425V886.006C143.425 884.77 142.903 884.152 141.859 884.152C141.163 884.152 140.551 884.524 140.023 885.268C139.519 886.012 139.267 886.99 139.267 888.202V892H137.755V882.928H139.267V884.602C139.951 883.39 140.953 882.784 142.273 882.784C143.101 882.784 143.749 883.03 144.217 883.522C144.697 884.014 144.937 884.71 144.937 885.61ZM156.092 892.144C154.928 892.144 154.004 891.808 153.32 891.136C152.636 890.464 152.294 889.552 152.294 888.4C152.294 887.536 152.528 886.768 152.996 886.096C153.5 885.412 154.076 884.902 154.724 884.566C153.992 883.582 153.626 882.706 153.626 881.938C153.626 881.158 153.89 880.516 154.418 880.012C154.958 879.508 155.624 879.256 156.416 879.256C157.268 879.256 157.946 879.496 158.45 879.976C158.966 880.444 159.224 881.044 159.224 881.776C159.224 882.28 159.074 882.79 158.774 883.306C158.438 883.87 157.772 884.416 156.776 884.944L159.404 888.274C159.656 887.758 159.938 887.044 160.25 886.132L161.258 887.23C160.934 888.13 160.622 888.868 160.322 889.444L162.338 892H160.52L159.458 890.668C158.594 891.652 157.472 892.144 156.092 892.144ZM156.092 890.74C157.124 890.74 157.958 890.35 158.594 889.57L155.498 885.592C154.346 886.24 153.77 887.188 153.77 888.436C153.77 889.144 153.986 889.708 154.418 890.128C154.862 890.536 155.42 890.74 156.092 890.74ZM155.066 882.01C155.066 882.55 155.36 883.204 155.948 883.972C156.584 883.66 157.052 883.342 157.352 883.018C157.652 882.694 157.802 882.31 157.802 881.866C157.802 881.494 157.67 881.182 157.406 880.93C157.142 880.678 156.812 880.552 156.416 880.552C156.02 880.552 155.696 880.69 155.444 880.966C155.192 881.23 155.066 881.578 155.066 882.01ZM56.4676 921V908.4H63.7936V909.912H58.0516V913.674H62.7136V915.186H58.0516V921H56.4676ZM72.792 916.086V916.788H66.132C66.18 917.7 66.426 918.426 66.87 918.966C67.314 919.506 67.92 919.776 68.688 919.776C69.312 919.776 69.822 919.638 70.218 919.362C70.614 919.086 70.944 918.648 71.208 918.048L72.54 918.624C72.12 919.512 71.604 920.154 70.992 920.55C70.392 920.946 69.624 921.144 68.688 921.144C67.38 921.144 66.366 920.694 65.646 919.794C64.938 918.87 64.584 917.76 64.584 916.464C64.584 915.168 64.938 914.064 65.646 913.152C66.366 912.24 67.38 911.784 68.688 911.784C69.972 911.784 70.974 912.204 71.694 913.044C72.426 913.86 72.792 914.874 72.792 916.086ZM68.688 913.152C68.028 913.152 67.488 913.356 67.068 913.764C66.648 914.16 66.366 914.712 66.222 915.42H71.208C71.064 914.712 70.776 914.16 70.344 913.764C69.912 913.356 69.36 913.152 68.688 913.152ZM82.9127 916.086V916.788H76.2527C76.3007 917.7 76.5467 918.426 76.9907 918.966C77.4347 919.506 78.0407 919.776 78.8087 919.776C79.4327 919.776 79.9427 919.638 80.3387 919.362C80.7347 919.086 81.0647 918.648 81.3287 918.048L82.6607 918.624C82.2407 919.512 81.7247 920.154 81.1127 920.55C80.5127 920.946 79.7447 921.144 78.8087 921.144C77.5007 921.144 76.4867 920.694 75.7667 919.794C75.0587 918.87 74.7047 917.76 74.7047 916.464C74.7047 915.168 75.0587 914.064 75.7667 913.152C76.4867 912.24 77.5007 911.784 78.8087 911.784C80.0927 911.784 81.0947 912.204 81.8147 913.044C82.5467 913.86 82.9127 914.874 82.9127 916.086ZM78.8087 913.152C78.1487 913.152 77.6087 913.356 77.1887 913.764C76.7687 914.16 76.4867 914.712 76.3427 915.42H81.3287C81.1847 914.712 80.8967 914.16 80.4647 913.764C80.0327 913.356 79.4807 913.152 78.8087 913.152ZM88.8575 911.784C89.4095 911.784 89.9435 911.916 90.4595 912.18C90.9995 912.456 91.3475 912.732 91.5035 913.008V908.256H93.0155V921H91.5035V919.884C91.2755 920.244 90.9095 920.544 90.4055 920.784C89.9015 921.024 89.3855 921.144 88.8575 921.144C87.5855 921.144 86.5955 920.724 85.8875 919.884C85.1795 919.032 84.8255 917.892 84.8255 916.464C84.8255 915.036 85.1795 913.902 85.8875 913.062C86.5955 912.21 87.5855 911.784 88.8575 911.784ZM89.0015 919.776C89.8055 919.776 90.4415 919.476 90.9095 918.876C91.3895 918.264 91.6295 917.46 91.6295 916.464C91.6295 915.468 91.3895 914.67 90.9095 914.07C90.4415 913.458 89.8055 913.152 89.0015 913.152C88.2095 913.152 87.5735 913.458 87.0935 914.07C86.6135 914.682 86.3735 915.48 86.3735 916.464C86.3735 917.448 86.6135 918.246 87.0935 918.858C87.5735 919.47 88.2095 919.776 89.0015 919.776ZM100.298 921.144C99.7701 921.144 99.2541 921.024 98.7501 920.784C98.2461 920.544 97.8801 920.244 97.6521 919.884V921H96.1401V908.256H97.6521V913.008C97.8081 912.732 98.1561 912.456 98.6961 912.18C99.2121 911.916 99.7461 911.784 100.298 911.784C101.57 911.784 102.56 912.21 103.268 913.062C103.976 913.902 104.33 915.036 104.33 916.464C104.33 917.892 103.976 919.032 103.268 919.884C102.56 920.724 101.57 921.144 100.298 921.144ZM100.154 913.152C99.3501 913.152 98.7081 913.458 98.2281 914.07C97.7601 914.67 97.5261 915.468 97.5261 916.464C97.5261 917.46 97.7601 918.264 98.2281 918.876C98.7081 919.476 99.3501 919.776 100.154 919.776C100.946 919.776 101.582 919.47 102.062 918.858C102.542 918.246 102.782 917.448 102.782 916.464C102.782 915.48 102.542 914.682 102.062 914.07C101.582 913.458 100.946 913.152 100.154 913.152ZM107.723 918.39C107.723 918.822 107.849 919.164 108.101 919.416C108.365 919.656 108.737 919.776 109.217 919.776C109.913 919.776 110.507 919.554 110.999 919.11C111.503 918.666 111.755 917.964 111.755 917.004V916.788H110.135C109.367 916.788 108.773 916.926 108.353 917.202C107.933 917.478 107.723 917.874 107.723 918.39ZM113.267 915.204V921H112.079L111.827 919.722C111.167 920.67 110.219 921.144 108.983 921.144C108.131 921.144 107.447 920.91 106.931 920.442C106.427 919.974 106.175 919.29 106.175 918.39C106.175 917.442 106.535 916.71 107.255 916.194C107.987 915.678 108.995 915.42 110.279 915.42H111.755V915.024C111.755 913.776 111.095 913.152 109.775 913.152C109.295 913.152 108.881 913.278 108.533 913.53C108.197 913.782 107.981 914.13 107.885 914.574L106.553 914.268C106.673 913.512 107.021 912.912 107.597 912.468C108.185 912.012 108.911 911.784 109.775 911.784C110.855 911.784 111.707 912.072 112.331 912.648C112.955 913.224 113.267 914.076 113.267 915.204ZM122.022 918.102L123.336 918.642C122.604 920.31 121.338 921.144 119.538 921.144C118.218 921.144 117.198 920.694 116.478 919.794C115.77 918.87 115.416 917.76 115.416 916.464C115.416 915.168 115.77 914.064 116.478 913.152C117.198 912.24 118.218 911.784 119.538 911.784C121.338 911.784 122.604 912.618 123.336 914.286L122.022 914.826C121.53 913.71 120.702 913.152 119.538 913.152C118.722 913.152 118.086 913.458 117.63 914.07C117.186 914.67 116.964 915.468 116.964 916.464C116.964 917.46 117.186 918.264 117.63 918.876C118.086 919.476 118.722 919.776 119.538 919.776C120.702 919.776 121.53 919.218 122.022 918.102ZM125.377 921V908.256H126.889V915.726L130.417 911.928H132.361L128.509 916.086L132.649 921H130.723L126.889 916.446V921H125.377Z" fill="#230000"/>
<circle cx="91.5" cy="662.5" r="89.5" fill="#6562F5" fill-opacity="0.6" stroke="#333333" stroke-width="2"/>
<path d="M84.5202 699.09V671.873H82.3603C80.5414 671.873 78.9499 671.083 77.8131 669.953C76.5626 668.824 75.8805 667.13 75.8805 665.436C75.8805 663.629 76.5626 662.048 77.8131 660.806C78.9499 659.677 80.5414 658.999 82.3603 658.999C84.1792 658.999 85.7707 659.677 86.9075 660.806C88.158 662.048 88.8401 663.629 88.8401 665.436V667.582H93.1599V665.436C93.1599 663.629 93.842 662.048 95.0925 660.806C96.2293 659.677 97.8208 658.999 99.6397 658.999C101.459 658.999 103.05 659.677 104.187 660.806C105.437 662.048 106.119 663.629 106.119 665.436C106.119 667.13 105.437 668.824 104.187 669.953C103.05 671.083 101.459 671.873 99.6397 671.873H97.4798V699.09H103.277C103.846 688.926 108.166 682.941 112.258 677.068C116.123 671.647 119.988 666.453 119.988 657.644C119.988 649.626 116.692 642.511 111.462 637.316C106.233 632.009 98.9576 628.847 91 628.847C83.0424 628.847 75.7669 632.009 70.5376 637.316C65.3083 642.511 62.0116 649.626 62.0116 657.644C62.0116 666.453 65.763 671.647 69.6281 677.068C73.8343 682.941 78.1541 688.926 78.7225 699.09H84.5202ZM125.445 684.747C124.649 683.844 124.649 682.489 125.445 681.698C126.355 680.795 127.719 680.795 128.514 681.698L137.04 690.055C137.836 690.959 137.836 692.314 137.04 693.104C136.131 694.008 134.767 694.008 133.971 693.104L125.445 684.747ZM53.4855 681.698C54.2813 680.795 55.6455 680.795 56.5549 681.698C57.3507 682.489 57.3507 683.844 56.5549 684.747L48.0289 693.104C47.2331 694.008 45.869 694.008 44.9595 693.104C44.1638 692.314 44.1638 690.959 44.9595 690.055L53.4855 681.698ZM46.0963 650.981C47.3468 650.981 48.2563 651.884 48.2563 653.127C48.2563 654.256 47.3468 655.272 46.0963 655.272H34.1599C32.9094 655.272 32 654.256 32 653.127C32 651.884 32.9094 650.981 34.1599 650.981H46.0963ZM147.84 650.981C148.977 650.981 150 651.884 150 653.127C150 654.256 148.977 655.272 147.84 655.272H135.904C134.653 655.272 133.744 654.256 133.744 653.127C133.744 651.884 134.653 650.981 135.904 650.981H147.84ZM62.921 621.506C63.7168 622.409 63.7168 623.765 62.921 624.555C62.0116 625.459 60.6474 625.459 59.8516 624.555L51.3256 616.198C50.5299 615.295 50.5299 613.94 51.3256 613.149C52.2351 612.246 53.5992 612.246 54.395 613.149L62.921 621.506ZM122.148 624.555C121.353 625.459 119.988 625.459 119.079 624.555C118.283 623.765 118.283 622.409 119.079 621.506L127.605 613.149C128.401 612.246 129.765 612.246 130.674 613.149C131.47 613.94 131.47 615.295 130.674 616.198L122.148 624.555ZM93.1599 611.003C93.1599 612.246 92.1368 613.149 91 613.149C89.7495 613.149 88.8401 612.246 88.8401 611.003V599.146C88.8401 597.903 89.7495 597 91 597C92.1368 597 93.1599 597.903 93.1599 599.146V611.003ZM97.4798 724.838C97.4798 725.741 97.1387 726.532 96.5703 727.097C95.8882 727.661 95.0925 728 94.183 728H87.7033C86.9075 728 85.9981 727.661 85.4297 727.097C84.8613 726.532 84.5202 725.741 84.5202 724.838H81.9056C79.8593 724.838 77.9268 723.934 76.5626 722.579C75.1985 721.224 74.4027 719.417 74.4027 717.272V711.964V701.235C74.4027 701.122 74.4027 701.009 74.4027 700.897C74.289 690.959 70.1965 685.199 66.2177 679.553C61.8979 673.567 57.6917 667.808 57.6917 657.644C57.6917 648.497 61.4432 640.253 67.4682 634.267C73.4933 628.282 81.7919 624.555 91 624.555C100.208 624.555 108.507 628.282 114.532 634.267C120.557 640.253 124.308 648.497 124.308 657.644C124.308 667.808 120.102 673.567 115.782 679.553C111.803 685.199 107.711 690.959 107.597 700.897C107.597 701.009 107.597 701.122 107.597 701.235V711.964V717.272C107.597 719.417 106.688 721.224 105.324 722.579C103.96 723.934 102.141 724.838 99.9807 724.838H97.4798ZM103.277 703.494H78.7225V709.818H103.277V703.494ZM93.1599 699.09V671.873H88.8401V699.09H93.1599ZM103.277 714.109H78.7225V717.272C78.7225 718.175 79.0636 718.966 79.632 719.643C80.2004 720.208 81.1098 720.547 81.9056 720.547H99.9807C100.89 720.547 101.686 720.208 102.368 719.643C102.936 718.966 103.277 718.175 103.277 717.272V714.109ZM84.5202 667.582V665.436C84.5202 664.759 84.2929 664.307 83.8381 663.855C83.4971 663.516 82.9287 663.291 82.3603 663.291C81.7919 663.291 81.2235 663.516 80.7688 663.855C80.4277 664.307 80.2004 664.759 80.2004 665.436C80.2004 666.001 80.4277 666.566 80.7688 666.904C81.2235 667.356 81.7919 667.582 82.3603 667.582H84.5202ZM97.4798 667.582H99.6397C100.208 667.582 100.776 667.356 101.118 666.904C101.572 666.566 101.8 666.001 101.8 665.436C101.8 664.759 101.572 664.307 101.118 663.855C100.776 663.516 100.208 663.291 99.6397 663.291C99.0713 663.291 98.5029 663.516 98.1619 663.855H98.0482C97.7071 664.307 97.4798 664.759 97.4798 665.436V667.582Z" fill="#6562F5"/>
<path d="M62.8 643.08L61.38 644C61.0733 643.453 60.7467 643.073 60.4 642.86C60.0667 642.633 59.6533 642.52 59.16 642.52C58.68 642.52 58.28 642.693 57.96 643.04C57.64 643.373 57.48 643.78 57.48 644.26C57.48 644.913 57.7533 645.453 58.3 645.88C58.6867 646.147 58.9533 646.32 59.1 646.4L60.18 646.96C60.94 647.347 61.5533 647.713 62.02 648.06C62.9667 648.767 63.4667 649.74 63.52 650.98C63.52 652.1 63.16 653.053 62.44 653.84C61.64 654.72 60.6 655.16 59.32 655.16C58.1867 655.16 57.2067 654.807 56.38 654.1C55.5667 653.407 55.04 652.5 54.8 651.38L56.32 650.46C56.6133 651.473 56.9867 652.233 57.44 652.74C57.9067 653.233 58.5333 653.48 59.32 653.48C60.1333 653.48 60.7667 653.213 61.22 652.68C61.58 652.24 61.76 651.687 61.76 651.02C61.76 650.447 61.5467 649.96 61.12 649.56C60.7067 649.16 60.04 648.74 59.12 648.3C58.1467 647.86 57.36 647.38 56.76 646.86C56.0667 646.247 55.72 645.427 55.72 644.4C55.72 643.387 56.06 642.54 56.74 641.86C57.42 641.18 58.2267 640.84 59.16 640.84C60.0533 640.84 60.7867 641.027 61.36 641.4C61.9333 641.773 62.4133 642.333 62.8 643.08ZM66.6688 653.64C65.7888 652.627 65.3488 651.4 65.3488 649.96C65.3488 648.547 65.7888 647.327 66.6688 646.3C67.5754 645.273 68.7488 644.76 70.1888 644.76C71.6421 644.76 72.8088 645.273 73.6888 646.3C74.5821 647.313 75.0288 648.533 75.0288 649.96C75.0288 651.4 74.5821 652.627 73.6888 653.64C72.8088 654.653 71.6421 655.16 70.1888 655.16C68.7354 655.16 67.5621 654.653 66.6688 653.64ZM67.8888 647.38C67.3421 648.113 67.0688 648.973 67.0688 649.96C67.0688 650.947 67.3421 651.813 67.8888 652.56C68.4488 653.28 69.2154 653.64 70.1888 653.64C71.1754 653.64 71.9354 653.28 72.4688 652.56C73.0288 651.813 73.3088 650.947 73.3088 649.96C73.3088 648.96 73.0288 648.1 72.4688 647.38C71.9354 646.647 71.1754 646.28 70.1888 646.28C69.2154 646.28 68.4488 646.647 67.8888 647.38ZM77.4508 655V640.84H79.1308V655H77.4508ZM81.9755 652.02V644.92H83.6555V651.58C83.6555 652.953 84.2355 653.64 85.3955 653.64C86.1821 653.64 86.8555 653.227 87.4155 652.4C87.9888 651.587 88.2755 650.5 88.2755 649.14V644.92H89.9555V655H88.2755V653.14C87.5155 654.487 86.4021 655.16 84.9355 655.16C84.0155 655.16 83.2888 654.887 82.7555 654.34C82.2355 653.793 81.9755 653.02 81.9755 652.02ZM93.897 646.44H92.157V644.92H93.897V641.9L95.577 640.84V644.92H98.217V646.44H95.577V651.98C95.577 652.513 95.6904 652.927 95.917 653.22C96.157 653.5 96.4904 653.64 96.917 653.64C97.3704 653.64 97.7504 653.533 98.057 653.32L98.457 654.78C98.0304 655.033 97.4837 655.16 96.817 655.16C95.9104 655.16 95.197 654.873 94.677 654.3C94.157 653.727 93.897 652.907 93.897 651.84V646.44ZM100.837 655V644.92H102.517V655H100.837ZM100.417 642.12C100.417 641.76 100.537 641.46 100.777 641.22C101.017 640.967 101.317 640.84 101.677 640.84C102.037 640.84 102.337 640.967 102.577 641.22C102.817 641.46 102.937 641.76 102.937 642.12C102.937 642.467 102.817 642.76 102.577 643C102.337 643.24 102.037 643.36 101.677 643.36C101.317 643.36 101.017 643.24 100.777 643C100.537 642.76 100.417 642.467 100.417 642.12ZM106.294 653.64C105.414 652.627 104.974 651.4 104.974 649.96C104.974 648.547 105.414 647.327 106.294 646.3C107.2 645.273 108.374 644.76 109.814 644.76C111.267 644.76 112.434 645.273 113.314 646.3C114.207 647.313 114.654 648.533 114.654 649.96C114.654 651.4 114.207 652.627 113.314 653.64C112.434 654.653 111.267 655.16 109.814 655.16C108.36 655.16 107.187 654.653 106.294 653.64ZM107.514 647.38C106.967 648.113 106.694 648.973 106.694 649.96C106.694 650.947 106.967 651.813 107.514 652.56C108.074 653.28 108.84 653.64 109.814 653.64C110.8 653.64 111.56 653.28 112.094 652.56C112.654 651.813 112.934 650.947 112.934 649.96C112.934 648.96 112.654 648.1 112.094 647.38C111.56 646.647 110.8 646.28 109.814 646.28C108.84 646.28 108.074 646.647 107.514 647.38ZM125.213 647.9V655H123.533V648.34C123.533 646.967 122.953 646.28 121.793 646.28C121.02 646.28 120.34 646.693 119.753 647.52C119.193 648.347 118.913 649.433 118.913 650.78V655H117.233V644.92H118.913V646.78C119.673 645.433 120.786 644.76 122.253 644.76C123.173 644.76 123.893 645.033 124.413 645.58C124.946 646.127 125.213 646.9 125.213 647.9Z" fill="white"/>
<path d="M89.2322 561.768C90.2085 562.744 91.7915 562.744 92.7678 561.768L108.678 545.858C109.654 544.882 109.654 543.299 108.678 542.322C107.701 541.346 106.118 541.346 105.142 542.322L91 556.464L76.8579 542.322C75.8816 541.346 74.2986 541.346 73.3223 542.322C72.346 543.299 72.346 544.882 73.3223 545.858L89.2322 561.768ZM88.5 454V560H93.5V454H88.5Z" fill="#333333"/>
<path d="M95.2322 299.768C96.2085 300.744 97.7915 300.744 98.7678 299.768L114.678 283.858C115.654 282.882 115.654 281.299 114.678 280.322C113.701 279.346 112.118 279.346 111.142 280.322L97 294.464L82.8579 280.322C81.8816 279.346 80.2986 279.346 79.3223 280.322C78.346 281.299 78.346 282.882 79.3223 283.858L95.2322 299.768ZM94.5 116L94.5 298H99.5L99.5 116H94.5Z" fill="#333333"/>
<rect x="13" y="302" width="168" height="163" rx="13" fill="#E7E6FF" stroke="#333333" stroke-width="2"/>
<path d="M89.3023 346.605H89.1628H89.0233L88.8837 346.465C88.8837 346.465 88.8837 346.465 88.8837 346.326C88.8837 346.326 88.8837 346.186 88.7442 346.186C88.7442 346.186 88.7442 346.186 88.7442 346.047C88.0465 342.558 86.7907 339.349 84.8372 336.419C84.8372 336.419 84.8372 336.279 84.6977 336.279V336.14V336V335.86V335.721V335.581L88.6047 330L83.8605 325.256L78.2791 329.163C78.2791 329.163 78.2791 329.163 78.1395 329.163C78 329.163 78 329.163 78 329.163C77.8605 329.163 77.7209 329.163 77.7209 329.023C74.7907 327.07 71.5814 325.674 68.093 325.116C68.093 325.116 67.9535 325.116 67.9535 324.977C67.9535 324.977 67.9535 324.977 67.814 324.977L67.6744 324.837C67.6744 324.837 67.6744 324.837 67.6744 324.698C67.6744 324.698 67.6744 324.558 67.5349 324.558C67.5349 324.558 67.5349 324.558 67.5349 324.419L66.2791 318H59.7209L58.6047 324.698V324.837V324.977C58.6047 325.116 58.4651 325.116 58.4651 325.116C58.3256 325.116 58.3256 325.256 58.186 325.256C54.6977 325.953 51.4884 327.209 48.5581 329.163C48.4186 329.302 48.2791 329.302 48.2791 329.302C48.1395 329.302 48.1395 329.302 48.1395 329.302H48L42.4186 325.395L37.6744 330.14L41.5814 335.721C41.5814 335.721 41.5814 335.86 41.7209 335.86V336V336.14V336.279V336.419V336.558C39.7674 339.488 38.3721 342.698 37.814 346.186C37.814 346.186 37.814 346.186 37.814 346.326C37.814 346.326 37.814 346.465 37.6744 346.465C37.6744 346.465 37.6744 346.465 37.5349 346.605L37.3953 346.744C37.3953 346.744 37.3953 346.744 37.2558 346.744H37.1163L30 347.721V354.279L36.6977 355.395H36.8372C36.8372 355.395 36.9767 355.395 36.9767 355.535L37.1163 355.674C37.1163 355.674 37.1163 355.674 37.1163 355.814C37.1163 355.814 37.1163 355.953 37.2558 355.953C37.9535 359.442 39.2093 362.651 41.1628 365.581V365.721V365.86V366V366.14V366.279C41.1628 366.279 41.1628 366.419 41.0233 366.419L37.1163 372L41.8605 376.744L47.4419 372.837C47.4419 372.837 47.5814 372.837 47.5814 372.698H47.7209H47.8605H48C48 372.698 48 372.698 48.1395 372.698C48.2791 372.698 48.2791 372.698 48.2791 372.837C51.2093 374.791 54.4186 376.186 57.907 376.744H58.0465H58.186C58.186 376.744 58.186 376.884 58.3256 376.884L58.4651 377.023V377.163V377.302L59.5814 384H66.2791L67.3953 377.302V377.163V377.023C67.3953 377.023 67.3954 377.023 67.5349 376.884L67.6744 376.744C67.6744 376.744 67.6744 376.744 67.814 376.744C67.9535 376.744 67.9535 376.744 67.9535 376.605C71.4419 375.907 74.6512 374.651 77.5814 372.698C77.5814 372.698 77.7209 372.698 77.7209 372.558C77.7209 372.558 77.7209 372.558 77.8605 372.558H78H78.1395C78.1395 372.558 78.1395 372.558 78.2791 372.558C78.2791 372.558 78.4186 372.558 78.4186 372.698L84 376.605L88.7442 371.86L84.8372 366.279V366.14V366V365.86V365.721C84.8372 365.721 84.8372 365.721 84.8372 365.581C84.8372 365.581 84.8372 365.442 84.9767 365.442C86.9302 362.512 88.3256 359.302 88.8837 355.814V355.674V355.535L89.0233 355.395C89.0233 355.395 89.1628 355.395 89.1628 355.256C89.1628 355.256 89.1628 355.256 89.3023 355.256L96 354.14V347.581L89.3023 346.605ZM63.0698 365.302C55.2558 365.302 48.8372 358.884 48.8372 351.07C48.8372 343.256 55.2558 336.837 63.0698 336.837C70.8837 336.837 77.3023 343.256 77.3023 351.07C77.1628 358.884 70.8837 365.302 63.0698 365.302Z" fill="#6562F5" fill-opacity="0.77"/>
<path d="M156.444 409.688H156.222H156L155.778 409.465C155.778 409.465 155.778 409.465 155.778 409.241C155.778 409.241 155.778 409.017 155.556 409.017C155.556 409.017 155.556 409.017 155.556 408.793C154.889 404.765 153.111 400.737 150.889 397.38V397.156V396.932V396.708V396.484V396.261C150.889 396.261 150.889 396.037 151.111 396.037L155.778 389.547L150.222 383.952L143.778 388.652H143.556C143.333 388.652 143.333 388.652 143.111 388.652C142.889 388.652 142.667 388.652 142.444 388.428C138.889 386.19 135.111 384.399 131.111 383.728H130.889H130.667L130.444 383.504C130.444 383.504 130.444 383.504 130.444 383.28C130.444 383.28 130.444 383.057 130.222 383.057C130.222 383.057 130.222 383.057 130.222 382.833L128.889 375H121.333L120 383.057V383.28V383.504L119.778 383.728C119.778 383.728 119.778 383.952 119.556 383.952H119.333H119.111C115.111 384.847 111.111 386.414 107.778 388.652C107.556 388.875 107.333 388.875 107.111 388.875C106.889 388.875 106.889 388.875 106.667 388.875C106.667 388.875 106.667 388.875 106.444 388.875L99.7778 383.952L94.4444 389.323L99.1111 395.813C99.1111 395.813 99.1111 396.037 99.3333 396.037V396.261V396.484V396.708V396.932V397.156C96.8889 400.737 95.3333 404.541 94.6667 408.569C94.6667 408.569 94.6667 408.569 94.6667 408.793C94.6667 408.793 94.6667 409.017 94.4444 409.017C94.4444 409.017 94.4444 409.017 94.4444 409.241L94.2222 409.465C94.2222 409.465 94.2222 409.465 94 409.465H93.7778L86 410.807V418.416L93.7778 419.759C94 419.759 94.2222 419.983 94.4444 420.207C94.4444 420.207 94.4444 420.207 94.4444 420.431C94.4444 420.431 94.4444 420.654 94.6667 420.654C95.5556 424.683 97.1111 428.711 99.3333 432.068V432.292V432.516V432.739V432.963V433.187C99.3333 433.187 99.3333 433.411 99.1111 433.411L94.4444 439.901L99.7778 445.272L106.222 440.572H106.444H106.667H107.111C107.111 440.572 107.111 440.572 107.333 440.572H107.556C111.111 442.81 114.889 444.601 118.889 445.272H119.111H119.333L119.556 445.496C119.556 445.496 119.556 445.496 119.778 445.72V445.943V446.167L121.111 454H128.889L130.222 446.167C130.222 445.72 130.667 445.272 131.111 445.272C135.111 444.377 139.111 442.81 142.444 440.572H142.667H142.889H143.333C143.333 440.572 143.333 440.572 143.556 440.572C143.556 440.572 143.778 440.572 143.778 440.796L150.222 445.496L155.556 440.125L150.889 433.635C150.889 433.635 150.889 433.411 150.667 433.411C150.667 433.411 150.667 433.411 150.667 433.187V432.963V432.739V432.516V432.292C153.111 428.711 154.667 424.907 155.333 420.878V420.654V420.431L155.556 420.207C155.556 420.207 155.556 420.207 155.778 420.207C155.778 420.207 156 420.207 156 419.983H156.222L164 418.64V411.031L156.444 409.688ZM125.111 432.068C115.556 432.068 107.778 424.235 107.778 414.612C107.778 404.989 115.556 397.156 125.111 397.156C134.667 397.156 142.444 404.989 142.444 414.612C142.444 424.459 134.667 432.068 125.111 432.068Z" fill="#6562F5" fill-opacity="0.77"/>
<rect x="12" y="43" width="168" height="163" fill="#E0DDD6" stroke="#333333" stroke-width="2"/>
<path d="M136.945 116.522C130.774 116.522 125.71 121.167 124.996 127.171H112.798C112.513 123.454 111.015 120.024 108.732 117.344L125.959 100.085C129.027 102.193 133.235 101.907 135.946 99.1557C139.013 96.0827 139.013 91.1157 135.946 88.0427C132.879 84.9696 127.921 84.9696 124.854 88.0427C122.143 90.7584 121.822 94.9749 123.926 98.048L106.699 115.307C104.024 113.02 100.6 111.555 96.891 111.234V99.0485C102.883 98.3339 107.52 93.2597 107.52 87.0779C107.555 80.3957 102.134 75 95.5 75C88.866 75 83.4447 80.3957 83.4447 87.0779C83.4447 93.2597 88.0813 98.3339 94.0733 99.0485V111.269C90.364 111.555 86.94 113.056 84.265 115.343L81.2333 112.306C83.3377 109.233 83.0523 105.016 80.306 102.3C77.2387 99.2272 72.281 99.2272 69.2137 102.3C66.1463 105.373 66.1463 110.34 69.2137 113.413C71.9243 116.129 76.133 116.451 79.2003 114.342L82.232 117.38C79.9493 120.06 78.487 123.49 78.166 127.206H66.0037C65.2903 121.203 60.2257 116.558 54.0553 116.558C47.3857 116.522 42 121.954 42 128.6C42 135.246 47.3857 140.678 54.0553 140.678C60.2257 140.678 65.2903 136.033 66.0037 130.029H78.2017C78.487 133.746 79.985 137.176 82.2677 139.856L79.236 142.893C76.1687 140.785 71.96 141.071 69.2493 143.822C66.182 146.895 66.182 151.862 69.2493 154.935C72.3167 158.009 77.2743 158.009 80.3417 154.935C83.0523 152.22 83.3733 148.003 81.269 144.93L84.3007 141.893C86.9757 144.18 90.3997 145.645 94.109 145.966V158.187C88.117 158.902 83.4803 163.976 83.4803 170.158C83.4803 176.804 88.866 182.236 95.5357 182.236C102.205 182.236 107.591 176.84 107.591 170.158C107.591 163.976 102.954 158.902 96.9623 158.187V145.966C100.672 145.681 104.096 144.18 106.771 141.893L109.802 144.93C107.698 148.003 107.983 152.22 110.73 154.935C113.797 158.009 118.755 158.009 121.822 154.935C124.889 151.862 124.889 146.895 121.822 143.822C119.111 141.107 114.903 140.785 111.835 142.893L108.804 139.856C111.086 137.176 112.549 133.746 112.87 130.029H125.068C125.781 136.033 130.846 140.678 137.016 140.678C143.65 140.678 149.071 135.282 149.071 128.6C149.071 121.918 143.614 116.522 136.945 116.522Z" fill="#C1BBAC"/>
<path d="M6.24 274L11.08 260H12.76L17.6 274H15.84L14.6 270.26H9.24L8 274H6.24ZM14.04 268.58L11.92 262.28L9.8 268.58H14.04ZM27.4559 266.9V274H25.7759V267.34C25.7759 265.967 25.1959 265.28 24.0359 265.28C23.2626 265.28 22.5826 265.693 21.9959 266.52C21.4359 267.347 21.1559 268.433 21.1559 269.78V274H19.4759V263.92H21.1559V265.78C21.9159 264.433 23.0293 263.76 24.4959 263.76C25.4159 263.76 26.1359 264.033 26.6559 264.58C27.1893 265.127 27.4559 265.9 27.4559 266.9ZM31.6041 271.1C31.6041 271.58 31.7441 271.96 32.0241 272.24C32.3174 272.507 32.7307 272.64 33.2641 272.64C34.0374 272.64 34.6974 272.393 35.2441 271.9C35.8041 271.407 36.0841 270.627 36.0841 269.56V269.32H34.2841C33.4307 269.32 32.7707 269.473 32.3041 269.78C31.8374 270.087 31.6041 270.527 31.6041 271.1ZM37.7641 267.56V274H36.4441L36.1641 272.58C35.4307 273.633 34.3774 274.16 33.0041 274.16C32.0574 274.16 31.2974 273.9 30.7241 273.38C30.1641 272.86 29.8841 272.1 29.8841 271.1C29.8841 270.047 30.2841 269.233 31.0841 268.66C31.8974 268.087 33.0174 267.8 34.4441 267.8H36.0841V267.36C36.0841 265.973 35.3507 265.28 33.8841 265.28C33.3507 265.28 32.8907 265.42 32.5041 265.7C32.1307 265.98 31.8907 266.367 31.7841 266.86L30.3041 266.52C30.4374 265.68 30.8241 265.013 31.4641 264.52C32.1174 264.013 32.9241 263.76 33.8841 263.76C35.0841 263.76 36.0307 264.08 36.7241 264.72C37.4174 265.36 37.7641 266.307 37.7641 267.56ZM40.5984 274V259.84H42.2784V274H40.5984ZM48.65 271.2L51.15 263.92H52.91L47.91 278.08H46.19L47.79 273.58L44.25 263.92H46.09L48.65 271.2ZM55.7556 265.44H54.0156V263.92H55.7556V260.9L57.4356 259.84V263.92H60.0756V265.44H57.4356V270.98C57.4356 271.513 57.549 271.927 57.7756 272.22C58.0156 272.5 58.349 272.64 58.7756 272.64C59.229 272.64 59.609 272.533 59.9156 272.32L60.3156 273.78C59.889 274.033 59.3423 274.16 58.6756 274.16C57.769 274.16 57.0556 273.873 56.5356 273.3C56.0156 272.727 55.7556 271.907 55.7556 270.84V265.44ZM62.6952 274V263.92H64.3752V274H62.6952ZM62.2752 261.12C62.2752 260.76 62.3952 260.46 62.6352 260.22C62.8752 259.967 63.1752 259.84 63.5352 259.84C63.8952 259.84 64.1952 259.967 64.4352 260.22C64.6752 260.46 64.7952 260.76 64.7952 261.12C64.7952 261.467 64.6752 261.76 64.4352 262C64.1952 262.24 63.8952 262.36 63.5352 262.36C63.1752 262.36 62.8752 262.24 62.6352 262C62.3952 261.76 62.2752 261.467 62.2752 261.12ZM74.1723 270.78L75.6323 271.38C74.819 273.233 73.4123 274.16 71.4123 274.16C69.9457 274.16 68.8123 273.66 68.0123 272.66C67.2257 271.633 66.8323 270.4 66.8323 268.96C66.8323 267.52 67.2257 266.293 68.0123 265.28C68.8123 264.267 69.9457 263.76 71.4123 263.76C73.4123 263.76 74.819 264.687 75.6323 266.54L74.1723 267.14C73.6257 265.9 72.7057 265.28 71.4123 265.28C70.5057 265.28 69.799 265.62 69.2923 266.3C68.799 266.967 68.5523 267.853 68.5523 268.96C68.5523 270.067 68.799 270.96 69.2923 271.64C69.799 272.307 70.5057 272.64 71.4123 272.64C72.7057 272.64 73.6257 272.02 74.1723 270.78ZM81.0341 263.76C82.2607 263.76 83.2341 264.273 83.9541 265.3L82.8141 266.28C82.1874 265.613 81.5741 265.28 80.9741 265.28C80.6141 265.28 80.3207 265.4 80.0941 265.64C79.8674 265.867 79.7541 266.173 79.7541 266.56C79.7541 266.88 79.9141 267.167 80.2341 267.42C80.5541 267.66 80.9407 267.873 81.3941 268.06C81.8607 268.233 82.3207 268.427 82.7741 268.64C83.2407 268.853 83.6341 269.16 83.9541 269.56C84.2741 269.947 84.4341 270.413 84.4341 270.96C84.4341 271.96 84.1341 272.747 83.5341 273.32C82.9341 273.88 82.1207 274.16 81.0941 274.16C80.1874 274.16 79.4074 273.913 78.7541 273.42C78.1141 272.913 77.6407 272.253 77.3341 271.44L78.7541 270.66C79.2874 271.98 80.0674 272.64 81.0941 272.64C82.1741 272.64 82.7141 272.113 82.7141 271.06C82.7141 270.473 82.1674 269.987 81.0741 269.6C80.7141 269.467 80.4341 269.36 80.2341 269.28C80.0341 269.187 79.7741 269.047 79.4541 268.86C79.1474 268.673 78.9074 268.487 78.7341 268.3C78.5607 268.113 78.4074 267.867 78.2741 267.56C78.1407 267.253 78.0741 266.913 78.0741 266.54C78.0741 265.727 78.3474 265.06 78.8941 264.54C79.4407 264.02 80.1541 263.76 81.0341 263.76ZM96.2044 274.16C94.911 274.16 93.8844 273.787 93.1244 273.04C92.3644 272.293 91.9844 271.28 91.9844 270C91.9844 269.04 92.2444 268.187 92.7644 267.44C93.3244 266.68 93.9644 266.113 94.6844 265.74C93.871 264.647 93.4644 263.673 93.4644 262.82C93.4644 261.953 93.7577 261.24 94.3444 260.68C94.9444 260.12 95.6844 259.84 96.5644 259.84C97.511 259.84 98.2644 260.107 98.8244 260.64C99.3977 261.16 99.6844 261.827 99.6844 262.64C99.6844 263.2 99.5177 263.767 99.1844 264.34C98.811 264.967 98.071 265.573 96.9644 266.16L99.8844 269.86C100.164 269.287 100.478 268.493 100.824 267.48L101.944 268.7C101.584 269.7 101.238 270.52 100.904 271.16L103.144 274H101.124L99.9444 272.52C98.9844 273.613 97.7377 274.16 96.2044 274.16ZM96.2044 272.6C97.351 272.6 98.2777 272.167 98.9844 271.3L95.5444 266.88C94.2644 267.6 93.6244 268.653 93.6244 270.04C93.6244 270.827 93.8644 271.453 94.3444 271.92C94.8377 272.373 95.4577 272.6 96.2044 272.6ZM95.0644 262.9C95.0644 263.5 95.391 264.227 96.0444 265.08C96.751 264.733 97.271 264.38 97.6044 264.02C97.9377 263.66 98.1044 263.233 98.1044 262.74C98.1044 262.327 97.9577 261.98 97.6644 261.7C97.371 261.42 97.0044 261.28 96.5644 261.28C96.1244 261.28 95.7644 261.433 95.4844 261.74C95.2044 262.033 95.0644 262.42 95.0644 262.9ZM110.911 274V260H113.071L116.811 269.86L120.551 260H122.711V274H120.951V263.8L117.431 272.72H116.191L112.671 263.8V274H110.911ZM126.796 272.64C125.916 271.627 125.476 270.4 125.476 268.96C125.476 267.547 125.916 266.327 126.796 265.3C127.703 264.273 128.876 263.76 130.316 263.76C131.769 263.76 132.936 264.273 133.816 265.3C134.709 266.313 135.156 267.533 135.156 268.96C135.156 270.4 134.709 271.627 133.816 272.64C132.936 273.653 131.769 274.16 130.316 274.16C128.863 274.16 127.689 273.653 126.796 272.64ZM128.016 266.38C127.469 267.113 127.196 267.973 127.196 268.96C127.196 269.947 127.469 270.813 128.016 271.56C128.576 272.28 129.343 272.64 130.316 272.64C131.303 272.64 132.063 272.28 132.596 271.56C133.156 270.813 133.436 269.947 133.436 268.96C133.436 267.96 133.156 267.1 132.596 266.38C132.063 265.647 131.303 265.28 130.316 265.28C129.343 265.28 128.576 265.647 128.016 266.38ZM141.768 263.76C142.381 263.76 142.974 263.907 143.548 264.2C144.148 264.507 144.534 264.813 144.708 265.12V259.84H146.388V274H144.708V272.76C144.454 273.16 144.048 273.493 143.488 273.76C142.928 274.027 142.354 274.16 141.768 274.16C140.354 274.16 139.254 273.693 138.468 272.76C137.681 271.813 137.288 270.547 137.288 268.96C137.288 267.373 137.681 266.113 138.468 265.18C139.254 264.233 140.354 263.76 141.768 263.76ZM141.928 272.64C142.821 272.64 143.528 272.307 144.048 271.64C144.581 270.96 144.848 270.067 144.848 268.96C144.848 267.853 144.581 266.967 144.048 266.3C143.528 265.62 142.821 265.28 141.928 265.28C141.048 265.28 140.341 265.62 139.808 266.3C139.274 266.98 139.008 267.867 139.008 268.96C139.008 270.053 139.274 270.94 139.808 271.62C140.341 272.3 141.048 272.64 141.928 272.64ZM157.966 268.54V269.32H150.566C150.619 270.333 150.892 271.14 151.386 271.74C151.879 272.34 152.552 272.64 153.406 272.64C154.099 272.64 154.666 272.487 155.106 272.18C155.546 271.873 155.912 271.387 156.206 270.72L157.686 271.36C157.219 272.347 156.646 273.06 155.966 273.5C155.299 273.94 154.446 274.16 153.406 274.16C151.952 274.16 150.826 273.66 150.026 272.66C149.239 271.633 148.846 270.4 148.846 268.96C148.846 267.52 149.239 266.293 150.026 265.28C150.826 264.267 151.952 263.76 153.406 263.76C154.832 263.76 155.946 264.227 156.746 265.16C157.559 266.067 157.966 267.193 157.966 268.54ZM153.406 265.28C152.672 265.28 152.072 265.507 151.606 265.96C151.139 266.4 150.826 267.013 150.666 267.8H156.206C156.046 267.013 155.726 266.4 155.246 265.96C154.766 265.507 154.152 265.28 153.406 265.28ZM160.44 274V259.84H162.12V274H160.44ZM165.24 274V259.84H166.92V274H165.24ZM169.729 274V263.92H171.409V274H169.729ZM169.309 261.12C169.309 260.76 169.429 260.46 169.669 260.22C169.909 259.967 170.209 259.84 170.569 259.84C170.929 259.84 171.229 259.967 171.469 260.22C171.709 260.46 171.829 260.76 171.829 261.12C171.829 261.467 171.709 261.76 171.469 262C171.229 262.24 170.929 262.36 170.569 262.36C170.209 262.36 169.909 262.24 169.669 262C169.429 261.76 169.309 261.467 169.309 261.12ZM182.176 266.9V274H180.496V267.34C180.496 265.967 179.916 265.28 178.756 265.28C177.983 265.28 177.303 265.693 176.716 266.52C176.156 267.347 175.876 268.433 175.876 269.78V274H174.196V263.92H175.876V265.78C176.636 264.433 177.75 263.76 179.216 263.76C180.136 263.76 180.856 264.033 181.376 264.58C181.91 265.127 182.176 265.9 182.176 266.9ZM185.245 267.16C185.245 266.16 185.579 265.347 186.245 264.72C186.912 264.093 187.752 263.78 188.765 263.78C189.432 263.78 190.039 263.927 190.585 264.22L192.385 263.2L193.145 264.58L191.785 265.34C192.119 265.847 192.285 266.453 192.285 267.16C192.285 268.173 191.952 268.993 191.285 269.62C190.619 270.22 189.779 270.52 188.765 270.52C188.099 270.52 187.519 270.4 187.025 270.16C186.585 270.373 186.365 270.7 186.365 271.14C186.365 271.7 186.745 271.98 187.505 271.98H189.885C190.859 271.98 191.625 272.227 192.185 272.72C192.759 273.2 193.045 273.88 193.045 274.76C193.045 275.893 192.659 276.753 191.885 277.34C191.112 277.94 190.079 278.24 188.785 278.24C187.479 278.24 186.439 277.94 185.665 277.34C184.892 276.753 184.505 275.947 184.505 274.92C184.505 274.067 184.819 273.367 185.445 272.82C184.992 272.447 184.765 271.913 184.765 271.22C184.765 270.393 185.172 269.773 185.985 269.36C185.492 268.773 185.245 268.04 185.245 267.16ZM189.625 273.42H187.585C187.492 273.42 187.245 273.407 186.845 273.38C186.405 273.727 186.185 274.22 186.185 274.86C186.185 275.447 186.412 275.907 186.865 276.24C187.319 276.587 187.959 276.76 188.785 276.76C189.612 276.76 190.239 276.593 190.665 276.26C191.105 275.927 191.325 275.48 191.325 274.92C191.325 273.92 190.759 273.42 189.625 273.42ZM187.425 265.74C187.065 266.073 186.885 266.547 186.885 267.16C186.885 267.773 187.065 268.247 187.425 268.58C187.785 268.913 188.232 269.08 188.765 269.08C189.299 269.08 189.745 268.913 190.105 268.58C190.465 268.247 190.645 267.773 190.645 267.16C190.645 266.547 190.465 266.073 190.105 265.74C189.745 265.393 189.299 265.22 188.765 265.22C188.232 265.22 187.785 265.393 187.425 265.74Z" fill="#5B57FF"/>
<defs>
<filter id="filter0_d_0_1" x="0" y="803" width="182" height="181" filterUnits="userSpaceOnUse" color-interpolation-filters="sRGB">
<feFlood flood-opacity="0" result="BackgroundImageFix"/>
<feColorMatrix in="SourceAlpha" type="matrix" values="0 0 0 0 0 0 0 0 0 0 0 0 0 0 0 0 0 0 127 0" result="hardAlpha"/>
<feOffset dx="-1"/>
<feComposite in2="hardAlpha" operator="out"/>
<feColorMatrix type="matrix" values="0 0 0 0 0.2 0 0 0 0 0.2 0 0 0 0 0.2 0 0 0 1 0"/>
<feBlend mode="normal" in2="BackgroundImageFix" result="effect1_dropShadow_0_1"/>
<feBlend mode="normal" in="SourceGraphic" in2="effect1_dropShadow_0_1" result="shape"/>
</filter>
<radialGradient id="paint0_radial_0_1" cx="0" cy="0" r="1" gradientUnits="userSpaceOnUse" gradientTransform="translate(192 901) rotate(166.726) scale(145.898 215.581)">
<stop offset="0.0433636" stop-color="#6562F5"/>
<stop offset="1" stop-color="#62D2F5"/>
<stop offset="1" stop-color="#6562F5" stop-opacity="0"/>
</radialGradient>
</defs>
</svg>
