<svg width="150" height="80" viewBox="0 0 150 80" fill="none" xmlns="http://www.w3.org/2000/svg">
<rect width="150" height="80" fill="#E7E6FF"/>
<path d="M51.7378 30.203H51.6491H51.5603L51.4715 30.1142C51.4715 30.1142 51.4715 30.1142 51.4715 30.0254C51.4715 30.0254 51.4715 29.9366 51.3827 29.9366C51.3827 29.9366 51.3827 29.9366 51.3827 29.8478C50.9387 27.6279 50.1395 25.5856 48.8964 23.7209C48.8964 23.7209 48.8964 23.6321 48.8076 23.6321V23.5433V23.4545V23.3658V23.277V23.1882L51.2939 19.6364L48.2748 16.6173L44.723 19.1036C44.723 19.1036 44.723 19.1036 44.6343 19.1036C44.5455 19.1036 44.5455 19.1036 44.5455 19.1036C44.4567 19.1036 44.3679 19.1036 44.3679 19.0148C42.5032 17.7717 40.4609 16.8837 38.241 16.5285C38.241 16.5285 38.1522 16.5285 38.1522 16.4397C38.1522 16.4397 38.1522 16.4397 38.0634 16.4397L37.9746 16.351C37.9746 16.351 37.9746 16.351 37.9746 16.2622C37.9746 16.2622 37.9746 16.1734 37.8858 16.1734C37.8858 16.1734 37.8858 16.1734 37.8858 16.0846L37.0867 12H32.9133L32.203 16.2622V16.351V16.4397C32.203 16.5285 32.1142 16.5285 32.1142 16.5285C32.0254 16.5285 32.0254 16.6173 31.9366 16.6173C29.7167 17.0613 27.6744 17.8605 25.8097 19.1036C25.7209 19.1924 25.6321 19.1924 25.6321 19.1924C25.5433 19.1924 25.5433 19.1924 25.5433 19.1924H25.4545L21.9027 16.7061L18.8837 19.7252L21.37 23.277C21.37 23.277 21.37 23.3658 21.4588 23.3658V23.4545V23.5433V23.6321V23.7209V23.8097C20.2156 25.6744 19.3277 27.7167 18.9725 29.9366C18.9725 29.9366 18.9725 29.9366 18.9725 30.0254C18.9725 30.0254 18.9725 30.1142 18.8837 30.1142C18.8837 30.1142 18.8837 30.1142 18.7949 30.203L18.7061 30.2918C18.7061 30.2918 18.7061 30.2918 18.6173 30.2918H18.5285L14 30.9133V35.0867L18.2622 35.797H18.351C18.351 35.797 18.4397 35.797 18.4397 35.8858L18.5285 35.9746C18.5285 35.9746 18.5285 35.9746 18.5285 36.0634C18.5285 36.0634 18.5285 36.1522 18.6173 36.1522C19.0613 38.3721 19.8605 40.4144 21.1036 42.2791V42.3679V42.4567V42.5455V42.6342V42.723C21.1036 42.723 21.1036 42.8118 21.0148 42.8118L18.5285 46.3636L21.5476 49.3827L25.0994 46.8964C25.0994 46.8964 25.1882 46.8964 25.1882 46.8076H25.277H25.3658H25.4545C25.4545 46.8076 25.4545 46.8076 25.5433 46.8076C25.6321 46.8076 25.6321 46.8076 25.6321 46.8964C27.4968 48.1395 29.5391 49.0275 31.759 49.3827H31.8478H31.9366C31.9366 49.3827 31.9366 49.4715 32.0254 49.4715L32.1142 49.5603V49.649V49.7378L32.8245 54H37.0867L37.797 49.7378V49.649V49.5603C37.797 49.5603 37.797 49.5603 37.8858 49.4715L37.9746 49.3827C37.9746 49.3827 37.9746 49.3827 38.0634 49.3827C38.1522 49.3827 38.1522 49.3827 38.1522 49.2939C40.3721 48.8499 42.4144 48.0507 44.2791 46.8076C44.2791 46.8076 44.3679 46.8076 44.3679 46.7188C44.3679 46.7188 44.3679 46.7188 44.4567 46.7188H44.5455H44.6343C44.6343 46.7188 44.6342 46.7188 44.723 46.7188C44.723 46.7188 44.8118 46.7188 44.8118 46.8076L48.3636 49.2939L51.3827 46.2748L48.8964 42.723V42.6342V42.5455V42.4567V42.3679C48.8964 42.3679 48.8964 42.3679 48.8964 42.2791C48.8964 42.2791 48.8964 42.1903 48.9852 42.1903C50.2283 40.3256 51.1163 38.2833 51.4715 36.0634V35.9746V35.8858L51.5603 35.797C51.5603 35.797 51.6491 35.797 51.6491 35.7082C51.6491 35.7082 51.649 35.7082 51.7378 35.7082L56 34.9979V30.8245L51.7378 30.203ZM35.0444 42.1015C30.0719 42.1015 25.9873 38.0169 25.9873 33.0444C25.9873 28.0719 30.0719 23.9873 35.0444 23.9873C40.0169 23.9873 44.1015 28.0719 44.1015 33.0444C44.0127 38.0169 40.0169 42.1015 35.0444 42.1015Z" fill="#6562F5" fill-opacity="0.77"/>
<path d="M125.157 42.9547H125.014H124.872L124.729 42.813C124.729 42.813 124.729 42.813 124.729 42.6714C124.729 42.6714 124.729 42.5297 124.587 42.5297C124.587 42.5297 124.587 42.5297 124.587 42.3881C124.16 39.8385 123.02 37.289 121.595 35.1643V35.0227V34.881V34.7394V34.5977V34.4561C121.595 34.4561 121.595 34.3144 121.738 34.3144L124.729 30.2068L121.168 26.6657L117.037 29.6402H116.895C116.752 29.6402 116.752 29.6402 116.61 29.6402C116.467 29.6402 116.325 29.6402 116.182 29.4986C113.903 28.0822 111.481 26.949 108.917 26.5241H108.775H108.632L108.49 26.3824C108.49 26.3824 108.49 26.3824 108.49 26.2408C108.49 26.2408 108.49 26.0992 108.348 26.0992C108.348 26.0992 108.348 26.0992 108.348 25.9575L107.493 21H102.65L101.795 26.0992V26.2408V26.3824L101.652 26.5241C101.652 26.5241 101.652 26.6657 101.51 26.6657H101.368H101.225C98.661 27.2323 96.0969 28.2238 93.9601 29.6402C93.8177 29.7819 93.6752 29.7819 93.5328 29.7819C93.3903 29.7819 93.3903 29.7819 93.2479 29.7819C93.2479 29.7819 93.2479 29.7819 93.1054 29.7819L88.8319 26.6657L85.4131 30.0652L88.4046 34.1728C88.4046 34.1728 88.4046 34.3144 88.547 34.3144V34.4561V34.5977V34.7394V34.881V35.0227C86.9801 37.289 85.9829 39.6969 85.5556 42.2465C85.5556 42.2465 85.5556 42.2465 85.5556 42.3881C85.5556 42.3881 85.5556 42.5297 85.4131 42.5297C85.4131 42.5297 85.4131 42.5297 85.4131 42.6714L85.2707 42.813C85.2707 42.813 85.2707 42.813 85.1282 42.813H84.9858L80 43.6629V48.4788L84.9858 49.3286C85.1282 49.3286 85.2707 49.4703 85.4131 49.6119C85.4131 49.6119 85.4131 49.6119 85.4131 49.7535C85.4131 49.7535 85.4131 49.8952 85.5556 49.8952C86.1254 52.4448 87.1225 54.9943 88.547 57.119V57.2606V57.4023V57.5439V57.6856V57.8272C88.547 57.8272 88.547 57.9688 88.4046 57.9688L85.4131 62.0765L88.8319 65.4759L92.963 62.5014H93.1054H93.2479H93.5328C93.5328 62.5014 93.5328 62.5014 93.6752 62.5014H93.8177C96.0969 63.9178 98.5185 65.051 101.083 65.4759H101.225H101.368L101.51 65.6176C101.51 65.6176 101.51 65.6176 101.652 65.7592V65.9009V66.0425L102.507 71H107.493L108.348 66.0425C108.348 65.7592 108.632 65.4759 108.917 65.4759C111.481 64.9093 114.046 63.9178 116.182 62.5014H116.325H116.467H116.752C116.752 62.5014 116.752 62.5014 116.895 62.5014C116.895 62.5014 117.037 62.5014 117.037 62.6431L121.168 65.6176L124.587 62.2181L121.595 58.1105C121.595 58.1105 121.595 57.9688 121.453 57.9688C121.453 57.9688 121.453 57.9688 121.453 57.8272V57.6856V57.5439V57.4023V57.2606C123.02 54.9943 124.017 52.5864 124.444 50.0368V49.8952V49.7535L124.587 49.6119C124.587 49.6119 124.587 49.6119 124.729 49.6119C124.729 49.6119 124.872 49.6119 124.872 49.4703H125.014L130 48.6204V43.8045L125.157 42.9547ZM105.071 57.119C98.9459 57.119 93.9601 52.1615 93.9601 46.0708C93.9601 39.9802 98.9459 35.0227 105.071 35.0227C111.197 35.0227 116.182 39.9802 116.182 46.0708C116.182 52.3031 111.197 57.119 105.071 57.119Z" fill="#6562F5" fill-opacity="0.77"/>
</svg>
