<svg width="100" height="102" viewBox="0 0 100 102" fill="none" xmlns="http://www.w3.org/2000/svg">
<mask id="mask0_186_227" style="mask-type:luminance" maskUnits="userSpaceOnUse" x="0" y="0" width="100" height="102">
<path d="M100 0H0V102H100V0Z" fill="white"/>
</mask>
<g mask="url(#mask0_186_227)">
<path d="M99.9922 0H-0.0078125V102H99.9922V0Z" fill="black"/>
<path fill-rule="evenodd" clip-rule="evenodd" d="M63.4963 54.6325L63.8493 54.6584C63.8493 54.6584 63.8083 54.6669 63.73 54.6829C63.8083 54.6989 63.8493 54.7087 63.8493 54.7087L63.4963 54.7345C61.7168 55.1217 53.7565 57.0117 52.3541 60.2167C52.3541 60.2167 52.0084 58.5307 48.8553 55.9856C49.9156 57.5008 50.224 59.0013 50.2927 59.5126C50.3373 59.8395 50.2589 59.8358 49.9939 60.0189C49.9939 60.0189 49.7228 59.955 49.7192 59.955C49.5385 59.8296 49.5734 59.7977 49.5047 59.5863C49.277 58.8797 48.4541 56.9036 46.4083 55.7005H45.9662C46.459 56.5423 46.6553 57.3546 46.724 57.8499C46.724 57.8597 46.7385 57.9654 46.7385 57.9715C46.7168 58.0711 46.73 58.1829 46.6734 58.2652C46.671 58.2689 46.424 58.4287 46.424 58.4287C46.3276 58.4065 46.218 58.4188 46.1373 58.3648C46.112 58.3488 46.0469 58.3009 45.9505 58.0415C45.6855 57.3189 45.0433 56.3051 44.0204 55.7005L27.0879 55.6464C26.7385 56.2953 26.065 56.734 25.2927 56.734C24.4818 56.734 23.7806 56.251 23.4493 55.5469C23.3782 55.5628 23.3059 55.5727 23.2288 55.5727C19.8421 55.5088 16.1445 58.2468 16.0011 58.3525L15.9987 58.3549C15.6891 58.586 15.2746 58.586 14.9662 58.3549C14.9662 58.3549 13.9806 57.6225 12.5505 56.906C11.3722 56.3149 9.88425 55.7226 8.40714 55.5985C7.95413 57.8695 5.99389 59.5802 3.6457 59.5802C0.964974 59.5802 -1.21094 57.3472 -1.21094 54.5969C-1.21094 51.8466 0.964974 49.6136 3.6457 49.6136C6.01919 49.6136 7.9987 51.3636 8.4228 53.6728C11.6023 53.4036 14.8288 51.0146 14.9602 50.9163L14.9638 50.9126C15.2722 50.6828 15.6867 50.6828 15.9951 50.9126L15.9987 50.9163C16.1421 51.0208 19.8397 53.7588 23.2252 53.6949C23.2999 53.6949 23.3746 53.701 23.4469 53.7207C23.7806 53.0202 24.4782 52.5336 25.2891 52.5336C26.0626 52.5336 26.7361 52.976 27.0855 53.6211L44.0168 53.6764C44.1541 53.5953 44.3071 53.4933 44.4565 53.3791C45.6108 52.4697 45.9505 51.3096 45.9782 51.2678C46.0312 51.1842 46.059 51.0724 46.1373 51.0146C46.1409 51.0121 46.424 50.9483 46.4276 50.9507C46.5084 51.0048 46.618 51.0306 46.6734 51.1142C46.783 51.2739 46.7517 51.2899 46.73 51.4816C46.6577 52.0801 46.4144 52.9084 45.9686 53.6789H46.4083C47.0565 53.2979 48.4132 52.3455 49.283 50.3682C49.3517 50.2121 49.4541 49.9565 49.5204 49.739C49.5758 49.5534 49.5602 49.5338 49.7168 49.4219C49.7192 49.4183 49.9903 49.358 49.9903 49.358C50.0686 49.4121 50.1722 49.4416 50.2252 49.5215C50.33 49.6776 50.312 49.6911 50.2867 49.8791C50.1746 50.6631 49.8096 51.8687 49.13 52.9686C49.0457 53.1038 48.9553 53.2439 48.8529 53.3913C52.0023 50.8426 52.3505 49.1565 52.3505 49.1565C53.7541 52.364 61.7132 54.2516 63.4939 54.6387L63.4963 54.6325ZM15.4843 56.5386C16.1855 56.0778 17.5385 55.2556 19.1385 54.6289C17.5361 53.9984 16.183 53.1775 15.4806 52.7167C14.783 53.1775 13.4361 53.9923 11.8397 54.6227C12.3638 54.8279 12.8626 55.0541 13.3204 55.2851C14.2529 55.7521 15.0168 56.2289 15.4843 56.5386ZM6.07462 54.5871C6.07462 53.2119 4.98667 52.0961 3.64691 52.0961C2.30595 52.0961 1.21799 53.2119 1.21799 54.5871C1.21799 55.9635 2.30595 57.0793 3.64691 57.0793C4.98667 57.0793 6.07462 55.9635 6.07462 54.5871Z" fill="white"/>
<path fill-rule="evenodd" clip-rule="evenodd" d="M106.863 73.6747L107.222 73.703C107.222 73.703 107.18 73.714 107.102 73.7312C107.18 73.7496 107.222 73.7595 107.222 73.7595L106.863 73.7878C105.05 74.2179 96.9426 76.3181 95.5137 79.8795C95.5137 79.8795 95.1619 78.0066 91.951 75.1777C93.0305 76.8625 93.345 78.5289 93.4149 79.0979C93.4595 79.4604 93.3799 79.4567 93.11 79.6595C93.11 79.6595 92.8342 79.5882 92.8305 79.5882C92.6462 79.4494 92.6811 79.4137 92.6113 79.179C92.3799 78.3937 91.5414 76.1977 89.4583 74.8618H89.0076C89.5088 75.7958 89.7088 76.6991 89.7787 77.2496C89.7787 77.2607 89.7944 77.3774 89.7944 77.3848C89.7727 77.4954 89.786 77.6195 89.7281 77.7117C89.7245 77.7154 89.4739 77.8923 89.4739 77.8923C89.3763 77.8677 89.2643 77.8825 89.1823 77.8223C89.157 77.8039 89.0896 77.751 88.992 77.4634C88.7221 76.6597 88.0679 75.5328 87.0257 74.8618L69.7799 74.8016C69.4245 75.523 68.739 76.0096 67.951 76.0096C67.1257 76.0096 66.4112 75.4726 66.0739 74.691C66.0016 74.7082 65.9281 74.7193 65.8486 74.7193C62.4004 74.648 58.6342 77.6908 58.4884 77.8075L58.4847 77.8112C58.1703 78.0668 57.7486 78.0668 57.4342 77.8112C57.4342 77.8112 56.4305 76.9977 54.9727 76.2013C53.7727 75.5439 52.2583 74.8864 50.7534 74.7475C50.292 77.2705 48.2956 79.1716 45.904 79.1716C43.1727 79.1716 40.957 76.6917 40.957 73.6354C40.957 70.5791 43.1727 68.0991 45.904 68.0991C48.3209 68.0991 50.3366 70.042 50.7691 72.608C54.0076 72.3094 57.2944 69.6549 57.4281 69.5455L57.4305 69.5418C57.745 69.285 58.1679 69.285 58.4823 69.5418L58.4847 69.5455C58.6317 69.6623 62.3968 72.7039 65.8462 72.6338C65.9221 72.6338 65.998 72.6399 66.0715 72.6621C66.4113 71.8829 67.1221 71.3434 67.9474 71.3434C68.7354 71.3434 69.4209 71.8338 69.7775 72.5515L87.0233 72.6117C87.1631 72.5232 87.3185 72.4089 87.4703 72.2811C88.645 71.2722 88.992 69.9818 89.0197 69.9363C89.0739 69.8429 89.1028 69.7188 89.1823 69.6549C89.1848 69.6512 89.4739 69.5799 89.4775 69.5836C89.5594 69.6451 89.6715 69.6733 89.7281 69.7655C89.839 69.9425 89.8076 69.9609 89.7859 70.1735C89.7125 70.8384 89.4643 71.7588 89.01 72.6154H89.4583C90.1185 72.1926 91.5004 71.1333 92.386 68.9372C92.4558 68.7627 92.5606 68.4788 92.6269 68.2367C92.6847 68.0315 92.6691 68.0094 92.8281 67.8853C92.8305 67.8816 93.1064 67.814 93.1064 67.814C93.186 67.8742 93.2908 67.9062 93.345 67.9959C93.4534 68.1692 93.4341 68.1839 93.4088 68.3941C93.2944 69.2641 92.9233 70.6036 92.2305 71.8264C92.145 71.9763 92.0522 72.1324 91.9474 72.2958C95.1546 69.4632 95.5113 67.5903 95.5113 67.5903C96.9402 71.1554 105.046 73.2519 106.859 73.6821L106.863 73.6747ZM57.9619 75.7921C58.6763 75.2809 60.0546 74.3678 61.6835 73.671C60.051 72.9705 58.6727 72.0574 57.9582 71.5462C57.2474 72.0574 55.8751 72.9644 54.2498 73.6636C54.7823 73.891 55.2908 74.1441 55.7582 74.3998C56.7076 74.9184 57.4848 75.448 57.9619 75.7921ZM48.3775 73.6243C48.3775 72.0968 47.2703 70.8568 45.904 70.8568C44.539 70.8568 43.4305 72.0968 43.4305 73.6243C43.4305 75.1531 44.539 76.393 45.904 76.393C47.2703 76.393 48.3775 75.1531 48.3775 73.6243Z" fill="white"/>
<path d="M6.16602 30.723C6.09493 30.723 6.04192 30.696 6.00698 30.6419C5.98891 30.5879 5.98047 30.5067 5.98047 30.3986C5.98047 30.2179 6.04192 30.1282 6.16602 30.1282H6.45759C7.09374 30.1282 7.62385 29.9746 8.04794 29.6686C8.47204 29.3442 8.68409 28.7224 8.68409 27.8031V13.6362C8.68409 12.717 8.47204 12.1037 8.04794 11.7977C7.62385 11.4733 7.09374 11.3111 6.45759 11.3111H6.16602C6.09493 11.3111 6.04192 11.284 6.00698 11.23C5.98891 11.1759 5.98047 11.0948 5.98047 10.9867V10.9326C5.98047 10.8601 6.03349 10.806 6.13951 10.7704C6.24553 10.7347 6.35999 10.7163 6.48408 10.7163C7.6142 10.6807 9.39975 10.6622 11.8383 10.6622C13.7106 10.6622 14.9395 10.6807 15.5226 10.7163C16.9359 10.806 18.3588 11.2029 19.7901 11.9059C21.2214 12.6088 22.4227 13.6989 23.3949 15.1773C24.3841 16.6372 24.8793 18.4843 24.8793 20.7197C24.8793 22.9551 24.3841 24.8107 23.3949 26.2891C22.4227 27.7491 21.2214 28.8305 19.7901 29.5334C18.3588 30.2364 16.9359 30.6333 15.5226 30.723C14.9564 30.7587 13.7552 30.7771 11.9178 30.7771C10.1853 30.7771 8.26843 30.7587 6.16602 30.723ZM14.7805 29.9119C15.7347 29.9119 16.6624 29.66 17.5636 29.1549C18.4648 28.6499 19.2239 27.7134 19.8431 26.3432C20.4793 24.9729 20.7973 23.0988 20.7973 20.7197C20.7973 18.3405 20.4793 16.4664 19.8431 15.0961C19.2239 13.7259 18.4648 12.7895 17.5636 12.2844C16.6624 11.7793 15.7347 11.5274 14.7805 11.5274H14.5949C13.7817 11.5274 13.2166 11.654 12.8985 11.9059C12.5805 12.1578 12.4214 12.6002 12.4214 13.2307V28.2087C12.4214 28.8575 12.5805 29.3086 12.8985 29.5605C13.2166 29.7952 13.7817 29.9119 14.5949 29.9119H14.7805ZM48.6708 27.9383C48.7588 27.9383 48.8383 27.974 48.9094 28.0465C48.9793 28.1005 49.0154 28.1632 49.0154 28.2357C49.0154 28.2898 48.9793 28.3623 48.9094 28.452C47.601 30.2179 45.9311 31.1015 43.8998 31.1015C42.6624 31.1015 41.4696 30.7501 40.3214 30.0471C40.1443 29.9574 40.0034 29.9119 39.8973 29.9119C39.8082 29.9119 39.6937 29.939 39.5528 29.9931C38.0323 30.696 36.3275 31.0475 34.4371 31.0475C33.0588 31.0475 31.8829 30.8312 30.9118 30.3986C29.9395 29.9476 29.2058 29.3528 28.7118 28.6142C28.2347 27.8756 27.9961 27.0646 27.9961 26.181C27.9961 24.9189 28.4202 23.8288 29.2684 22.9096C30.1335 21.9719 31.3528 21.0797 32.9263 20.233C33.1383 20.1249 33.2443 19.9712 33.2443 19.7734C33.2443 19.6468 33.2263 19.5485 33.1913 19.476C32.6431 18.0701 32.3696 16.7724 32.3696 15.5828C32.3696 14.6279 32.5817 13.7628 33.0058 12.9873C33.4467 12.1947 34.0564 11.5728 34.8347 11.1218C35.6118 10.6536 36.5046 10.4189 37.5118 10.4189C38.413 10.4189 39.2612 10.5725 40.0564 10.8785C40.8684 11.1673 41.5142 11.59 41.9913 12.1492C42.4853 12.7084 42.7335 13.3658 42.7335 14.1228C42.7335 15.0777 42.3359 15.9072 41.5407 16.6102C40.7455 17.3131 39.5877 18.0345 38.0684 18.7731C37.8383 18.8812 37.7238 19.0348 37.7238 19.2327C37.7238 19.3224 37.7504 19.4219 37.8034 19.5301L38.413 20.7197L38.8106 21.4767C39.7287 23.2254 40.7359 24.8205 41.8323 26.2621C41.9732 26.4243 42.1058 26.5054 42.2299 26.5054C42.3889 26.5054 42.5214 26.4243 42.6275 26.2621C43.1395 25.5776 43.5287 24.8648 43.7937 24.1262C44.0757 23.3876 44.2178 22.7019 44.2178 22.0715C44.2178 21.3501 44.0058 20.8008 43.5817 20.4223C43.1576 20.0438 42.548 19.8545 41.7528 19.8545C41.6106 19.8545 41.5407 19.7464 41.5407 19.5301C41.5407 19.3322 41.6106 19.2327 41.7528 19.2327H48.4058C48.5287 19.2327 48.5913 19.3322 48.5913 19.5301C48.5913 19.7464 48.5287 19.8545 48.4058 19.8545C46.8323 19.8545 45.8612 20.6742 45.4901 22.3148C45.0829 24.1348 44.3323 25.7398 43.2371 27.1272C43.1311 27.2538 43.0781 27.389 43.0781 27.5328C43.0781 27.6766 43.1395 27.8117 43.2636 27.9383C44.2877 28.9472 45.1624 29.4523 45.8877 29.4523C46.3648 29.4523 46.8058 29.3356 47.213 29.1009C47.619 28.8489 48.0347 28.4975 48.4588 28.0465C48.5287 27.974 48.5998 27.9383 48.6708 27.9383ZM37.8034 11.3381C37.2202 11.3381 36.7431 11.5815 36.372 12.0681C36.001 12.5548 35.8154 13.1766 35.8154 13.9336C35.8154 14.7803 36.1504 15.9613 36.8226 17.4753C36.9287 17.71 37.0696 17.8268 37.2467 17.8268C37.3877 17.8268 37.5022 17.7912 37.5913 17.7186C38.4395 17.1595 39.0576 16.5831 39.4467 15.9883C39.8528 15.3935 40.0564 14.7176 40.0564 13.9606C40.0564 13.2036 39.8612 12.5818 39.4733 12.0951C39.1022 11.59 38.5455 11.3381 37.8034 11.3381ZM36.5576 29.3983C37.1226 29.3983 37.6443 29.3442 38.1214 29.236C38.3865 29.182 38.519 29.0468 38.519 28.8305C38.519 28.7039 38.4564 28.5786 38.3335 28.452C37.0781 27.1358 35.9383 25.4055 34.9142 23.2611L34.5166 22.45L34.0395 21.4767C33.9335 21.2604 33.7913 21.1522 33.6154 21.1522C33.5094 21.1522 33.3937 21.1977 33.2708 21.2874C32.7046 21.7556 32.307 22.2521 32.0781 22.7744C31.848 23.2795 31.7335 23.8645 31.7335 24.5318C31.7335 25.9917 32.1745 27.1727 33.0588 28.0735C33.96 28.9571 35.1263 29.3983 36.5576 29.3983ZM60.3299 31.0745C59.0395 31.0745 57.5287 30.7144 55.7974 29.9931C55.5672 29.8849 55.3467 29.8308 55.1347 29.8308C54.7986 29.8308 54.3925 30.0201 53.9154 30.3986C53.7564 30.5252 53.6323 30.5879 53.5443 30.5879C53.3504 30.5879 53.2263 30.4527 53.1732 30.1823L52.1395 25.6673L52.0865 25.3969C52.0865 25.3613 52.1046 25.3244 52.1395 25.2888C52.1925 25.2531 52.2371 25.2261 52.272 25.2077C52.325 25.1892 52.36 25.172 52.3781 25.1536C52.413 25.1352 52.466 25.1266 52.5371 25.1266C52.6082 25.1266 52.7046 25.1991 52.8287 25.3428C53.7299 26.6406 54.7636 27.7306 55.9299 28.6142C57.0961 29.4794 58.466 29.9119 60.0383 29.9119C61.1696 29.9119 62.0793 29.6232 62.7684 29.0468C63.4576 28.452 63.8022 27.6053 63.8022 26.5054C63.8022 25.1351 63.0516 24.1348 61.5492 23.5044C60.86 23.1984 59.9937 22.8826 58.9516 22.5581C58.7745 22.5041 58.3335 22.3504 57.6263 22.0985C56.919 21.8466 56.2925 21.5762 55.7443 21.2874C54.7552 20.7651 54.013 20.0892 53.5178 19.2597C53.0227 18.4302 52.7757 17.4839 52.7757 16.4209C52.7757 15.5742 52.9696 14.6906 53.3588 13.7714C53.748 12.8521 54.419 12.0681 55.3732 11.4192C56.3455 10.7519 57.6178 10.4189 59.1901 10.4189C59.7552 10.4189 60.2949 10.4816 60.807 10.6081C61.3371 10.7347 61.9733 10.9326 62.7154 11.2029C63.0154 11.3111 63.2636 11.3652 63.4576 11.3652C63.8106 11.3652 64.1383 11.2386 64.4383 10.9867C64.5793 10.8601 64.7118 10.7974 64.8359 10.7974C65.013 10.7974 65.1275 10.9142 65.1805 11.1489L66.3202 15.1232C66.3202 15.1588 66.3287 15.2227 66.3467 15.3124C66.3648 15.3849 66.3467 15.4476 66.2937 15.5017L66.1347 15.5828C66.0287 15.6184 65.9492 15.6369 65.8962 15.6369C65.8082 15.6369 65.719 15.5742 65.6311 15.4476C65.419 15.0875 65.0395 14.6009 64.4913 13.9877C63.9431 13.3572 63.201 12.771 62.2648 12.2303C61.3287 11.6711 60.2853 11.3922 59.1371 11.3922C58.1299 11.3922 57.3528 11.5999 56.8046 12.014C56.2745 12.4282 55.9214 12.8878 55.7443 13.3929C55.5672 13.8979 55.4793 14.3391 55.4793 14.7176C55.4793 15.2584 55.6118 15.745 55.8769 16.1776C56.1419 16.6102 56.5311 16.9702 57.0431 17.259C57.5202 17.5294 58.1745 17.8084 59.0046 18.0972C59.8528 18.3859 60.3564 18.5568 60.5154 18.6108C60.7455 18.6833 61.2227 18.8456 61.9468 19.0975C62.6709 19.3494 63.2805 19.5927 63.7757 19.8275C66.1612 20.9446 67.354 22.6306 67.354 24.8832C67.354 26.0372 67.0805 27.0818 66.5323 28.0194C65.9841 28.9571 65.1805 29.7043 64.1203 30.2634C63.06 30.8042 61.7961 31.0745 60.3299 31.0745ZM88.8227 30.1282C88.9287 30.1282 88.9817 30.2278 88.9817 30.4256C88.9817 30.6235 88.9287 30.723 88.8227 30.723H79.6781C79.554 30.723 79.4925 30.6235 79.4925 30.4256C79.4925 30.2278 79.554 30.1282 79.6781 30.1282C80.4913 30.0926 81.0745 29.9931 81.4275 29.8308C81.7986 29.6502 81.9841 29.3798 81.9841 29.0198C81.9841 28.8035 81.8696 28.3623 81.6395 27.695L80.5263 24.4236C80.4202 24.1176 80.2082 23.964 79.8901 23.964H74.4829C74.1648 23.964 73.9528 24.1176 73.8468 24.4236C73.1757 26.2805 72.7949 27.389 72.707 27.7491C72.619 28.001 72.5745 28.2627 72.5745 28.5331C72.5745 29.1095 72.8215 29.5248 73.3166 29.7768C73.8118 30.0115 74.448 30.1282 75.2251 30.1282C75.3492 30.1282 75.4106 30.2278 75.4106 30.4256C75.4106 30.6235 75.3492 30.723 75.2251 30.723H68.466C68.3419 30.723 68.2805 30.6235 68.2805 30.4256C68.2805 30.2278 68.3419 30.1282 68.466 30.1282C69.0841 30.1282 69.6504 29.9476 70.1624 29.5875C70.6925 29.2274 71.1166 28.6326 71.4347 27.8031C72.1058 26.0003 73.0696 23.4048 74.3239 20.0167C75.5961 16.6102 76.6648 13.7173 77.5311 11.3381C77.619 11.0862 77.8046 10.9141 78.0877 10.8244L79.2805 10.473C79.4214 10.4189 79.5455 10.3918 79.6516 10.3918C79.7576 10.3918 79.8287 10.4103 79.8636 10.4459C79.9166 10.5 79.9516 10.5725 79.9696 10.6622C80.5178 12.3028 81.5335 15.321 83.0178 19.7193C84.5022 24.1176 85.4118 26.7487 85.748 27.6139C86.048 28.4065 86.3046 28.9743 86.5166 29.3172C86.7467 29.6416 87.0202 29.8579 87.3383 29.966C87.6745 30.0742 88.1684 30.1282 88.8227 30.1282ZM74.5889 22.3418C74.554 22.45 74.5359 22.5311 74.5359 22.5852C74.5359 22.7117 74.5805 22.81 74.6684 22.8825C74.7564 22.9551 74.8805 22.9907 75.0395 22.9907H79.3865C79.5455 22.9907 79.6696 22.9551 79.7576 22.8825C79.8455 22.81 79.8901 22.7117 79.8901 22.5852C79.8901 22.5311 79.8721 22.45 79.8371 22.3418C79.0769 20.1605 78.3443 17.9976 77.6371 15.8531C77.566 15.6184 77.4696 15.439 77.3455 15.3124C77.2395 15.1687 77.1684 15.1416 77.1335 15.2313L76.1528 17.9349L74.5889 22.3418Z" fill="white"/>
</g>
</svg>
