<svg width="100" height="103" viewBox="0 0 100 103" fill="none" xmlns="http://www.w3.org/2000/svg">
<mask id="mask0_186_235" style="mask-type:luminance" maskUnits="userSpaceOnUse" x="0" y="0" width="100" height="103">
<path d="M100 0H0V102.322H100V0Z" fill="white"/>
</mask>
<g mask="url(#mask0_186_235)">
<path d="M100.004 0H0.00390625V102.322H100.004V0Z" fill="white"/>
<path fill-rule="evenodd" clip-rule="evenodd" d="M63.5041 54.8051L63.8571 54.8308C63.8571 54.8308 63.8162 54.8404 63.7378 54.8565C63.8162 54.8725 63.8571 54.8822 63.8571 54.8822L63.5041 54.9078C61.7246 55.296 53.7644 57.1922 52.3619 60.4072C52.3619 60.4072 52.0162 58.7163 48.8632 56.1623C49.9234 57.6832 50.2318 59.188 50.3005 59.7013C50.3451 60.0286 50.2668 60.0254 50.0017 60.2082C50.0017 60.2082 49.7306 60.1441 49.727 60.1441C49.5463 60.019 49.5812 59.9868 49.5126 59.7751C49.2848 59.066 48.4619 57.0832 46.4162 55.8768H45.974C46.4668 56.7205 46.6632 57.5355 46.7318 58.0328C46.7318 58.0424 46.7463 58.1483 46.7463 58.1548C46.7246 58.2542 46.7378 58.3666 46.6812 58.45C46.6788 58.4532 46.4318 58.6136 46.4318 58.6136C46.3354 58.5912 46.2258 58.604 46.1451 58.5495C46.1198 58.5334 46.0547 58.4853 45.9583 58.2254C45.6933 57.5003 45.0511 56.4832 44.0282 55.8768L27.0957 55.8222C26.7463 56.4735 26.0728 56.9131 25.3005 56.9131C24.4897 56.9131 23.7884 56.4286 23.4571 55.7227C23.386 55.7387 23.3138 55.7483 23.2366 55.7483C19.8499 55.6842 16.1523 58.4307 16.0089 58.5366L16.0065 58.5398C15.6969 58.7708 15.2824 58.7708 14.974 58.5398C14.974 58.5398 13.9885 57.805 12.5583 57.0863C11.38 56.4928 9.89206 55.8992 8.41495 55.774C7.96194 58.0521 6.0017 59.7686 3.65351 59.7686C0.972786 59.7686 -1.20312 57.5291 -1.20312 54.7697C-1.20312 52.0105 0.972786 49.771 3.65351 49.771C6.027 49.771 8.00652 51.526 8.43061 53.8426C11.6101 53.5731 14.8367 51.1763 14.968 51.0768L14.9716 51.0736C15.28 50.8425 15.6945 50.8425 16.0029 51.0736L16.0065 51.0768C16.1499 51.1827 19.8475 53.9292 23.233 53.865C23.3077 53.865 23.3824 53.8714 23.4547 53.8906C23.7884 53.1879 24.486 52.7002 25.2969 52.7002C26.0704 52.7002 26.7439 53.1431 27.0933 53.7911L44.0246 53.8458C44.1619 53.7655 44.315 53.6628 44.4644 53.5473C45.6186 52.6361 45.9583 51.4714 45.986 51.4297C46.0391 51.3462 46.0668 51.2339 46.1451 51.1763C46.1487 51.173 46.4318 51.1088 46.4354 51.112C46.5162 51.1666 46.6258 51.1923 46.6812 51.2757C46.7909 51.4361 46.7595 51.4521 46.7378 51.6447C46.6656 52.2447 46.4222 53.0757 45.9764 53.849H46.4162C47.0644 53.4672 48.421 52.511 49.2909 50.528C49.3595 50.3709 49.462 50.1142 49.5282 49.896C49.5836 49.71 49.568 49.6907 49.7246 49.5784C49.727 49.5752 49.9981 49.5142 49.9981 49.5142C50.0764 49.5688 50.18 49.5977 50.233 49.6778C50.3378 49.8351 50.3198 49.8479 50.2945 50.0371C50.1824 50.8233 49.8174 52.0329 49.1379 53.1367C49.0535 53.2714 48.9632 53.4125 48.8607 53.5601C52.0101 51.0029 52.3583 49.312 52.3583 49.312C53.762 52.5302 61.721 54.4232 63.5017 54.8114L63.5041 54.8051ZM15.4921 56.7174C16.1933 56.2554 17.5463 55.4308 19.1463 54.8019C17.5439 54.1699 16.1909 53.3452 15.4884 52.8833C14.7909 53.3452 13.4439 54.1634 11.8475 54.7955C12.3716 55.0009 12.8704 55.2287 13.3282 55.4597C14.2607 55.9281 15.0246 56.4062 15.4921 56.7174ZM6.08243 54.7602C6.08243 53.3805 4.99448 52.2607 3.65472 52.2607C2.31376 52.2607 1.2258 53.3805 1.2258 54.7602C1.2258 56.1399 2.31376 57.2596 3.65472 57.2596C4.99448 57.2596 6.08243 56.1399 6.08243 54.7602Z" fill="black"/>
<path fill-rule="evenodd" clip-rule="evenodd" d="M106.871 73.9073L107.23 73.9357C107.23 73.9357 107.188 73.9468 107.109 73.964C107.188 73.9825 107.23 73.9924 107.23 73.9924L106.871 74.0207C105.058 74.4522 96.9504 76.5591 95.5215 80.1317C95.5215 80.1317 95.1697 78.2529 91.9588 75.415C93.0384 77.1052 93.3528 78.7769 93.4227 79.3476C93.4673 79.7113 93.3877 79.7076 93.1179 79.911C93.1179 79.911 92.842 79.8395 92.8383 79.8395C92.654 79.7002 92.6889 79.6645 92.6191 79.429C92.3877 78.6412 91.5492 76.4382 89.4661 75.0982H89.0155C89.5167 76.0351 89.7167 76.9412 89.7865 77.4935C89.7865 77.5046 89.8022 77.6217 89.8022 77.6291C89.7805 77.7401 89.7938 77.8646 89.7359 77.957C89.7323 77.9607 89.4817 78.1383 89.4817 78.1383C89.3841 78.1136 89.2721 78.1284 89.1902 78.068C89.1649 78.0495 89.0974 77.9965 88.9998 77.708C88.7299 76.9018 88.0757 75.7713 87.0335 75.0982L69.7877 75.0378C69.4323 75.7614 68.7468 76.2496 67.9588 76.2496C67.1335 76.2496 66.4191 75.7109 66.0817 74.9268C66.0094 74.9441 65.9359 74.9552 65.8564 74.9552C62.4082 74.8837 58.642 77.9361 58.4962 78.0532L58.4926 78.0569C58.1781 78.3133 57.7564 78.3133 57.442 78.0569C57.442 78.0569 56.4384 77.2408 54.9805 76.4419C53.7805 75.7824 52.2661 75.1228 50.7612 74.9835C50.2998 77.5145 48.3034 79.4216 45.9118 79.4216C43.1805 79.4216 40.9648 76.9338 40.9648 73.8678C40.9648 70.8019 43.1805 68.3141 45.9118 68.3141C48.3287 68.3141 50.3444 70.2631 50.7769 72.8372C54.0155 72.5377 57.3022 69.8748 57.4359 69.7651L57.4383 69.7614C57.7528 69.5037 58.1757 69.5037 58.4902 69.7614L58.4926 69.7651C58.6395 69.8822 62.4046 72.9334 65.854 72.8631C65.9299 72.8631 66.0058 72.8693 66.0793 72.8915C66.4191 72.1099 67.1299 71.5687 67.9552 71.5687C68.7432 71.5687 69.4287 72.0606 69.7853 72.7805L87.0311 72.8409C87.1709 72.7522 87.3263 72.6375 87.4781 72.5093C88.6528 71.4972 88.9998 70.2027 89.0275 70.1571C89.0817 70.0634 89.1106 69.9389 89.1902 69.8748C89.1926 69.8711 89.4817 69.7996 89.4853 69.8033C89.5673 69.865 89.6793 69.8933 89.7359 69.9858C89.8468 70.1633 89.8154 70.1818 89.7938 70.3951C89.7203 71.062 89.4721 71.9854 89.0179 72.8446H89.4661C90.1263 72.4205 91.5082 71.3579 92.3938 69.1549C92.4636 68.9798 92.5685 68.695 92.6347 68.4522C92.6926 68.2463 92.6769 68.2241 92.8359 68.0996C92.8384 68.0959 93.1143 68.0281 93.1143 68.0281C93.1938 68.0885 93.2986 68.1205 93.3528 68.2105C93.4612 68.3844 93.442 68.3992 93.4167 68.61C93.3022 69.4828 92.9311 70.8265 92.2383 72.0532C92.1528 72.2036 92.06 72.3601 91.9552 72.5241C95.1624 69.6825 95.5191 67.8037 95.5191 67.8037C96.948 71.3801 105.054 73.4832 106.867 73.9147L106.871 73.9073ZM57.9697 76.0314C58.6841 75.5186 60.0624 74.6026 61.6914 73.9036C60.0588 73.2009 58.6805 72.2849 57.9661 71.7721C57.2552 72.2849 55.8829 73.1947 54.2576 73.8962C54.7902 74.1243 55.2986 74.3782 55.7661 74.6347C56.7155 75.1549 57.4926 75.6862 57.9697 76.0314ZM48.3853 73.8568C48.3853 72.3244 47.2781 71.0805 45.9118 71.0805C44.5468 71.0805 43.4383 72.3244 43.4383 73.8568C43.4383 75.3904 44.5468 76.6343 45.9118 76.6343C47.2781 76.6343 48.3853 75.3904 48.3853 73.8568Z" fill="black"/>
<path d="M6.17383 30.8197C6.10275 30.8197 6.04973 30.7926 6.01479 30.7384C5.99672 30.6841 5.98828 30.6028 5.98828 30.4943C5.98828 30.3134 6.04974 30.2231 6.17383 30.2231H6.4654C7.10155 30.2231 7.63166 30.0693 8.05576 29.762C8.47985 29.4365 8.6919 28.8127 8.6919 27.8906V13.6789C8.6919 12.7568 8.47985 12.142 8.05576 11.8346C7.63166 11.5092 7.10155 11.3464 6.4654 11.3464H6.17383C6.10275 11.3464 6.04973 11.3193 6.01479 11.2651C5.99672 11.2108 5.98828 11.1295 5.98828 11.021V10.9667C5.98828 10.8944 6.0413 10.8401 6.14732 10.804C6.25335 10.7679 6.3678 10.7498 6.49189 10.7498C7.62202 10.7137 9.40756 10.6955 11.8461 10.6955C13.7184 10.6955 14.9473 10.7137 15.5304 10.7498C16.9437 10.8401 18.3666 11.238 19.7979 11.9431C21.2293 12.6483 22.4305 13.7421 23.4028 15.2248C24.3919 16.6894 24.8871 18.5427 24.8871 20.7848C24.8871 23.0269 24.3919 24.8891 23.4028 26.3718C22.4305 27.8364 21.2293 28.9212 19.7979 29.6264C18.3666 30.3316 16.9437 30.7294 15.5304 30.8197C14.9642 30.8559 13.763 30.874 11.9256 30.874C10.1931 30.874 8.27624 30.8559 6.17383 30.8197ZM14.7883 30.0061C15.7425 30.0061 16.6702 29.753 17.5714 29.2467C18.4726 28.7404 19.2317 27.8002 19.8509 26.426C20.4871 25.0518 20.8052 23.1715 20.8052 20.7848C20.8052 18.3981 20.4871 16.5177 19.8509 15.1435C19.2317 13.7693 18.4726 12.8291 17.5714 12.3228C16.6702 11.8165 15.7425 11.5634 14.7883 11.5634H14.6028C13.7895 11.5634 13.2244 11.69 12.9064 11.9431C12.5883 12.1962 12.4293 12.6393 12.4293 13.2721V28.2974C12.4293 28.9484 12.5883 29.4004 12.9064 29.6535C13.2244 29.8886 13.7895 30.0061 14.6028 30.0061H14.7883ZM48.6786 28.0262C48.7666 28.0262 48.8461 28.0623 48.9172 28.1347C48.9871 28.189 49.0232 28.2522 49.0232 28.3246C49.0232 28.3788 48.9871 28.4512 48.9172 28.5415C47.6088 30.3134 45.9389 31.1994 43.9076 31.1994C42.6702 31.1994 41.4774 30.8469 40.3293 30.1417C40.1521 30.0513 40.0112 30.0061 39.9052 30.0061C39.816 30.0061 39.7015 30.0332 39.5606 30.0875C38.0401 30.7926 36.3353 31.1452 34.4449 31.1452C33.0666 31.1452 31.8907 30.9282 30.9196 30.4943C29.9473 30.0422 29.2136 29.4455 28.7196 28.7043C28.2425 27.963 28.004 27.1493 28.004 26.2633C28.004 24.9976 28.4281 23.9037 29.2762 22.9816C30.1413 22.0414 31.3606 21.1463 32.9341 20.2966C33.1461 20.1881 33.2521 20.0344 33.2521 19.8355C33.2521 19.7089 33.2341 19.6095 33.1991 19.5372C32.6509 18.1268 32.3774 16.825 32.3774 15.6317C32.3774 14.6734 32.5895 13.8055 33.0136 13.028C33.4545 12.2325 34.0642 11.6087 34.8425 11.1566C35.6196 10.6865 36.5124 10.4514 37.5196 10.4514C38.4208 10.4514 39.269 10.6052 40.0642 10.9125C40.8762 11.2018 41.522 11.6267 41.9991 12.1872C42.4931 12.7478 42.7413 13.4077 42.7413 14.1671C42.7413 15.1253 42.3437 15.9571 41.5485 16.6623C40.7533 17.3674 39.5955 18.0907 38.0763 18.832C37.8461 18.9405 37.7317 19.0942 37.7317 19.2931C37.7317 19.3834 37.7582 19.4829 37.8112 19.5914L38.4208 20.7848L38.8184 21.5442C39.7365 23.2981 40.7437 24.8982 41.8401 26.3447C41.9811 26.5074 42.1136 26.5888 42.2377 26.5888C42.3967 26.5888 42.5293 26.5074 42.6353 26.3447C43.1473 25.6576 43.5365 24.9434 43.8016 24.2021C44.0835 23.4608 44.2256 22.7736 44.2256 22.1408C44.2256 21.4176 44.0136 20.8661 43.5895 20.4864C43.1654 20.1067 42.5558 19.9169 41.7606 19.9169C41.6184 19.9169 41.5485 19.8084 41.5485 19.5914C41.5485 19.3926 41.6184 19.2931 41.7606 19.2931H48.4136C48.5365 19.2931 48.5991 19.3926 48.5991 19.5914C48.5991 19.8084 48.5365 19.9169 48.4136 19.9169C46.8401 19.9169 45.869 20.7395 45.4979 22.3849C45.0907 24.2111 44.3401 25.8204 43.2449 27.2126C43.1389 27.3392 43.0859 27.4748 43.0859 27.6194C43.0859 27.764 43.1473 27.8996 43.2714 28.0262C44.2955 29.0387 45.1702 29.545 45.8955 29.545C46.3726 29.545 46.8136 29.4275 47.2208 29.1925C47.6268 28.9394 48.0425 28.5868 48.4666 28.1347C48.5365 28.0623 48.6076 28.0262 48.6786 28.0262ZM37.8112 11.3736C37.2281 11.3736 36.7509 11.6177 36.3799 12.1059C36.0088 12.594 35.8232 13.2178 35.8232 13.9772C35.8232 14.827 36.1582 16.0114 36.8305 17.5302C36.9365 17.7653 37.0774 17.8828 37.2546 17.8828C37.3955 17.8828 37.51 17.8466 37.5991 17.7743C38.4473 17.2137 39.0654 16.6352 39.4546 16.0385C39.8606 15.4418 40.0642 14.7638 40.0642 14.0044C40.0642 13.245 39.869 12.6212 39.4811 12.133C39.11 11.6267 38.5534 11.3736 37.8112 11.3736ZM36.5654 29.4908C37.1305 29.4908 37.6521 29.4365 38.1293 29.3281C38.3943 29.2738 38.5268 29.1382 38.5268 28.9212C38.5268 28.7946 38.4642 28.6681 38.3413 28.5415C37.0859 27.2216 35.9461 25.4858 34.922 23.3342L34.5244 22.5205L34.0473 21.5442C33.9413 21.3272 33.7991 21.2187 33.6232 21.2187C33.5172 21.2187 33.4015 21.2639 33.2786 21.3543C32.7124 21.8244 32.3148 22.3217 32.0859 22.846C31.8558 23.3523 31.7413 23.9399 31.7413 24.6089C31.7413 26.0735 32.1823 27.2578 33.0666 28.1618C33.9678 29.0478 35.1341 29.4908 36.5654 29.4908ZM60.3377 31.1723C59.0473 31.1723 57.5365 30.8107 55.8052 30.0875C55.575 29.979 55.3546 29.9247 55.1425 29.9247C54.8064 29.9247 54.4003 30.1146 53.9232 30.4943C53.7642 30.6209 53.6401 30.6841 53.5522 30.6841C53.3582 30.6841 53.2341 30.5485 53.1811 30.2773L52.1473 25.748L52.0943 25.4768C52.0943 25.4407 52.1124 25.4044 52.1473 25.3683C52.2003 25.3322 52.2449 25.3051 52.2799 25.2869C52.3329 25.2688 52.3678 25.2508 52.3859 25.2327C52.4208 25.2146 52.4738 25.2056 52.5449 25.2056C52.616 25.2056 52.7124 25.2779 52.8365 25.4226C53.7377 26.7244 54.7714 27.8182 55.9377 28.7043C57.104 29.5721 58.4738 30.0061 60.0461 30.0061C61.1775 30.0061 62.0871 29.7168 62.7762 29.1382C63.4654 28.5415 63.81 27.6918 63.81 26.5888C63.81 25.2146 63.0594 24.2111 61.557 23.5783C60.8678 23.2709 60.0015 22.9545 58.9594 22.629C58.7823 22.5748 58.3413 22.4211 57.6341 22.168C56.9268 21.9149 56.3003 21.6436 55.7521 21.3543C54.763 20.83 54.0208 20.152 53.5256 19.3202C53.0305 18.4884 52.7835 17.5392 52.7835 16.4724C52.7835 15.6227 52.9775 14.7366 53.3666 13.8145C53.7558 12.8924 54.4268 12.1059 55.3811 11.4549C56.3534 10.7859 57.6256 10.4514 59.1979 10.4514C59.763 10.4514 60.3028 10.5147 60.8148 10.6413C61.3449 10.7679 61.9811 10.9667 62.7232 11.238C63.0232 11.3465 63.2714 11.4007 63.4654 11.4007C63.8184 11.4007 64.1461 11.2741 64.4461 11.021C64.5871 10.8944 64.7196 10.8311 64.8437 10.8311C65.0208 10.8311 65.1353 10.9486 65.1883 11.1837L66.328 15.1706C66.328 15.2067 66.3365 15.2701 66.3546 15.3604C66.3726 15.4328 66.3546 15.496 66.3015 15.5503L66.1425 15.6317C66.0365 15.6678 65.957 15.6859 65.904 15.6859C65.816 15.6859 65.7269 15.6227 65.6389 15.4961C65.4269 15.1345 65.0473 14.6463 64.4991 14.0315C63.951 13.3987 63.2088 12.811 62.2726 12.2686C61.3365 11.708 60.2931 11.4278 59.1449 11.4278C58.1377 11.4278 57.3606 11.6358 56.8124 12.0516C56.2823 12.4674 55.9293 12.9285 55.7521 13.4348C55.575 13.9411 55.4871 14.3841 55.4871 14.7638C55.4871 15.3062 55.6196 15.7944 55.8847 16.2283C56.1497 16.6623 56.5389 17.0239 57.0509 17.3132C57.5281 17.5844 58.1823 17.8646 59.0124 18.154C59.8606 18.4433 60.3642 18.615 60.5232 18.6693C60.7534 18.7416 61.2305 18.9044 61.9546 19.1575C62.6787 19.4106 63.2883 19.6547 63.7835 19.8897C66.169 21.0107 67.3618 22.7014 67.3618 24.9615C67.3618 26.1187 67.0883 27.1673 66.5401 28.1076C65.9919 29.0478 65.1883 29.7981 64.1281 30.3587C63.0678 30.9011 61.804 31.1723 60.3377 31.1723ZM88.8305 30.2231C88.9365 30.2231 88.9895 30.3226 88.9895 30.5214C88.9895 30.7203 88.9365 30.8197 88.8305 30.8197H79.6859C79.5618 30.8197 79.5003 30.7203 79.5003 30.5214C79.5003 30.3226 79.5618 30.2231 79.6859 30.2231C80.4991 30.1869 81.0823 30.0875 81.4353 29.9247C81.8064 29.7439 81.9919 29.4727 81.9919 29.1111C81.9919 28.8941 81.8774 28.4512 81.6473 27.7821L80.5341 24.5004C80.4281 24.1931 80.216 24.0394 79.8979 24.0394H74.4907C74.1726 24.0394 73.9606 24.1931 73.8546 24.5004C73.1835 26.3628 72.8028 27.4748 72.7148 27.8364C72.6269 28.0895 72.5823 28.3517 72.5823 28.6229C72.5823 29.2015 72.8293 29.6174 73.3244 29.8705C73.8196 30.1056 74.4558 30.2231 75.2329 30.2231C75.357 30.2231 75.4184 30.3226 75.4184 30.5214C75.4184 30.7203 75.357 30.8197 75.2329 30.8197H68.4738C68.3497 30.8197 68.2883 30.7203 68.2883 30.5214C68.2883 30.3226 68.3497 30.2231 68.4738 30.2231C69.0919 30.2231 69.6582 30.0422 70.1702 29.6806C70.7004 29.3191 71.1244 28.7224 71.4425 27.8906C72.1136 26.0825 73.0775 23.4788 74.3317 20.0796C75.604 16.6623 76.6726 13.7603 77.5389 11.3736C77.6269 11.1205 77.8124 10.9486 78.0955 10.8583L79.2883 10.5057C79.4293 10.4514 79.5534 10.4243 79.6594 10.4243C79.7654 10.4243 79.8365 10.4424 79.8714 10.4786C79.9244 10.5328 79.9594 10.6052 79.9775 10.6955C80.5257 12.3409 81.5413 15.3694 83.0257 19.7813C84.51 24.1931 85.4196 26.8329 85.7558 27.7008C86.0558 28.4963 86.3124 29.0658 86.5244 29.4094C86.7546 29.7349 87.0281 29.9519 87.3461 30.0603C87.6823 30.1688 88.1762 30.2231 88.8305 30.2231ZM74.5967 22.4121C74.5618 22.5205 74.5437 22.6019 74.5437 22.6561C74.5437 22.7828 74.5883 22.8821 74.6762 22.9545C74.7642 23.0269 74.8883 23.063 75.0473 23.063H79.3943C79.5534 23.063 79.6774 23.0269 79.7654 22.9545C79.8534 22.8821 79.8979 22.7828 79.8979 22.6561C79.8979 22.6019 79.8799 22.5205 79.8449 22.4121C79.0847 20.2242 78.3522 18.0545 77.6449 15.9029C77.5738 15.6678 77.4774 15.4871 77.3534 15.3604C77.2473 15.2158 77.1763 15.1887 77.1413 15.2791L76.1606 17.9912L74.5967 22.4121Z" fill="black"/>
</g>
</svg>
