<svg width="395" height="408" viewBox="0 0 395 408" fill="none" xmlns="http://www.w3.org/2000/svg">
<path d="M60.0811 221.42L111.578 187.089L64.836 155.933C61.9521 154.011 58.1929 154.011 55.309 155.933L8.58398 187.089L60.0811 221.42Z" fill="white"/>
<path d="M68.6621 236.337V407.994L116.331 376.203C118.717 374.624 120.159 371.929 120.159 369.062V202.006L68.6621 236.337Z" fill="white"/>
<path d="M51.4971 236.337L0 202.006V369.062C0 371.929 1.44192 374.607 3.82795 376.203L51.4971 407.994V236.337Z" fill="white"/>
<path d="M205.988 81.846V407.994L253.657 376.203C256.043 374.607 257.485 371.929 257.485 369.062V47.5146L205.988 81.846Z" fill="white"/>
<path d="M197.407 66.9291L248.904 32.5977L202.162 1.44192C199.278 -0.480639 195.519 -0.480639 192.635 1.44192L145.91 32.5977L197.407 66.9291Z" fill="white"/>
<path d="M188.823 81.846L137.326 47.5146V369.062C137.326 371.929 138.768 374.607 141.154 376.203L188.823 407.994V81.846Z" fill="white"/>
<path d="M334.731 152.757L386.229 118.426L339.486 87.27C336.603 85.3475 332.843 85.3475 329.959 87.27L283.234 118.426L334.731 152.757Z" fill="white"/>
<path d="M343.312 167.674V407.994L390.982 376.203C393.368 374.607 394.81 371.929 394.81 369.062V133.343L343.312 167.674Z" fill="white"/>
<path d="M326.147 167.674L274.65 133.343V369.062C274.65 371.929 276.092 374.607 278.478 376.203L326.147 407.994V167.674Z" fill="white"/>
</svg>
