<svg width="1265" height="215" viewBox="0 0 1265 215" fill="none" xmlns="http://www.w3.org/2000/svg">
<mask id="mask0_1_1625" style="mask-type:luminance" maskUnits="userSpaceOnUse" x="0" y="0" width="214" height="214">
<path d="M213.645 0H0V213.921H213.645V0Z" fill="white"/>
</mask>
<g mask="url(#mask0_1_1625)">
<path d="M141.968 98.9785C169.361 98.9785 191.566 76.8214 191.566 49.4893C191.566 22.1571 169.361 0 141.968 0C114.576 0 92.3696 22.1571 92.3696 49.4893C92.3696 76.8214 114.576 98.9785 141.968 98.9785Z" fill="#042C28"/>
<path d="M164.047 214.027C191.44 214.027 213.645 191.87 213.645 164.538C213.645 137.206 191.44 115.049 164.047 115.049C136.655 115.049 114.449 137.206 114.449 164.538C114.449 191.87 136.655 214.027 164.047 214.027Z" fill="#042C28"/>
<path d="M164.154 115.049H92.3696V214.027H164.154V115.049Z" fill="#042C28"/>
<path d="M72.3174 0H0V213.921H72.3174V0Z" fill="#042C28"/>
</g>
<path d="M1222.09 177.16C1207.47 177.16 1197.6 169.934 1193.23 163.849H1192.85V207.965H1166.83V77.1399H1192.85V87.408H1193.23C1197.6 81.7035 1207.47 74.0977 1222.09 74.0977C1247.35 74.0977 1264.82 93.6832 1264.82 125.628C1264.82 157.574 1247.35 177.16 1222.09 177.16ZM1193.23 125.628C1193.23 145.785 1201.58 157.194 1215.64 157.194C1230.07 157.194 1237.86 144.644 1237.86 125.628C1237.86 106.614 1230.07 94.2534 1215.64 94.2534C1201.58 94.2534 1193.23 105.663 1193.23 125.628Z" fill="#042C28"/>
<path d="M1090.23 177.159C1071.8 177.159 1058.51 165.559 1058.51 143.311V77.1387H1084.53V135.325C1084.53 149.396 1089.84 155.861 1101.43 155.861C1114.53 155.861 1122.51 148.445 1122.51 134.564V77.1387H1148.53V174.306H1122.51V160.996H1122.13C1117 169.362 1107.31 177.159 1090.23 177.159Z" fill="#042C28"/>
<path d="M994.506 177.349C963.17 177.349 943.99 156.432 943.99 125.818C943.99 95.3936 963.17 73.9062 994.884 73.9062C1026.22 73.9062 1045.4 94.8229 1045.4 125.438C1045.4 156.052 1026.22 177.349 994.506 177.349ZM970.578 125.628C970.578 145.023 978.742 157.383 994.697 157.383C1010.65 157.383 1018.81 145.023 1018.81 125.628C1018.81 106.232 1010.65 94.0625 994.697 94.0625C978.742 94.0625 970.578 106.232 970.578 125.628Z" fill="#042C28"/>
<path d="M907.429 127.15V174.307H881.411V77.1397H907.429V93.8728H907.808C912.746 83.0345 920.915 75.8086 932.496 75.8086C935.348 75.8086 937.813 75.8086 941.043 76.3788V99.7675C938.574 99.3876 936.865 99.1973 934.779 99.1973C919.776 99.1973 907.429 109.465 907.429 127.15Z" fill="#042C28"/>
<path d="M799.143 177.159C760.399 177.159 737.802 147.306 737.802 106.233C737.802 65.3499 761.351 35.4961 802.751 35.4961C839.02 35.4961 858.962 56.2226 862.761 82.2736H832.565C829.717 70.1037 821.548 59.6454 802.181 59.6454C777.11 59.6454 767.807 80.7523 767.807 106.233C767.807 131.903 775.971 153.01 802.751 153.01C820.792 153.01 834.465 141.221 834.656 124.487H803.698V102.429H864.848V174.307H844.15L839.973 156.433H839.59C831.995 169.363 819.271 177.159 799.143 177.159Z" fill="#042C28"/>
<path d="M668.85 177.159C643.592 177.159 626.12 157.573 626.12 125.627C626.12 93.6817 643.592 74.0961 668.85 74.0961C683.475 74.0961 693.347 81.5122 697.716 87.5972H698.099V38.3477H724.113V174.306H698.099V164.038H697.716C693.347 169.743 683.475 177.159 668.85 177.159ZM652.9 125.627C652.9 144.643 660.877 157.193 675.306 157.193C689.361 157.193 697.716 145.784 697.716 125.627C697.716 105.661 689.361 94.2524 675.306 94.2524C660.877 94.2524 652.9 106.612 652.9 125.627Z" fill="#042C28"/>
<path d="M586.166 174.306V38.3477H612.18V174.306H586.166Z" fill="#042C28"/>
<path d="M541.841 174.306V77.1386H567.86V174.306H541.841ZM541.463 63.4478V38.918H568.43V63.4478H541.463Z" fill="#042C28"/>
<path d="M465.235 177.159C446.814 177.159 433.52 165.559 433.52 143.311V77.1387H459.537V135.325C459.537 149.396 464.855 155.861 476.438 155.861C489.54 155.861 497.518 148.445 497.518 134.564V77.1387H523.537V174.306H497.518V160.996H497.14C492.01 169.362 482.328 177.159 465.235 177.159Z" fill="#042C28"/>
<path d="M309.35 174.306V38.3477H372.019C400.126 38.3477 415.508 49.947 415.508 72.5752C415.508 89.3083 405.633 97.4849 394.428 101.288V101.668C408.671 104.14 420.826 114.028 420.826 134.374C420.826 162.137 402.594 174.306 374.488 174.306H309.35ZM338.595 149.967H367.651C384.173 149.967 390.82 144.262 390.82 131.522C390.82 118.211 383.034 113.077 368.791 113.077H338.595V149.967ZM338.595 93.8719H366.132C378.476 93.8719 385.503 89.879 385.503 78.2797C385.503 66.6805 377.907 62.6871 366.702 62.6871H338.595V93.8719Z" fill="#042C28"/>
</svg>
