<svg width="633" height="252" viewBox="0 0 633 252" fill="none" xmlns="http://www.w3.org/2000/svg">
<path d="M492.457 0V125.735L490.853 127.06L489.249 128.385L487.712 129.776L486.242 131.167L484.838 132.558L483.435 134.016L482.098 135.473L480.762 136.931V0H340.222V114.473H328.594V0H188.055V114.672H176.426V0H35.8868V130.703L0 249.217H31.5429L47.3812 196.751H51.9255L78.1221 249.217H116.214L90.8195 196.751H148.425L132.453 249.217H166.87L182.641 196.883H190.26V196.75H201.086H201.955H266.979L251.742 249.085H286.492L301.261 196.75H316.899L317.3 249.085H346.437L379.918 196.75H401.837L390.477 249.085H424.693L435.853 196.75H455.634L455.501 199.731L455.571 202.779L455.705 205.694L455.972 208.608L456.172 210L456.373 211.391L456.64 212.782L456.907 214.173L457.241 215.564L457.575 216.889L457.975 218.214L458.376 219.539L458.844 220.864L459.312 222.123L459.846 223.381L460.381 224.574L460.983 225.832L461.585 227.025L462.254 228.151L462.922 229.343L463.657 230.47L464.459 231.53L465.261 232.656L466.13 233.649L466.999 234.709L467.868 235.703L468.87 236.697L469.872 237.624L471.142 238.684L472.412 239.744L473.748 240.738L475.152 241.665L476.555 242.593L477.959 243.454L479.429 244.182L480.966 244.977L482.436 245.64L483.973 246.302L485.51 246.898L487.114 247.495L488.718 248.025L490.322 248.489L491.926 248.952L493.53 249.35L496.737 250.078L500.012 250.608L503.22 251.072L506.427 251.47L509.568 251.734L512.642 251.867L515.65 252H518.523L522.399 251.937L526.275 251.874L530.218 251.676L534.161 251.477L538.104 251.145L542.047 250.814L545.99 250.416L549.933 249.952L553.942 249.422L557.952 248.826L561.962 248.163L565.971 247.501L569.981 246.773L573.991 245.978L578 245.183L582.077 244.255L593.972 196.757H633V0.00612872L492.457 0ZM48.9182 191.849L49.1185 191.12L49.5867 191.849H48.9182ZM171.347 121.363L169.343 128.054L150.631 189.662L149.895 191.849H88.4135L83.6687 181.779L149.895 114.672H107.326L55.5341 169.987L72.3079 114.672H40.8987V4.9685H171.347L171.347 121.363ZM207.635 173.432L206.633 173.495L205.697 173.558L204.695 173.621H203.625H202.222H201.019L199.883 173.684H198.814L190.46 173.621L194.336 159.444L196.141 152.422L200.551 135.927H201.955H203.425L204.828 135.864H206.165H212.647L216.59 135.927L220.199 136.059L221.803 136.122L223.34 136.255L224.81 136.454L226.146 136.653L227.349 136.852L228.486 137.183L229.555 137.515L230.49 137.912L231.292 138.31L232.028 138.84L232.696 139.371L233.23 140.033L233.564 140.563L233.831 141.094L234.098 141.69L234.299 142.352L234.432 143.081L234.503 143.809V144.604V145.465L234.432 146.393L234.369 147.32L234.169 148.38L233.969 149.44L233.367 151.692L232.632 154.21L231.896 156.33L231.094 158.383L230.226 160.304L229.29 162.093L228.822 162.888L228.354 163.683L227.819 164.478L227.217 165.206L226.615 165.935L226.013 166.597L225.345 167.259L224.676 167.856L223.941 168.386L223.206 168.982L222.404 169.446L221.535 169.976L220.666 170.44L219.731 170.838L218.795 171.235L217.793 171.567L216.723 171.964L215.587 172.229L214.384 172.494L213.182 172.759L211.845 172.957L210.508 173.156L209.105 173.289L207.635 173.422L207.635 173.432ZM302.665 191.849L316.365 143.489L316.9 191.849H302.665ZM323.515 114.473H290.903L268.449 191.849H233.832L235.436 191.186L237.039 190.524L238.577 189.861L240.114 189.133L241.584 188.405L242.987 187.543L244.391 186.748L245.727 185.887L247.064 184.96L248.333 184.032L249.536 183.105L250.739 182.045L251.875 181.051L252.945 179.925L254.014 178.865L255.016 177.673L256.019 176.547L256.954 175.288L257.823 174.095L258.692 172.771L259.494 171.446L260.229 170.121L260.964 168.73L261.633 167.272L262.301 165.815L262.903 164.357L263.437 162.834L263.972 161.244L264.373 159.654L264.841 158.064L265.175 156.342L265.509 154.685L265.977 152.036L266.378 149.518L266.645 147.133L266.845 144.881L266.916 142.629L266.845 140.575L266.782 138.521L266.515 136.6L266.248 134.812L265.78 133.023L265.312 131.367L264.643 129.777L263.908 128.253L263.106 126.73L262.171 125.338L261.101 124.014L260.232 123.086L259.364 122.159L258.428 121.364L257.426 120.635L256.356 119.907L255.287 119.245L254.151 118.648L253.015 118.118L251.812 117.587L250.609 117.19L249.339 116.792L248.07 116.395L246.733 116.063L245.397 115.798L244.06 115.534L242.657 115.335L239.783 114.937L236.909 114.738L233.969 114.54L230.962 114.477H224.947H219H217.128H213.787H209.644H205.032H200.555H196.746H194.073H193.07V4.97203H323.519L323.515 114.473ZM402.773 191.849H383.193L412.864 145.476L402.773 191.849ZM475.683 116.659L475.612 143.489L473.941 145.808L472.404 148.192L470.867 150.577L469.464 152.962L468.127 155.347L466.791 157.798L465.655 160.183L464.519 162.568L463.449 164.886L462.514 167.271L461.578 169.59L460.776 171.842L460.041 174.094L459.372 176.281L458.771 178.401L458.236 180.52L457.902 181.912L457.568 183.369L457.234 184.76L456.967 186.218L456.7 187.609L456.5 189L456.299 190.391L456.166 191.849H436.986L453.359 114.672L398.159 114.609L348.773 191.852H345.164V4.97188H475.68L475.683 116.659ZM550.931 223.448L548.191 223.911L545.385 224.309L542.578 224.707L539.838 225.038L537.098 225.303L534.358 225.502L531.685 225.635H529.012H527.274L525.537 225.572L523.866 225.439L522.195 225.24L520.591 224.975L519.054 224.711L517.517 224.379L516.047 223.981L514.644 223.518L513.24 223.054L511.904 222.458L510.634 221.861L509.364 221.133L508.161 220.405L507.025 219.61L505.956 218.815L504.887 217.887L503.951 216.894L503.016 215.9L502.147 214.774L501.345 213.648L500.61 212.389L499.941 211.13L499.273 209.805L498.738 208.414L498.269 206.891L497.869 205.367L497.468 203.777L497.201 202.121L497.001 200.398L496.867 198.61L496.796 196.755H557.61L550.931 223.448ZM628.051 191.849H595.172L600.585 170.252H534.692L529.279 191.849H497.402V187.41L497.803 185.555L498.137 183.7L498.537 181.713L498.938 179.725L499.54 177.539L500.141 175.353L500.81 173.167L501.545 171.047L502.347 168.927L503.216 166.807L504.152 164.754L505.087 162.7L506.156 160.647L507.226 158.726L508.362 156.738L509.631 154.883L510.901 153.028L512.171 151.24L513.574 149.517L515.044 147.861L516.582 146.271L518.119 144.814L519.789 143.356L521.46 141.965L523.198 140.707L525.069 139.514L526.94 138.454L528.878 137.461L530.883 136.533L532.954 135.738L535.093 135.076L537.298 134.545L539.57 134.082L541.91 133.75L544.315 133.551L546.788 133.489L548.726 133.551L550.664 133.684L552.602 133.949L554.473 134.347L555.409 134.611L556.278 134.876L557.146 135.141L557.948 135.539L558.75 135.87L559.552 136.334L560.287 136.797L561.023 137.261L561.691 137.857L562.36 138.454L562.962 139.05L563.563 139.778L564.098 140.441L564.567 141.236L564.967 142.097L565.368 142.958L565.702 143.886L565.969 144.879L566.169 145.873L566.37 146.999L566.44 148.125V149.318V150.576L566.307 151.901H605.602L606.203 149.185L606.738 146.072L607.005 144.415L607.139 142.627L607.273 140.838V138.983L607.21 137.062L607.009 135.075L606.809 134.147L606.675 133.154L606.408 132.16L606.141 131.166L605.807 130.106L605.474 129.113L605.073 128.119L604.605 127.125L604.136 126.132L603.535 125.138L602.933 124.144L602.264 123.15L601.462 122.091L600.594 121.097L599.725 120.103L598.789 119.176L597.787 118.248L596.718 117.387L595.648 116.592L594.512 115.797L593.309 115.002L592.107 114.34L590.837 113.678L589.5 113.015L588.164 112.419L586.76 111.822L585.29 111.292L583.82 110.762L582.35 110.298L580.746 109.901L579.209 109.503L577.538 109.105L575.867 108.774L574.197 108.442L572.459 108.177L570.655 107.979L566.979 107.581L563.237 107.249L559.294 107.117L555.284 107.054L552.277 107.117L549.136 107.18L545.861 107.378L542.453 107.643L538.911 108.041L535.303 108.504L531.627 109.101L527.885 109.896L526.013 110.293L524.075 110.757L522.204 111.287L520.266 111.817L518.328 112.414L516.39 113.076L514.452 113.739L512.581 114.467L510.643 115.262L508.705 116.123L506.834 116.984L504.896 117.912L503.025 118.905L501.153 119.965L499.282 121.025L497.411 122.218V4.96229H628.06V191.842L628.051 191.849Z" fill="#003087"/>
</svg>
