<svg width="1323" height="185" viewBox="0 0 1323 185" fill="none" xmlns="http://www.w3.org/2000/svg">
<path d="M20.5372 67.2489H0V61.0761H48.1712V76.4087C58.9077 63.7931 71.5075 57.9937 87.7549 57.9937C97.5557 57.9937 106.143 60.4247 112.582 65.382C117.157 68.4723 119.029 71.1813 121.455 78.2915C131.256 64.7305 145.069 57.9937 163.457 57.9937C175.787 57.9937 187.087 62.5776 192.59 69.6878C197.165 75.4872 198.751 83.5269 198.751 100.083V175.657H219.288V181.83H152.721V175.657H171.109V100.083C171.109 79.507 170.459 75.7732 166.161 71.5627C163.362 68.7504 158.787 67.2568 153.934 67.2568C143.475 67.2568 133.674 73.4296 128.821 82.5894C123.588 92.6946 123.31 94.5695 123.31 142.545V175.753H141.707V181.918H77.2881V175.745H95.6843V100.178C95.6843 85.4017 94.7486 78.943 92.3143 75.0185C89.8879 70.9986 84.3849 68.2817 78.5013 68.2817C68.0503 68.2817 57.3139 74.7404 53.3888 83.3441C49.3765 91.6619 48.1554 107.002 48.1554 142.641V175.848H66.5516V182.013H0V175.84H20.5372V67.2489ZM246.827 67.2489H226.29V61.0761H274.461V175.729H294.713V181.902H226.282V175.729H246.819L246.827 67.2489ZM259.704 6.17276C249.904 6.17276 242.529 13.561 242.529 23.3802C242.529 33.1994 249.904 40.8737 259.704 40.8737C262.005 40.9014 264.288 40.4678 266.419 39.5985C268.55 38.7292 270.486 37.4417 272.113 35.8117C273.739 34.1817 275.025 32.2422 275.892 30.1073C276.76 27.9724 277.193 25.6852 277.165 23.3802C277.165 13.561 269.236 6.17276 259.704 6.17276ZM317.962 6.17276H297.425V0H345.596V175.737H365.848V181.91H297.417V175.737H317.954L317.962 6.17276ZM389.089 6.17276H368.552V0H416.731V175.737H436.982V181.91H368.552V175.737H389.089V6.17276ZM477.129 111.483V120.373C477.129 150.204 477.779 157.219 481.141 163.669C485.717 172.567 494.677 177.794 506.254 177.794C525.855 177.794 541.262 164.233 547.051 141.227H554.425C549.477 167.046 528.94 184.809 504.39 184.809C473.117 184.809 445.197 154.978 445.197 121.215C445.197 87.4514 472.181 57.8984 502.892 57.8984C521.938 57.8984 538.733 67.1536 548.637 82.7721C553.87 91.0978 556.011 98.4861 556.566 111.292H477.137L477.129 111.483ZM524.642 105.31C524.642 85.0204 524.365 82.5894 522.216 77.0681C519.417 69.4018 512.138 65.096 502.614 65.096C494.027 65.096 486.93 67.9003 482.632 73.0403C478.342 78.2836 477.129 83.5269 477.129 98.8595V105.31H524.642ZM586.912 67.2489H566.375V61.0761H614.546V77.0602C624.624 64.1506 636.947 57.9778 653.194 57.9778C665.421 57.9778 677.743 62.9351 684.468 69.95C691.556 77.6242 693.055 84.7265 693.055 107.455V175.642H713.307V181.814H647.041V175.642H665.429V128.317C665.429 91.7413 664.216 80.7066 659.918 74.8119C658.142 72.4259 655.832 70.4897 653.175 69.1584C650.517 67.8272 647.585 67.1379 644.614 67.1456C636.677 67.1456 627.154 72.3889 622.206 79.3958C616.417 87.9995 614.554 101.187 614.554 138.978V175.546H632.942V181.719H566.383V175.546H586.92L586.912 67.2489ZM740.568 67.2489H720.031V61.0761H768.202V77.0602C778.281 64.1506 790.611 57.9778 806.85 57.9778C819.077 57.9778 831.4 62.9351 838.124 69.95C845.221 77.6242 846.711 84.7265 846.711 107.455V175.642H866.971V181.814H800.689V175.642H819.077V128.317C819.077 91.7413 817.864 80.7066 813.574 74.8119C811.797 72.4248 809.486 70.488 806.827 69.1567C804.168 67.8254 801.235 67.1366 798.263 67.1456C790.333 67.1456 780.802 72.3889 775.854 79.3958C770.066 87.9995 768.202 101.187 768.202 138.978V175.546H786.599V181.719H720.031V175.546H740.568V67.2489ZM894.225 67.2489H873.687V61.0761H921.859V175.729H942.118V181.902H873.687V175.729H894.225V67.2489ZM907.11 6.17276C897.309 6.17276 889.935 13.561 889.935 23.3802C889.935 33.1994 897.309 40.8737 907.11 40.8737C909.41 40.9003 911.693 40.466 913.823 39.5963C915.953 38.7266 917.889 37.439 919.516 35.8093C921.142 34.1795 922.427 32.2405 923.295 30.106C924.164 27.9716 924.597 25.6849 924.57 23.3802C924.57 13.561 916.633 6.17276 907.11 6.17276ZM1074.59 175.737H1094.85V181.91H1046.95V164.988C1038.64 178.549 1025.2 185 1006.81 185C993.652 185 981.979 180.98 974.883 173.957C967.231 166.291 965.367 158.625 965.367 132.806V67.3442H944.822V61.1715H992.993V132.718C992.993 162.827 993.652 168.349 997.569 172.654C1000.37 176.023 1005.88 177.898 1012.6 177.898C1023.62 177.898 1033.79 172.376 1039.3 163.765C1045.46 153.946 1046.95 143.753 1046.95 110.268V67.2489H1026.42V61.0761H1074.59V175.737ZM1124.25 67.2489H1103.71V61.0761H1151.88V76.4087C1162.62 63.7852 1175.22 57.9858 1191.47 57.9858C1201.27 57.9858 1209.86 60.4168 1216.29 65.374C1220.87 68.4644 1222.74 71.1734 1225.17 78.2836C1234.97 64.7226 1248.78 57.9858 1267.18 57.9858C1279.4 57.9858 1290.79 62.5697 1296.3 69.6799C1300.88 75.4792 1302.46 83.5189 1302.46 100.075V175.65H1323V181.822H1256.44V175.65H1274.83V100.075C1274.83 79.4991 1274.18 75.7652 1269.98 71.5547C1267.18 68.7424 1262.6 67.2489 1257.65 67.2489C1247.19 67.2489 1237.39 73.4217 1232.54 82.5815C1227.32 92.6867 1227.03 94.5616 1227.03 142.537V175.745H1245.42V181.91H1181.01V175.737H1199.4V100.178C1199.4 85.4017 1198.47 78.943 1196.04 75.0185C1193.61 70.9986 1188.1 68.2817 1182.22 68.2817C1171.77 68.2817 1161.03 74.7404 1157.11 83.3441C1153.1 91.6619 1151.88 107.002 1151.88 142.641V175.848H1170.27V182.013H1103.71V175.84H1124.25V67.2489Z" fill="#0032FF"/>
</svg>
