<svg width="615" height="252" viewBox="0 0 615 252" fill="none" xmlns="http://www.w3.org/2000/svg">
<g clip-path="url(#clip0_1_1649)">
<path d="M11.984 100.834C19.2404 74.2826 49.4631 67.9637 77.2888 67.1831C100.164 66.5413 125.668 69.5684 125.668 69.5684L113.685 113.418C113.685 113.418 88.1796 110.39 65.3049 111.032C37.4794 111.813 7.25651 118.132 0 144.683L11.984 100.834Z" fill="#0190FF"/>
<path d="M397.03 54.1504C360.397 54.1506 351.013 89.6314 345.761 108.848L306.631 252H329.46L364.153 125.068H387.865L372.08 182.826H394.91L413.84 113.56H367.301C369.685 104.83 372.228 95.5293 374.301 87.9455C378.129 73.9399 384.381 63.7691 393.474 64.1111C403.524 64.4892 398.409 71.0934 397.033 76.1287C395.129 83.095 400.27 90.0997 409.276 90.0997C428.838 90.0997 433.662 54.1504 397.03 54.1504ZM267.526 79.1989V79.2001L239.205 182.826H263.005L273.493 144.452H294.166C316.977 144.452 332.116 131.852 336.209 114.338C340.032 97.985 330.488 79.1989 304.926 79.1989C292.459 79.1992 279.994 79.1989 267.526 79.1989ZM287.994 91.3932H297.145C306.725 91.3932 314.326 99.0684 312.491 112.425C310.79 124.807 297.355 132.229 285.641 132.229H276.833L287.994 91.3932ZM513.685 111.463C493.674 111.463 479.238 128.692 475.774 145.91C472.445 162.456 481.926 184.444 508.029 184.444C526.581 184.444 535.912 176.269 535.912 176.269L531.641 165.72C531.641 165.72 523.842 172.073 512.974 172.073C502.106 172.073 495.288 163.488 496.797 149.807H541.176C544.349 141.75 546.086 111.463 513.685 111.463ZM602.147 112.394C587.263 112.394 578.487 127.777 578.487 127.777L582.372 113.561H559.542L540.612 182.826H563.441C563.441 182.826 568.939 162.589 571.737 152.486C576.056 136.693 584.864 126.804 589.1 126.399C593.994 125.931 593.525 137.734 603.07 137.734C617.55 137.734 620.673 112.394 602.149 112.394H602.147ZM422.442 113.561L419.296 125.071H448.233L402.741 182.826H466.982L470.127 171.317H437.484L482.975 113.561H422.442ZM513.6 122.9V122.901C526.012 122.901 523.188 139.302 523.188 139.302L498.322 139.245C498.322 139.245 502.446 122.9 513.6 122.9Z" fill="#2B01BE"/>
<path d="M185.633 182.987C103.764 177.878 8.62557 135.616 11.9838 100.834L0.68844 142.164C-2.73785 177.651 85.5164 219.784 173.649 226.836L185.633 182.987Z" fill="#2B01BE"/>
<path d="M215.384 126.002C208.128 152.552 177.905 158.871 150.08 159.652C127.205 160.294 101.7 157.267 101.7 157.267L113.684 113.418C113.684 113.418 139.189 116.445 162.064 115.803C189.889 115.022 220.112 108.703 227.368 82.1523L215.384 126.002Z" fill="#2B01BE"/>
<path d="M41.7354 43.8491C123.604 48.9583 218.743 91.2203 215.384 126.002L226.68 84.672C230.106 49.1848 141.852 7.05216 53.7193 0L41.7354 43.8491Z" fill="#0190FF"/>
</g>
<defs>
<clipPath id="clip0_1_1649">
<rect width="615" height="252" fill="white"/>
</clipPath>
</defs>
</svg>
