<svg width="534" height="156" viewBox="0 0 534 156" fill="none" xmlns="http://www.w3.org/2000/svg">
<path fill-rule="evenodd" clip-rule="evenodd" d="M531.836 122.169L534 122.324C534 122.324 533.751 122.383 533.272 122.479C533.751 122.58 534 122.634 534 122.634L531.836 122.789C520.922 125.134 472.108 136.587 463.504 156C463.504 156 461.382 145.791 442.052 130.368C448.548 139.551 450.445 148.638 450.863 151.737C451.13 153.714 450.656 153.693 449.027 154.798C449.027 154.798 447.366 154.413 447.347 154.413C446.239 153.655 446.446 153.462 446.028 152.181C444.629 147.901 439.583 135.929 427.04 128.643H424.327C427.345 133.739 428.552 138.66 428.974 141.662C428.974 141.721 429.068 142.361 429.068 142.399C428.932 142.998 429.012 143.676 428.664 144.183C428.645 144.2 427.139 145.171 427.139 145.171C426.543 145.033 425.876 145.112 425.378 144.782C425.223 144.685 424.824 144.392 424.228 142.826C422.604 138.446 418.666 132.303 412.395 128.643L308.552 128.312C306.411 132.244 302.282 134.899 297.54 134.899C292.568 134.899 288.266 131.976 286.239 127.713C285.8 127.81 285.36 127.868 284.882 127.868C264.117 127.479 241.441 144.066 240.562 144.702L240.542 144.723C238.649 146.117 236.106 146.117 234.213 144.723C234.213 144.723 228.171 140.284 219.395 135.946C212.168 132.362 203.048 128.777 193.985 128.023C191.212 141.779 179.186 152.143 164.789 152.143C148.345 152.143 135 138.622 135 121.956C135 105.294 148.346 91.7713 164.789 91.7713C179.339 91.7713 191.48 102.371 194.081 116.357C213.584 114.732 233.372 100.258 234.176 99.6568L234.195 99.6375C236.088 98.2422 238.631 98.2422 240.524 99.6375L240.543 99.6568C241.422 100.296 264.099 116.88 284.863 116.495C285.322 116.495 285.781 116.533 286.221 116.65C288.267 112.404 292.55 109.46 297.521 109.46C302.263 109.46 306.393 112.136 308.534 116.047L412.376 116.378C413.216 115.892 414.155 115.272 415.07 114.577C422.144 109.075 424.228 102.04 424.402 101.789C424.726 101.284 424.9 100.606 425.378 100.257C425.397 100.238 427.139 99.8507 427.157 99.8699C427.655 100.199 428.322 100.354 428.664 100.858C429.336 101.826 429.143 101.923 429.012 103.087C428.57 106.709 427.078 111.726 424.346 116.399H427.04C431.016 114.091 439.334 108.317 444.671 96.3436C445.089 95.3943 445.723 93.8441 446.122 92.5267C446.469 91.4028 446.37 91.2868 447.328 90.6084C447.347 90.5892 449.008 90.2211 449.008 90.2211C449.487 90.5502 450.121 90.7248 450.445 91.2089C451.093 92.1586 450.98 92.2361 450.825 93.3793C450.14 98.1258 447.901 105.432 443.732 112.094C443.216 112.911 442.662 113.761 442.033 114.653C461.345 99.2108 463.485 89 463.485 89C472.089 108.434 520.899 119.866 531.822 122.207L531.836 122.169ZM237.39 133.718C241.692 130.929 249.99 125.951 259.798 122.152C249.971 118.333 241.673 113.355 237.371 110.566C233.088 113.355 224.828 118.296 215.038 122.115C218.25 123.354 221.31 124.728 224.12 126.122C229.838 128.953 234.522 131.838 237.39 133.718ZM179.686 121.901C179.686 113.568 173.012 106.805 164.791 106.805C156.569 106.805 149.896 113.568 149.896 121.901C149.896 130.23 156.569 136.993 164.791 136.993C173.012 136.993 179.686 130.23 179.686 121.901Z" fill="white"/>
<path fill-rule="evenodd" clip-rule="evenodd" d="M396.836 33.1692L399 33.3241C399 33.3241 398.751 33.3828 398.272 33.4791C398.751 33.5796 399 33.634 399 33.634L396.836 33.7889C385.922 36.1339 337.108 47.5868 328.504 67C328.504 67 326.382 56.7909 307.052 41.3683C313.548 50.5515 315.445 59.6384 315.863 62.7371C316.13 64.7136 315.656 64.6927 314.027 65.7982C314.027 65.7982 312.366 65.4129 312.347 65.4129C311.239 64.655 311.446 64.4624 311.028 63.181C309.629 58.9014 304.583 46.9293 292.04 39.6431H289.327C292.345 44.7393 293.552 49.6595 293.974 52.662C293.974 52.7206 294.068 53.3613 294.068 53.399C293.932 53.9978 294.012 54.6762 293.664 55.1829C293.645 55.1996 292.139 56.1711 292.139 56.1711C291.543 56.0329 290.876 56.1125 290.378 55.7817C290.223 55.6854 289.824 55.3922 289.228 53.8261C287.604 49.446 283.666 43.3029 277.395 39.6431L173.552 39.3123C171.411 43.2443 167.282 45.8992 162.54 45.8992C157.568 45.8992 153.266 42.9763 151.239 38.7134C150.8 38.8098 150.36 38.8684 149.882 38.8684C129.117 38.4789 106.441 55.0656 105.562 55.7021L105.542 55.7231C103.649 57.1175 101.106 57.1175 99.2132 55.7231C99.2132 55.7231 93.1714 51.2843 84.3953 46.9461C77.1678 43.3616 68.0481 39.7771 58.9847 39.0233C56.2124 52.7793 44.1861 63.1433 29.7888 63.1433C13.3453 63.1433 0 49.6219 0 32.9556C0 16.2936 13.3458 2.77127 29.7888 2.77127C44.3391 2.77127 56.4804 13.3707 59.081 27.3569C78.5836 25.7322 98.3725 11.2577 99.1757 10.6568L99.1949 10.6375C101.088 9.24222 103.631 9.24222 105.524 10.6375L105.543 10.6568C106.422 11.2962 129.099 27.8804 149.863 27.4951C150.322 27.4951 150.781 27.5328 151.221 27.65C153.267 23.4039 157.55 20.4601 162.521 20.4601C167.263 20.4601 171.393 23.1359 173.534 27.0471L277.376 27.3779C278.216 26.8921 279.155 26.2724 280.07 25.5773C287.144 20.0749 289.228 13.0399 289.402 12.7886C289.726 12.2845 289.9 11.6061 290.378 11.2573C290.397 11.238 292.139 10.8507 292.157 10.8699C292.655 11.1995 293.322 11.3544 293.664 11.8582C294.336 12.8263 294.143 12.9226 294.012 14.0867C293.57 17.7089 292.078 22.7256 289.346 27.3988H292.04C296.016 25.0915 304.334 19.3169 309.671 7.34362C310.089 6.39431 310.723 4.84411 311.122 3.52672C311.469 2.40279 311.37 2.2868 312.328 1.60843C312.347 1.58916 314.008 1.22109 314.008 1.22109C314.487 1.55023 315.121 1.72482 315.445 2.20889C316.093 3.15862 315.98 3.2361 315.825 4.37928C315.14 9.12582 312.901 16.4317 308.732 23.0941C308.216 23.9106 307.662 24.7607 307.033 25.6526C326.345 10.2108 328.485 0 328.485 0C337.089 19.4342 385.899 30.8661 396.822 33.2069L396.836 33.1692ZM102.39 44.7183C106.692 41.9294 114.99 36.9505 124.798 33.1524C114.971 29.3334 106.673 24.3545 102.371 21.5656C98.0881 24.3545 89.8278 29.2957 80.0383 33.1147C83.2505 34.3542 86.3096 35.7277 89.1204 37.1222C94.8379 39.9529 99.5221 42.8381 102.39 44.7183ZM44.6855 32.9012C44.6855 24.5681 38.0124 17.8052 29.7907 17.8052C21.5694 17.8052 14.8963 24.5681 14.8963 32.9012C14.8963 41.2301 21.5694 47.9929 29.7907 47.9929C38.0124 47.9929 44.6855 41.2301 44.6855 32.9012Z" fill="white"/>
</svg>
