<svg width="274" height="214" viewBox="0 0 274 214" fill="none" xmlns="http://www.w3.org/2000/svg">
<rect width="274" height="214" fill="#2562F5"/>
<path d="M127.92 74.24C127.92 76.2667 127.44 78.16 126.48 79.92C125.573 81.68 124.32 83.1467 122.72 84.32C121.12 85.4933 119.28 86.2133 117.2 86.48V86.8C121.36 87.6533 124.64 89.4133 127.04 92.08C129.44 94.7467 130.64 98.0267 130.64 101.92C130.64 104.907 129.84 107.68 128.24 110.24C126.693 112.747 124.72 114.613 122.32 115.84C120.827 116.587 118.987 117.147 116.8 117.52C114.613 117.84 111.547 118 107.6 118H81.28V113.36L88 111.68V66.72L81.28 65.04V60.4H110.56C116.16 60.4 120.48 61.76 123.52 64.48C124.907 65.76 125.973 67.2533 126.72 68.96C127.52 70.6667 127.92 72.4267 127.92 74.24ZM106.24 90.88H98.4V112H104.8C107.253 112 109.227 111.867 110.72 111.6C112.213 111.333 113.467 110.907 114.48 110.32C115.92 109.573 117.093 108.4 118 106.8C118.907 105.147 119.36 103.253 119.36 101.12C119.36 99.2533 119.013 97.68 118.32 96.4C117.627 95.12 116.747 94.0533 115.68 93.2C114.72 92.4533 113.493 91.8933 112 91.52C110.507 91.0933 108.587 90.88 106.24 90.88ZM98.4 66.24V85.04H106C109.733 85.04 112.48 84.1067 114.24 82.24C115.04 81.4933 115.733 80.56 116.32 79.44C116.907 78.2667 117.2 76.9333 117.2 75.44C117.2 73.9467 116.907 72.6133 116.32 71.44C115.733 70.2667 115.04 69.3333 114.24 68.64C112.64 67.04 110 66.24 106.32 66.24H98.4ZM153.791 112H163.791C166.671 112 169.124 111.573 171.151 110.72C173.177 109.813 174.884 108.48 176.271 106.72C177.711 104.907 178.804 102.587 179.551 99.76C180.297 96.9333 180.671 93.5733 180.671 89.68C180.671 82.1067 179.204 76.32 176.271 72.32C174.831 70.3467 173.017 68.88 170.831 67.92C168.697 66.9067 166.084 66.4 162.991 66.4H153.791V112ZM136.671 60.4H165.951C173.897 60.4 180.084 62.64 184.511 67.12C187.017 69.68 188.937 72.8267 190.271 76.56C191.604 80.2933 192.271 84.2933 192.271 88.56C192.271 93.04 191.551 97.2533 190.111 101.2C188.724 105.093 186.777 108.373 184.271 111.04C179.844 115.68 173.497 118 165.231 118H136.671V113.36L143.391 111.68V66.72L136.671 65.04V60.4Z" fill="white"/>
<path d="M49.818 176.154C49.818 176.502 49.758 176.832 49.638 177.144C49.518 177.456 49.35 177.738 49.134 177.99C48.918 178.23 48.66 178.434 48.36 178.602C48.072 178.758 47.754 178.86 47.406 178.908V178.98C48.342 179.184 49.08 179.586 49.62 180.186C50.16 180.774 50.43 181.506 50.43 182.382C50.43 183.066 50.25 183.69 49.89 184.254C49.542 184.818 49.098 185.238 48.558 185.514C48.39 185.598 48.204 185.67 48 185.73C47.808 185.79 47.58 185.844 47.316 185.892C47.052 185.928 46.752 185.958 46.416 185.982C46.08 185.994 45.69 186 45.246 186H39.864V185.226L41.376 184.848V174.192L39.864 173.814V173.04H45.912C47.172 173.04 48.144 173.346 48.828 173.958C49.14 174.246 49.38 174.582 49.548 174.966C49.728 175.35 49.818 175.746 49.818 176.154ZM43.176 179.754V184.92H45.156C45.708 184.92 46.152 184.89 46.488 184.83C46.824 184.77 47.106 184.674 47.334 184.542C47.658 184.35 47.922 184.062 48.126 183.678C48.33 183.294 48.432 182.832 48.432 182.292C48.432 181.836 48.354 181.44 48.198 181.104C48.042 180.756 47.844 180.48 47.604 180.276C47.388 180.096 47.112 179.964 46.776 179.88C46.44 179.796 46.008 179.754 45.48 179.754H43.176ZM43.176 178.71H45.426C46.266 178.71 46.884 178.5 47.28 178.08C47.46 177.888 47.616 177.648 47.748 177.36C47.88 177.06 47.946 176.718 47.946 176.334C47.946 175.962 47.88 175.632 47.748 175.344C47.616 175.044 47.46 174.804 47.28 174.624C46.92 174.264 46.326 174.084 45.498 174.084H43.176V178.71ZM54.7787 181.374C54.7787 181.758 54.7847 182.094 54.7967 182.382C54.8087 182.67 54.8207 182.916 54.8327 183.12C54.8567 183.324 54.8867 183.498 54.9227 183.642C54.9587 183.786 55.0067 183.912 55.0667 184.02C55.3427 184.608 55.8467 184.902 56.5787 184.902C56.9027 184.902 57.2147 184.842 57.5147 184.722C57.8147 184.602 58.0787 184.44 58.3067 184.236C58.5707 183.996 58.7627 183.72 58.8827 183.408C59.0147 183.084 59.0927 182.67 59.1167 182.166V177.36L57.5507 177.018V176.28H60.8627V184.92L62.2487 185.262V186L59.4587 186.18L59.2607 184.2H59.1887C58.8407 184.812 58.3667 185.298 57.7667 185.658C57.1667 186.006 56.5247 186.18 55.8407 186.18C55.3847 186.18 54.9647 186.096 54.5807 185.928C54.2087 185.76 53.9147 185.52 53.6987 185.208C53.4587 184.872 53.2847 184.404 53.1767 183.804C53.0807 183.192 53.0327 182.37 53.0327 181.338V177.36L51.8267 177.018V176.28H54.7787V181.374ZM67.0873 185.352C67.7713 185.352 68.3233 185.22 68.7433 184.956C69.1633 184.68 69.3733 184.29 69.3733 183.786C69.3733 183.486 69.2953 183.234 69.1393 183.03C68.9833 182.826 68.7793 182.652 68.5273 182.508C68.2873 182.364 68.0113 182.244 67.6993 182.148C67.3993 182.04 67.1053 181.944 66.8173 181.86C66.4453 181.752 66.0793 181.626 65.7193 181.482C65.3713 181.338 65.0533 181.158 64.7653 180.942C64.4893 180.714 64.2673 180.444 64.0993 180.132C63.9313 179.808 63.8473 179.418 63.8473 178.962C63.8473 178.098 64.1593 177.408 64.7833 176.892C65.4193 176.364 66.3013 176.1 67.4293 176.1C68.3893 176.1 69.1453 176.304 69.6973 176.712C70.2613 177.108 70.5433 177.654 70.5433 178.35C70.5433 178.734 70.4593 179.034 70.2913 179.25C70.1233 179.466 69.8833 179.574 69.5713 179.574C69.2953 179.574 69.0673 179.49 68.8873 179.322C68.7073 179.154 68.6173 178.938 68.6173 178.674C68.6173 178.446 68.6773 178.242 68.7973 178.062C68.9173 177.87 69.0733 177.732 69.2653 177.648C69.0853 177.396 68.8513 177.216 68.5633 177.108C68.2873 176.988 67.9273 176.928 67.4833 176.928C66.0433 176.928 65.3233 177.438 65.3233 178.458C65.3233 178.734 65.3713 178.962 65.4673 179.142C65.5633 179.322 65.7073 179.478 65.8993 179.61C66.0913 179.742 66.3253 179.862 66.6013 179.97C66.8893 180.066 67.2193 180.174 67.5913 180.294C67.9993 180.426 68.4013 180.564 68.7973 180.708C69.1933 180.852 69.5473 181.032 69.8593 181.248C70.1833 181.464 70.4413 181.734 70.6333 182.058C70.8373 182.382 70.9393 182.784 70.9393 183.264C70.9393 183.732 70.8433 184.146 70.6513 184.506C70.4593 184.866 70.1893 185.172 69.8413 185.424C69.4933 185.664 69.0793 185.85 68.5993 185.982C68.1193 186.114 67.5913 186.18 67.0153 186.18C65.9473 186.18 65.0893 185.97 64.4413 185.55C63.8053 185.118 63.4873 184.53 63.4873 183.786C63.4873 183.402 63.5713 183.102 63.7393 182.886C63.9193 182.658 64.1713 182.544 64.4953 182.544C64.7833 182.544 65.0233 182.628 65.2153 182.796C65.4193 182.964 65.5213 183.186 65.5213 183.462C65.5213 183.69 65.4553 183.906 65.3233 184.11C65.2033 184.314 65.0533 184.464 64.8733 184.56C65.0293 184.8 65.3053 184.992 65.7013 185.136C66.1093 185.28 66.5713 185.352 67.0873 185.352ZM72.396 177.018V176.28H75.528V184.92L76.914 185.262V186H72.396V185.262L73.782 184.92V177.36L72.396 177.018ZM73.53 173.382C73.53 173.034 73.626 172.758 73.818 172.554C74.022 172.35 74.298 172.248 74.646 172.248C74.994 172.248 75.27 172.35 75.474 172.554C75.678 172.758 75.78 173.034 75.78 173.382C75.78 173.73 75.678 174.006 75.474 174.21C75.27 174.402 74.994 174.498 74.646 174.498C74.298 174.498 74.022 174.402 73.818 174.21C73.626 174.006 73.53 173.73 73.53 173.382ZM79.3895 177.36L78.0035 177.018V176.28H80.5955L80.9915 178.08H81.0635C81.4235 177.468 81.9035 176.988 82.5035 176.64C83.1155 176.28 83.7755 176.1 84.4835 176.1C84.9635 176.1 85.3955 176.184 85.7795 176.352C86.1635 176.52 86.4695 176.76 86.6975 177.072C86.9375 177.408 87.1055 177.882 87.2015 178.494C87.3095 179.094 87.3635 179.91 87.3635 180.942V184.92L88.7495 185.262V186H84.4115V185.262L85.6175 184.92V180.906C85.6175 180.138 85.5935 179.562 85.5455 179.178C85.5095 178.782 85.4375 178.476 85.3295 178.26C85.0295 177.672 84.5015 177.378 83.7455 177.378C83.4095 177.378 83.0855 177.438 82.7735 177.558C82.4615 177.678 82.1855 177.84 81.9455 178.044C81.6815 178.284 81.4835 178.566 81.3515 178.89C81.2315 179.202 81.1595 179.61 81.1355 180.114V184.92L82.3415 185.262V186H78.0035V185.262L79.3895 184.92V177.36ZM91.8144 181.248C91.8144 182.124 91.9344 182.85 92.1744 183.426C92.4144 183.99 92.7504 184.392 93.1824 184.632C93.6264 184.86 94.1124 184.974 94.6404 184.974C95.2164 184.974 95.7324 184.86 96.1884 184.632C96.6564 184.392 97.0764 184.068 97.4484 183.66L98.0244 184.092C97.8084 184.38 97.5744 184.65 97.3224 184.902C97.0824 185.154 96.8064 185.376 96.4944 185.568C96.1824 185.76 95.8344 185.91 95.4504 186.018C95.0664 186.126 94.6404 186.18 94.1724 186.18C93.3444 186.18 92.6124 186.006 91.9764 185.658C91.3404 185.298 90.8544 184.776 90.5184 184.092C90.3384 183.72 90.2064 183.312 90.1224 182.868C90.0384 182.412 89.9964 181.92 89.9964 181.392C89.9964 179.7 90.3804 178.398 91.1484 177.486C91.9164 176.562 92.9724 176.1 94.3164 176.1C95.5524 176.1 96.5004 176.484 97.1604 177.252C97.8204 178.008 98.1504 179.058 98.1504 180.402C98.1504 180.522 98.1444 180.636 98.1324 180.744C98.1324 180.84 98.1204 181.008 98.0964 181.248H91.8144ZM94.2084 177.072C92.7684 177.072 91.9764 178.17 91.8324 180.366H96.3324V179.772C96.3324 178.908 96.1464 178.242 95.7744 177.774C95.4144 177.306 94.8924 177.072 94.2084 177.072ZM103.333 185.352C104.017 185.352 104.569 185.22 104.989 184.956C105.409 184.68 105.619 184.29 105.619 183.786C105.619 183.486 105.541 183.234 105.385 183.03C105.229 182.826 105.025 182.652 104.773 182.508C104.533 182.364 104.257 182.244 103.945 182.148C103.645 182.04 103.351 181.944 103.063 181.86C102.691 181.752 102.325 181.626 101.965 181.482C101.617 181.338 101.299 181.158 101.011 180.942C100.735 180.714 100.513 180.444 100.345 180.132C100.177 179.808 100.093 179.418 100.093 178.962C100.093 178.098 100.405 177.408 101.029 176.892C101.665 176.364 102.547 176.1 103.675 176.1C104.635 176.1 105.391 176.304 105.943 176.712C106.507 177.108 106.789 177.654 106.789 178.35C106.789 178.734 106.705 179.034 106.537 179.25C106.369 179.466 106.129 179.574 105.817 179.574C105.541 179.574 105.313 179.49 105.133 179.322C104.953 179.154 104.863 178.938 104.863 178.674C104.863 178.446 104.923 178.242 105.043 178.062C105.163 177.87 105.319 177.732 105.511 177.648C105.331 177.396 105.097 177.216 104.809 177.108C104.533 176.988 104.173 176.928 103.729 176.928C102.289 176.928 101.569 177.438 101.569 178.458C101.569 178.734 101.617 178.962 101.713 179.142C101.809 179.322 101.953 179.478 102.145 179.61C102.337 179.742 102.571 179.862 102.847 179.97C103.135 180.066 103.465 180.174 103.837 180.294C104.245 180.426 104.647 180.564 105.043 180.708C105.439 180.852 105.793 181.032 106.105 181.248C106.429 181.464 106.687 181.734 106.879 182.058C107.083 182.382 107.185 182.784 107.185 183.264C107.185 183.732 107.089 184.146 106.897 184.506C106.705 184.866 106.435 185.172 106.087 185.424C105.739 185.664 105.325 185.85 104.845 185.982C104.365 186.114 103.837 186.18 103.261 186.18C102.193 186.18 101.335 185.97 100.687 185.55C100.051 185.118 99.7334 184.53 99.7334 183.786C99.7334 183.402 99.8174 183.102 99.9854 182.886C100.165 182.658 100.417 182.544 100.741 182.544C101.029 182.544 101.269 182.628 101.461 182.796C101.665 182.964 101.767 183.186 101.767 183.462C101.767 183.69 101.701 183.906 101.569 184.11C101.449 184.314 101.299 184.464 101.119 184.56C101.275 184.8 101.551 184.992 101.947 185.136C102.355 185.28 102.817 185.352 103.333 185.352ZM112.386 185.352C113.07 185.352 113.622 185.22 114.042 184.956C114.462 184.68 114.672 184.29 114.672 183.786C114.672 183.486 114.594 183.234 114.438 183.03C114.282 182.826 114.078 182.652 113.826 182.508C113.586 182.364 113.31 182.244 112.998 182.148C112.698 182.04 112.404 181.944 112.116 181.86C111.744 181.752 111.378 181.626 111.018 181.482C110.67 181.338 110.352 181.158 110.064 180.942C109.788 180.714 109.566 180.444 109.398 180.132C109.23 179.808 109.146 179.418 109.146 178.962C109.146 178.098 109.458 177.408 110.082 176.892C110.718 176.364 111.6 176.1 112.728 176.1C113.688 176.1 114.444 176.304 114.996 176.712C115.56 177.108 115.842 177.654 115.842 178.35C115.842 178.734 115.758 179.034 115.59 179.25C115.422 179.466 115.182 179.574 114.87 179.574C114.594 179.574 114.366 179.49 114.186 179.322C114.006 179.154 113.916 178.938 113.916 178.674C113.916 178.446 113.976 178.242 114.096 178.062C114.216 177.87 114.372 177.732 114.564 177.648C114.384 177.396 114.15 177.216 113.862 177.108C113.586 176.988 113.226 176.928 112.782 176.928C111.342 176.928 110.622 177.438 110.622 178.458C110.622 178.734 110.67 178.962 110.766 179.142C110.862 179.322 111.006 179.478 111.198 179.61C111.39 179.742 111.624 179.862 111.9 179.97C112.188 180.066 112.518 180.174 112.89 180.294C113.298 180.426 113.7 180.564 114.096 180.708C114.492 180.852 114.846 181.032 115.158 181.248C115.482 181.464 115.74 181.734 115.932 182.058C116.136 182.382 116.238 182.784 116.238 183.264C116.238 183.732 116.142 184.146 115.95 184.506C115.758 184.866 115.488 185.172 115.14 185.424C114.792 185.664 114.378 185.85 113.898 185.982C113.418 186.114 112.89 186.18 112.314 186.18C111.246 186.18 110.388 185.97 109.74 185.55C109.104 185.118 108.786 184.53 108.786 183.786C108.786 183.402 108.87 183.102 109.038 182.886C109.218 182.658 109.47 182.544 109.794 182.544C110.082 182.544 110.322 182.628 110.514 182.796C110.718 182.964 110.82 183.186 110.82 183.462C110.82 183.69 110.754 183.906 110.622 184.11C110.502 184.314 110.352 184.464 110.172 184.56C110.328 184.8 110.604 184.992 111 185.136C111.408 185.28 111.87 185.352 112.386 185.352ZM128.583 184.92C129.855 184.92 130.791 184.524 131.391 183.732C132.051 182.892 132.381 181.524 132.381 179.628C132.381 177.756 132.051 176.364 131.391 175.452C130.767 174.564 129.771 174.12 128.403 174.12H125.793V184.92H128.583ZM128.529 173.04C130.317 173.04 131.709 173.544 132.705 174.552C133.269 175.128 133.701 175.836 134.001 176.676C134.301 177.516 134.451 178.416 134.451 179.376C134.451 180.396 134.295 181.344 133.983 182.22C133.671 183.096 133.227 183.834 132.651 184.434C132.147 184.974 131.547 185.37 130.851 185.622C130.155 185.874 129.327 186 128.367 186H122.481V185.226L123.993 184.848V174.192L122.481 173.814V173.04H128.529ZM138.062 181.248C138.062 182.124 138.182 182.85 138.422 183.426C138.662 183.99 138.998 184.392 139.43 184.632C139.874 184.86 140.36 184.974 140.888 184.974C141.464 184.974 141.98 184.86 142.436 184.632C142.904 184.392 143.324 184.068 143.696 183.66L144.272 184.092C144.056 184.38 143.822 184.65 143.57 184.902C143.33 185.154 143.054 185.376 142.742 185.568C142.43 185.76 142.082 185.91 141.698 186.018C141.314 186.126 140.888 186.18 140.42 186.18C139.592 186.18 138.86 186.006 138.224 185.658C137.588 185.298 137.102 184.776 136.766 184.092C136.586 183.72 136.454 183.312 136.37 182.868C136.286 182.412 136.244 181.92 136.244 181.392C136.244 179.7 136.628 178.398 137.396 177.486C138.164 176.562 139.22 176.1 140.564 176.1C141.8 176.1 142.748 176.484 143.408 177.252C144.068 178.008 144.398 179.058 144.398 180.402C144.398 180.522 144.392 180.636 144.38 180.744C144.38 180.84 144.368 181.008 144.344 181.248H138.062ZM140.456 177.072C139.016 177.072 138.224 178.17 138.08 180.366H142.58V179.772C142.58 178.908 142.394 178.242 142.022 177.774C141.662 177.306 141.14 177.072 140.456 177.072ZM149.389 186.18L146.185 177.36L145.177 177.018V176.28H149.209V177.018L148.021 177.36L150.559 184.902H150.631L153.169 177.36L152.053 177.018V176.28H155.473V177.018L154.429 177.36L151.243 186.18H149.389ZM157.996 181.248C157.996 182.124 158.116 182.85 158.356 183.426C158.596 183.99 158.932 184.392 159.364 184.632C159.808 184.86 160.294 184.974 160.822 184.974C161.398 184.974 161.914 184.86 162.37 184.632C162.838 184.392 163.258 184.068 163.63 183.66L164.206 184.092C163.99 184.38 163.756 184.65 163.504 184.902C163.264 185.154 162.988 185.376 162.676 185.568C162.364 185.76 162.016 185.91 161.632 186.018C161.248 186.126 160.822 186.18 160.354 186.18C159.526 186.18 158.794 186.006 158.158 185.658C157.522 185.298 157.036 184.776 156.7 184.092C156.52 183.72 156.388 183.312 156.304 182.868C156.22 182.412 156.178 181.92 156.178 181.392C156.178 179.7 156.562 178.398 157.33 177.486C158.098 176.562 159.154 176.1 160.498 176.1C161.734 176.1 162.682 176.484 163.342 177.252C164.002 178.008 164.332 179.058 164.332 180.402C164.332 180.522 164.326 180.636 164.314 180.744C164.314 180.84 164.302 181.008 164.278 181.248H157.996ZM160.39 177.072C158.95 177.072 158.158 178.17 158.014 180.366H162.514V179.772C162.514 178.908 162.328 178.242 161.956 177.774C161.596 177.306 161.074 177.072 160.39 177.072ZM167.013 173.04L165.627 172.698V171.96H168.759V184.92L170.145 185.262V186H165.627V185.262L167.013 184.92V173.04ZM180.308 181.05C180.308 181.842 180.188 182.586 179.948 183.282C179.72 183.978 179.396 184.554 178.976 185.01C178.268 185.79 177.224 186.18 175.844 186.18C174.5 186.18 173.474 185.802 172.766 185.046C172.358 184.602 172.04 184.056 171.812 183.408C171.596 182.748 171.488 182.034 171.488 181.266C171.488 180.474 171.602 179.724 171.83 179.016C172.058 178.308 172.388 177.726 172.82 177.27C173.204 176.862 173.648 176.568 174.152 176.388C174.656 176.196 175.244 176.1 175.916 176.1C176.576 176.1 177.17 176.196 177.698 176.388C178.226 176.568 178.67 176.85 179.03 177.234C179.45 177.678 179.768 178.236 179.984 178.908C180.2 179.568 180.308 180.282 180.308 181.05ZM173.414 181.068C173.414 182.508 173.63 183.582 174.062 184.29C174.266 184.602 174.506 184.842 174.782 185.01C175.07 185.166 175.442 185.244 175.898 185.244C176.726 185.244 177.344 184.962 177.752 184.398C177.968 184.086 178.124 183.654 178.22 183.102C178.328 182.55 178.382 181.914 178.382 181.194C178.382 179.766 178.166 178.698 177.734 177.99C177.53 177.678 177.284 177.444 176.996 177.288C176.708 177.12 176.336 177.036 175.88 177.036C175.04 177.036 174.434 177.312 174.062 177.864C173.63 178.536 173.414 179.604 173.414 181.068ZM186.465 188.502V189.24H181.587V188.502L182.973 188.16V177.36L181.587 177.018V176.28H184.179L184.449 177.666C184.833 177.066 185.265 176.658 185.745 176.442C186.237 176.214 186.789 176.1 187.401 176.1C188.013 176.1 188.565 176.19 189.057 176.37C189.561 176.55 189.969 176.838 190.281 177.234C190.641 177.69 190.923 178.236 191.127 178.872C191.343 179.508 191.451 180.204 191.451 180.96C191.451 181.728 191.331 182.454 191.091 183.138C190.863 183.81 190.551 184.374 190.155 184.83C189.483 185.61 188.517 186 187.257 186C186.741 186 186.273 185.904 185.853 185.712C185.445 185.52 185.067 185.172 184.719 184.668V188.16L186.465 188.502ZM184.701 180.978C184.701 182.406 184.911 183.45 185.331 184.11C185.523 184.422 185.757 184.662 186.033 184.83C186.309 184.986 186.675 185.064 187.131 185.064C187.947 185.064 188.553 184.782 188.949 184.218C189.165 183.918 189.321 183.504 189.417 182.976C189.513 182.436 189.561 181.812 189.561 181.104C189.561 179.7 189.351 178.662 188.931 177.99C188.727 177.678 188.487 177.444 188.211 177.288C187.935 177.12 187.569 177.036 187.113 177.036C186.693 177.036 186.333 177.108 186.033 177.252C185.733 177.384 185.499 177.588 185.331 177.864C185.127 178.188 184.971 178.608 184.863 179.124C184.755 179.64 184.701 180.258 184.701 180.978ZM194.315 177.36L192.929 177.018V176.28H195.521L195.917 178.08H195.989C196.337 177.468 196.799 176.988 197.375 176.64C197.963 176.28 198.587 176.1 199.247 176.1C199.751 176.1 200.189 176.196 200.561 176.388C200.945 176.568 201.227 176.796 201.407 177.072C201.599 177.372 201.755 177.768 201.875 178.26C202.259 177.576 202.757 177.048 203.369 176.676C203.981 176.292 204.635 176.1 205.331 176.1C205.811 176.1 206.243 176.196 206.627 176.388C207.011 176.568 207.305 176.82 207.509 177.144C207.617 177.312 207.707 177.516 207.779 177.756C207.851 177.996 207.911 178.296 207.959 178.656C208.007 179.004 208.037 179.418 208.049 179.898C208.073 180.378 208.085 180.942 208.085 181.59V184.92L209.471 185.262V186H205.133V185.262L206.339 184.92V180.906C206.339 180.138 206.315 179.562 206.267 179.178C206.231 178.782 206.159 178.476 206.051 178.26C205.751 177.672 205.247 177.378 204.539 177.378C204.227 177.378 203.927 177.438 203.639 177.558C203.363 177.678 203.111 177.84 202.883 178.044C202.619 178.284 202.421 178.566 202.289 178.89C202.169 179.202 202.097 179.61 202.073 180.114V184.92L203.279 185.262V186H199.121V185.262L200.327 184.92V180.906C200.327 180.138 200.303 179.562 200.255 179.178C200.219 178.782 200.147 178.476 200.039 178.26C199.739 177.672 199.235 177.378 198.527 177.378C198.215 177.378 197.915 177.438 197.627 177.558C197.351 177.678 197.099 177.84 196.871 178.044C196.607 178.284 196.409 178.566 196.277 178.89C196.157 179.202 196.085 179.61 196.061 180.114V184.92L197.267 185.262V186H192.929V185.262L194.315 184.92V177.36ZM212.488 181.248C212.488 182.124 212.608 182.85 212.848 183.426C213.088 183.99 213.424 184.392 213.856 184.632C214.3 184.86 214.786 184.974 215.314 184.974C215.89 184.974 216.406 184.86 216.862 184.632C217.33 184.392 217.75 184.068 218.122 183.66L218.698 184.092C218.482 184.38 218.248 184.65 217.996 184.902C217.756 185.154 217.48 185.376 217.168 185.568C216.856 185.76 216.508 185.91 216.124 186.018C215.74 186.126 215.314 186.18 214.846 186.18C214.018 186.18 213.286 186.006 212.65 185.658C212.014 185.298 211.528 184.776 211.192 184.092C211.012 183.72 210.88 183.312 210.796 182.868C210.712 182.412 210.67 181.92 210.67 181.392C210.67 179.7 211.054 178.398 211.822 177.486C212.59 176.562 213.646 176.1 214.99 176.1C216.226 176.1 217.174 176.484 217.834 177.252C218.494 178.008 218.824 179.058 218.824 180.402C218.824 180.522 218.818 180.636 218.806 180.744C218.806 180.84 218.794 181.008 218.77 181.248H212.488ZM214.882 177.072C213.442 177.072 212.65 178.17 212.506 180.366H217.006V179.772C217.006 178.908 216.82 178.242 216.448 177.774C216.088 177.306 215.566 177.072 214.882 177.072ZM221.649 177.36L220.263 177.018V176.28H222.855L223.251 178.08H223.323C223.683 177.468 224.163 176.988 224.763 176.64C225.375 176.28 226.035 176.1 226.743 176.1C227.223 176.1 227.655 176.184 228.039 176.352C228.423 176.52 228.729 176.76 228.957 177.072C229.197 177.408 229.365 177.882 229.461 178.494C229.569 179.094 229.623 179.91 229.623 180.942V184.92L231.009 185.262V186H226.671V185.262L227.877 184.92V180.906C227.877 180.138 227.853 179.562 227.805 179.178C227.769 178.782 227.697 178.476 227.589 178.26C227.289 177.672 226.761 177.378 226.005 177.378C225.669 177.378 225.345 177.438 225.033 177.558C224.721 177.678 224.445 177.84 224.205 178.044C223.941 178.284 223.743 178.566 223.611 178.89C223.491 179.202 223.419 179.61 223.395 180.114V184.92L224.601 185.262V186H220.263V185.262L221.649 184.92V177.36ZM231.572 176.532L233.318 176.28L233.552 174.012L235.064 173.796V176.28H237.368V177.18H235.064V183.606C235.064 184.014 235.07 184.296 235.082 184.452C235.094 184.596 235.118 184.716 235.154 184.812C235.19 184.908 235.256 184.968 235.352 184.992C235.448 185.016 235.604 185.028 235.82 185.028H237.08V185.55C236.504 185.766 235.994 185.922 235.55 186.018C235.118 186.126 234.77 186.18 234.506 186.18C233.966 186.18 233.618 185.958 233.462 185.514C233.402 185.37 233.36 185.19 233.336 184.974C233.324 184.746 233.318 184.404 233.318 183.948V177.18H231.572V176.532Z" fill="white"/>
</svg>
