<svg width="602" height="557" viewBox="0 0 602 557" fill="none" xmlns="http://www.w3.org/2000/svg">
<g clip-path="url(#clip0_1129_754)">
<path d="M294.5 507C420.697 507 523 404.697 523 278.5C523 152.303 420.697 50 294.5 50C168.303 50 66 152.303 66 278.5C66 404.697 168.303 507 294.5 507Z" fill="#E4F2FF"/>
<path fill-rule="evenodd" clip-rule="evenodd" d="M409 258.346L375.514 304.189L385.192 320.664C391.156 330.866 377.544 349.647 354.818 362.601C332.09 375.577 308.802 377.797 302.84 367.596L293.204 351.056L235.09 356.946L180 261.761L289.423 250.877L353.694 162.735L409 258.346ZM276.136 228.17C255.354 240.013 234.096 242.895 226.06 235.511C225.303 234.828 224.676 234.017 224.158 233.163L213.788 215.449L204.196 199.017C206.876 203.583 213.054 205.632 221.155 205.354C226.599 205.142 232.93 203.861 239.605 201.556C245.005 199.635 250.514 197.117 256.088 193.937C261.641 190.735 266.674 187.235 270.996 183.587C276.352 179.019 280.651 174.259 283.568 169.714C287.89 162.884 289.142 156.567 286.464 152L296.077 168.433L306.447 186.147C306.965 187 307.311 187.962 307.527 188.922C310.012 199.507 296.876 216.239 276.071 228.083L276.136 228.17Z" fill="#1E53EF"/>
<path d="M149 74H44V178H149V74Z" fill="#1E53EF"/>
<path d="M79.3994 143.594C77.2754 143.594 75.3314 143.27 73.5674 142.622C71.8394 141.974 70.3994 141.056 69.2474 139.868L68.6534 143H65.6294V130.742H68.9234C69.1394 134.162 70.0034 136.664 71.5154 138.248C73.0274 139.832 75.3134 140.624 78.3734 140.624C80.9294 140.624 82.8554 140.138 84.1514 139.166C85.4474 138.158 86.0954 136.682 86.0954 134.738C86.0954 133.19 85.6994 131.894 84.9074 130.85C84.1514 129.806 83.0354 128.87 81.5594 128.042C80.1194 127.214 78.3914 126.404 76.3754 125.612C74.1074 124.676 72.1814 123.758 70.5974 122.858C69.0134 121.922 67.8074 120.806 66.9794 119.51C66.1874 118.178 65.7914 116.468 65.7914 114.38C65.7914 110.96 66.8534 108.296 68.9774 106.388C71.1374 104.48 74.0174 103.526 77.6174 103.526C81.1814 103.526 84.0794 104.534 86.3114 106.55L86.7434 104.12H89.7674V116.378H86.6894C86.6894 112.922 86.0414 110.402 84.7454 108.818C83.4494 107.234 81.4154 106.442 78.6434 106.442C73.7114 106.442 71.2454 108.692 71.2454 113.192C71.2454 114.38 71.4614 115.37 71.8934 116.162C72.3254 116.918 73.0994 117.62 74.2154 118.268C75.3674 118.916 76.9874 119.69 79.0754 120.59C82.0634 121.85 84.4754 123.074 86.3114 124.262C88.1474 125.45 89.4794 126.746 90.3074 128.15C91.1354 129.518 91.5494 131.156 91.5494 133.064C91.5494 135.26 91.0274 137.15 89.9834 138.734C88.9754 140.318 87.5534 141.524 85.7174 142.352C83.9174 143.18 81.8114 143.594 79.3994 143.594ZM96.0656 104.12H128.25V115.46H125.442L123.714 107.36H114.858V139.382L120.582 140.678V143H103.734V140.678L109.458 139.382V107.36H100.548L98.8736 115.46H96.0656V104.12Z" fill="white"/>
<path d="M579 134H474V238H579V134Z" fill="#1E53EF"/>
<path d="M499.804 164.12H531.988V175.46H529.18L527.452 167.36H518.596V199.382L524.32 200.678V203H507.472V200.678L513.196 199.382V167.36H504.286L502.612 175.46H499.804V164.12ZM546.471 167.576V199.544L551.547 200.678V203H535.995V200.678L541.071 199.544V167.576L535.995 166.442V164.12H551.547V166.442L546.471 167.576Z" fill="white"/>
<path d="M316 458H211V562H316V458Z" fill="#1E53EF"/>
<path d="M267.057 497.462C267.057 498.83 266.733 500.108 266.085 501.296C265.473 502.484 264.627 503.474 263.547 504.266C262.467 505.058 261.225 505.544 259.821 505.724V505.94C262.629 506.516 264.843 507.704 266.463 509.504C268.083 511.304 268.893 513.518 268.893 516.146C268.893 518.162 268.353 520.034 267.273 521.762C266.229 523.454 264.897 524.714 263.277 525.542C262.269 526.046 261.027 526.424 259.551 526.676C258.075 526.892 256.005 527 253.341 527H237.195V524.678L241.731 523.544V491.576L237.195 490.442V488.12H255.339C259.119 488.12 262.035 489.038 264.087 490.874C265.023 491.738 265.743 492.746 266.247 493.898C266.787 495.05 267.057 496.238 267.057 497.462ZM254.043 508.262H247.131V523.76H253.071C254.727 523.76 256.059 523.67 257.067 523.49C258.075 523.31 258.921 523.022 259.605 522.626C260.577 522.05 261.369 521.186 261.981 520.034C262.593 518.882 262.899 517.496 262.899 515.876C262.899 514.508 262.665 513.32 262.197 512.312C261.729 511.268 261.135 510.44 260.415 509.828C259.767 509.288 258.939 508.892 257.931 508.64C256.923 508.388 255.627 508.262 254.043 508.262ZM247.131 491.252V505.13H253.881C256.401 505.13 258.255 504.5 259.443 503.24C259.983 502.664 260.451 501.926 260.847 501.026C261.243 500.126 261.441 499.118 261.441 498.002C261.441 496.886 261.243 495.896 260.847 495.032C260.451 494.132 259.983 493.412 259.443 492.872C258.363 491.792 256.581 491.252 254.097 491.252H247.131ZM283.998 491.576V523.544L289.074 524.678V527H273.522V524.678L278.598 523.544V491.576L273.522 490.442V488.12H289.074V490.442L283.998 491.576Z" fill="white"/>
</g>
<defs>
<clipPath id="clip0_1129_754">
<rect width="602" height="557" fill="white"/>
</clipPath>
</defs>
</svg>
