<svg width="494" height="457" viewBox="0 0 494 457" fill="none" xmlns="http://www.w3.org/2000/svg">
<g clip-path="url(#clip0_206_92)">
<path d="M241.118 457C367.139 457 469.299 354.697 469.299 228.5C469.299 102.303 367.139 0 241.118 0C115.098 0 12.9375 102.303 12.9375 228.5C12.9375 354.697 115.098 457 241.118 457Z" fill="#E4F2FF"/>
<path fill-rule="evenodd" clip-rule="evenodd" d="M355.208 208.546L321.842 254.272L331.486 270.705C337.428 280.881 323.865 299.614 301.22 312.535C278.574 325.478 255.369 327.693 249.428 317.517L239.826 301.019L181.92 306.894L127.027 211.953L236.059 201.097L300.1 113.179L355.208 208.546ZM222.82 178.447C202.112 190.26 180.93 193.134 172.922 185.769C172.168 185.089 171.544 184.279 171.027 183.428L160.695 165.759L151.137 149.368C153.807 153.923 159.963 155.967 168.035 155.69C173.46 155.478 179.768 154.2 186.419 151.901C191.8 149.986 197.289 147.473 202.843 144.301C208.376 141.108 213.391 137.617 217.698 133.978C223.035 129.422 227.319 124.674 230.225 120.14C234.531 113.328 235.779 107.027 233.11 102.472L242.689 118.862L253.022 136.531C253.538 137.383 253.883 138.341 254.098 139.299C256.574 149.857 243.485 166.547 222.755 178.361L222.82 178.447Z" fill="#1E53EF"/>
<path d="M104.681 15.3115H0V118.961H104.681V15.3115Z" fill="#1E53EF"/>
<path d="M34.6491 85.3875C32.532 85.3875 30.6266 85.0695 28.9328 84.4334C27.2391 83.7974 25.8277 82.8964 24.6986 81.7303L24.1163 84.8045H21.1523V72.7729H24.381C24.5927 76.165 25.4219 78.6385 26.8686 80.1932C28.3506 81.7126 30.6089 82.4723 33.6435 82.4723C38.6893 82.4723 41.2123 80.5466 41.2123 76.6951C41.2123 75.5643 40.9829 74.575 40.5242 73.7269C40.1008 72.8789 39.4833 72.1192 38.6717 71.4478C37.8601 70.7411 36.8545 70.1051 35.6548 69.5397C34.4903 68.939 33.1671 68.3383 31.6851 67.7376C29.9914 67.0663 28.4918 66.4126 27.1862 65.7765C25.9159 65.1052 24.8397 64.3631 23.9576 63.5504C23.1107 62.7024 22.4579 61.7483 21.9992 60.6883C21.5405 59.5929 21.3111 58.2678 21.3111 56.7131C21.3111 53.3563 22.3521 50.7415 24.4339 48.8687C26.5511 46.996 29.3739 46.0596 32.9025 46.0596C36.3958 46.0596 39.2363 47.049 41.424 49.0277L41.8474 46.6426H44.8114V58.6742H41.7945C41.7945 55.2467 41.1593 52.7732 39.8891 51.2538C38.6541 49.6991 36.6604 48.9217 33.9081 48.9217C29.074 48.9217 26.6569 51.1302 26.6569 55.547C26.6569 56.4304 26.7628 57.1901 26.9745 57.8261C27.1862 58.4268 27.5743 58.9922 28.1389 59.5222C28.7388 60.0523 29.5327 60.5646 30.5207 61.0593C31.5087 61.554 32.779 62.137 34.3316 62.8084C36.5193 63.7624 38.3894 64.6811 39.942 65.5645C41.4946 66.4126 42.7472 67.3136 43.6999 68.2677C44.6879 69.2217 45.4113 70.2464 45.87 71.3418C46.3287 72.4372 46.5581 73.6739 46.5581 75.052C46.5581 76.6774 46.2581 78.1438 45.6583 79.4512C45.0937 80.7233 44.2821 81.801 43.2236 82.6843C42.2003 83.5677 40.9476 84.2391 39.4656 84.6985C38.0189 85.1578 36.4134 85.3875 34.6491 85.3875ZM73.9139 71.9778H59.729L56.5004 81.4123L60.8935 82.5253V84.8045H48.5082V82.5253L52.8483 81.4123L65.5512 46.1126H70.4735L83.0176 81.4123L87.2519 82.5253V84.8045H72.6965V82.5253L77.0367 81.4123L73.9139 71.9778ZM60.7876 68.9037H72.9083L67.192 50.8298H66.9803L60.7876 68.9037Z" fill="white"/>
<path d="M494.001 15.3115H389.32V118.961H494.001V15.3115Z" fill="#1E53EF"/>
<path d="M447.53 46.6426V57.7731H444.777L443.084 49.8227H434.403V81.2533L440.014 82.5253V84.8044H423.5V82.5253L429.111 81.2533V49.8227H420.377L418.737 57.7731H415.984V46.6426H447.53ZM461.725 81.4123L466.701 82.5253V84.8044H451.457V82.5253L456.432 81.4123V50.0347L451.457 48.9217V46.6426H466.701V48.9217L461.725 50.0347V81.4123Z" fill="white"/>
<path d="M494.001 345.105H389.32V448.755H494.001V345.105Z" fill="#1E53EF"/>
<path d="M434.064 396.524C435.052 396.524 435.969 396.383 436.816 396.1C437.698 395.782 438.386 395.376 438.88 394.881C439.586 394.139 440.186 393.168 440.68 391.966C441.174 390.765 441.421 389.475 441.421 388.097C441.421 386.754 441.174 385.535 440.68 384.44C440.221 383.309 439.621 382.302 438.88 381.419C438.28 380.818 437.539 380.359 436.657 380.041C435.81 379.687 434.875 379.511 433.852 379.511H427.501V396.524H434.064ZM427.501 399.599V411.206L432.529 412.319V414.598H417.762V412.319L422.208 411.206V379.829L417.762 378.716V376.437H435.281C436.939 376.437 438.439 376.666 439.78 377.126C441.156 377.55 442.303 378.168 443.22 378.981C444.455 380.111 445.426 381.436 446.131 382.956C446.872 384.475 447.243 386.083 447.243 387.779C447.243 389.546 446.855 391.26 446.078 392.92C445.337 394.546 444.349 395.906 443.114 397.002C442.197 397.814 441.05 398.45 439.674 398.91C438.298 399.369 436.816 399.599 435.228 399.599H427.501ZM460.846 411.206L465.821 412.319V414.598H450.577V412.319L455.553 411.206V379.829L450.577 378.716V376.437H465.821V378.716L460.846 379.829V411.206Z" fill="white"/>
<path d="M104.681 345.105H0V448.755H104.681V345.105Z" fill="#1E53EF"/>
<path d="M45.9531 385.606C45.9531 386.631 45.7767 387.602 45.4238 388.521C45.071 389.44 44.577 390.27 43.9418 391.012C43.3067 391.719 42.548 392.32 41.6659 392.814C40.819 393.274 39.884 393.574 38.8607 393.715V393.927C41.613 394.528 43.783 395.712 45.3709 397.479C46.9587 399.21 47.7527 401.365 47.7527 403.945C47.7527 405.959 47.2234 407.796 46.1648 409.457C45.1415 411.118 43.836 412.355 42.2481 413.167C41.7541 413.415 41.2072 413.627 40.6073 413.803C40.0427 413.98 39.3723 414.139 38.596 414.28C37.8197 414.386 36.9376 414.475 35.9496 414.545C34.9616 414.581 33.8148 414.598 32.5092 414.598H16.6836V412.319L21.1296 411.206V379.829L16.6836 378.716V376.437H34.4676C38.1726 376.437 41.0307 377.338 43.042 379.14C43.9595 379.988 44.6652 380.977 45.1592 382.108C45.6885 383.239 45.9531 384.405 45.9531 385.606ZM26.4225 396.206V411.418H32.2446C33.8677 411.418 35.1733 411.33 36.1613 411.153C37.1493 410.977 37.9785 410.694 38.649 410.305C39.6017 409.74 40.378 408.892 40.9778 407.761C41.5777 406.63 41.8776 405.27 41.8776 403.68C41.8776 402.337 41.6482 401.171 41.1895 400.182C40.7308 399.157 40.1486 398.344 39.4429 397.744C38.8077 397.214 37.9962 396.825 37.0082 396.578C36.0202 396.33 34.7499 396.206 33.1973 396.206H26.4225ZM26.4225 393.132H33.0385C35.5085 393.132 37.3257 392.514 38.4902 391.277C39.0195 390.712 39.4782 390.005 39.8663 389.157C40.2545 388.274 40.4485 387.267 40.4485 386.136C40.4485 385.041 40.2545 384.069 39.8663 383.221C39.4782 382.337 39.0195 381.631 38.4902 381.101C37.4316 380.041 35.685 379.511 33.2502 379.511H26.4225V393.132ZM70.498 411.418C74.2382 411.418 76.9905 410.252 78.7548 407.92C80.6955 405.447 81.6659 401.418 81.6659 395.835C81.6659 390.323 80.6955 386.224 78.7548 383.539C76.92 380.924 73.9912 379.617 69.9687 379.617H62.294V411.418H70.498ZM70.3392 376.437C75.5967 376.437 79.6899 377.921 82.6186 380.889C84.277 382.585 85.5473 384.67 86.4295 387.143C87.3116 389.616 87.7527 392.267 87.7527 395.093C87.7527 398.097 87.294 400.888 86.3765 403.468C85.4591 406.047 84.1535 408.22 82.4598 409.987C80.9778 411.577 79.2135 412.743 77.167 413.485C75.1204 414.227 72.6857 414.598 69.8628 414.598H52.5552V412.319L57.0012 411.206V379.829L52.5552 378.716V376.437H70.3392Z" fill="white"/>
</g>
<defs>
<clipPath id="clip0_206_92">
<rect width="494" height="457" fill="white"/>
</clipPath>
</defs>
</svg>
