<svg width="274" height="214" viewBox="0 0 274 214" fill="none" xmlns="http://www.w3.org/2000/svg">
<rect width="274" height="214" fill="#2562F5"/>
<path d="M114.4 90.16H121.92C123.413 90.16 124.8 89.9467 126.08 89.52C127.413 89.04 128.453 88.4267 129.2 87.68C130.267 86.6133 131.173 85.3333 131.92 83.84C132.667 82.2933 133.04 80.5333 133.04 78.56C133.04 76.8 132.667 75.0933 131.92 73.44C131.227 71.7333 130.32 70.2933 129.2 69.12C128.347 68.2133 127.253 67.52 125.92 67.04C124.587 66.5067 123.147 66.24 121.6 66.24H114.4V90.16ZM126.08 96H114.4V111.68L122 113.36V118H97.28V113.36L104 111.68V66.72L97.28 65.04V60.4H126.16C128.667 60.4 130.96 60.7467 133.04 61.44C135.12 62.08 136.827 63.0133 138.16 64.24C140.027 65.8933 141.493 67.8933 142.56 70.24C143.68 72.5333 144.24 74.96 144.24 77.52C144.24 80.1333 143.653 82.8 142.48 85.52C141.36 88.1867 139.867 90.3467 138 92C136.613 93.44 134.88 94.48 132.8 95.12C130.72 95.7067 128.48 96 126.08 96ZM165.972 66.72V111.68L173.492 113.36V118H148.052V113.36L155.572 111.68V66.72L148.052 65.04V60.4H173.492V65.04L165.972 66.72Z" fill="white"/>
<path d="M62.408 179.862C62.744 179.862 63.056 179.814 63.344 179.718C63.644 179.61 63.878 179.472 64.046 179.304C64.286 179.052 64.49 178.722 64.658 178.314C64.826 177.906 64.91 177.468 64.91 177C64.91 176.544 64.826 176.13 64.658 175.758C64.502 175.374 64.298 175.032 64.046 174.732C63.842 174.528 63.59 174.372 63.29 174.264C63.002 174.144 62.684 174.084 62.336 174.084H60.176V179.862H62.408ZM60.176 180.906V184.848L61.886 185.226V186H56.864V185.226L58.376 184.848V174.192L56.864 173.814V173.04H62.822C63.386 173.04 63.896 173.118 64.352 173.274C64.82 173.418 65.21 173.628 65.522 173.904C65.942 174.288 66.272 174.738 66.512 175.254C66.764 175.77 66.89 176.316 66.89 176.892C66.89 177.492 66.758 178.074 66.494 178.638C66.242 179.19 65.906 179.652 65.486 180.024C65.174 180.3 64.784 180.516 64.316 180.672C63.848 180.828 63.344 180.906 62.804 180.906H60.176ZM69.0873 173.04L67.7013 172.698V171.96H70.8333V184.92L72.2193 185.262V186H67.7013V185.262L69.0873 184.92V173.04ZM73.4184 183.894C73.4184 183.426 73.5204 183.012 73.7244 182.652C73.9404 182.292 74.2764 181.974 74.7324 181.698C75.1884 181.41 75.7764 181.164 76.4964 180.96C77.2164 180.756 78.0804 180.576 79.0884 180.42C79.0284 179.712 78.9564 179.16 78.8724 178.764C78.8004 178.368 78.6984 178.05 78.5664 177.81C78.3984 177.498 78.1644 177.27 77.8644 177.126C77.5644 176.97 77.2404 176.892 76.8924 176.892C76.5564 176.892 76.2504 176.952 75.9744 177.072C75.7104 177.192 75.5304 177.354 75.4344 177.558C75.6024 177.69 75.7224 177.852 75.7944 178.044C75.8784 178.224 75.9204 178.398 75.9204 178.566C75.9204 178.866 75.8184 179.106 75.6144 179.286C75.4224 179.454 75.1824 179.538 74.8944 179.538C74.6064 179.538 74.3664 179.442 74.1744 179.25C73.9944 179.058 73.9044 178.788 73.9044 178.44C73.9044 178.068 74.0064 177.738 74.2104 177.45C74.4144 177.15 74.6784 176.904 75.0024 176.712C75.3384 176.508 75.7104 176.358 76.1184 176.262C76.5384 176.154 76.9524 176.1 77.3604 176.1C78.3804 176.1 79.1844 176.394 79.7724 176.982C80.5164 177.726 80.8884 179.046 80.8884 180.942V183.552C80.8884 184.152 80.9244 184.566 80.9964 184.794C81.0804 185.01 81.2544 185.118 81.5184 185.118H82.3284V185.658C81.4644 186.006 80.7924 186.18 80.3124 186.18C80.1324 186.18 79.9824 186.15 79.8624 186.09C79.7424 186.03 79.6464 185.928 79.5744 185.784C79.5024 185.628 79.4484 185.424 79.4124 185.172C79.3884 184.92 79.3764 184.602 79.3764 184.218H79.3044C78.9324 184.83 78.4404 185.31 77.8284 185.658C77.2164 186.006 76.5564 186.18 75.8484 186.18C75.0924 186.18 74.4984 185.982 74.0664 185.586C73.6344 185.178 73.4184 184.614 73.4184 183.894ZM76.6044 185.136C76.9404 185.136 77.2884 185.052 77.6484 184.884C78.0204 184.704 78.3324 184.458 78.5844 184.146C78.9564 183.69 79.1424 183.018 79.1424 182.13C79.1424 181.926 79.1364 181.728 79.1244 181.536C79.1124 181.332 79.0944 181.14 79.0704 180.96C78.3384 181.104 77.7264 181.254 77.2344 181.41C76.7544 181.566 76.3644 181.746 76.0644 181.95C75.7764 182.142 75.5724 182.37 75.4524 182.634C75.3324 182.886 75.2724 183.18 75.2724 183.516C75.2724 184.032 75.3864 184.434 75.6144 184.722C75.8544 184.998 76.1844 185.136 76.6044 185.136ZM82.5643 176.532L84.3103 176.28L84.5443 174.012L86.0563 173.796V176.28H88.3603V177.18H86.0563V183.606C86.0563 184.014 86.0623 184.296 86.0743 184.452C86.0863 184.596 86.1103 184.716 86.1463 184.812C86.1823 184.908 86.2483 184.968 86.3443 184.992C86.4403 185.016 86.5963 185.028 86.8123 185.028H88.0723V185.55C87.4963 185.766 86.9863 185.922 86.5423 186.018C86.1103 186.126 85.7623 186.18 85.4983 186.18C84.9583 186.18 84.6103 185.958 84.4543 185.514C84.3943 185.37 84.3523 185.19 84.3283 184.974C84.3163 184.746 84.3103 184.404 84.3103 183.948V177.18H82.5643V176.532ZM88.8611 176.532L90.6071 176.28V176.1C90.6071 174.72 90.9071 173.658 91.5071 172.914C92.1071 172.158 92.9171 171.78 93.9371 171.78C94.6571 171.78 95.2271 171.954 95.6471 172.302C96.0671 172.638 96.2771 173.07 96.2771 173.598C96.2771 173.934 96.1931 174.192 96.0251 174.372C95.8571 174.54 95.6291 174.624 95.3411 174.624C95.0651 174.624 94.8431 174.546 94.6751 174.39C94.5071 174.234 94.4231 174.012 94.4231 173.724C94.4231 173.412 94.5191 173.1 94.7111 172.788C94.5071 172.572 94.2311 172.464 93.8831 172.464C93.6071 172.464 93.3671 172.524 93.1631 172.644C92.9591 172.764 92.8031 172.92 92.6951 173.112C92.5871 173.304 92.5031 173.526 92.4431 173.778C92.3951 174.018 92.3651 174.276 92.3531 174.552C92.3531 174.816 92.3531 175.092 92.3531 175.38V176.28H94.6571V177.18H92.3531V184.92L94.2971 185.262V186H89.2211V185.262L90.6071 184.92V177.18H88.8611V176.532ZM104.566 181.05C104.566 181.842 104.446 182.586 104.206 183.282C103.978 183.978 103.654 184.554 103.234 185.01C102.526 185.79 101.482 186.18 100.102 186.18C98.758 186.18 97.732 185.802 97.024 185.046C96.616 184.602 96.298 184.056 96.07 183.408C95.854 182.748 95.746 182.034 95.746 181.266C95.746 180.474 95.86 179.724 96.088 179.016C96.316 178.308 96.646 177.726 97.078 177.27C97.462 176.862 97.906 176.568 98.41 176.388C98.914 176.196 99.502 176.1 100.174 176.1C100.834 176.1 101.428 176.196 101.956 176.388C102.484 176.568 102.928 176.85 103.288 177.234C103.708 177.678 104.026 178.236 104.242 178.908C104.458 179.568 104.566 180.282 104.566 181.05ZM97.672 181.068C97.672 182.508 97.888 183.582 98.32 184.29C98.524 184.602 98.764 184.842 99.04 185.01C99.328 185.166 99.7 185.244 100.156 185.244C100.984 185.244 101.602 184.962 102.01 184.398C102.226 184.086 102.382 183.654 102.478 183.102C102.586 182.55 102.64 181.914 102.64 181.194C102.64 179.766 102.424 178.698 101.992 177.99C101.788 177.678 101.542 177.444 101.254 177.288C100.966 177.12 100.594 177.036 100.138 177.036C99.298 177.036 98.692 177.312 98.32 177.864C97.888 178.536 97.672 179.604 97.672 181.068ZM111.461 177.324C111.353 177.252 111.233 177.216 111.101 177.216C110.873 177.216 110.633 177.36 110.381 177.648C110.129 177.924 109.907 178.278 109.715 178.71C109.547 179.118 109.415 179.568 109.319 180.06C109.223 180.54 109.175 181.038 109.175 181.554V184.92L111.119 185.262V186H106.043V185.262L107.429 184.92V177.36L106.043 177.018V176.28H108.635L109.031 178.656H109.103C109.379 177.84 109.745 177.21 110.201 176.766C110.669 176.322 111.191 176.1 111.767 176.1C112.235 176.1 112.625 176.25 112.937 176.55C113.249 176.838 113.405 177.228 113.405 177.72C113.405 178.08 113.309 178.368 113.117 178.584C112.937 178.788 112.691 178.89 112.379 178.89C112.067 178.89 111.821 178.794 111.641 178.602C111.461 178.398 111.371 178.134 111.371 177.81C111.371 177.738 111.377 177.672 111.389 177.612C111.401 177.552 111.425 177.456 111.461 177.324ZM115.673 177.36L114.287 177.018V176.28H116.879L117.275 178.08H117.347C117.695 177.468 118.157 176.988 118.733 176.64C119.321 176.28 119.945 176.1 120.605 176.1C121.109 176.1 121.547 176.196 121.919 176.388C122.303 176.568 122.585 176.796 122.765 177.072C122.957 177.372 123.113 177.768 123.233 178.26C123.617 177.576 124.115 177.048 124.727 176.676C125.339 176.292 125.993 176.1 126.689 176.1C127.169 176.1 127.601 176.196 127.985 176.388C128.369 176.568 128.663 176.82 128.867 177.144C128.975 177.312 129.065 177.516 129.137 177.756C129.209 177.996 129.269 178.296 129.317 178.656C129.365 179.004 129.395 179.418 129.407 179.898C129.431 180.378 129.443 180.942 129.443 181.59V184.92L130.829 185.262V186H126.491V185.262L127.697 184.92V180.906C127.697 180.138 127.673 179.562 127.625 179.178C127.589 178.782 127.517 178.476 127.409 178.26C127.109 177.672 126.605 177.378 125.897 177.378C125.585 177.378 125.285 177.438 124.997 177.558C124.721 177.678 124.469 177.84 124.241 178.044C123.977 178.284 123.779 178.566 123.647 178.89C123.527 179.202 123.455 179.61 123.431 180.114V184.92L124.637 185.262V186H120.479V185.262L121.685 184.92V180.906C121.685 180.138 121.661 179.562 121.613 179.178C121.577 178.782 121.505 178.476 121.397 178.26C121.097 177.672 120.593 177.378 119.885 177.378C119.573 177.378 119.273 177.438 118.985 177.558C118.709 177.678 118.457 177.84 118.229 178.044C117.965 178.284 117.767 178.566 117.635 178.89C117.515 179.202 117.443 179.61 117.419 180.114V184.92L118.625 185.262V186H114.287V185.262L115.673 184.92V177.36ZM140.018 184.848L141.71 185.226V186H136.526V185.226L138.218 184.848V174.192L136.526 173.814V173.04H141.71V173.814L140.018 174.192V184.848ZM144.518 177.36L143.132 177.018V176.28H145.724L146.12 178.08H146.192C146.552 177.468 147.032 176.988 147.632 176.64C148.244 176.28 148.904 176.1 149.612 176.1C150.092 176.1 150.524 176.184 150.908 176.352C151.292 176.52 151.598 176.76 151.826 177.072C152.066 177.408 152.234 177.882 152.33 178.494C152.438 179.094 152.492 179.91 152.492 180.942V184.92L153.878 185.262V186H149.54V185.262L150.746 184.92V180.906C150.746 180.138 150.722 179.562 150.674 179.178C150.638 178.782 150.566 178.476 150.458 178.26C150.158 177.672 149.63 177.378 148.874 177.378C148.538 177.378 148.214 177.438 147.902 177.558C147.59 177.678 147.314 177.84 147.074 178.044C146.81 178.284 146.612 178.566 146.48 178.89C146.36 179.202 146.288 179.61 146.264 180.114V184.92L147.47 185.262V186H143.132V185.262L144.518 184.92V177.36ZM156.313 177.36L154.927 177.018V176.28H157.519L157.915 178.08H157.987C158.347 177.468 158.827 176.988 159.427 176.64C160.039 176.28 160.699 176.1 161.407 176.1C161.887 176.1 162.319 176.184 162.703 176.352C163.087 176.52 163.393 176.76 163.621 177.072C163.861 177.408 164.029 177.882 164.125 178.494C164.233 179.094 164.287 179.91 164.287 180.942V184.92L165.673 185.262V186H161.335V185.262L162.541 184.92V180.906C162.541 180.138 162.517 179.562 162.469 179.178C162.433 178.782 162.361 178.476 162.253 178.26C161.953 177.672 161.425 177.378 160.669 177.378C160.333 177.378 160.009 177.438 159.697 177.558C159.385 177.678 159.109 177.84 158.869 178.044C158.605 178.284 158.407 178.566 158.275 178.89C158.155 179.202 158.083 179.61 158.059 180.114V184.92L159.265 185.262V186H154.927V185.262L156.313 184.92V177.36ZM175.722 181.05C175.722 181.842 175.602 182.586 175.362 183.282C175.134 183.978 174.81 184.554 174.39 185.01C173.682 185.79 172.638 186.18 171.258 186.18C169.914 186.18 168.888 185.802 168.18 185.046C167.772 184.602 167.454 184.056 167.226 183.408C167.01 182.748 166.902 182.034 166.902 181.266C166.902 180.474 167.016 179.724 167.244 179.016C167.472 178.308 167.802 177.726 168.234 177.27C168.618 176.862 169.062 176.568 169.566 176.388C170.07 176.196 170.658 176.1 171.33 176.1C171.99 176.1 172.584 176.196 173.112 176.388C173.64 176.568 174.084 176.85 174.444 177.234C174.864 177.678 175.182 178.236 175.398 178.908C175.614 179.568 175.722 180.282 175.722 181.05ZM168.828 181.068C168.828 182.508 169.044 183.582 169.476 184.29C169.68 184.602 169.92 184.842 170.196 185.01C170.484 185.166 170.856 185.244 171.312 185.244C172.14 185.244 172.758 184.962 173.166 184.398C173.382 184.086 173.538 183.654 173.634 183.102C173.742 182.55 173.796 181.914 173.796 181.194C173.796 179.766 173.58 178.698 173.148 177.99C172.944 177.678 172.698 177.444 172.41 177.288C172.122 177.12 171.75 177.036 171.294 177.036C170.454 177.036 169.848 177.312 169.476 177.864C169.044 178.536 168.828 179.604 168.828 181.068ZM180.68 186.18L177.476 177.36L176.468 177.018V176.28H180.5V177.018L179.312 177.36L181.85 184.902H181.922L184.46 177.36L183.344 177.018V176.28H186.764V177.018L185.72 177.36L182.534 186.18H180.68ZM187.43 183.894C187.43 183.426 187.532 183.012 187.736 182.652C187.952 182.292 188.288 181.974 188.744 181.698C189.2 181.41 189.788 181.164 190.508 180.96C191.228 180.756 192.092 180.576 193.1 180.42C193.04 179.712 192.968 179.16 192.884 178.764C192.812 178.368 192.71 178.05 192.578 177.81C192.41 177.498 192.176 177.27 191.876 177.126C191.576 176.97 191.252 176.892 190.904 176.892C190.568 176.892 190.262 176.952 189.986 177.072C189.722 177.192 189.542 177.354 189.446 177.558C189.614 177.69 189.734 177.852 189.806 178.044C189.89 178.224 189.932 178.398 189.932 178.566C189.932 178.866 189.83 179.106 189.626 179.286C189.434 179.454 189.194 179.538 188.906 179.538C188.618 179.538 188.378 179.442 188.186 179.25C188.006 179.058 187.916 178.788 187.916 178.44C187.916 178.068 188.018 177.738 188.222 177.45C188.426 177.15 188.69 176.904 189.014 176.712C189.35 176.508 189.722 176.358 190.13 176.262C190.55 176.154 190.964 176.1 191.372 176.1C192.392 176.1 193.196 176.394 193.784 176.982C194.528 177.726 194.9 179.046 194.9 180.942V183.552C194.9 184.152 194.936 184.566 195.008 184.794C195.092 185.01 195.266 185.118 195.53 185.118H196.34V185.658C195.476 186.006 194.804 186.18 194.324 186.18C194.144 186.18 193.994 186.15 193.874 186.09C193.754 186.03 193.658 185.928 193.586 185.784C193.514 185.628 193.46 185.424 193.424 185.172C193.4 184.92 193.388 184.602 193.388 184.218H193.316C192.944 184.83 192.452 185.31 191.84 185.658C191.228 186.006 190.568 186.18 189.86 186.18C189.104 186.18 188.51 185.982 188.078 185.586C187.646 185.178 187.43 184.614 187.43 183.894ZM190.616 185.136C190.952 185.136 191.3 185.052 191.66 184.884C192.032 184.704 192.344 184.458 192.596 184.146C192.968 183.69 193.154 183.018 193.154 182.13C193.154 181.926 193.148 181.728 193.136 181.536C193.124 181.332 193.106 181.14 193.082 180.96C192.35 181.104 191.738 181.254 191.246 181.41C190.766 181.566 190.376 181.746 190.076 181.95C189.788 182.142 189.584 182.37 189.464 182.634C189.344 182.886 189.284 183.18 189.284 183.516C189.284 184.032 189.398 184.434 189.626 184.722C189.866 184.998 190.196 185.136 190.616 185.136ZM196.576 176.532L198.322 176.28L198.556 174.012L200.068 173.796V176.28H202.372V177.18H200.068V183.606C200.068 184.014 200.074 184.296 200.086 184.452C200.098 184.596 200.122 184.716 200.158 184.812C200.194 184.908 200.26 184.968 200.356 184.992C200.452 185.016 200.608 185.028 200.824 185.028H202.084V185.55C201.508 185.766 200.998 185.922 200.554 186.018C200.122 186.126 199.774 186.18 199.51 186.18C198.97 186.18 198.622 185.958 198.466 185.514C198.406 185.37 198.364 185.19 198.34 184.974C198.328 184.746 198.322 184.404 198.322 183.948V177.18H196.576V176.532ZM203.197 177.018V176.28H206.329V184.92L207.715 185.262V186H203.197V185.262L204.583 184.92V177.36L203.197 177.018ZM204.331 173.382C204.331 173.034 204.427 172.758 204.619 172.554C204.823 172.35 205.099 172.248 205.447 172.248C205.795 172.248 206.071 172.35 206.275 172.554C206.479 172.758 206.581 173.034 206.581 173.382C206.581 173.73 206.479 174.006 206.275 174.21C206.071 174.402 205.795 174.498 205.447 174.498C205.099 174.498 204.823 174.402 204.619 174.21C204.427 174.006 204.331 173.73 204.331 173.382ZM217.804 181.05C217.804 181.842 217.684 182.586 217.444 183.282C217.216 183.978 216.892 184.554 216.472 185.01C215.764 185.79 214.72 186.18 213.34 186.18C211.996 186.18 210.97 185.802 210.262 185.046C209.854 184.602 209.536 184.056 209.308 183.408C209.092 182.748 208.984 182.034 208.984 181.266C208.984 180.474 209.098 179.724 209.326 179.016C209.554 178.308 209.884 177.726 210.316 177.27C210.7 176.862 211.144 176.568 211.648 176.388C212.152 176.196 212.74 176.1 213.412 176.1C214.072 176.1 214.666 176.196 215.194 176.388C215.722 176.568 216.166 176.85 216.526 177.234C216.946 177.678 217.264 178.236 217.48 178.908C217.696 179.568 217.804 180.282 217.804 181.05ZM210.91 181.068C210.91 182.508 211.126 183.582 211.558 184.29C211.762 184.602 212.002 184.842 212.278 185.01C212.566 185.166 212.938 185.244 213.394 185.244C214.222 185.244 214.84 184.962 215.248 184.398C215.464 184.086 215.62 183.654 215.716 183.102C215.824 182.55 215.878 181.914 215.878 181.194C215.878 179.766 215.662 178.698 215.23 177.99C215.026 177.678 214.78 177.444 214.492 177.288C214.204 177.12 213.832 177.036 213.376 177.036C212.536 177.036 211.93 177.312 211.558 177.864C211.126 178.536 210.91 179.604 210.91 181.068ZM220.667 177.36L219.281 177.018V176.28H221.873L222.269 178.08H222.341C222.701 177.468 223.181 176.988 223.781 176.64C224.393 176.28 225.053 176.1 225.761 176.1C226.241 176.1 226.673 176.184 227.057 176.352C227.441 176.52 227.747 176.76 227.975 177.072C228.215 177.408 228.383 177.882 228.479 178.494C228.587 179.094 228.641 179.91 228.641 180.942V184.92L230.027 185.262V186H225.689V185.262L226.895 184.92V180.906C226.895 180.138 226.871 179.562 226.823 179.178C226.787 178.782 226.715 178.476 226.607 178.26C226.307 177.672 225.779 177.378 225.023 177.378C224.687 177.378 224.363 177.438 224.051 177.558C223.739 177.678 223.463 177.84 223.223 178.044C222.959 178.284 222.761 178.566 222.629 178.89C222.509 179.202 222.437 179.61 222.413 180.114V184.92L223.619 185.262V186H219.281V185.262L220.667 184.92V177.36Z" fill="white"/>
</svg>
