<svg width="36" height="35" viewBox="0 0 36 35" fill="none" xmlns="http://www.w3.org/2000/svg">
<path fill-rule="evenodd" clip-rule="evenodd" d="M36 16.7664L30.7358 23.9938L32.2574 26.5913C33.1947 28.1997 31.0551 31.1606 27.4823 33.203C23.9094 35.2487 20.2483 35.5987 19.3109 33.9903L17.7962 31.3827L8.66038 32.3113L0 17.3047L17.2019 15.5887L27.3057 1.69245L36 16.7664ZM15.1132 12.0087C11.846 13.8761 8.50415 14.3303 7.24075 13.1661C7.12189 13.0584 7.0234 12.9306 6.94189 12.796L5.3117 10.0033L3.80377 7.41246C4.22491 8.13251 5.19623 8.45552 6.46981 8.41178C7.32566 8.37814 8.32075 8.17625 9.37019 7.81286C10.2192 7.51004 11.0853 7.113 11.9615 6.61166C12.8343 6.10695 13.6257 5.55514 14.3049 4.97978C15.1472 4.25973 15.823 3.5094 16.2815 2.79271C16.9608 1.716 17.1577 0.720049 16.7366 0L18.2479 2.59083L19.8781 5.38354C19.9596 5.51813 20.014 5.66954 20.0479 5.82095C20.4385 7.48985 18.3736 10.1278 15.103 11.9952L15.1132 12.0087Z" fill="black"/>
</svg>
