<svg width="274" height="214" viewBox="0 0 274 214" fill="none" xmlns="http://www.w3.org/2000/svg">
<path d="M0 0H274V214H0V0Z" fill="#2562F5"/>
<path d="M108.76 118.88C105.72 118.88 103.133 118.453 101 117.6C98.92 116.693 97.0533 115.28 95.4 113.36L94.52 118H87.64V98.64H94.92C95.24 103.973 96.5467 107.76 98.84 110C101.133 112.187 104.173 113.28 107.96 113.28C111 113.28 113.427 112.64 115.24 111.36C117.053 110.08 117.96 108.107 117.96 105.44C117.96 103.253 117.347 101.467 116.12 100.08C114.947 98.64 113.267 97.3867 111.08 96.32C108.947 95.2 106.44 94.0533 103.56 92.88C100.253 91.4933 97.4267 90.08 95.08 88.64C92.7333 87.2 90.9467 85.4667 89.72 83.44C88.4933 81.4133 87.88 78.8533 87.88 75.76C87.88 70.5867 89.4533 66.5867 92.6 63.76C95.8 60.9333 100.067 59.52 105.4 59.52C110.68 59.52 114.973 61.0133 118.28 64L118.92 60.4H125.8V79.76H118.84C118.84 74.7467 117.907 71.04 116.04 68.64C114.173 66.24 111.293 65.04 107.4 65.04C101.373 65.04 98.36 67.8933 98.36 73.6C98.36 75.4667 98.7333 76.96 99.48 78.08C100.227 79.2 101.453 80.24 103.16 81.2C104.92 82.16 107.293 83.3067 110.28 84.64C114.76 86.6667 118.333 88.56 121 90.32C123.667 92.08 125.56 93.9467 126.68 95.92C127.853 97.84 128.44 100.107 128.44 102.72C128.44 106.293 127.56 109.28 125.8 111.68C124.04 114.08 121.667 115.893 118.68 117.12C115.747 118.293 112.44 118.88 108.76 118.88ZM172.559 111.68L168.479 99.28H148.959L144.799 111.68L151.439 113.36V118H130.319V113.36L136.879 111.68L155.599 59.6H165.439L183.999 111.68L190.399 113.36V118H165.999V113.36L172.559 111.68ZM158.799 70.16L150.959 93.44H166.559L159.119 70.16H158.799Z" fill="white"/>
<path d="M55.778 180.198C55.07 180.198 54.422 180.09 53.834 179.874C53.258 179.658 52.778 179.352 52.394 178.956L52.196 180H51.188V175.914H52.286C52.358 177.054 52.646 177.888 53.15 178.416C53.654 178.944 54.416 179.208 55.436 179.208C56.288 179.208 56.93 179.046 57.362 178.722C57.794 178.386 58.01 177.894 58.01 177.246C58.01 176.73 57.878 176.298 57.614 175.95C57.362 175.602 56.99 175.29 56.498 175.014C56.018 174.738 55.442 174.468 54.77 174.204C54.014 173.892 53.372 173.586 52.844 173.286C52.316 172.974 51.914 172.602 51.638 172.17C51.374 171.726 51.242 171.156 51.242 170.46C51.242 169.32 51.596 168.432 52.304 167.796C53.024 167.16 53.984 166.842 55.184 166.842C56.372 166.842 57.338 167.178 58.082 167.85L58.226 167.04H59.234V171.126H58.208C58.208 169.974 57.992 169.134 57.56 168.606C57.128 168.078 56.45 167.814 55.526 167.814C53.882 167.814 53.06 168.564 53.06 170.064C53.06 170.46 53.132 170.79 53.276 171.054C53.42 171.306 53.678 171.54 54.05 171.756C54.434 171.972 54.974 172.23 55.67 172.53C56.666 172.95 57.47 173.358 58.082 173.754C58.694 174.15 59.138 174.582 59.414 175.05C59.69 175.506 59.828 176.052 59.828 176.688C59.828 177.42 59.654 178.05 59.306 178.578C58.97 179.106 58.496 179.508 57.884 179.784C57.284 180.06 56.582 180.198 55.778 180.198ZM60.9374 171.18V170.532L62.6834 170.28L62.9174 168.012L64.4294 167.796V170.28H66.7334V171.18H64.4294V177.606C64.4294 178.014 64.4354 178.296 64.4474 178.452C64.4594 178.596 64.4834 178.716 64.5194 178.812C64.5554 178.896 64.6214 178.956 64.7174 178.992C64.8134 179.016 64.9694 179.028 65.1854 179.028H66.4454V179.55C65.8694 179.766 65.3594 179.922 64.9154 180.018C64.4834 180.126 64.1354 180.18 63.8714 180.18C63.3314 180.18 62.9834 179.958 62.8274 179.514C62.7794 179.37 62.7434 179.184 62.7194 178.956C62.6954 178.728 62.6834 178.392 62.6834 177.948V171.18H60.9374ZM72.9762 171.324C72.9282 171.288 72.8682 171.264 72.7962 171.252C72.7362 171.228 72.6762 171.216 72.6162 171.216C72.4722 171.216 72.3162 171.282 72.1482 171.414C71.9802 171.546 71.8182 171.726 71.6622 171.954C71.5062 172.17 71.3622 172.422 71.2302 172.71C71.0622 173.118 70.9302 173.568 70.8342 174.06C70.7382 174.54 70.6902 175.038 70.6902 175.554V178.92L72.6342 179.262V180H67.5582V179.262L68.9442 178.92V171.36L67.5582 171.018V170.28H70.1502L70.5462 172.656H70.6182C70.8942 171.84 71.2662 171.21 71.7342 170.766C72.2022 170.322 72.7182 170.1 73.2822 170.1C73.7502 170.1 74.1402 170.25 74.4522 170.55C74.7642 170.838 74.9202 171.228 74.9202 171.72C74.9202 172.08 74.8242 172.368 74.6322 172.584C74.4522 172.788 74.2062 172.89 73.8942 172.89C73.5822 172.89 73.3362 172.794 73.1562 172.602C72.9762 172.398 72.8862 172.134 72.8862 171.81C72.8862 171.738 72.8922 171.672 72.9042 171.612C72.9162 171.54 72.9402 171.444 72.9762 171.324ZM75.8383 177.894C75.8383 176.958 76.2763 176.22 77.1523 175.68C78.0283 175.14 79.4803 174.72 81.5083 174.42C81.4603 173.712 81.3943 173.16 81.3103 172.764C81.2263 172.368 81.1183 172.05 80.9863 171.81C80.8183 171.498 80.5843 171.27 80.2843 171.126C79.9843 170.97 79.6603 170.892 79.3123 170.892C78.9763 170.892 78.6703 170.952 78.3943 171.072C78.1303 171.192 77.9503 171.354 77.8543 171.558C78.0223 171.678 78.1423 171.834 78.2143 172.026C78.2983 172.218 78.3403 172.398 78.3403 172.566C78.3403 172.866 78.2383 173.106 78.0343 173.286C77.8423 173.454 77.6023 173.538 77.3143 173.538C77.0263 173.538 76.7863 173.442 76.5943 173.25C76.4143 173.058 76.3243 172.788 76.3243 172.44C76.3243 171.936 76.4983 171.51 76.8463 171.162C77.1943 170.814 77.6323 170.55 78.1603 170.37C78.7003 170.19 79.2403 170.1 79.7803 170.1C80.2723 170.1 80.7223 170.178 81.1303 170.334C81.5503 170.478 81.9043 170.694 82.1923 170.982C82.9363 171.726 83.3083 173.046 83.3083 174.942V177.552C83.3083 178.14 83.3443 178.548 83.4163 178.776C83.5003 179.004 83.6743 179.118 83.9383 179.118H84.7483V179.658C83.8843 180.006 83.2123 180.18 82.7323 180.18C82.3603 180.18 82.1083 180.048 81.9763 179.784C81.8563 179.508 81.7963 178.986 81.7963 178.218H81.7243C81.3523 178.83 80.8603 179.31 80.2483 179.658C79.6363 180.006 78.9763 180.18 78.2683 180.18C77.5123 180.18 76.9183 179.976 76.4863 179.568C76.0543 179.16 75.8383 178.602 75.8383 177.894ZM79.0243 179.136C79.3603 179.136 79.7083 179.052 80.0683 178.884C80.4403 178.704 80.7523 178.458 81.0043 178.146C81.1963 177.906 81.3343 177.624 81.4183 177.3C81.5143 176.964 81.5623 176.574 81.5623 176.13C81.5623 175.926 81.5563 175.728 81.5443 175.536C81.5323 175.332 81.5143 175.14 81.4903 174.96C80.5183 175.152 79.7563 175.362 79.2043 175.59C78.6523 175.806 78.2623 176.07 78.0343 176.382C77.8063 176.682 77.6923 177.06 77.6923 177.516C77.6923 178.032 77.8063 178.434 78.0343 178.722C78.2743 178.998 78.6043 179.136 79.0243 179.136ZM84.9843 171.18V170.532L86.7303 170.28L86.9643 168.012L88.4763 167.796V170.28H90.7803V171.18H88.4763V177.606C88.4763 178.014 88.4823 178.296 88.4943 178.452C88.5063 178.596 88.5303 178.716 88.5663 178.812C88.6023 178.896 88.6683 178.956 88.7643 178.992C88.8603 179.016 89.0163 179.028 89.2323 179.028H90.4923V179.55C89.9163 179.766 89.4063 179.922 88.9623 180.018C88.5303 180.126 88.1823 180.18 87.9183 180.18C87.3783 180.18 87.0303 179.958 86.8743 179.514C86.8263 179.37 86.7903 179.184 86.7663 178.956C86.7423 178.728 86.7303 178.392 86.7303 177.948V171.18H84.9843ZM99.903 175.248H93.621C93.621 176.124 93.741 176.85 93.981 177.426C94.221 177.978 94.563 178.374 95.007 178.614C95.451 178.854 95.931 178.974 96.447 178.974C97.011 178.974 97.527 178.86 97.995 178.632C98.463 178.392 98.883 178.068 99.255 177.66L99.831 178.092C99.411 178.668 98.901 179.16 98.301 179.568C97.701 179.976 96.927 180.18 95.979 180.18C95.151 180.18 94.419 180.006 93.783 179.658C93.147 179.298 92.661 178.776 92.325 178.092C92.145 177.72 92.013 177.306 91.929 176.85C91.845 176.394 91.803 175.908 91.803 175.392C91.803 173.712 92.187 172.41 92.955 171.486C93.735 170.562 94.791 170.1 96.123 170.1C97.347 170.1 98.289 170.484 98.949 171.252C99.621 172.008 99.957 173.058 99.957 174.402C99.957 174.522 99.951 174.636 99.939 174.744C99.939 174.84 99.927 175.008 99.903 175.248ZM96.015 171.072C94.575 171.072 93.783 172.17 93.639 174.366H98.139V173.772C98.139 172.908 97.953 172.242 97.581 171.774C97.221 171.306 96.699 171.072 96.015 171.072ZM109.874 180.18C109.874 181.092 109.484 181.842 108.704 182.43C107.936 183.018 106.862 183.312 105.482 183.312C104.57 183.312 103.802 183.222 103.178 183.042C102.554 182.862 102.08 182.604 101.756 182.268C101.444 181.932 101.288 181.53 101.288 181.062C101.288 180.498 101.456 180.066 101.792 179.766C102.128 179.454 102.59 179.256 103.178 179.172V179.1C102.386 178.872 101.99 178.404 101.99 177.696C101.99 177.444 102.05 177.21 102.17 176.994C102.29 176.766 102.47 176.556 102.71 176.364C102.962 176.172 103.28 176.01 103.664 175.878C103.076 175.662 102.62 175.326 102.296 174.87C101.972 174.414 101.81 173.856 101.81 173.196C101.81 172.236 102.14 171.48 102.8 170.928C103.472 170.376 104.366 170.1 105.482 170.1C106.046 170.1 106.55 170.172 106.994 170.316C107.438 170.448 107.816 170.652 108.128 170.928L108.74 170.712L110.396 169.92H110.702V171.504H110.396L109.136 171.36H108.524C108.872 171.84 109.046 172.416 109.046 173.088C109.046 174.036 108.716 174.786 108.056 175.338C107.408 175.878 106.508 176.148 105.356 176.148C105.236 176.148 105.116 176.148 104.996 176.148C104.876 176.136 104.756 176.124 104.636 176.112C104.156 176.184 103.796 176.31 103.556 176.49C103.328 176.67 103.214 176.898 103.214 177.174C103.214 177.45 103.322 177.642 103.538 177.75C103.754 177.846 104.174 177.894 104.798 177.894H106.886C107.87 177.894 108.614 178.08 109.118 178.452C109.622 178.812 109.874 179.388 109.874 180.18ZM106.094 179.28H104.924C104.12 179.28 103.538 179.418 103.178 179.694C102.818 179.97 102.638 180.33 102.638 180.774C102.638 181.866 103.574 182.412 105.446 182.412C106.466 182.412 107.24 182.256 107.768 181.944C108.308 181.632 108.578 181.176 108.578 180.576C108.578 180.096 108.392 179.76 108.02 179.568C107.66 179.376 107.018 179.28 106.094 179.28ZM103.394 173.124C103.394 173.844 103.556 174.39 103.88 174.762C104.216 175.134 104.732 175.32 105.428 175.32C106.136 175.32 106.652 175.134 106.976 174.762C107.3 174.39 107.462 173.844 107.462 173.124C107.462 172.404 107.3 171.858 106.976 171.486C106.652 171.114 106.136 170.928 105.428 170.928C104.732 170.928 104.216 171.114 103.88 171.486C103.556 171.858 103.394 172.404 103.394 173.124ZM120.072 171.36L117.084 179.568C116.748 180.492 116.442 181.236 116.166 181.8C115.89 182.376 115.584 182.79 115.248 183.042C114.912 183.294 114.48 183.42 113.952 183.42C113.388 183.42 112.902 183.27 112.494 182.97C112.098 182.67 111.9 182.292 111.9 181.836C111.9 181.5 111.996 181.218 112.188 180.99C112.38 180.774 112.632 180.666 112.944 180.666C113.22 180.666 113.436 180.738 113.592 180.882C113.76 181.038 113.844 181.248 113.844 181.512C113.844 181.68 113.808 181.842 113.736 181.998C113.676 182.154 113.592 182.292 113.484 182.412C113.508 182.532 113.58 182.61 113.7 182.646C113.82 182.694 113.922 182.718 114.006 182.718C114.174 182.718 114.33 182.676 114.474 182.592C114.618 182.508 114.768 182.328 114.924 182.052C115.092 181.788 115.272 181.368 115.464 180.792L115.68 180.126L111.954 171.36L110.874 171.018V170.28H114.906L115.05 171.018L113.772 171.36L116.454 178.416H116.526L118.794 171.36L117.75 171.018V170.28H121.17V171.018L120.072 171.36ZM138.188 173.808L136.82 174.15C136.82 174.882 136.712 175.62 136.496 176.364C136.28 177.108 135.98 177.762 135.596 178.326C135.716 178.578 135.92 178.788 136.208 178.956C136.496 179.124 136.802 179.208 137.126 179.208C137.414 179.208 137.702 179.136 137.99 178.992C138.29 178.836 138.53 178.644 138.71 178.416L139.178 179.082C138.662 179.814 137.912 180.18 136.928 180.18C136.508 180.18 136.1 180.108 135.704 179.964C135.308 179.808 134.936 179.58 134.588 179.28C134.144 179.58 133.664 179.808 133.148 179.964C132.632 180.108 132.038 180.18 131.366 180.18C129.914 180.18 128.768 179.862 127.928 179.226C127.1 178.59 126.686 177.72 126.686 176.616C126.686 175.872 126.896 175.23 127.316 174.69C127.736 174.15 128.444 173.604 129.44 173.052C128.78 171.996 128.45 170.994 128.45 170.046C128.45 169.422 128.582 168.876 128.846 168.408C129.11 167.928 129.476 167.556 129.944 167.292C130.424 167.028 130.97 166.896 131.582 166.896C132.146 166.896 132.65 167.004 133.094 167.22C133.538 167.436 133.886 167.736 134.138 168.12C134.39 168.504 134.516 168.942 134.516 169.434C134.516 170.106 134.258 170.754 133.742 171.378C133.238 171.99 132.482 172.56 131.474 173.088L134.84 177.462C135.152 177.006 135.392 176.496 135.56 175.932C135.728 175.368 135.812 174.774 135.812 174.15L134.426 173.808V173.07H138.188V173.808ZM131.582 179.136C132.038 179.136 132.44 179.088 132.788 178.992C133.136 178.896 133.466 178.74 133.778 178.524L130.106 173.826C129.602 174.09 129.206 174.468 128.918 174.96C128.63 175.452 128.486 175.998 128.486 176.598C128.486 177.402 128.756 178.026 129.296 178.47C129.836 178.914 130.598 179.136 131.582 179.136ZM129.98 169.632C129.98 170.052 130.052 170.478 130.196 170.91C130.34 171.33 130.562 171.78 130.862 172.26C131.714 171.792 132.326 171.342 132.698 170.91C133.082 170.478 133.274 170.016 133.274 169.524C133.274 169.032 133.112 168.63 132.788 168.318C132.464 168.006 132.038 167.85 131.51 167.85C131.018 167.85 130.64 168 130.376 168.3C130.112 168.6 129.98 169.044 129.98 169.632ZM152.81 178.848L151.748 175.644H146.924L145.826 178.848L147.32 179.226V180H143.108V179.226L144.584 178.848L148.904 166.86H150.578L154.844 178.848L156.284 179.226V180H151.334V179.226L152.81 178.848ZM149.39 168.462L147.284 174.6H151.406L149.462 168.462H149.39ZM156.807 175.23C156.807 174.45 156.909 173.706 157.113 172.998C157.317 172.29 157.623 171.714 158.031 171.27C158.379 170.886 158.793 170.598 159.273 170.406C159.753 170.202 160.305 170.1 160.929 170.1C161.457 170.1 161.937 170.202 162.369 170.406C162.813 170.61 163.209 170.976 163.557 171.504V167.04L162.171 166.698V165.96H165.303V178.92L166.689 179.262V180L163.899 180.18L163.755 178.704C163.383 179.256 162.963 179.64 162.495 179.856C162.027 180.072 161.505 180.18 160.929 180.18C160.317 180.18 159.765 180.09 159.273 179.91C158.781 179.73 158.373 179.442 158.049 179.046C157.665 178.578 157.359 178.02 157.131 177.372C156.915 176.712 156.807 175.998 156.807 175.23ZM163.557 175.212C163.557 174.48 163.503 173.844 163.395 173.304C163.287 172.764 163.131 172.326 162.927 171.99C162.735 171.678 162.501 171.444 162.225 171.288C161.949 171.12 161.583 171.036 161.127 171.036C160.719 171.036 160.359 171.108 160.047 171.252C159.747 171.396 159.501 171.606 159.309 171.882C159.093 172.182 158.937 172.614 158.841 173.178C158.745 173.73 158.697 174.366 158.697 175.086C158.697 175.806 158.751 176.436 158.859 176.976C158.967 177.504 159.123 177.942 159.327 178.29C159.531 178.59 159.771 178.824 160.047 178.992C160.335 179.16 160.701 179.244 161.145 179.244C161.565 179.244 161.925 179.178 162.225 179.046C162.537 178.902 162.771 178.692 162.927 178.416C163.131 178.08 163.287 177.648 163.395 177.12C163.503 176.58 163.557 175.944 163.557 175.212ZM173.229 180.18H171.375L168.171 171.36L167.163 171.018V170.28H171.195V171.018L170.007 171.36L172.545 178.902H172.617L175.155 171.36L174.039 171.018V170.28H177.459V171.018L176.415 171.36L173.229 180.18ZM179.669 171.36L178.283 171.018V170.28H181.415V178.92L182.801 179.262V180H178.283V179.262L179.669 178.92V171.36ZM179.417 167.382C179.417 167.034 179.519 166.758 179.723 166.554C179.927 166.35 180.197 166.248 180.533 166.248C180.881 166.248 181.157 166.35 181.361 166.554C181.565 166.758 181.667 167.034 181.667 167.382C181.667 167.718 181.565 167.988 181.361 168.192C181.157 168.396 180.881 168.498 180.533 168.498C180.185 168.498 179.909 168.402 179.705 168.21C179.513 168.006 179.417 167.73 179.417 167.382ZM187.634 179.352C188.306 179.352 188.852 179.214 189.272 178.938C189.704 178.662 189.92 178.278 189.92 177.786C189.92 177.39 189.788 177.072 189.524 176.832C189.26 176.592 188.93 176.4 188.534 176.256C188.15 176.1 187.76 175.968 187.364 175.86C186.872 175.704 186.398 175.524 185.942 175.32C185.486 175.104 185.114 174.81 184.826 174.438C184.538 174.066 184.394 173.574 184.394 172.962C184.394 172.098 184.706 171.408 185.33 170.892C185.966 170.364 186.848 170.1 187.976 170.1C188.936 170.1 189.692 170.304 190.244 170.712C190.808 171.108 191.09 171.654 191.09 172.35C191.09 172.722 191.006 173.022 190.838 173.25C190.67 173.466 190.43 173.574 190.118 173.574C189.842 173.574 189.614 173.49 189.434 173.322C189.254 173.154 189.164 172.938 189.164 172.674C189.164 172.446 189.224 172.242 189.344 172.062C189.464 171.87 189.62 171.732 189.812 171.648C189.632 171.396 189.398 171.216 189.11 171.108C188.834 170.988 188.474 170.928 188.03 170.928C187.31 170.928 186.77 171.06 186.41 171.324C186.05 171.576 185.87 171.954 185.87 172.458C185.87 172.818 185.954 173.106 186.122 173.322C186.302 173.526 186.56 173.7 186.896 173.844C187.232 173.988 187.646 174.138 188.138 174.294C188.546 174.414 188.948 174.552 189.344 174.708C189.74 174.852 190.1 175.032 190.424 175.248C190.748 175.464 191.006 175.734 191.198 176.058C191.39 176.382 191.486 176.784 191.486 177.264C191.486 177.876 191.318 178.404 190.982 178.848C190.646 179.28 190.184 179.61 189.596 179.838C189.008 180.066 188.33 180.18 187.562 180.18C186.506 180.18 185.654 179.964 185.006 179.532C184.358 179.1 184.034 178.518 184.034 177.786C184.034 177.402 184.118 177.102 184.286 176.886C184.466 176.658 184.718 176.544 185.042 176.544C185.33 176.544 185.57 176.628 185.762 176.796C185.966 176.964 186.068 177.186 186.068 177.462C186.068 177.69 186.002 177.906 185.87 178.11C185.75 178.314 185.6 178.464 185.42 178.56C185.576 178.788 185.852 178.98 186.248 179.136C186.656 179.28 187.118 179.352 187.634 179.352ZM201.943 175.05C201.943 175.83 201.823 176.574 201.583 177.282C201.355 177.978 201.031 178.554 200.611 179.01C200.251 179.406 199.807 179.7 199.279 179.892C198.751 180.084 198.151 180.18 197.479 180.18C196.819 180.18 196.231 180.09 195.715 179.91C195.199 179.718 194.761 179.43 194.401 179.046C193.993 178.602 193.675 178.056 193.447 177.408C193.231 176.748 193.123 176.034 193.123 175.266C193.123 174.486 193.237 173.742 193.465 173.034C193.693 172.314 194.023 171.726 194.455 171.27C194.839 170.862 195.283 170.568 195.787 170.388C196.303 170.196 196.891 170.1 197.551 170.1C198.211 170.1 198.805 170.196 199.333 170.388C199.861 170.568 200.305 170.85 200.665 171.234C201.085 171.678 201.403 172.236 201.619 172.908C201.835 173.568 201.943 174.282 201.943 175.05ZM195.049 175.068C195.049 175.8 195.103 176.436 195.211 176.976C195.331 177.504 195.493 177.942 195.697 178.29C195.901 178.59 196.141 178.824 196.417 178.992C196.705 179.16 197.077 179.244 197.533 179.244C198.361 179.244 198.979 178.962 199.387 178.398C199.603 178.086 199.759 177.654 199.855 177.102C199.963 176.55 200.017 175.914 200.017 175.194C200.017 174.474 199.957 173.844 199.837 173.304C199.729 172.764 199.573 172.326 199.369 171.99C199.177 171.678 198.931 171.444 198.631 171.288C198.343 171.12 197.971 171.036 197.515 171.036C196.675 171.036 196.069 171.312 195.697 171.864C195.265 172.536 195.049 173.604 195.049 175.068ZM208.837 171.324C208.789 171.288 208.729 171.264 208.657 171.252C208.597 171.228 208.537 171.216 208.477 171.216C208.333 171.216 208.177 171.282 208.009 171.414C207.841 171.546 207.679 171.726 207.523 171.954C207.367 172.17 207.223 172.422 207.091 172.71C206.923 173.118 206.791 173.568 206.695 174.06C206.599 174.54 206.551 175.038 206.551 175.554V178.92L208.495 179.262V180H203.419V179.262L204.805 178.92V171.36L203.419 171.018V170.28H206.011L206.407 172.656H206.479C206.755 171.84 207.127 171.21 207.595 170.766C208.063 170.322 208.579 170.1 209.143 170.1C209.611 170.1 210.001 170.25 210.313 170.55C210.625 170.838 210.781 171.228 210.781 171.72C210.781 172.08 210.685 172.368 210.493 172.584C210.313 172.788 210.067 172.89 209.755 172.89C209.443 172.89 209.197 172.794 209.017 172.602C208.837 172.398 208.747 172.134 208.747 171.81C208.747 171.738 208.753 171.672 208.765 171.612C208.777 171.54 208.801 171.444 208.837 171.324ZM220.268 171.36L217.28 179.568C216.944 180.492 216.638 181.236 216.362 181.8C216.086 182.376 215.78 182.79 215.444 183.042C215.108 183.294 214.676 183.42 214.148 183.42C213.584 183.42 213.098 183.27 212.69 182.97C212.294 182.67 212.096 182.292 212.096 181.836C212.096 181.5 212.192 181.218 212.384 180.99C212.576 180.774 212.828 180.666 213.14 180.666C213.416 180.666 213.632 180.738 213.788 180.882C213.956 181.038 214.04 181.248 214.04 181.512C214.04 181.68 214.004 181.842 213.932 181.998C213.872 182.154 213.788 182.292 213.68 182.412C213.704 182.532 213.776 182.61 213.896 182.646C214.016 182.694 214.118 182.718 214.202 182.718C214.37 182.718 214.526 182.676 214.67 182.592C214.814 182.508 214.964 182.328 215.12 182.052C215.288 181.788 215.468 181.368 215.66 180.792L215.876 180.126L212.15 171.36L211.07 171.018V170.28H215.102L215.246 171.018L213.968 171.36L216.65 178.416H216.722L218.99 171.36L217.946 171.018V170.28H221.366V171.018L220.268 171.36Z" fill="white"/>
</svg>
