<svg width="246" height="484" viewBox="0 0 246 484" fill="none" xmlns="http://www.w3.org/2000/svg">
<path d="M416.887 266.873C405.272 280.591 379.466 286.922 345.884 285.203C312.527 283.496 272.433 273.855 233.593 256.616C194.752 239.376 164.696 217.88 147.461 197.131C130.108 176.243 126.191 156.719 137.805 143C149.42 129.281 175.227 122.951 208.809 124.669C242.166 126.377 282.26 136.017 321.1 153.257C359.94 170.496 389.996 191.993 407.232 212.741C424.584 233.63 428.502 253.154 416.887 266.873Z" stroke="#7798F7" stroke-width="4"/>
<path d="M381.172 309.054C369.558 322.773 343.751 329.103 310.169 327.385C276.812 325.677 236.718 316.037 197.878 298.798C159.038 281.558 128.982 260.061 111.746 239.313C94.3935 218.424 90.4757 198.9 102.091 185.182C113.706 171.463 139.512 165.132 173.094 166.851C206.451 168.559 246.545 178.199 285.385 195.438C324.226 212.678 354.282 234.174 371.517 254.923C388.87 275.812 392.787 295.335 381.172 309.054Z" stroke="#7798F7" stroke-width="4"/>
<path d="M354.391 340.69C342.776 354.409 316.97 360.739 283.388 359.02C250.031 357.313 209.937 347.673 171.097 330.433C132.256 313.194 102.2 291.697 84.9644 270.948C67.6123 250.06 63.6945 230.536 75.3094 216.817C86.9243 203.098 112.731 196.768 146.313 198.487C179.67 200.194 219.764 209.834 258.604 227.074C297.444 244.313 327.5 265.81 344.736 286.559C362.088 307.447 366.006 326.971 354.391 340.69Z" stroke="#7798F7" stroke-width="4"/>
</svg>
