<svg width="274" height="214" viewBox="0 0 274 214" fill="none" xmlns="http://www.w3.org/2000/svg">
<rect width="274" height="214" fill="#2562F5"/>
<path d="M94.92 60.4H145V78.4H139.88L137.32 66.4H125.16V111.44L133.64 113.36V118H106.28V113.36L114.76 111.44V66.4H102.52L100.04 78.4H94.92V60.4ZM167.706 66.72V111.68L175.226 113.36V118H149.786V113.36L157.306 111.68V66.72L149.786 65.04V60.4H175.226V65.04L167.706 66.72Z" fill="white"/>
<path d="M58.286 152.04V155.82H57.35L56.774 153.12H53.822V163.794L55.73 164.226V165H50.114V164.226L52.022 163.794V153.12H49.052L48.494 155.82H47.558V152.04H58.286ZM60.6855 160.248C60.6855 161.124 60.8055 161.85 61.0455 162.426C61.2855 162.99 61.6215 163.392 62.0535 163.632C62.4975 163.86 62.9835 163.974 63.5115 163.974C64.0875 163.974 64.6035 163.86 65.0595 163.632C65.5275 163.392 65.9475 163.068 66.3195 162.66L66.8955 163.092C66.6795 163.38 66.4455 163.65 66.1935 163.902C65.9535 164.154 65.6775 164.376 65.3655 164.568C65.0535 164.76 64.7055 164.91 64.3215 165.018C63.9375 165.126 63.5115 165.18 63.0435 165.18C62.2155 165.18 61.4835 165.006 60.8475 164.658C60.2115 164.298 59.7255 163.776 59.3895 163.092C59.2095 162.72 59.0775 162.312 58.9935 161.868C58.9095 161.412 58.8675 160.92 58.8675 160.392C58.8675 158.7 59.2515 157.398 60.0195 156.486C60.7875 155.562 61.8435 155.1 63.1875 155.1C64.4235 155.1 65.3715 155.484 66.0315 156.252C66.6915 157.008 67.0215 158.058 67.0215 159.402C67.0215 159.522 67.0155 159.636 67.0035 159.744C67.0035 159.84 66.9915 160.008 66.9675 160.248H60.6855ZM63.0795 156.072C61.6395 156.072 60.8475 157.17 60.7035 159.366H65.2035V158.772C65.2035 157.908 65.0175 157.242 64.6455 156.774C64.2855 156.306 63.7635 156.072 63.0795 156.072ZM73.2485 155.1C74.2925 155.1 75.1205 155.358 75.7325 155.874C76.3565 156.378 76.6685 157.056 76.6685 157.908C76.6685 158.832 76.2965 159.294 75.5525 159.294C75.2045 159.294 74.9345 159.198 74.7425 159.006C74.5505 158.814 74.4545 158.556 74.4545 158.232C74.4545 157.932 74.5325 157.674 74.6885 157.458C74.8565 157.242 75.0785 157.092 75.3545 157.008C75.0065 156.348 74.3405 156.018 73.3565 156.018C72.3725 156.018 71.6525 156.336 71.1965 156.972C70.7525 157.608 70.5305 158.61 70.5305 159.978C70.5305 161.118 70.6865 161.988 70.9985 162.588C71.4785 163.512 72.2645 163.974 73.3565 163.974C73.9085 163.974 74.4365 163.854 74.9405 163.614C75.4445 163.374 75.8765 163.032 76.2365 162.588L76.7765 163.02C76.2965 163.764 75.7445 164.31 75.1205 164.658C74.4965 165.006 73.7645 165.18 72.9245 165.18C72.0845 165.18 71.3525 165.012 70.7285 164.676C70.1165 164.328 69.6365 163.824 69.2885 163.164C69.0845 162.78 68.9225 162.342 68.8025 161.85C68.6945 161.346 68.6405 160.812 68.6405 160.248C68.6405 159.468 68.7485 158.766 68.9645 158.142C69.1805 157.506 69.4865 156.966 69.8825 156.522C70.2905 156.066 70.7765 155.718 71.3405 155.478C71.9165 155.226 72.5525 155.1 73.2485 155.1ZM85.5269 159.906C85.5269 159.138 85.5029 158.562 85.4549 158.178C85.4189 157.782 85.3469 157.476 85.2389 157.26C84.9389 156.672 84.4109 156.378 83.6549 156.378C83.3189 156.378 82.9949 156.438 82.6829 156.558C82.3709 156.678 82.0949 156.84 81.8549 157.044C81.5909 157.284 81.3929 157.56 81.2609 157.872C81.1409 158.184 81.0689 158.574 81.0449 159.042V163.92L82.2509 164.262V165H77.9129V164.262L79.2989 163.92V152.04L77.9129 151.698V150.96H81.0449V156.972C81.4049 156.396 81.8789 155.94 82.4669 155.604C83.0669 155.268 83.7089 155.1 84.3929 155.1C84.8729 155.1 85.3049 155.184 85.6889 155.352C86.0729 155.52 86.3789 155.76 86.6069 156.072C86.8469 156.408 87.0149 156.882 87.1109 157.494C87.2189 158.094 87.2729 158.91 87.2729 159.942V163.92L88.6589 164.262V165H84.3209V164.262L85.5269 163.92V159.906ZM91.0809 156.36L89.6949 156.018V155.28H92.2869L92.6829 157.08H92.7549C93.1149 156.468 93.5949 155.988 94.1949 155.64C94.8069 155.28 95.4669 155.1 96.1749 155.1C96.6549 155.1 97.0869 155.184 97.4709 155.352C97.8549 155.52 98.1609 155.76 98.3889 156.072C98.6289 156.408 98.7969 156.882 98.8929 157.494C99.0009 158.094 99.0549 158.91 99.0549 159.942V163.92L100.441 164.262V165H96.1029V164.262L97.3089 163.92V159.906C97.3089 159.138 97.2849 158.562 97.2369 158.178C97.2009 157.782 97.1289 157.476 97.0209 157.26C96.7209 156.672 96.1929 156.378 95.4369 156.378C95.1009 156.378 94.7769 156.438 94.4649 156.558C94.1529 156.678 93.8769 156.84 93.6369 157.044C93.3729 157.284 93.1749 157.566 93.0429 157.89C92.9229 158.202 92.8509 158.61 92.8269 159.114V163.92L94.0329 164.262V165H89.6949V164.262L91.0809 163.92V156.36ZM110.49 160.05C110.49 160.842 110.37 161.586 110.13 162.282C109.902 162.978 109.578 163.554 109.158 164.01C108.45 164.79 107.406 165.18 106.026 165.18C104.682 165.18 103.656 164.802 102.948 164.046C102.54 163.602 102.222 163.056 101.994 162.408C101.778 161.748 101.67 161.034 101.67 160.266C101.67 159.474 101.784 158.724 102.012 158.016C102.24 157.308 102.57 156.726 103.002 156.27C103.386 155.862 103.83 155.568 104.334 155.388C104.838 155.196 105.426 155.1 106.098 155.1C106.758 155.1 107.352 155.196 107.88 155.388C108.408 155.568 108.852 155.85 109.212 156.234C109.632 156.678 109.95 157.236 110.166 157.908C110.382 158.568 110.49 159.282 110.49 160.05ZM103.596 160.068C103.596 161.508 103.812 162.582 104.244 163.29C104.448 163.602 104.688 163.842 104.964 164.01C105.252 164.166 105.624 164.244 106.08 164.244C106.908 164.244 107.526 163.962 107.934 163.398C108.15 163.086 108.306 162.654 108.402 162.102C108.51 161.55 108.564 160.914 108.564 160.194C108.564 158.766 108.348 157.698 107.916 156.99C107.712 156.678 107.466 156.444 107.178 156.288C106.89 156.12 106.518 156.036 106.062 156.036C105.222 156.036 104.616 156.312 104.244 156.864C103.812 157.536 103.596 158.604 103.596 160.068ZM113.208 152.04L111.822 151.698V150.96H114.954V163.92L116.34 164.262V165H111.822V164.262L113.208 163.92V152.04ZM126.503 160.05C126.503 160.842 126.383 161.586 126.143 162.282C125.915 162.978 125.591 163.554 125.171 164.01C124.463 164.79 123.419 165.18 122.039 165.18C120.695 165.18 119.669 164.802 118.961 164.046C118.553 163.602 118.235 163.056 118.007 162.408C117.791 161.748 117.683 161.034 117.683 160.266C117.683 159.474 117.797 158.724 118.025 158.016C118.253 157.308 118.583 156.726 119.015 156.27C119.399 155.862 119.843 155.568 120.347 155.388C120.851 155.196 121.439 155.1 122.111 155.1C122.771 155.1 123.365 155.196 123.893 155.388C124.421 155.568 124.865 155.85 125.225 156.234C125.645 156.678 125.963 157.236 126.179 157.908C126.395 158.568 126.503 159.282 126.503 160.05ZM119.609 160.068C119.609 161.508 119.825 162.582 120.257 163.29C120.461 163.602 120.701 163.842 120.977 164.01C121.265 164.166 121.637 164.244 122.093 164.244C122.921 164.244 123.539 163.962 123.947 163.398C124.163 163.086 124.319 162.654 124.415 162.102C124.523 161.55 124.577 160.914 124.577 160.194C124.577 158.766 124.361 157.698 123.929 156.99C123.725 156.678 123.479 156.444 123.191 156.288C122.903 156.12 122.531 156.036 122.075 156.036C121.235 156.036 120.629 156.312 120.257 156.864C119.825 157.536 119.609 158.604 119.609 160.068ZM136.458 165.18C136.458 165.636 136.356 166.056 136.152 166.44C135.96 166.824 135.672 167.154 135.288 167.43C134.916 167.706 134.454 167.922 133.902 168.078C133.362 168.234 132.75 168.312 132.066 168.312C130.686 168.312 129.642 168.114 128.934 167.718C128.226 167.334 127.872 166.782 127.872 166.062C127.872 165.498 128.04 165.066 128.376 164.766C128.712 164.466 129.174 164.268 129.762 164.172V164.1C128.97 163.872 128.574 163.404 128.574 162.696C128.574 162.324 128.706 161.982 128.97 161.67C129.246 161.346 129.672 161.082 130.248 160.878C129.648 160.662 129.186 160.326 128.862 159.87C128.55 159.414 128.394 158.856 128.394 158.196C128.394 157.716 128.478 157.29 128.646 156.918C128.826 156.534 129.072 156.21 129.384 155.946C129.708 155.67 130.092 155.46 130.536 155.316C130.992 155.172 131.502 155.1 132.066 155.1C133.182 155.1 134.064 155.376 134.712 155.928L135.324 155.712L136.98 154.92H137.286V156.504H136.98L135.72 156.36H135.108C135.456 156.84 135.63 157.416 135.63 158.088C135.63 159.036 135.306 159.786 134.658 160.338C134.01 160.878 133.104 161.148 131.94 161.148C131.808 161.148 131.682 161.148 131.562 161.148C131.454 161.136 131.34 161.124 131.22 161.112C130.272 161.256 129.798 161.61 129.798 162.174C129.798 162.45 129.906 162.642 130.122 162.75C130.338 162.846 130.758 162.894 131.382 162.894H133.47C134.454 162.894 135.198 163.08 135.702 163.452C136.206 163.812 136.458 164.388 136.458 165.18ZM131.508 164.28C130.704 164.28 130.122 164.418 129.762 164.694C129.402 164.97 129.222 165.33 129.222 165.774C129.222 166.866 130.158 167.412 132.03 167.412C133.05 167.412 133.824 167.256 134.352 166.944C134.892 166.644 135.162 166.188 135.162 165.576C135.162 165.096 134.976 164.76 134.604 164.568C134.244 164.376 133.602 164.28 132.678 164.28H131.508ZM129.978 158.124C129.978 158.844 130.14 159.39 130.464 159.762C130.788 160.134 131.304 160.32 132.012 160.32C132.72 160.32 133.236 160.134 133.56 159.762C133.884 159.39 134.046 158.844 134.046 158.124C134.046 157.404 133.884 156.858 133.56 156.486C133.236 156.114 132.72 155.928 132.012 155.928C131.304 155.928 130.788 156.114 130.464 156.486C130.14 156.858 129.978 157.404 129.978 158.124ZM143.668 164.568C143.416 165.264 143.182 165.858 142.966 166.35C142.762 166.842 142.546 167.238 142.318 167.538C142.09 167.85 141.832 168.072 141.544 168.204C141.268 168.348 140.932 168.42 140.536 168.42C140.248 168.42 139.978 168.378 139.726 168.294C139.486 168.222 139.27 168.114 139.078 167.97C138.898 167.826 138.754 167.658 138.646 167.466C138.538 167.274 138.484 167.064 138.484 166.836C138.484 166.5 138.58 166.218 138.772 165.99C138.964 165.774 139.216 165.666 139.528 165.666C139.804 165.666 140.02 165.738 140.176 165.882C140.344 166.038 140.428 166.248 140.428 166.512C140.428 166.68 140.392 166.842 140.32 166.998C140.26 167.154 140.176 167.292 140.068 167.412C140.092 167.544 140.158 167.628 140.266 167.664C140.386 167.7 140.494 167.718 140.59 167.718C140.71 167.718 140.824 167.7 140.932 167.664C141.052 167.628 141.166 167.538 141.274 167.394C141.394 167.262 141.514 167.07 141.634 166.818C141.766 166.566 141.904 166.224 142.048 165.792L142.264 165.126L138.538 156.36L137.458 156.018V155.28H141.49L141.634 156.018L140.356 156.36L143.038 163.416H143.11L145.378 156.36L144.334 156.018V155.28H147.754V156.018L146.656 156.36L143.668 164.568ZM163.404 159.15C163.404 159.882 163.296 160.62 163.08 161.364C162.864 162.096 162.564 162.75 162.18 163.326C162.3 163.578 162.504 163.788 162.792 163.956C163.08 164.124 163.386 164.208 163.71 164.208C163.998 164.208 164.286 164.136 164.574 163.992C164.874 163.848 165.114 163.656 165.294 163.416L165.762 164.082C165.246 164.814 164.496 165.18 163.512 165.18C162.66 165.18 161.88 164.88 161.172 164.28C160.728 164.592 160.248 164.82 159.732 164.964C159.228 165.108 158.634 165.18 157.95 165.18C156.474 165.18 155.322 164.868 154.494 164.244C153.678 163.62 153.27 162.744 153.27 161.616C153.27 161.244 153.318 160.902 153.414 160.59C153.522 160.278 153.684 159.978 153.9 159.69C154.116 159.402 154.398 159.126 154.746 158.862C155.094 158.598 155.52 158.328 156.024 158.052C155.364 156.996 155.034 155.994 155.034 155.046C155.034 154.578 155.106 154.152 155.25 153.768C155.406 153.384 155.622 153.054 155.898 152.778C156.174 152.49 156.504 152.274 156.888 152.13C157.272 151.974 157.698 151.896 158.166 151.896C158.586 151.896 158.976 151.962 159.336 152.094C159.696 152.214 160.002 152.388 160.254 152.616C160.518 152.844 160.722 153.114 160.866 153.426C161.022 153.726 161.1 154.062 161.1 154.434C161.1 155.814 160.062 157.032 157.986 158.088L161.424 162.462C161.736 162.006 161.976 161.496 162.144 160.932C162.312 160.368 162.396 159.774 162.396 159.15L161.01 158.808V158.07H164.772V158.808L163.404 159.15ZM158.166 164.136C158.622 164.136 159.024 164.088 159.372 163.992C159.72 163.896 160.05 163.74 160.362 163.524L156.69 158.826C156.186 159.102 155.79 159.48 155.502 159.96C155.214 160.44 155.07 160.986 155.07 161.598C155.07 162.426 155.334 163.056 155.862 163.488C156.39 163.92 157.158 164.136 158.166 164.136ZM156.564 154.632C156.564 155.052 156.63 155.478 156.762 155.91C156.906 156.33 157.134 156.78 157.446 157.26C158.31 156.792 158.928 156.348 159.3 155.928C159.672 155.496 159.858 155.028 159.858 154.524C159.858 154.02 159.696 153.618 159.372 153.318C159.06 153.006 158.634 152.85 158.094 152.85C157.074 152.85 156.564 153.444 156.564 154.632ZM101.539 184.848L103.231 185.226V186H98.0474V185.226L99.7394 184.848V174.192L98.0474 173.814V173.04H103.231V173.814L101.539 174.192V184.848ZM106.04 177.36L104.654 177.018V176.28H107.246L107.642 178.08H107.714C108.062 177.468 108.524 176.988 109.1 176.64C109.688 176.28 110.312 176.1 110.972 176.1C111.476 176.1 111.914 176.196 112.286 176.388C112.67 176.568 112.952 176.796 113.132 177.072C113.324 177.372 113.48 177.768 113.6 178.26C113.984 177.576 114.482 177.048 115.094 176.676C115.706 176.292 116.36 176.1 117.056 176.1C117.536 176.1 117.968 176.196 118.352 176.388C118.736 176.568 119.03 176.82 119.234 177.144C119.342 177.312 119.432 177.516 119.504 177.756C119.576 177.996 119.636 178.296 119.684 178.656C119.732 179.004 119.762 179.418 119.774 179.898C119.798 180.378 119.81 180.942 119.81 181.59V184.92L121.196 185.262V186H116.858V185.262L118.064 184.92V180.906C118.064 180.138 118.04 179.562 117.992 179.178C117.956 178.782 117.884 178.476 117.776 178.26C117.476 177.672 116.972 177.378 116.264 177.378C115.952 177.378 115.652 177.438 115.364 177.558C115.088 177.678 114.836 177.84 114.608 178.044C114.344 178.284 114.146 178.566 114.014 178.89C113.894 179.202 113.822 179.61 113.798 180.114V184.92L115.004 185.262V186H110.846V185.262L112.052 184.92V180.906C112.052 180.138 112.028 179.562 111.98 179.178C111.944 178.782 111.872 178.476 111.764 178.26C111.464 177.672 110.96 177.378 110.252 177.378C109.94 177.378 109.64 177.438 109.352 177.558C109.076 177.678 108.824 177.84 108.596 178.044C108.332 178.284 108.134 178.566 108.002 178.89C107.882 179.202 107.81 179.61 107.786 180.114V184.92L108.992 185.262V186H104.654V185.262L106.04 184.92V177.36ZM126.877 188.502V189.24H121.999V188.502L123.385 188.16V177.36L121.999 177.018V176.28H124.591L124.861 177.666C125.245 177.066 125.677 176.658 126.157 176.442C126.649 176.214 127.201 176.1 127.813 176.1C128.425 176.1 128.977 176.19 129.469 176.37C129.973 176.55 130.381 176.838 130.693 177.234C131.053 177.69 131.335 178.236 131.539 178.872C131.755 179.508 131.863 180.204 131.863 180.96C131.863 181.728 131.743 182.454 131.503 183.138C131.275 183.81 130.963 184.374 130.567 184.83C129.895 185.61 128.929 186 127.669 186C127.153 186 126.685 185.904 126.265 185.712C125.857 185.52 125.479 185.172 125.131 184.668V188.16L126.877 188.502ZM125.113 180.978C125.113 182.406 125.323 183.45 125.743 184.11C125.935 184.422 126.169 184.662 126.445 184.83C126.721 184.986 127.087 185.064 127.543 185.064C128.359 185.064 128.965 184.782 129.361 184.218C129.577 183.918 129.733 183.504 129.829 182.976C129.925 182.436 129.973 181.812 129.973 181.104C129.973 179.7 129.763 178.662 129.343 177.99C129.139 177.678 128.899 177.444 128.623 177.288C128.347 177.12 127.981 177.036 127.525 177.036C127.105 177.036 126.745 177.108 126.445 177.252C126.145 177.384 125.911 177.588 125.743 177.864C125.539 178.188 125.383 178.608 125.275 179.124C125.167 179.64 125.113 180.258 125.113 180.978ZM134.583 173.04L133.197 172.698V171.96H136.329V184.92L137.715 185.262V186H133.197V185.262L134.583 184.92V173.04ZM140.894 181.248C140.894 182.124 141.014 182.85 141.254 183.426C141.494 183.99 141.83 184.392 142.262 184.632C142.706 184.86 143.192 184.974 143.72 184.974C144.296 184.974 144.812 184.86 145.268 184.632C145.736 184.392 146.156 184.068 146.528 183.66L147.104 184.092C146.888 184.38 146.654 184.65 146.402 184.902C146.162 185.154 145.886 185.376 145.574 185.568C145.262 185.76 144.914 185.91 144.53 186.018C144.146 186.126 143.72 186.18 143.252 186.18C142.424 186.18 141.692 186.006 141.056 185.658C140.42 185.298 139.934 184.776 139.598 184.092C139.418 183.72 139.286 183.312 139.202 182.868C139.118 182.412 139.076 181.92 139.076 181.392C139.076 179.7 139.46 178.398 140.228 177.486C140.996 176.562 142.052 176.1 143.396 176.1C144.632 176.1 145.58 176.484 146.24 177.252C146.9 178.008 147.23 179.058 147.23 180.402C147.23 180.522 147.224 180.636 147.212 180.744C147.212 180.84 147.2 181.008 147.176 181.248H140.894ZM143.288 177.072C141.848 177.072 141.056 178.17 140.912 180.366H145.412V179.772C145.412 178.908 145.226 178.242 144.854 177.774C144.494 177.306 143.972 177.072 143.288 177.072ZM150.055 177.36L148.669 177.018V176.28H151.261L151.657 178.08H151.729C152.077 177.468 152.539 176.988 153.115 176.64C153.703 176.28 154.327 176.1 154.987 176.1C155.491 176.1 155.929 176.196 156.301 176.388C156.685 176.568 156.967 176.796 157.147 177.072C157.339 177.372 157.495 177.768 157.615 178.26C157.999 177.576 158.497 177.048 159.109 176.676C159.721 176.292 160.375 176.1 161.071 176.1C161.551 176.1 161.983 176.196 162.367 176.388C162.751 176.568 163.045 176.82 163.249 177.144C163.357 177.312 163.447 177.516 163.519 177.756C163.591 177.996 163.651 178.296 163.699 178.656C163.747 179.004 163.777 179.418 163.789 179.898C163.813 180.378 163.825 180.942 163.825 181.59V184.92L165.211 185.262V186H160.873V185.262L162.079 184.92V180.906C162.079 180.138 162.055 179.562 162.007 179.178C161.971 178.782 161.899 178.476 161.791 178.26C161.491 177.672 160.987 177.378 160.279 177.378C159.967 177.378 159.667 177.438 159.379 177.558C159.103 177.678 158.851 177.84 158.623 178.044C158.359 178.284 158.161 178.566 158.029 178.89C157.909 179.202 157.837 179.61 157.813 180.114V184.92L159.019 185.262V186H154.861V185.262L156.067 184.92V180.906C156.067 180.138 156.043 179.562 155.995 179.178C155.959 178.782 155.887 178.476 155.779 178.26C155.479 177.672 154.975 177.378 154.267 177.378C153.955 177.378 153.655 177.438 153.367 177.558C153.091 177.678 152.839 177.84 152.611 178.044C152.347 178.284 152.149 178.566 152.017 178.89C151.897 179.202 151.825 179.61 151.801 180.114V184.92L153.007 185.262V186H148.669V185.262L150.055 184.92V177.36ZM168.228 181.248C168.228 182.124 168.348 182.85 168.588 183.426C168.828 183.99 169.164 184.392 169.596 184.632C170.04 184.86 170.526 184.974 171.054 184.974C171.63 184.974 172.146 184.86 172.602 184.632C173.07 184.392 173.49 184.068 173.862 183.66L174.438 184.092C174.222 184.38 173.988 184.65 173.736 184.902C173.496 185.154 173.22 185.376 172.908 185.568C172.596 185.76 172.248 185.91 171.864 186.018C171.48 186.126 171.054 186.18 170.586 186.18C169.758 186.18 169.026 186.006 168.39 185.658C167.754 185.298 167.268 184.776 166.932 184.092C166.752 183.72 166.62 183.312 166.536 182.868C166.452 182.412 166.41 181.92 166.41 181.392C166.41 179.7 166.794 178.398 167.562 177.486C168.33 176.562 169.386 176.1 170.73 176.1C171.966 176.1 172.914 176.484 173.574 177.252C174.234 178.008 174.564 179.058 174.564 180.402C174.564 180.522 174.558 180.636 174.546 180.744C174.546 180.84 174.534 181.008 174.51 181.248H168.228ZM170.622 177.072C169.182 177.072 168.39 178.17 168.246 180.366H172.746V179.772C172.746 178.908 172.56 178.242 172.188 177.774C171.828 177.306 171.306 177.072 170.622 177.072ZM177.389 177.36L176.003 177.018V176.28H178.595L178.991 178.08H179.063C179.423 177.468 179.903 176.988 180.503 176.64C181.115 176.28 181.775 176.1 182.483 176.1C182.963 176.1 183.395 176.184 183.779 176.352C184.163 176.52 184.469 176.76 184.697 177.072C184.937 177.408 185.105 177.882 185.201 178.494C185.309 179.094 185.363 179.91 185.363 180.942V184.92L186.749 185.262V186H182.411V185.262L183.617 184.92V180.906C183.617 180.138 183.593 179.562 183.545 179.178C183.509 178.782 183.437 178.476 183.329 178.26C183.029 177.672 182.501 177.378 181.745 177.378C181.409 177.378 181.085 177.438 180.773 177.558C180.461 177.678 180.185 177.84 179.945 178.044C179.681 178.284 179.483 178.566 179.351 178.89C179.231 179.202 179.159 179.61 179.135 180.114V184.92L180.341 185.262V186H176.003V185.262L177.389 184.92V177.36ZM187.312 176.532L189.058 176.28L189.292 174.012L190.804 173.796V176.28H193.108V177.18H190.804V183.606C190.804 184.014 190.81 184.296 190.822 184.452C190.834 184.596 190.858 184.716 190.894 184.812C190.93 184.908 190.996 184.968 191.092 184.992C191.188 185.016 191.344 185.028 191.56 185.028H192.82V185.55C192.244 185.766 191.734 185.922 191.29 186.018C190.858 186.126 190.51 186.18 190.246 186.18C189.706 186.18 189.358 185.958 189.202 185.514C189.142 185.37 189.1 185.19 189.076 184.974C189.064 184.746 189.058 184.404 189.058 183.948V177.18H187.312V176.532ZM193.969 183.894C193.969 183.426 194.071 183.012 194.275 182.652C194.491 182.292 194.827 181.974 195.283 181.698C195.739 181.41 196.327 181.164 197.047 180.96C197.767 180.756 198.631 180.576 199.639 180.42C199.579 179.712 199.507 179.16 199.423 178.764C199.351 178.368 199.249 178.05 199.117 177.81C198.949 177.498 198.715 177.27 198.415 177.126C198.115 176.97 197.791 176.892 197.443 176.892C197.107 176.892 196.801 176.952 196.525 177.072C196.261 177.192 196.081 177.354 195.985 177.558C196.153 177.69 196.273 177.852 196.345 178.044C196.429 178.224 196.471 178.398 196.471 178.566C196.471 178.866 196.369 179.106 196.165 179.286C195.973 179.454 195.733 179.538 195.445 179.538C195.157 179.538 194.917 179.442 194.725 179.25C194.545 179.058 194.455 178.788 194.455 178.44C194.455 178.068 194.557 177.738 194.761 177.45C194.965 177.15 195.229 176.904 195.553 176.712C195.889 176.508 196.261 176.358 196.669 176.262C197.089 176.154 197.503 176.1 197.911 176.1C198.931 176.1 199.735 176.394 200.323 176.982C201.067 177.726 201.439 179.046 201.439 180.942V183.552C201.439 184.152 201.475 184.566 201.547 184.794C201.631 185.01 201.805 185.118 202.069 185.118H202.879V185.658C202.015 186.006 201.343 186.18 200.863 186.18C200.683 186.18 200.533 186.15 200.413 186.09C200.293 186.03 200.197 185.928 200.125 185.784C200.053 185.628 199.999 185.424 199.963 185.172C199.939 184.92 199.927 184.602 199.927 184.218H199.855C199.483 184.83 198.991 185.31 198.379 185.658C197.767 186.006 197.107 186.18 196.399 186.18C195.643 186.18 195.049 185.982 194.617 185.586C194.185 185.178 193.969 184.614 193.969 183.894ZM197.155 185.136C197.491 185.136 197.839 185.052 198.199 184.884C198.571 184.704 198.883 184.458 199.135 184.146C199.507 183.69 199.693 183.018 199.693 182.13C199.693 181.926 199.687 181.728 199.675 181.536C199.663 181.332 199.645 181.14 199.621 180.96C198.889 181.104 198.277 181.254 197.785 181.41C197.305 181.566 196.915 181.746 196.615 181.95C196.327 182.142 196.123 182.37 196.003 182.634C195.883 182.886 195.823 183.18 195.823 183.516C195.823 184.032 195.937 184.434 196.165 184.722C196.405 184.998 196.735 185.136 197.155 185.136ZM203.115 176.532L204.861 176.28L205.095 174.012L206.607 173.796V176.28H208.911V177.18H206.607V183.606C206.607 184.014 206.613 184.296 206.625 184.452C206.637 184.596 206.661 184.716 206.697 184.812C206.733 184.908 206.799 184.968 206.895 184.992C206.991 185.016 207.147 185.028 207.363 185.028H208.623V185.55C208.047 185.766 207.537 185.922 207.093 186.018C206.661 186.126 206.313 186.18 206.049 186.18C205.509 186.18 205.161 185.958 205.005 185.514C204.945 185.37 204.903 185.19 204.879 184.974C204.867 184.746 204.861 184.404 204.861 183.948V177.18H203.115V176.532ZM209.736 177.018V176.28H212.868V184.92L214.254 185.262V186H209.736V185.262L211.122 184.92V177.36L209.736 177.018ZM210.87 173.382C210.87 173.034 210.966 172.758 211.158 172.554C211.362 172.35 211.638 172.248 211.986 172.248C212.334 172.248 212.61 172.35 212.814 172.554C213.018 172.758 213.12 173.034 213.12 173.382C213.12 173.73 213.018 174.006 212.814 174.21C212.61 174.402 212.334 174.498 211.986 174.498C211.638 174.498 211.362 174.402 211.158 174.21C210.966 174.006 210.87 173.73 210.87 173.382ZM224.343 181.05C224.343 181.842 224.223 182.586 223.983 183.282C223.755 183.978 223.431 184.554 223.011 185.01C222.303 185.79 221.259 186.18 219.879 186.18C218.535 186.18 217.509 185.802 216.801 185.046C216.393 184.602 216.075 184.056 215.847 183.408C215.631 182.748 215.523 182.034 215.523 181.266C215.523 180.474 215.637 179.724 215.865 179.016C216.093 178.308 216.423 177.726 216.855 177.27C217.239 176.862 217.683 176.568 218.187 176.388C218.691 176.196 219.279 176.1 219.951 176.1C220.611 176.1 221.205 176.196 221.733 176.388C222.261 176.568 222.705 176.85 223.065 177.234C223.485 177.678 223.803 178.236 224.019 178.908C224.235 179.568 224.343 180.282 224.343 181.05ZM217.449 181.068C217.449 182.508 217.665 183.582 218.097 184.29C218.301 184.602 218.541 184.842 218.817 185.01C219.105 185.166 219.477 185.244 219.933 185.244C220.761 185.244 221.379 184.962 221.787 184.398C222.003 184.086 222.159 183.654 222.255 183.102C222.363 182.55 222.417 181.914 222.417 181.194C222.417 179.766 222.201 178.698 221.769 177.99C221.565 177.678 221.319 177.444 221.031 177.288C220.743 177.12 220.371 177.036 219.915 177.036C219.075 177.036 218.469 177.312 218.097 177.864C217.665 178.536 217.449 179.604 217.449 181.068ZM227.206 177.36L225.82 177.018V176.28H228.412L228.808 178.08H228.88C229.24 177.468 229.72 176.988 230.32 176.64C230.932 176.28 231.592 176.1 232.3 176.1C232.78 176.1 233.212 176.184 233.596 176.352C233.98 176.52 234.286 176.76 234.514 177.072C234.754 177.408 234.922 177.882 235.018 178.494C235.126 179.094 235.18 179.91 235.18 180.942V184.92L236.566 185.262V186H232.228V185.262L233.434 184.92V180.906C233.434 180.138 233.41 179.562 233.362 179.178C233.326 178.782 233.254 178.476 233.146 178.26C232.846 177.672 232.318 177.378 231.562 177.378C231.226 177.378 230.902 177.438 230.59 177.558C230.278 177.678 230.002 177.84 229.762 178.044C229.498 178.284 229.3 178.566 229.168 178.89C229.048 179.202 228.976 179.61 228.952 180.114V184.92L230.158 185.262V186H225.82V185.262L227.206 184.92V177.36Z" fill="white"/>
</svg>
